G04 #@! TF.FileFunction,Soldermask,Bot*
%FSLAX46Y46*%
G04 Gerber Fmt 4.6, Leading zero omitted, Abs format (unit mm)*
G04 Created by KiCad (PCBNEW 4.0.6) date 06/27/17 19:22:01*
%MOMM*%
%LPD*%
G01*
G04 APERTURE LIST*
%ADD10C,0.100000*%
%ADD11C,0.010000*%
%ADD12R,2.100000X2.100000*%
%ADD13O,2.100000X2.100000*%
%ADD14R,0.900000X1.300000*%
%ADD15R,2.300000X2.300000*%
%ADD16R,1.750000X0.800000*%
%ADD17R,2.000000X2.500000*%
%ADD18R,2.300000X2.200000*%
%ADD19O,2.900000X1.300000*%
%ADD20O,1.300000X2.900000*%
%ADD21R,6.400000X6.400000*%
%ADD22R,1.150000X1.200000*%
%ADD23R,1.200000X1.150000*%
%ADD24R,0.850000X1.000000*%
%ADD25R,1.000000X0.850000*%
%ADD26R,3.900000X1.400000*%
%ADD27R,3.800000X1.900000*%
%ADD28R,1.300000X1.200000*%
%ADD29R,1.200000X1.300000*%
%ADD30R,1.300000X0.900000*%
%ADD31R,1.600000X2.900000*%
%ADD32R,1.460000X1.050000*%
%ADD33O,1.250000X0.700000*%
%ADD34O,0.700000X1.250000*%
%ADD35R,2.075000X2.075000*%
%ADD36R,1.950000X1.000000*%
%ADD37R,2.400000X3.400000*%
%ADD38R,0.700000X1.650000*%
%ADD39R,1.799540X1.598880*%
%ADD40R,1.799540X1.400760*%
%ADD41R,1.300000X2.900000*%
%ADD42R,1.850000X0.850000*%
%ADD43R,1.700000X1.700000*%
%ADD44R,1.200000X0.750000*%
%ADD45R,0.750000X1.200000*%
%ADD46R,1.650000X1.650000*%
%ADD47C,4.400000*%
%ADD48R,0.800000X1.460000*%
%ADD49C,2.100000*%
%ADD50R,3.200000X3.200000*%
%ADD51R,2.400000X3.200000*%
%ADD52R,2.600000X3.200000*%
%ADD53C,1.400000*%
%ADD54R,1.400000X3.900000*%
%ADD55R,1.900000X3.800000*%
%ADD56C,0.908000*%
%ADD57C,1.900000*%
%ADD58R,0.705000X1.213000*%
%ADD59R,1.213000X0.705000*%
%ADD60C,2.900000*%
%ADD61C,1.924000*%
G04 APERTURE END LIST*
D10*
D11*
G36*
X141544572Y-27975854D02*
X141503558Y-28003382D01*
X141466419Y-28039758D01*
X141436839Y-28081129D01*
X141428344Y-28097365D01*
X141411325Y-28133675D01*
X141411325Y-28566463D01*
X141427979Y-28588194D01*
X141439397Y-28599951D01*
X141456657Y-28612113D01*
X141481758Y-28625893D01*
X141516700Y-28642504D01*
X141520054Y-28644025D01*
X141548930Y-28657046D01*
X141573933Y-28668255D01*
X141592620Y-28676561D01*
X141602547Y-28680873D01*
X141603125Y-28681107D01*
X141605205Y-28678992D01*
X141606962Y-28670294D01*
X141608433Y-28654115D01*
X141609654Y-28629556D01*
X141610661Y-28595719D01*
X141611489Y-28551706D01*
X141612175Y-28496618D01*
X141612650Y-28443302D01*
X141614525Y-28202516D01*
X141632246Y-28179293D01*
X141659245Y-28152927D01*
X141690661Y-28137955D01*
X141725137Y-28134882D01*
X141743099Y-28137966D01*
X141772070Y-28149861D01*
X141795037Y-28170267D01*
X141807678Y-28188264D01*
X141809671Y-28191664D01*
X141811452Y-28195430D01*
X141813033Y-28200257D01*
X141814426Y-28206841D01*
X141815643Y-28215876D01*
X141816696Y-28228058D01*
X141817597Y-28244081D01*
X141818358Y-28264642D01*
X141818990Y-28290435D01*
X141819506Y-28322155D01*
X141819917Y-28360498D01*
X141820236Y-28406158D01*
X141820474Y-28459831D01*
X141820644Y-28522212D01*
X141820757Y-28593996D01*
X141820824Y-28675879D01*
X141820859Y-28768555D01*
X141820873Y-28872720D01*
X141820877Y-28957902D01*
X141820892Y-29072500D01*
X141820910Y-29175089D01*
X141820899Y-29266360D01*
X141820828Y-29347004D01*
X141820666Y-29417712D01*
X141820383Y-29479175D01*
X141819947Y-29532085D01*
X141819326Y-29577131D01*
X141818491Y-29615006D01*
X141817409Y-29646401D01*
X141816050Y-29672005D01*
X141814383Y-29692511D01*
X141812377Y-29708609D01*
X141810000Y-29720990D01*
X141807222Y-29730346D01*
X141804011Y-29737367D01*
X141800337Y-29742745D01*
X141796168Y-29747170D01*
X141791473Y-29751334D01*
X141786222Y-29755927D01*
X141784955Y-29757095D01*
X141756642Y-29775734D01*
X141725244Y-29783398D01*
X141693265Y-29780517D01*
X141663207Y-29767519D01*
X141637576Y-29744835D01*
X141627225Y-29730036D01*
X141623426Y-29722728D01*
X141620408Y-29714129D01*
X141618045Y-29702663D01*
X141616210Y-29686756D01*
X141614776Y-29664832D01*
X141613615Y-29635318D01*
X141612600Y-29596637D01*
X141611605Y-29547216D01*
X141611350Y-29533366D01*
X141608175Y-29358257D01*
X141591335Y-29332829D01*
X141582635Y-29321329D01*
X141571898Y-29311399D01*
X141556753Y-29301519D01*
X141534832Y-29290171D01*
X141503766Y-29275837D01*
X141499260Y-29273822D01*
X141470327Y-29260942D01*
X141445217Y-29249827D01*
X141426409Y-29241570D01*
X141416379Y-29237263D01*
X141415831Y-29237043D01*
X141413816Y-29238361D01*
X141412180Y-29244686D01*
X141410902Y-29256979D01*
X141409959Y-29276204D01*
X141409329Y-29303324D01*
X141408989Y-29339300D01*
X141408917Y-29385097D01*
X141409090Y-29441676D01*
X141409481Y-29509259D01*
X141411325Y-29784675D01*
X141428344Y-29820984D01*
X141456390Y-29866659D01*
X141493948Y-29906388D01*
X141538211Y-29937313D01*
X141547016Y-29941892D01*
X141588790Y-29962475D01*
X141709608Y-29964079D01*
X141753259Y-29964512D01*
X141786420Y-29964394D01*
X141811294Y-29963573D01*
X141830085Y-29961900D01*
X141844997Y-29959225D01*
X141858232Y-29955397D01*
X141863262Y-29953616D01*
X141914727Y-29928520D01*
X141957911Y-29893951D01*
X141993232Y-29849523D01*
X142010030Y-29819600D01*
X142027275Y-29784675D01*
X142027275Y-28133675D01*
X142008616Y-28095575D01*
X141982008Y-28053574D01*
X141946409Y-28015291D01*
X141905526Y-27984435D01*
X141887575Y-27974534D01*
X141849475Y-27955875D01*
X141582775Y-27955875D01*
X141544572Y-27975854D01*
X141544572Y-27975854D01*
G37*
X141544572Y-27975854D02*
X141503558Y-28003382D01*
X141466419Y-28039758D01*
X141436839Y-28081129D01*
X141428344Y-28097365D01*
X141411325Y-28133675D01*
X141411325Y-28566463D01*
X141427979Y-28588194D01*
X141439397Y-28599951D01*
X141456657Y-28612113D01*
X141481758Y-28625893D01*
X141516700Y-28642504D01*
X141520054Y-28644025D01*
X141548930Y-28657046D01*
X141573933Y-28668255D01*
X141592620Y-28676561D01*
X141602547Y-28680873D01*
X141603125Y-28681107D01*
X141605205Y-28678992D01*
X141606962Y-28670294D01*
X141608433Y-28654115D01*
X141609654Y-28629556D01*
X141610661Y-28595719D01*
X141611489Y-28551706D01*
X141612175Y-28496618D01*
X141612650Y-28443302D01*
X141614525Y-28202516D01*
X141632246Y-28179293D01*
X141659245Y-28152927D01*
X141690661Y-28137955D01*
X141725137Y-28134882D01*
X141743099Y-28137966D01*
X141772070Y-28149861D01*
X141795037Y-28170267D01*
X141807678Y-28188264D01*
X141809671Y-28191664D01*
X141811452Y-28195430D01*
X141813033Y-28200257D01*
X141814426Y-28206841D01*
X141815643Y-28215876D01*
X141816696Y-28228058D01*
X141817597Y-28244081D01*
X141818358Y-28264642D01*
X141818990Y-28290435D01*
X141819506Y-28322155D01*
X141819917Y-28360498D01*
X141820236Y-28406158D01*
X141820474Y-28459831D01*
X141820644Y-28522212D01*
X141820757Y-28593996D01*
X141820824Y-28675879D01*
X141820859Y-28768555D01*
X141820873Y-28872720D01*
X141820877Y-28957902D01*
X141820892Y-29072500D01*
X141820910Y-29175089D01*
X141820899Y-29266360D01*
X141820828Y-29347004D01*
X141820666Y-29417712D01*
X141820383Y-29479175D01*
X141819947Y-29532085D01*
X141819326Y-29577131D01*
X141818491Y-29615006D01*
X141817409Y-29646401D01*
X141816050Y-29672005D01*
X141814383Y-29692511D01*
X141812377Y-29708609D01*
X141810000Y-29720990D01*
X141807222Y-29730346D01*
X141804011Y-29737367D01*
X141800337Y-29742745D01*
X141796168Y-29747170D01*
X141791473Y-29751334D01*
X141786222Y-29755927D01*
X141784955Y-29757095D01*
X141756642Y-29775734D01*
X141725244Y-29783398D01*
X141693265Y-29780517D01*
X141663207Y-29767519D01*
X141637576Y-29744835D01*
X141627225Y-29730036D01*
X141623426Y-29722728D01*
X141620408Y-29714129D01*
X141618045Y-29702663D01*
X141616210Y-29686756D01*
X141614776Y-29664832D01*
X141613615Y-29635318D01*
X141612600Y-29596637D01*
X141611605Y-29547216D01*
X141611350Y-29533366D01*
X141608175Y-29358257D01*
X141591335Y-29332829D01*
X141582635Y-29321329D01*
X141571898Y-29311399D01*
X141556753Y-29301519D01*
X141534832Y-29290171D01*
X141503766Y-29275837D01*
X141499260Y-29273822D01*
X141470327Y-29260942D01*
X141445217Y-29249827D01*
X141426409Y-29241570D01*
X141416379Y-29237263D01*
X141415831Y-29237043D01*
X141413816Y-29238361D01*
X141412180Y-29244686D01*
X141410902Y-29256979D01*
X141409959Y-29276204D01*
X141409329Y-29303324D01*
X141408989Y-29339300D01*
X141408917Y-29385097D01*
X141409090Y-29441676D01*
X141409481Y-29509259D01*
X141411325Y-29784675D01*
X141428344Y-29820984D01*
X141456390Y-29866659D01*
X141493948Y-29906388D01*
X141538211Y-29937313D01*
X141547016Y-29941892D01*
X141588790Y-29962475D01*
X141709608Y-29964079D01*
X141753259Y-29964512D01*
X141786420Y-29964394D01*
X141811294Y-29963573D01*
X141830085Y-29961900D01*
X141844997Y-29959225D01*
X141858232Y-29955397D01*
X141863262Y-29953616D01*
X141914727Y-29928520D01*
X141957911Y-29893951D01*
X141993232Y-29849523D01*
X142010030Y-29819600D01*
X142027275Y-29784675D01*
X142027275Y-28133675D01*
X142008616Y-28095575D01*
X141982008Y-28053574D01*
X141946409Y-28015291D01*
X141905526Y-27984435D01*
X141887575Y-27974534D01*
X141849475Y-27955875D01*
X141582775Y-27955875D01*
X141544572Y-27975854D01*
G36*
X133361480Y-27973624D02*
X133312564Y-28004318D01*
X133272129Y-28043615D01*
X133241249Y-28090120D01*
X133220999Y-28142441D01*
X133216684Y-28161529D01*
X133215756Y-28172883D01*
X133214899Y-28195968D01*
X133214115Y-28229816D01*
X133213402Y-28273457D01*
X133212762Y-28325923D01*
X133212194Y-28386246D01*
X133211698Y-28453455D01*
X133211275Y-28526584D01*
X133210925Y-28604662D01*
X133210648Y-28686722D01*
X133210445Y-28771795D01*
X133210314Y-28858911D01*
X133210257Y-28947102D01*
X133210274Y-29035400D01*
X133210364Y-29122835D01*
X133210528Y-29208440D01*
X133210766Y-29291244D01*
X133211079Y-29370280D01*
X133211466Y-29444579D01*
X133211928Y-29513172D01*
X133212464Y-29575090D01*
X133213075Y-29629365D01*
X133213761Y-29675028D01*
X133214522Y-29711110D01*
X133215359Y-29736642D01*
X133216271Y-29750656D01*
X133216428Y-29751786D01*
X133231473Y-29806431D01*
X133257237Y-29855608D01*
X133292604Y-29897790D01*
X133336456Y-29931452D01*
X133355517Y-29941892D01*
X133397293Y-29962475D01*
X133533984Y-29964059D01*
X133580380Y-29964483D01*
X133616086Y-29964457D01*
X133643108Y-29963856D01*
X133663453Y-29962558D01*
X133679126Y-29960438D01*
X133692134Y-29957373D01*
X133703512Y-29953596D01*
X133754955Y-29928534D01*
X133798136Y-29893975D01*
X133833465Y-29849549D01*
X133850280Y-29819600D01*
X133867525Y-29784675D01*
X133867525Y-28208578D01*
X133661150Y-28208578D01*
X133661150Y-29709771D01*
X133646863Y-29730764D01*
X133619660Y-29760475D01*
X133586679Y-29779211D01*
X133549350Y-29786456D01*
X133509102Y-29781693D01*
X133507360Y-29781220D01*
X133478351Y-29768009D01*
X133453069Y-29747148D01*
X133435818Y-29722266D01*
X133434862Y-29720087D01*
X133433434Y-29710346D01*
X133432120Y-29688882D01*
X133430921Y-29656673D01*
X133429835Y-29614697D01*
X133428864Y-29563931D01*
X133428008Y-29505352D01*
X133427266Y-29439938D01*
X133426638Y-29368666D01*
X133426124Y-29292513D01*
X133425724Y-29212457D01*
X133425439Y-29129474D01*
X133425269Y-29044543D01*
X133425212Y-28958641D01*
X133425270Y-28872745D01*
X133425442Y-28787832D01*
X133425729Y-28704880D01*
X133426130Y-28624866D01*
X133426645Y-28548768D01*
X133427274Y-28477562D01*
X133428018Y-28412227D01*
X133428876Y-28353739D01*
X133429848Y-28303075D01*
X133430935Y-28261215D01*
X133432136Y-28229133D01*
X133433451Y-28207809D01*
X133434862Y-28198262D01*
X133453044Y-28169608D01*
X133478691Y-28149110D01*
X133509428Y-28136890D01*
X133542881Y-28133074D01*
X133576676Y-28137786D01*
X133608438Y-28151151D01*
X133635792Y-28173293D01*
X133646712Y-28187152D01*
X133661150Y-28208578D01*
X133867525Y-28208578D01*
X133867525Y-28133675D01*
X133850507Y-28097365D01*
X133822442Y-28051660D01*
X133784862Y-28011926D01*
X133740562Y-27981008D01*
X133731801Y-27976457D01*
X133689993Y-27955875D01*
X133397625Y-27955875D01*
X133361480Y-27973624D01*
X133361480Y-27973624D01*
G37*
X133361480Y-27973624D02*
X133312564Y-28004318D01*
X133272129Y-28043615D01*
X133241249Y-28090120D01*
X133220999Y-28142441D01*
X133216684Y-28161529D01*
X133215756Y-28172883D01*
X133214899Y-28195968D01*
X133214115Y-28229816D01*
X133213402Y-28273457D01*
X133212762Y-28325923D01*
X133212194Y-28386246D01*
X133211698Y-28453455D01*
X133211275Y-28526584D01*
X133210925Y-28604662D01*
X133210648Y-28686722D01*
X133210445Y-28771795D01*
X133210314Y-28858911D01*
X133210257Y-28947102D01*
X133210274Y-29035400D01*
X133210364Y-29122835D01*
X133210528Y-29208440D01*
X133210766Y-29291244D01*
X133211079Y-29370280D01*
X133211466Y-29444579D01*
X133211928Y-29513172D01*
X133212464Y-29575090D01*
X133213075Y-29629365D01*
X133213761Y-29675028D01*
X133214522Y-29711110D01*
X133215359Y-29736642D01*
X133216271Y-29750656D01*
X133216428Y-29751786D01*
X133231473Y-29806431D01*
X133257237Y-29855608D01*
X133292604Y-29897790D01*
X133336456Y-29931452D01*
X133355517Y-29941892D01*
X133397293Y-29962475D01*
X133533984Y-29964059D01*
X133580380Y-29964483D01*
X133616086Y-29964457D01*
X133643108Y-29963856D01*
X133663453Y-29962558D01*
X133679126Y-29960438D01*
X133692134Y-29957373D01*
X133703512Y-29953596D01*
X133754955Y-29928534D01*
X133798136Y-29893975D01*
X133833465Y-29849549D01*
X133850280Y-29819600D01*
X133867525Y-29784675D01*
X133867525Y-28208578D01*
X133661150Y-28208578D01*
X133661150Y-29709771D01*
X133646863Y-29730764D01*
X133619660Y-29760475D01*
X133586679Y-29779211D01*
X133549350Y-29786456D01*
X133509102Y-29781693D01*
X133507360Y-29781220D01*
X133478351Y-29768009D01*
X133453069Y-29747148D01*
X133435818Y-29722266D01*
X133434862Y-29720087D01*
X133433434Y-29710346D01*
X133432120Y-29688882D01*
X133430921Y-29656673D01*
X133429835Y-29614697D01*
X133428864Y-29563931D01*
X133428008Y-29505352D01*
X133427266Y-29439938D01*
X133426638Y-29368666D01*
X133426124Y-29292513D01*
X133425724Y-29212457D01*
X133425439Y-29129474D01*
X133425269Y-29044543D01*
X133425212Y-28958641D01*
X133425270Y-28872745D01*
X133425442Y-28787832D01*
X133425729Y-28704880D01*
X133426130Y-28624866D01*
X133426645Y-28548768D01*
X133427274Y-28477562D01*
X133428018Y-28412227D01*
X133428876Y-28353739D01*
X133429848Y-28303075D01*
X133430935Y-28261215D01*
X133432136Y-28229133D01*
X133433451Y-28207809D01*
X133434862Y-28198262D01*
X133453044Y-28169608D01*
X133478691Y-28149110D01*
X133509428Y-28136890D01*
X133542881Y-28133074D01*
X133576676Y-28137786D01*
X133608438Y-28151151D01*
X133635792Y-28173293D01*
X133646712Y-28187152D01*
X133661150Y-28208578D01*
X133867525Y-28208578D01*
X133867525Y-28133675D01*
X133850507Y-28097365D01*
X133822442Y-28051660D01*
X133784862Y-28011926D01*
X133740562Y-27981008D01*
X133731801Y-27976457D01*
X133689993Y-27955875D01*
X133397625Y-27955875D01*
X133361480Y-27973624D01*
G36*
X123931676Y-27976032D02*
X123883256Y-28005766D01*
X123843353Y-28044805D01*
X123812686Y-28092432D01*
X123810233Y-28097475D01*
X123790075Y-28140025D01*
X123788160Y-28345304D01*
X123787521Y-28408640D01*
X123787286Y-28460677D01*
X123788037Y-28502813D01*
X123790352Y-28536449D01*
X123794814Y-28562984D01*
X123802000Y-28583816D01*
X123812493Y-28600346D01*
X123826872Y-28613973D01*
X123845718Y-28626096D01*
X123869610Y-28638115D01*
X123899128Y-28651429D01*
X123918703Y-28660137D01*
X123945368Y-28671838D01*
X123967946Y-28681300D01*
X123983827Y-28687458D01*
X123990140Y-28689300D01*
X123991941Y-28683014D01*
X123993455Y-28664410D01*
X123994671Y-28633867D01*
X123995581Y-28591762D01*
X123996173Y-28538474D01*
X123996437Y-28474382D01*
X123996450Y-28454146D01*
X123996493Y-28389546D01*
X123996731Y-28336365D01*
X123997326Y-28293320D01*
X123998443Y-28259129D01*
X124000245Y-28232509D01*
X124002896Y-28212179D01*
X124006559Y-28196857D01*
X124011397Y-28185261D01*
X124017574Y-28176109D01*
X124025254Y-28168118D01*
X124033884Y-28160610D01*
X124064832Y-28141883D01*
X124097505Y-28134892D01*
X124129761Y-28139274D01*
X124159459Y-28154669D01*
X124184457Y-28180713D01*
X124188426Y-28186719D01*
X124202825Y-28209875D01*
X124202825Y-29708475D01*
X124188426Y-29731630D01*
X124164541Y-29759620D01*
X124135558Y-29777028D01*
X124103616Y-29783492D01*
X124070859Y-29778649D01*
X124039427Y-29762138D01*
X124033884Y-29757739D01*
X124025563Y-29750596D01*
X124018577Y-29743614D01*
X124012808Y-29735672D01*
X124008141Y-29725654D01*
X124004458Y-29712441D01*
X124001644Y-29694913D01*
X123999581Y-29671953D01*
X123998152Y-29642442D01*
X123997242Y-29605261D01*
X123996733Y-29559292D01*
X123996508Y-29503415D01*
X123996452Y-29436514D01*
X123996450Y-29398804D01*
X123996450Y-29098251D01*
X124018662Y-29090219D01*
X124037496Y-29079570D01*
X124054681Y-29063938D01*
X124056695Y-29061445D01*
X124064652Y-29048958D01*
X124075912Y-29028656D01*
X124089211Y-29003128D01*
X124103288Y-28974960D01*
X124116882Y-28946742D01*
X124128730Y-28921060D01*
X124137571Y-28900504D01*
X124142142Y-28887659D01*
X124142500Y-28885462D01*
X124137553Y-28883073D01*
X124122329Y-28881424D01*
X124096256Y-28880498D01*
X124058759Y-28880277D01*
X124009266Y-28880742D01*
X123998038Y-28880914D01*
X123946738Y-28881909D01*
X123906486Y-28883284D01*
X123875626Y-28885390D01*
X123852506Y-28888575D01*
X123835473Y-28893190D01*
X123822873Y-28899583D01*
X123813053Y-28908104D01*
X123804360Y-28919104D01*
X123802131Y-28922337D01*
X123799734Y-28926322D01*
X123797678Y-28931303D01*
X123795935Y-28938221D01*
X123794481Y-28948018D01*
X123793289Y-28961633D01*
X123792333Y-28980007D01*
X123791588Y-29004081D01*
X123791026Y-29034795D01*
X123790624Y-29073091D01*
X123790353Y-29119908D01*
X123790190Y-29176188D01*
X123790106Y-29242871D01*
X123790078Y-29320897D01*
X123790075Y-29359225D01*
X123790075Y-29778325D01*
X123809675Y-29819600D01*
X123839488Y-29868184D01*
X123878425Y-29908444D01*
X123925314Y-29939201D01*
X123931523Y-29942246D01*
X123974225Y-29962475D01*
X124094875Y-29964106D01*
X124137356Y-29964594D01*
X124169365Y-29964621D01*
X124193130Y-29963998D01*
X124210876Y-29962539D01*
X124224831Y-29960054D01*
X124237219Y-29956355D01*
X124250269Y-29951255D01*
X124251133Y-29950895D01*
X124287200Y-29933692D01*
X124316127Y-29914086D01*
X124343395Y-29888236D01*
X124348628Y-29882537D01*
X124376713Y-29843251D01*
X124397902Y-29796622D01*
X124409423Y-29751786D01*
X124410305Y-29740001D01*
X124411134Y-29716130D01*
X124411906Y-29680786D01*
X124412614Y-29634584D01*
X124413256Y-29578136D01*
X124413826Y-29512057D01*
X124414320Y-29436961D01*
X124414732Y-29353461D01*
X124415059Y-29262170D01*
X124415295Y-29163703D01*
X124415435Y-29058673D01*
X124415477Y-28959175D01*
X124415426Y-28848769D01*
X124415275Y-28744376D01*
X124415030Y-28646607D01*
X124414694Y-28556076D01*
X124414273Y-28473398D01*
X124413772Y-28399186D01*
X124413194Y-28334054D01*
X124412546Y-28278615D01*
X124411830Y-28233483D01*
X124411053Y-28199272D01*
X124410219Y-28176596D01*
X124409423Y-28166563D01*
X124394379Y-28111914D01*
X124368617Y-28062741D01*
X124333255Y-28020567D01*
X124289405Y-27986914D01*
X124270301Y-27976457D01*
X124228493Y-27955875D01*
X123974225Y-27955875D01*
X123931676Y-27976032D01*
X123931676Y-27976032D01*
G37*
X123931676Y-27976032D02*
X123883256Y-28005766D01*
X123843353Y-28044805D01*
X123812686Y-28092432D01*
X123810233Y-28097475D01*
X123790075Y-28140025D01*
X123788160Y-28345304D01*
X123787521Y-28408640D01*
X123787286Y-28460677D01*
X123788037Y-28502813D01*
X123790352Y-28536449D01*
X123794814Y-28562984D01*
X123802000Y-28583816D01*
X123812493Y-28600346D01*
X123826872Y-28613973D01*
X123845718Y-28626096D01*
X123869610Y-28638115D01*
X123899128Y-28651429D01*
X123918703Y-28660137D01*
X123945368Y-28671838D01*
X123967946Y-28681300D01*
X123983827Y-28687458D01*
X123990140Y-28689300D01*
X123991941Y-28683014D01*
X123993455Y-28664410D01*
X123994671Y-28633867D01*
X123995581Y-28591762D01*
X123996173Y-28538474D01*
X123996437Y-28474382D01*
X123996450Y-28454146D01*
X123996493Y-28389546D01*
X123996731Y-28336365D01*
X123997326Y-28293320D01*
X123998443Y-28259129D01*
X124000245Y-28232509D01*
X124002896Y-28212179D01*
X124006559Y-28196857D01*
X124011397Y-28185261D01*
X124017574Y-28176109D01*
X124025254Y-28168118D01*
X124033884Y-28160610D01*
X124064832Y-28141883D01*
X124097505Y-28134892D01*
X124129761Y-28139274D01*
X124159459Y-28154669D01*
X124184457Y-28180713D01*
X124188426Y-28186719D01*
X124202825Y-28209875D01*
X124202825Y-29708475D01*
X124188426Y-29731630D01*
X124164541Y-29759620D01*
X124135558Y-29777028D01*
X124103616Y-29783492D01*
X124070859Y-29778649D01*
X124039427Y-29762138D01*
X124033884Y-29757739D01*
X124025563Y-29750596D01*
X124018577Y-29743614D01*
X124012808Y-29735672D01*
X124008141Y-29725654D01*
X124004458Y-29712441D01*
X124001644Y-29694913D01*
X123999581Y-29671953D01*
X123998152Y-29642442D01*
X123997242Y-29605261D01*
X123996733Y-29559292D01*
X123996508Y-29503415D01*
X123996452Y-29436514D01*
X123996450Y-29398804D01*
X123996450Y-29098251D01*
X124018662Y-29090219D01*
X124037496Y-29079570D01*
X124054681Y-29063938D01*
X124056695Y-29061445D01*
X124064652Y-29048958D01*
X124075912Y-29028656D01*
X124089211Y-29003128D01*
X124103288Y-28974960D01*
X124116882Y-28946742D01*
X124128730Y-28921060D01*
X124137571Y-28900504D01*
X124142142Y-28887659D01*
X124142500Y-28885462D01*
X124137553Y-28883073D01*
X124122329Y-28881424D01*
X124096256Y-28880498D01*
X124058759Y-28880277D01*
X124009266Y-28880742D01*
X123998038Y-28880914D01*
X123946738Y-28881909D01*
X123906486Y-28883284D01*
X123875626Y-28885390D01*
X123852506Y-28888575D01*
X123835473Y-28893190D01*
X123822873Y-28899583D01*
X123813053Y-28908104D01*
X123804360Y-28919104D01*
X123802131Y-28922337D01*
X123799734Y-28926322D01*
X123797678Y-28931303D01*
X123795935Y-28938221D01*
X123794481Y-28948018D01*
X123793289Y-28961633D01*
X123792333Y-28980007D01*
X123791588Y-29004081D01*
X123791026Y-29034795D01*
X123790624Y-29073091D01*
X123790353Y-29119908D01*
X123790190Y-29176188D01*
X123790106Y-29242871D01*
X123790078Y-29320897D01*
X123790075Y-29359225D01*
X123790075Y-29778325D01*
X123809675Y-29819600D01*
X123839488Y-29868184D01*
X123878425Y-29908444D01*
X123925314Y-29939201D01*
X123931523Y-29942246D01*
X123974225Y-29962475D01*
X124094875Y-29964106D01*
X124137356Y-29964594D01*
X124169365Y-29964621D01*
X124193130Y-29963998D01*
X124210876Y-29962539D01*
X124224831Y-29960054D01*
X124237219Y-29956355D01*
X124250269Y-29951255D01*
X124251133Y-29950895D01*
X124287200Y-29933692D01*
X124316127Y-29914086D01*
X124343395Y-29888236D01*
X124348628Y-29882537D01*
X124376713Y-29843251D01*
X124397902Y-29796622D01*
X124409423Y-29751786D01*
X124410305Y-29740001D01*
X124411134Y-29716130D01*
X124411906Y-29680786D01*
X124412614Y-29634584D01*
X124413256Y-29578136D01*
X124413826Y-29512057D01*
X124414320Y-29436961D01*
X124414732Y-29353461D01*
X124415059Y-29262170D01*
X124415295Y-29163703D01*
X124415435Y-29058673D01*
X124415477Y-28959175D01*
X124415426Y-28848769D01*
X124415275Y-28744376D01*
X124415030Y-28646607D01*
X124414694Y-28556076D01*
X124414273Y-28473398D01*
X124413772Y-28399186D01*
X124413194Y-28334054D01*
X124412546Y-28278615D01*
X124411830Y-28233483D01*
X124411053Y-28199272D01*
X124410219Y-28176596D01*
X124409423Y-28166563D01*
X124394379Y-28111914D01*
X124368617Y-28062741D01*
X124333255Y-28020567D01*
X124289405Y-27986914D01*
X124270301Y-27976457D01*
X124228493Y-27955875D01*
X123974225Y-27955875D01*
X123931676Y-27976032D01*
G36*
X140126884Y-27973031D02*
X139906067Y-27974925D01*
X139863773Y-27995756D01*
X139819371Y-28024299D01*
X139780657Y-28062433D01*
X139750301Y-28107414D01*
X139745083Y-28117800D01*
X139728575Y-28152725D01*
X139726791Y-28523484D01*
X139726414Y-28606870D01*
X139726201Y-28678549D01*
X139726239Y-28739511D01*
X139726611Y-28790751D01*
X139727402Y-28833258D01*
X139728698Y-28868026D01*
X139730584Y-28896046D01*
X139733143Y-28918310D01*
X139736462Y-28935811D01*
X139740624Y-28949541D01*
X139745716Y-28960490D01*
X139751822Y-28969652D01*
X139759026Y-28978019D01*
X139766336Y-28985505D01*
X139778739Y-28998426D01*
X139783062Y-29006135D01*
X139780267Y-29012340D01*
X139774675Y-29017697D01*
X139757371Y-29039878D01*
X139742655Y-29071591D01*
X139732533Y-29107125D01*
X139730826Y-29121320D01*
X139729359Y-29146798D01*
X139728128Y-29183761D01*
X139727130Y-29232414D01*
X139726362Y-29292960D01*
X139725820Y-29365602D01*
X139725500Y-29450544D01*
X139725400Y-29543687D01*
X139725400Y-29946600D01*
X139934950Y-29946600D01*
X139934950Y-29180247D01*
X139949396Y-29152930D01*
X139962669Y-29132289D01*
X139978610Y-29117860D01*
X139999590Y-29108665D01*
X140027982Y-29103729D01*
X140066156Y-29102075D01*
X140072964Y-29102050D01*
X140138150Y-29102050D01*
X140138150Y-29946600D01*
X140347700Y-29946600D01*
X140347700Y-28906998D01*
X140138150Y-28906998D01*
X140069579Y-28903748D01*
X140026628Y-28900495D01*
X139996134Y-28895391D01*
X139980741Y-28890018D01*
X139964496Y-28877223D01*
X139950101Y-28858811D01*
X139947713Y-28854522D01*
X139944738Y-28848231D01*
X139942265Y-28841287D01*
X139940248Y-28832523D01*
X139938639Y-28820774D01*
X139937394Y-28804875D01*
X139936465Y-28783661D01*
X139935808Y-28755965D01*
X139935374Y-28720623D01*
X139935120Y-28676470D01*
X139934997Y-28622339D01*
X139934961Y-28557067D01*
X139934960Y-28532390D01*
X139934996Y-28462630D01*
X139935123Y-28404423D01*
X139935383Y-28356626D01*
X139935816Y-28318091D01*
X139936460Y-28287673D01*
X139937356Y-28264228D01*
X139938543Y-28246608D01*
X139940063Y-28233668D01*
X139941954Y-28224263D01*
X139944257Y-28217247D01*
X139946073Y-28213266D01*
X139958173Y-28194663D01*
X139974222Y-28181253D01*
X139996356Y-28172171D01*
X140026715Y-28166553D01*
X140067438Y-28163533D01*
X140069274Y-28163456D01*
X140138150Y-28160618D01*
X140138150Y-28906998D01*
X140347700Y-28906998D01*
X140347700Y-27971137D01*
X140126884Y-27973031D01*
X140126884Y-27973031D01*
G37*
X140126884Y-27973031D02*
X139906067Y-27974925D01*
X139863773Y-27995756D01*
X139819371Y-28024299D01*
X139780657Y-28062433D01*
X139750301Y-28107414D01*
X139745083Y-28117800D01*
X139728575Y-28152725D01*
X139726791Y-28523484D01*
X139726414Y-28606870D01*
X139726201Y-28678549D01*
X139726239Y-28739511D01*
X139726611Y-28790751D01*
X139727402Y-28833258D01*
X139728698Y-28868026D01*
X139730584Y-28896046D01*
X139733143Y-28918310D01*
X139736462Y-28935811D01*
X139740624Y-28949541D01*
X139745716Y-28960490D01*
X139751822Y-28969652D01*
X139759026Y-28978019D01*
X139766336Y-28985505D01*
X139778739Y-28998426D01*
X139783062Y-29006135D01*
X139780267Y-29012340D01*
X139774675Y-29017697D01*
X139757371Y-29039878D01*
X139742655Y-29071591D01*
X139732533Y-29107125D01*
X139730826Y-29121320D01*
X139729359Y-29146798D01*
X139728128Y-29183761D01*
X139727130Y-29232414D01*
X139726362Y-29292960D01*
X139725820Y-29365602D01*
X139725500Y-29450544D01*
X139725400Y-29543687D01*
X139725400Y-29946600D01*
X139934950Y-29946600D01*
X139934950Y-29180247D01*
X139949396Y-29152930D01*
X139962669Y-29132289D01*
X139978610Y-29117860D01*
X139999590Y-29108665D01*
X140027982Y-29103729D01*
X140066156Y-29102075D01*
X140072964Y-29102050D01*
X140138150Y-29102050D01*
X140138150Y-29946600D01*
X140347700Y-29946600D01*
X140347700Y-28906998D01*
X140138150Y-28906998D01*
X140069579Y-28903748D01*
X140026628Y-28900495D01*
X139996134Y-28895391D01*
X139980741Y-28890018D01*
X139964496Y-28877223D01*
X139950101Y-28858811D01*
X139947713Y-28854522D01*
X139944738Y-28848231D01*
X139942265Y-28841287D01*
X139940248Y-28832523D01*
X139938639Y-28820774D01*
X139937394Y-28804875D01*
X139936465Y-28783661D01*
X139935808Y-28755965D01*
X139935374Y-28720623D01*
X139935120Y-28676470D01*
X139934997Y-28622339D01*
X139934961Y-28557067D01*
X139934960Y-28532390D01*
X139934996Y-28462630D01*
X139935123Y-28404423D01*
X139935383Y-28356626D01*
X139935816Y-28318091D01*
X139936460Y-28287673D01*
X139937356Y-28264228D01*
X139938543Y-28246608D01*
X139940063Y-28233668D01*
X139941954Y-28224263D01*
X139944257Y-28217247D01*
X139946073Y-28213266D01*
X139958173Y-28194663D01*
X139974222Y-28181253D01*
X139996356Y-28172171D01*
X140026715Y-28166553D01*
X140067438Y-28163533D01*
X140069274Y-28163456D01*
X140138150Y-28160618D01*
X140138150Y-28906998D01*
X140347700Y-28906998D01*
X140347700Y-27971137D01*
X140126884Y-27973031D01*
G36*
X138064799Y-27986037D02*
X138066575Y-27994246D01*
X138070770Y-28013976D01*
X138077193Y-28044320D01*
X138085653Y-28084369D01*
X138095959Y-28133217D01*
X138107919Y-28189954D01*
X138121342Y-28253675D01*
X138136036Y-28323470D01*
X138151811Y-28398433D01*
X138168475Y-28477655D01*
X138185570Y-28558964D01*
X138303000Y-29117604D01*
X138303000Y-29946600D01*
X138479672Y-29946600D01*
X138496111Y-29927062D01*
X138512550Y-29907525D01*
X138513360Y-29130625D01*
X138757552Y-27974925D01*
X138670019Y-27973163D01*
X138629327Y-27972814D01*
X138599311Y-27974022D01*
X138577986Y-27977348D01*
X138563368Y-27983357D01*
X138553471Y-27992611D01*
X138546310Y-28005672D01*
X138545118Y-28008572D01*
X138542795Y-28017898D01*
X138538564Y-28038554D01*
X138532644Y-28069351D01*
X138525251Y-28109095D01*
X138516603Y-28156598D01*
X138506918Y-28210668D01*
X138496412Y-28270115D01*
X138485304Y-28333747D01*
X138477630Y-28378150D01*
X138466298Y-28443699D01*
X138455492Y-28505689D01*
X138445420Y-28562953D01*
X138436292Y-28614326D01*
X138428318Y-28658642D01*
X138421705Y-28694736D01*
X138416664Y-28721442D01*
X138413405Y-28737595D01*
X138412306Y-28741971D01*
X138410324Y-28738206D01*
X138406411Y-28722649D01*
X138400711Y-28696038D01*
X138393363Y-28659111D01*
X138384511Y-28612605D01*
X138374295Y-28557260D01*
X138362858Y-28493812D01*
X138350340Y-28422999D01*
X138342845Y-28380021D01*
X138278036Y-28006675D01*
X138258668Y-27989212D01*
X138250619Y-27982306D01*
X138242825Y-27977513D01*
X138232894Y-27974448D01*
X138218431Y-27972724D01*
X138197042Y-27971955D01*
X138166336Y-27971756D01*
X138150379Y-27971750D01*
X138061459Y-27971750D01*
X138064799Y-27986037D01*
X138064799Y-27986037D01*
G37*
X138064799Y-27986037D02*
X138066575Y-27994246D01*
X138070770Y-28013976D01*
X138077193Y-28044320D01*
X138085653Y-28084369D01*
X138095959Y-28133217D01*
X138107919Y-28189954D01*
X138121342Y-28253675D01*
X138136036Y-28323470D01*
X138151811Y-28398433D01*
X138168475Y-28477655D01*
X138185570Y-28558964D01*
X138303000Y-29117604D01*
X138303000Y-29946600D01*
X138479672Y-29946600D01*
X138496111Y-29927062D01*
X138512550Y-29907525D01*
X138513360Y-29130625D01*
X138757552Y-27974925D01*
X138670019Y-27973163D01*
X138629327Y-27972814D01*
X138599311Y-27974022D01*
X138577986Y-27977348D01*
X138563368Y-27983357D01*
X138553471Y-27992611D01*
X138546310Y-28005672D01*
X138545118Y-28008572D01*
X138542795Y-28017898D01*
X138538564Y-28038554D01*
X138532644Y-28069351D01*
X138525251Y-28109095D01*
X138516603Y-28156598D01*
X138506918Y-28210668D01*
X138496412Y-28270115D01*
X138485304Y-28333747D01*
X138477630Y-28378150D01*
X138466298Y-28443699D01*
X138455492Y-28505689D01*
X138445420Y-28562953D01*
X138436292Y-28614326D01*
X138428318Y-28658642D01*
X138421705Y-28694736D01*
X138416664Y-28721442D01*
X138413405Y-28737595D01*
X138412306Y-28741971D01*
X138410324Y-28738206D01*
X138406411Y-28722649D01*
X138400711Y-28696038D01*
X138393363Y-28659111D01*
X138384511Y-28612605D01*
X138374295Y-28557260D01*
X138362858Y-28493812D01*
X138350340Y-28422999D01*
X138342845Y-28380021D01*
X138278036Y-28006675D01*
X138258668Y-27989212D01*
X138250619Y-27982306D01*
X138242825Y-27977513D01*
X138232894Y-27974448D01*
X138218431Y-27972724D01*
X138197042Y-27971955D01*
X138166336Y-27971756D01*
X138150379Y-27971750D01*
X138061459Y-27971750D01*
X138064799Y-27986037D01*
G36*
X136837583Y-27973023D02*
X136623115Y-27974925D01*
X136581928Y-27995211D01*
X136534060Y-28025422D01*
X136493648Y-28064531D01*
X136462753Y-28110484D01*
X136459086Y-28117800D01*
X136439275Y-28159075D01*
X136437517Y-28474575D01*
X136437141Y-28552466D01*
X136437007Y-28618842D01*
X136437207Y-28674883D01*
X136437830Y-28721775D01*
X136438965Y-28760698D01*
X136440702Y-28792836D01*
X136443132Y-28819372D01*
X136446344Y-28841489D01*
X136450427Y-28860369D01*
X136455472Y-28877195D01*
X136461567Y-28893150D01*
X136468804Y-28909417D01*
X136470849Y-28913769D01*
X136484935Y-28938762D01*
X136503231Y-28965155D01*
X136515139Y-28979683D01*
X136547249Y-29009694D01*
X136583921Y-29032522D01*
X136626794Y-29048719D01*
X136677510Y-29058841D01*
X136737709Y-29063439D01*
X136764713Y-29063856D01*
X136842500Y-29063950D01*
X136842500Y-29946600D01*
X136934115Y-29946600D01*
X136969916Y-29946538D01*
X136995226Y-29946119D01*
X137012253Y-29944989D01*
X137023207Y-29942795D01*
X137030296Y-29939186D01*
X137035729Y-29933808D01*
X137038890Y-29929868D01*
X137052050Y-29913137D01*
X137052050Y-28867100D01*
X136842500Y-28867100D01*
X136778278Y-28867100D01*
X136746442Y-28866635D01*
X136723975Y-28864913D01*
X136707569Y-28861441D01*
X136693916Y-28855724D01*
X136690856Y-28854061D01*
X136671763Y-28839846D01*
X136654444Y-28821524D01*
X136651891Y-28818024D01*
X136636125Y-28795025D01*
X136634273Y-28532687D01*
X136633837Y-28462810D01*
X136633682Y-28404437D01*
X136633923Y-28356374D01*
X136634677Y-28317426D01*
X136636062Y-28286399D01*
X136638195Y-28262097D01*
X136641192Y-28243327D01*
X136645170Y-28228893D01*
X136650247Y-28217601D01*
X136656538Y-28208256D01*
X136664162Y-28199664D01*
X136667155Y-28196625D01*
X136687053Y-28180921D01*
X136711334Y-28170441D01*
X136742524Y-28164476D01*
X136783153Y-28162323D01*
X136790113Y-28162285D01*
X136842500Y-28162250D01*
X136842500Y-28867100D01*
X137052050Y-28867100D01*
X137052050Y-27971122D01*
X136837583Y-27973023D01*
X136837583Y-27973023D01*
G37*
X136837583Y-27973023D02*
X136623115Y-27974925D01*
X136581928Y-27995211D01*
X136534060Y-28025422D01*
X136493648Y-28064531D01*
X136462753Y-28110484D01*
X136459086Y-28117800D01*
X136439275Y-28159075D01*
X136437517Y-28474575D01*
X136437141Y-28552466D01*
X136437007Y-28618842D01*
X136437207Y-28674883D01*
X136437830Y-28721775D01*
X136438965Y-28760698D01*
X136440702Y-28792836D01*
X136443132Y-28819372D01*
X136446344Y-28841489D01*
X136450427Y-28860369D01*
X136455472Y-28877195D01*
X136461567Y-28893150D01*
X136468804Y-28909417D01*
X136470849Y-28913769D01*
X136484935Y-28938762D01*
X136503231Y-28965155D01*
X136515139Y-28979683D01*
X136547249Y-29009694D01*
X136583921Y-29032522D01*
X136626794Y-29048719D01*
X136677510Y-29058841D01*
X136737709Y-29063439D01*
X136764713Y-29063856D01*
X136842500Y-29063950D01*
X136842500Y-29946600D01*
X136934115Y-29946600D01*
X136969916Y-29946538D01*
X136995226Y-29946119D01*
X137012253Y-29944989D01*
X137023207Y-29942795D01*
X137030296Y-29939186D01*
X137035729Y-29933808D01*
X137038890Y-29929868D01*
X137052050Y-29913137D01*
X137052050Y-28867100D01*
X136842500Y-28867100D01*
X136778278Y-28867100D01*
X136746442Y-28866635D01*
X136723975Y-28864913D01*
X136707569Y-28861441D01*
X136693916Y-28855724D01*
X136690856Y-28854061D01*
X136671763Y-28839846D01*
X136654444Y-28821524D01*
X136651891Y-28818024D01*
X136636125Y-28795025D01*
X136634273Y-28532687D01*
X136633837Y-28462810D01*
X136633682Y-28404437D01*
X136633923Y-28356374D01*
X136634677Y-28317426D01*
X136636062Y-28286399D01*
X136638195Y-28262097D01*
X136641192Y-28243327D01*
X136645170Y-28228893D01*
X136650247Y-28217601D01*
X136656538Y-28208256D01*
X136664162Y-28199664D01*
X136667155Y-28196625D01*
X136687053Y-28180921D01*
X136711334Y-28170441D01*
X136742524Y-28164476D01*
X136783153Y-28162323D01*
X136790113Y-28162285D01*
X136842500Y-28162250D01*
X136842500Y-28867100D01*
X137052050Y-28867100D01*
X137052050Y-27971122D01*
X136837583Y-27973023D01*
G36*
X134702105Y-27986037D02*
X134713305Y-28012620D01*
X134727183Y-28042556D01*
X134742354Y-28073183D01*
X134757433Y-28101836D01*
X134771035Y-28125852D01*
X134781773Y-28142567D01*
X134786405Y-28148114D01*
X134798694Y-28157593D01*
X134813346Y-28164621D01*
X134832346Y-28169533D01*
X134857684Y-28172665D01*
X134891347Y-28174354D01*
X134935324Y-28174936D01*
X134945042Y-28174949D01*
X134982813Y-28175034D01*
X135010084Y-28175478D01*
X135029051Y-28176570D01*
X135041915Y-28178595D01*
X135050874Y-28181840D01*
X135058125Y-28186591D01*
X135062559Y-28190274D01*
X135080375Y-28205599D01*
X135082030Y-29076099D01*
X135083684Y-29946600D01*
X135172517Y-29946600D01*
X135208261Y-29946444D01*
X135233560Y-29945789D01*
X135250667Y-29944353D01*
X135261837Y-29941853D01*
X135269323Y-29938009D01*
X135274050Y-29933900D01*
X135275836Y-29931947D01*
X135277445Y-29929420D01*
X135278888Y-29925682D01*
X135280174Y-29920101D01*
X135281311Y-29912041D01*
X135282309Y-29900867D01*
X135283177Y-29885947D01*
X135283924Y-29866644D01*
X135284558Y-29842325D01*
X135285090Y-29812355D01*
X135285528Y-29776100D01*
X135285882Y-29732925D01*
X135286159Y-29682195D01*
X135286370Y-29623277D01*
X135286524Y-29555537D01*
X135286630Y-29478338D01*
X135286696Y-29391048D01*
X135286732Y-29293031D01*
X135286747Y-29183653D01*
X135286750Y-29062280D01*
X135286750Y-28174950D01*
X135573484Y-28174950D01*
X135571405Y-28088659D01*
X135570493Y-28054046D01*
X135569406Y-28029783D01*
X135567684Y-28013525D01*
X135564868Y-28002925D01*
X135560499Y-27995638D01*
X135554117Y-27989317D01*
X135551509Y-27987059D01*
X135533692Y-27971750D01*
X134696515Y-27971750D01*
X134702105Y-27986037D01*
X134702105Y-27986037D01*
G37*
X134702105Y-27986037D02*
X134713305Y-28012620D01*
X134727183Y-28042556D01*
X134742354Y-28073183D01*
X134757433Y-28101836D01*
X134771035Y-28125852D01*
X134781773Y-28142567D01*
X134786405Y-28148114D01*
X134798694Y-28157593D01*
X134813346Y-28164621D01*
X134832346Y-28169533D01*
X134857684Y-28172665D01*
X134891347Y-28174354D01*
X134935324Y-28174936D01*
X134945042Y-28174949D01*
X134982813Y-28175034D01*
X135010084Y-28175478D01*
X135029051Y-28176570D01*
X135041915Y-28178595D01*
X135050874Y-28181840D01*
X135058125Y-28186591D01*
X135062559Y-28190274D01*
X135080375Y-28205599D01*
X135082030Y-29076099D01*
X135083684Y-29946600D01*
X135172517Y-29946600D01*
X135208261Y-29946444D01*
X135233560Y-29945789D01*
X135250667Y-29944353D01*
X135261837Y-29941853D01*
X135269323Y-29938009D01*
X135274050Y-29933900D01*
X135275836Y-29931947D01*
X135277445Y-29929420D01*
X135278888Y-29925682D01*
X135280174Y-29920101D01*
X135281311Y-29912041D01*
X135282309Y-29900867D01*
X135283177Y-29885947D01*
X135283924Y-29866644D01*
X135284558Y-29842325D01*
X135285090Y-29812355D01*
X135285528Y-29776100D01*
X135285882Y-29732925D01*
X135286159Y-29682195D01*
X135286370Y-29623277D01*
X135286524Y-29555537D01*
X135286630Y-29478338D01*
X135286696Y-29391048D01*
X135286732Y-29293031D01*
X135286747Y-29183653D01*
X135286750Y-29062280D01*
X135286750Y-28174950D01*
X135573484Y-28174950D01*
X135571405Y-28088659D01*
X135570493Y-28054046D01*
X135569406Y-28029783D01*
X135567684Y-28013525D01*
X135564868Y-28002925D01*
X135560499Y-27995638D01*
X135554117Y-27989317D01*
X135551509Y-27987059D01*
X135533692Y-27971750D01*
X134696515Y-27971750D01*
X134702105Y-27986037D01*
G36*
X131471103Y-28004938D02*
X131472648Y-28015003D01*
X131476001Y-28036902D01*
X131481051Y-28069913D01*
X131487689Y-28113314D01*
X131495805Y-28166385D01*
X131505287Y-28228405D01*
X131516027Y-28298652D01*
X131527912Y-28376405D01*
X131540834Y-28460943D01*
X131554683Y-28551545D01*
X131569346Y-28647490D01*
X131584716Y-28748056D01*
X131600681Y-28852523D01*
X131617131Y-28960169D01*
X131619405Y-28975050D01*
X131635871Y-29082765D01*
X131651850Y-29187209D01*
X131667234Y-29287676D01*
X131681913Y-29383461D01*
X131695780Y-29473858D01*
X131708725Y-29558163D01*
X131720640Y-29635669D01*
X131731417Y-29705673D01*
X131740948Y-29767469D01*
X131749123Y-29820351D01*
X131755834Y-29863614D01*
X131760973Y-29896553D01*
X131764431Y-29918463D01*
X131766100Y-29928639D01*
X131766195Y-29929137D01*
X131769860Y-29946600D01*
X131837618Y-29946455D01*
X131874127Y-29945659D01*
X131900464Y-29943259D01*
X131919088Y-29938961D01*
X131926475Y-29935913D01*
X131950521Y-29917595D01*
X131971108Y-29889085D01*
X131986568Y-29852760D01*
X131987946Y-29848175D01*
X131989737Y-29839084D01*
X131993307Y-29818333D01*
X131998522Y-29786778D01*
X132005251Y-29745278D01*
X132013359Y-29694689D01*
X132022716Y-29635870D01*
X132033186Y-29569677D01*
X132044639Y-29496969D01*
X132056941Y-29418602D01*
X132069959Y-29335434D01*
X132083561Y-29248322D01*
X132097613Y-29158125D01*
X132111983Y-29065699D01*
X132126539Y-28971901D01*
X132141147Y-28877591D01*
X132155674Y-28783623D01*
X132169988Y-28690858D01*
X132183957Y-28600150D01*
X132197446Y-28512360D01*
X132210324Y-28428342D01*
X132222458Y-28348956D01*
X132233715Y-28275058D01*
X132243961Y-28207507D01*
X132253066Y-28147159D01*
X132260894Y-28094872D01*
X132267314Y-28051503D01*
X132272194Y-28017910D01*
X132275399Y-27994951D01*
X132276798Y-27983482D01*
X132276850Y-27982558D01*
X132275670Y-27978229D01*
X132270849Y-27975228D01*
X132260465Y-27973316D01*
X132242596Y-27972259D01*
X132215322Y-27971818D01*
X132189057Y-27971749D01*
X132153873Y-27971868D01*
X132129105Y-27972439D01*
X132112470Y-27973787D01*
X132101686Y-27976234D01*
X132094470Y-27980105D01*
X132088538Y-27985723D01*
X132088251Y-27986037D01*
X132076367Y-28000953D01*
X132068742Y-28013025D01*
X132066888Y-28020979D01*
X132063278Y-28040622D01*
X132058054Y-28071083D01*
X132051352Y-28111491D01*
X132043313Y-28160977D01*
X132034076Y-28218671D01*
X132023778Y-28283701D01*
X132012559Y-28355199D01*
X132000558Y-28432294D01*
X131987914Y-28514116D01*
X131974765Y-28599794D01*
X131967936Y-28644523D01*
X131954689Y-28731193D01*
X131941957Y-28814010D01*
X131929871Y-28892151D01*
X131918561Y-28964790D01*
X131908159Y-29031104D01*
X131898795Y-29090269D01*
X131890601Y-29141459D01*
X131883706Y-29183850D01*
X131878242Y-29216619D01*
X131874341Y-29238940D01*
X131872131Y-29249991D01*
X131871682Y-29250948D01*
X131870470Y-29243059D01*
X131867471Y-29223475D01*
X131862818Y-29193056D01*
X131856642Y-29152661D01*
X131849075Y-29103151D01*
X131840246Y-29045385D01*
X131830289Y-28980222D01*
X131819334Y-28908523D01*
X131807513Y-28831146D01*
X131794957Y-28748953D01*
X131781798Y-28662801D01*
X131773236Y-28606750D01*
X131676734Y-27974925D01*
X131465926Y-27971451D01*
X131471103Y-28004938D01*
X131471103Y-28004938D01*
G37*
X131471103Y-28004938D02*
X131472648Y-28015003D01*
X131476001Y-28036902D01*
X131481051Y-28069913D01*
X131487689Y-28113314D01*
X131495805Y-28166385D01*
X131505287Y-28228405D01*
X131516027Y-28298652D01*
X131527912Y-28376405D01*
X131540834Y-28460943D01*
X131554683Y-28551545D01*
X131569346Y-28647490D01*
X131584716Y-28748056D01*
X131600681Y-28852523D01*
X131617131Y-28960169D01*
X131619405Y-28975050D01*
X131635871Y-29082765D01*
X131651850Y-29187209D01*
X131667234Y-29287676D01*
X131681913Y-29383461D01*
X131695780Y-29473858D01*
X131708725Y-29558163D01*
X131720640Y-29635669D01*
X131731417Y-29705673D01*
X131740948Y-29767469D01*
X131749123Y-29820351D01*
X131755834Y-29863614D01*
X131760973Y-29896553D01*
X131764431Y-29918463D01*
X131766100Y-29928639D01*
X131766195Y-29929137D01*
X131769860Y-29946600D01*
X131837618Y-29946455D01*
X131874127Y-29945659D01*
X131900464Y-29943259D01*
X131919088Y-29938961D01*
X131926475Y-29935913D01*
X131950521Y-29917595D01*
X131971108Y-29889085D01*
X131986568Y-29852760D01*
X131987946Y-29848175D01*
X131989737Y-29839084D01*
X131993307Y-29818333D01*
X131998522Y-29786778D01*
X132005251Y-29745278D01*
X132013359Y-29694689D01*
X132022716Y-29635870D01*
X132033186Y-29569677D01*
X132044639Y-29496969D01*
X132056941Y-29418602D01*
X132069959Y-29335434D01*
X132083561Y-29248322D01*
X132097613Y-29158125D01*
X132111983Y-29065699D01*
X132126539Y-28971901D01*
X132141147Y-28877591D01*
X132155674Y-28783623D01*
X132169988Y-28690858D01*
X132183957Y-28600150D01*
X132197446Y-28512360D01*
X132210324Y-28428342D01*
X132222458Y-28348956D01*
X132233715Y-28275058D01*
X132243961Y-28207507D01*
X132253066Y-28147159D01*
X132260894Y-28094872D01*
X132267314Y-28051503D01*
X132272194Y-28017910D01*
X132275399Y-27994951D01*
X132276798Y-27983482D01*
X132276850Y-27982558D01*
X132275670Y-27978229D01*
X132270849Y-27975228D01*
X132260465Y-27973316D01*
X132242596Y-27972259D01*
X132215322Y-27971818D01*
X132189057Y-27971749D01*
X132153873Y-27971868D01*
X132129105Y-27972439D01*
X132112470Y-27973787D01*
X132101686Y-27976234D01*
X132094470Y-27980105D01*
X132088538Y-27985723D01*
X132088251Y-27986037D01*
X132076367Y-28000953D01*
X132068742Y-28013025D01*
X132066888Y-28020979D01*
X132063278Y-28040622D01*
X132058054Y-28071083D01*
X132051352Y-28111491D01*
X132043313Y-28160977D01*
X132034076Y-28218671D01*
X132023778Y-28283701D01*
X132012559Y-28355199D01*
X132000558Y-28432294D01*
X131987914Y-28514116D01*
X131974765Y-28599794D01*
X131967936Y-28644523D01*
X131954689Y-28731193D01*
X131941957Y-28814010D01*
X131929871Y-28892151D01*
X131918561Y-28964790D01*
X131908159Y-29031104D01*
X131898795Y-29090269D01*
X131890601Y-29141459D01*
X131883706Y-29183850D01*
X131878242Y-29216619D01*
X131874341Y-29238940D01*
X131872131Y-29249991D01*
X131871682Y-29250948D01*
X131870470Y-29243059D01*
X131867471Y-29223475D01*
X131862818Y-29193056D01*
X131856642Y-29152661D01*
X131849075Y-29103151D01*
X131840246Y-29045385D01*
X131830289Y-28980222D01*
X131819334Y-28908523D01*
X131807513Y-28831146D01*
X131794957Y-28748953D01*
X131781798Y-28662801D01*
X131773236Y-28606750D01*
X131676734Y-27974925D01*
X131465926Y-27971451D01*
X131471103Y-28004938D01*
G36*
X130331464Y-27972443D02*
X130301913Y-27974992D01*
X130280752Y-27980097D01*
X130265855Y-27988456D01*
X130255092Y-28000772D01*
X130248882Y-28012117D01*
X130247476Y-28015860D01*
X130246202Y-28021278D01*
X130245053Y-28028976D01*
X130244023Y-28039557D01*
X130243106Y-28053625D01*
X130242295Y-28071782D01*
X130241584Y-28094633D01*
X130240966Y-28122780D01*
X130240436Y-28156829D01*
X130239985Y-28197381D01*
X130239609Y-28245041D01*
X130239301Y-28300413D01*
X130239054Y-28364098D01*
X130238862Y-28436703D01*
X130238718Y-28518828D01*
X130238617Y-28611080D01*
X130238551Y-28714060D01*
X130238515Y-28828372D01*
X130238501Y-28954620D01*
X130238500Y-28990297D01*
X130238500Y-29946600D01*
X130327689Y-29946600D01*
X130363097Y-29946502D01*
X130388121Y-29945981D01*
X130405077Y-29944692D01*
X130416280Y-29942290D01*
X130424045Y-29938430D01*
X130430689Y-29932769D01*
X130432464Y-29931013D01*
X130448050Y-29915427D01*
X130448050Y-27971750D01*
X130371535Y-27971750D01*
X130331464Y-27972443D01*
X130331464Y-27972443D01*
G37*
X130331464Y-27972443D02*
X130301913Y-27974992D01*
X130280752Y-27980097D01*
X130265855Y-27988456D01*
X130255092Y-28000772D01*
X130248882Y-28012117D01*
X130247476Y-28015860D01*
X130246202Y-28021278D01*
X130245053Y-28028976D01*
X130244023Y-28039557D01*
X130243106Y-28053625D01*
X130242295Y-28071782D01*
X130241584Y-28094633D01*
X130240966Y-28122780D01*
X130240436Y-28156829D01*
X130239985Y-28197381D01*
X130239609Y-28245041D01*
X130239301Y-28300413D01*
X130239054Y-28364098D01*
X130238862Y-28436703D01*
X130238718Y-28518828D01*
X130238617Y-28611080D01*
X130238551Y-28714060D01*
X130238515Y-28828372D01*
X130238501Y-28954620D01*
X130238500Y-28990297D01*
X130238500Y-29946600D01*
X130327689Y-29946600D01*
X130363097Y-29946502D01*
X130388121Y-29945981D01*
X130405077Y-29944692D01*
X130416280Y-29942290D01*
X130424045Y-29938430D01*
X130430689Y-29932769D01*
X130432464Y-29931013D01*
X130448050Y-29915427D01*
X130448050Y-27971750D01*
X130371535Y-27971750D01*
X130331464Y-27972443D01*
G36*
X128929558Y-27972234D02*
X128901203Y-27973559D01*
X128879504Y-27975528D01*
X128867295Y-27977948D01*
X128866549Y-27978288D01*
X128862167Y-27980475D01*
X128858213Y-27982529D01*
X128854663Y-27985081D01*
X128851497Y-27988760D01*
X128848693Y-27994194D01*
X128846228Y-28002015D01*
X128844081Y-28012851D01*
X128842230Y-28027332D01*
X128840653Y-28046087D01*
X128839328Y-28069746D01*
X128838234Y-28098939D01*
X128837348Y-28134295D01*
X128836648Y-28176443D01*
X128836114Y-28226014D01*
X128835722Y-28283637D01*
X128835451Y-28349941D01*
X128835280Y-28425556D01*
X128835186Y-28511111D01*
X128835147Y-28607236D01*
X128835142Y-28714561D01*
X128835149Y-28833715D01*
X128835150Y-28882659D01*
X128835150Y-29743400D01*
X128606550Y-29743400D01*
X128554092Y-29743466D01*
X128505873Y-29743654D01*
X128463310Y-29743948D01*
X128427820Y-29744335D01*
X128400819Y-29744797D01*
X128383726Y-29745320D01*
X128377950Y-29745871D01*
X128380481Y-29753210D01*
X128387270Y-29769379D01*
X128397113Y-29791741D01*
X128408803Y-29817661D01*
X128421137Y-29844503D01*
X128432908Y-29869631D01*
X128442913Y-29890411D01*
X128449945Y-29904205D01*
X128451826Y-29907444D01*
X128463622Y-29919288D01*
X128481483Y-29931048D01*
X128487983Y-29934292D01*
X128495228Y-29937258D01*
X128503494Y-29939695D01*
X128514032Y-29941656D01*
X128528096Y-29943194D01*
X128546935Y-29944360D01*
X128571801Y-29945206D01*
X128603947Y-29945786D01*
X128644623Y-29946151D01*
X128695081Y-29946353D01*
X128756574Y-29946445D01*
X128779588Y-29946460D01*
X129044700Y-29946600D01*
X129044700Y-27971750D01*
X128961733Y-27971750D01*
X128929558Y-27972234D01*
X128929558Y-27972234D01*
G37*
X128929558Y-27972234D02*
X128901203Y-27973559D01*
X128879504Y-27975528D01*
X128867295Y-27977948D01*
X128866549Y-27978288D01*
X128862167Y-27980475D01*
X128858213Y-27982529D01*
X128854663Y-27985081D01*
X128851497Y-27988760D01*
X128848693Y-27994194D01*
X128846228Y-28002015D01*
X128844081Y-28012851D01*
X128842230Y-28027332D01*
X128840653Y-28046087D01*
X128839328Y-28069746D01*
X128838234Y-28098939D01*
X128837348Y-28134295D01*
X128836648Y-28176443D01*
X128836114Y-28226014D01*
X128835722Y-28283637D01*
X128835451Y-28349941D01*
X128835280Y-28425556D01*
X128835186Y-28511111D01*
X128835147Y-28607236D01*
X128835142Y-28714561D01*
X128835149Y-28833715D01*
X128835150Y-28882659D01*
X128835150Y-29743400D01*
X128606550Y-29743400D01*
X128554092Y-29743466D01*
X128505873Y-29743654D01*
X128463310Y-29743948D01*
X128427820Y-29744335D01*
X128400819Y-29744797D01*
X128383726Y-29745320D01*
X128377950Y-29745871D01*
X128380481Y-29753210D01*
X128387270Y-29769379D01*
X128397113Y-29791741D01*
X128408803Y-29817661D01*
X128421137Y-29844503D01*
X128432908Y-29869631D01*
X128442913Y-29890411D01*
X128449945Y-29904205D01*
X128451826Y-29907444D01*
X128463622Y-29919288D01*
X128481483Y-29931048D01*
X128487983Y-29934292D01*
X128495228Y-29937258D01*
X128503494Y-29939695D01*
X128514032Y-29941656D01*
X128528096Y-29943194D01*
X128546935Y-29944360D01*
X128571801Y-29945206D01*
X128603947Y-29945786D01*
X128644623Y-29946151D01*
X128695081Y-29946353D01*
X128756574Y-29946445D01*
X128779588Y-29946460D01*
X129044700Y-29946600D01*
X129044700Y-27971750D01*
X128961733Y-27971750D01*
X128929558Y-27972234D01*
G36*
X127372997Y-27972404D02*
X127342883Y-27974248D01*
X127321785Y-27977104D01*
X127314148Y-27979336D01*
X127309297Y-27981338D01*
X127304918Y-27983121D01*
X127300988Y-27985313D01*
X127297483Y-27988542D01*
X127294377Y-27993435D01*
X127291648Y-28000621D01*
X127289270Y-28010729D01*
X127287220Y-28024386D01*
X127285474Y-28042220D01*
X127284007Y-28064861D01*
X127282795Y-28092934D01*
X127281814Y-28127070D01*
X127281041Y-28167896D01*
X127280449Y-28216040D01*
X127280017Y-28272131D01*
X127279719Y-28336795D01*
X127279531Y-28410663D01*
X127279429Y-28494361D01*
X127279388Y-28588518D01*
X127279386Y-28693763D01*
X127279397Y-28810722D01*
X127279400Y-28882580D01*
X127279400Y-29743241D01*
X126822954Y-29746575D01*
X126855284Y-29819600D01*
X126871414Y-29855651D01*
X126883882Y-29881975D01*
X126894012Y-29900522D01*
X126903130Y-29913244D01*
X126912562Y-29922094D01*
X126923633Y-29929022D01*
X126932681Y-29933588D01*
X126939762Y-29936785D01*
X126947373Y-29939412D01*
X126956772Y-29941523D01*
X126969212Y-29943176D01*
X126985952Y-29944425D01*
X127008246Y-29945328D01*
X127037350Y-29945939D01*
X127074520Y-29946316D01*
X127121013Y-29946514D01*
X127178083Y-29946590D01*
X127224255Y-29946600D01*
X127488950Y-29946600D01*
X127488950Y-27971750D01*
X127409874Y-27971750D01*
X127372997Y-27972404D01*
X127372997Y-27972404D01*
G37*
X127372997Y-27972404D02*
X127342883Y-27974248D01*
X127321785Y-27977104D01*
X127314148Y-27979336D01*
X127309297Y-27981338D01*
X127304918Y-27983121D01*
X127300988Y-27985313D01*
X127297483Y-27988542D01*
X127294377Y-27993435D01*
X127291648Y-28000621D01*
X127289270Y-28010729D01*
X127287220Y-28024386D01*
X127285474Y-28042220D01*
X127284007Y-28064861D01*
X127282795Y-28092934D01*
X127281814Y-28127070D01*
X127281041Y-28167896D01*
X127280449Y-28216040D01*
X127280017Y-28272131D01*
X127279719Y-28336795D01*
X127279531Y-28410663D01*
X127279429Y-28494361D01*
X127279388Y-28588518D01*
X127279386Y-28693763D01*
X127279397Y-28810722D01*
X127279400Y-28882580D01*
X127279400Y-29743241D01*
X126822954Y-29746575D01*
X126855284Y-29819600D01*
X126871414Y-29855651D01*
X126883882Y-29881975D01*
X126894012Y-29900522D01*
X126903130Y-29913244D01*
X126912562Y-29922094D01*
X126923633Y-29929022D01*
X126932681Y-29933588D01*
X126939762Y-29936785D01*
X126947373Y-29939412D01*
X126956772Y-29941523D01*
X126969212Y-29943176D01*
X126985952Y-29944425D01*
X127008246Y-29945328D01*
X127037350Y-29945939D01*
X127074520Y-29946316D01*
X127121013Y-29946514D01*
X127178083Y-29946590D01*
X127224255Y-29946600D01*
X127488950Y-29946600D01*
X127488950Y-27971750D01*
X127409874Y-27971750D01*
X127372997Y-27972404D01*
G36*
X125725173Y-27972654D02*
X125694315Y-27975834D01*
X125671801Y-27982167D01*
X125655496Y-27992505D01*
X125643264Y-28007698D01*
X125634806Y-28024306D01*
X125632051Y-28034462D01*
X125627632Y-28056216D01*
X125621534Y-28089651D01*
X125613743Y-28134854D01*
X125604246Y-28191910D01*
X125593030Y-28260904D01*
X125580080Y-28341921D01*
X125565383Y-28435047D01*
X125548925Y-28540366D01*
X125530692Y-28657965D01*
X125510672Y-28787927D01*
X125488849Y-28930339D01*
X125479595Y-28990925D01*
X125463165Y-29098638D01*
X125447266Y-29202969D01*
X125432006Y-29303222D01*
X125417488Y-29398702D01*
X125403818Y-29488715D01*
X125391101Y-29572567D01*
X125379441Y-29649562D01*
X125368945Y-29719007D01*
X125359716Y-29780206D01*
X125351861Y-29832466D01*
X125345483Y-29875091D01*
X125340689Y-29907387D01*
X125337583Y-29928660D01*
X125336271Y-29938215D01*
X125336233Y-29938662D01*
X125339345Y-29941646D01*
X125349494Y-29943838D01*
X125367987Y-29945331D01*
X125396132Y-29946214D01*
X125435237Y-29946578D01*
X125450600Y-29946600D01*
X125487113Y-29946328D01*
X125518800Y-29945574D01*
X125543657Y-29944427D01*
X125559681Y-29942979D01*
X125564900Y-29941441D01*
X125565709Y-29933906D01*
X125568046Y-29914887D01*
X125571778Y-29885392D01*
X125576773Y-29846430D01*
X125582898Y-29799011D01*
X125590019Y-29744144D01*
X125598004Y-29682838D01*
X125606720Y-29616101D01*
X125616034Y-29544944D01*
X125625812Y-29470375D01*
X125635923Y-29393403D01*
X125646233Y-29315037D01*
X125656608Y-29236287D01*
X125666917Y-29158161D01*
X125677026Y-29081669D01*
X125686802Y-29007821D01*
X125696113Y-28937623D01*
X125704825Y-28872087D01*
X125712805Y-28812222D01*
X125719921Y-28759035D01*
X125726040Y-28713537D01*
X125731028Y-28676736D01*
X125734753Y-28649642D01*
X125737081Y-28633263D01*
X125737866Y-28628518D01*
X125738944Y-28634395D01*
X125741541Y-28652041D01*
X125745546Y-28680627D01*
X125750849Y-28719327D01*
X125757339Y-28767314D01*
X125764906Y-28823760D01*
X125773439Y-28887838D01*
X125782827Y-28958722D01*
X125792960Y-29035584D01*
X125803727Y-29117596D01*
X125815018Y-29203932D01*
X125824338Y-29275438D01*
X125836004Y-29364954D01*
X125847252Y-29451028D01*
X125857970Y-29532810D01*
X125868044Y-29609450D01*
X125877362Y-29680099D01*
X125885812Y-29743906D01*
X125893280Y-29800023D01*
X125899655Y-29847600D01*
X125904822Y-29885787D01*
X125908670Y-29913735D01*
X125911086Y-29930593D01*
X125911900Y-29935487D01*
X125914042Y-29939463D01*
X125919081Y-29942367D01*
X125928764Y-29944364D01*
X125944842Y-29945619D01*
X125969062Y-29946298D01*
X126003173Y-29946567D01*
X126029383Y-29946600D01*
X126143760Y-29946600D01*
X126140226Y-29929137D01*
X126138907Y-29921068D01*
X126135830Y-29901355D01*
X126131120Y-29870826D01*
X126124904Y-29830307D01*
X126117305Y-29780623D01*
X126108450Y-29722601D01*
X126098463Y-29657068D01*
X126087469Y-29584849D01*
X126075595Y-29506770D01*
X126062964Y-29423658D01*
X126049703Y-29336339D01*
X126035936Y-29245640D01*
X126021788Y-29152386D01*
X126007385Y-29057403D01*
X125992853Y-28961519D01*
X125978315Y-28865558D01*
X125963897Y-28770348D01*
X125949725Y-28676714D01*
X125935924Y-28585483D01*
X125922619Y-28497481D01*
X125909934Y-28413535D01*
X125897996Y-28334469D01*
X125886930Y-28261111D01*
X125876860Y-28194287D01*
X125867912Y-28134823D01*
X125860210Y-28083545D01*
X125853881Y-28041280D01*
X125849050Y-28008853D01*
X125845841Y-27987091D01*
X125844379Y-27976820D01*
X125844300Y-27976110D01*
X125838356Y-27974444D01*
X125822141Y-27973076D01*
X125798084Y-27972141D01*
X125768615Y-27971774D01*
X125766513Y-27971773D01*
X125725173Y-27972654D01*
X125725173Y-27972654D01*
G37*
X125725173Y-27972654D02*
X125694315Y-27975834D01*
X125671801Y-27982167D01*
X125655496Y-27992505D01*
X125643264Y-28007698D01*
X125634806Y-28024306D01*
X125632051Y-28034462D01*
X125627632Y-28056216D01*
X125621534Y-28089651D01*
X125613743Y-28134854D01*
X125604246Y-28191910D01*
X125593030Y-28260904D01*
X125580080Y-28341921D01*
X125565383Y-28435047D01*
X125548925Y-28540366D01*
X125530692Y-28657965D01*
X125510672Y-28787927D01*
X125488849Y-28930339D01*
X125479595Y-28990925D01*
X125463165Y-29098638D01*
X125447266Y-29202969D01*
X125432006Y-29303222D01*
X125417488Y-29398702D01*
X125403818Y-29488715D01*
X125391101Y-29572567D01*
X125379441Y-29649562D01*
X125368945Y-29719007D01*
X125359716Y-29780206D01*
X125351861Y-29832466D01*
X125345483Y-29875091D01*
X125340689Y-29907387D01*
X125337583Y-29928660D01*
X125336271Y-29938215D01*
X125336233Y-29938662D01*
X125339345Y-29941646D01*
X125349494Y-29943838D01*
X125367987Y-29945331D01*
X125396132Y-29946214D01*
X125435237Y-29946578D01*
X125450600Y-29946600D01*
X125487113Y-29946328D01*
X125518800Y-29945574D01*
X125543657Y-29944427D01*
X125559681Y-29942979D01*
X125564900Y-29941441D01*
X125565709Y-29933906D01*
X125568046Y-29914887D01*
X125571778Y-29885392D01*
X125576773Y-29846430D01*
X125582898Y-29799011D01*
X125590019Y-29744144D01*
X125598004Y-29682838D01*
X125606720Y-29616101D01*
X125616034Y-29544944D01*
X125625812Y-29470375D01*
X125635923Y-29393403D01*
X125646233Y-29315037D01*
X125656608Y-29236287D01*
X125666917Y-29158161D01*
X125677026Y-29081669D01*
X125686802Y-29007821D01*
X125696113Y-28937623D01*
X125704825Y-28872087D01*
X125712805Y-28812222D01*
X125719921Y-28759035D01*
X125726040Y-28713537D01*
X125731028Y-28676736D01*
X125734753Y-28649642D01*
X125737081Y-28633263D01*
X125737866Y-28628518D01*
X125738944Y-28634395D01*
X125741541Y-28652041D01*
X125745546Y-28680627D01*
X125750849Y-28719327D01*
X125757339Y-28767314D01*
X125764906Y-28823760D01*
X125773439Y-28887838D01*
X125782827Y-28958722D01*
X125792960Y-29035584D01*
X125803727Y-29117596D01*
X125815018Y-29203932D01*
X125824338Y-29275438D01*
X125836004Y-29364954D01*
X125847252Y-29451028D01*
X125857970Y-29532810D01*
X125868044Y-29609450D01*
X125877362Y-29680099D01*
X125885812Y-29743906D01*
X125893280Y-29800023D01*
X125899655Y-29847600D01*
X125904822Y-29885787D01*
X125908670Y-29913735D01*
X125911086Y-29930593D01*
X125911900Y-29935487D01*
X125914042Y-29939463D01*
X125919081Y-29942367D01*
X125928764Y-29944364D01*
X125944842Y-29945619D01*
X125969062Y-29946298D01*
X126003173Y-29946567D01*
X126029383Y-29946600D01*
X126143760Y-29946600D01*
X126140226Y-29929137D01*
X126138907Y-29921068D01*
X126135830Y-29901355D01*
X126131120Y-29870826D01*
X126124904Y-29830307D01*
X126117305Y-29780623D01*
X126108450Y-29722601D01*
X126098463Y-29657068D01*
X126087469Y-29584849D01*
X126075595Y-29506770D01*
X126062964Y-29423658D01*
X126049703Y-29336339D01*
X126035936Y-29245640D01*
X126021788Y-29152386D01*
X126007385Y-29057403D01*
X125992853Y-28961519D01*
X125978315Y-28865558D01*
X125963897Y-28770348D01*
X125949725Y-28676714D01*
X125935924Y-28585483D01*
X125922619Y-28497481D01*
X125909934Y-28413535D01*
X125897996Y-28334469D01*
X125886930Y-28261111D01*
X125876860Y-28194287D01*
X125867912Y-28134823D01*
X125860210Y-28083545D01*
X125853881Y-28041280D01*
X125849050Y-28008853D01*
X125845841Y-27987091D01*
X125844379Y-27976820D01*
X125844300Y-27976110D01*
X125838356Y-27974444D01*
X125822141Y-27973076D01*
X125798084Y-27972141D01*
X125768615Y-27971774D01*
X125766513Y-27971773D01*
X125725173Y-27972654D01*
G36*
X122067017Y-28027312D02*
X122079763Y-28054900D01*
X122091843Y-28081256D01*
X122101316Y-28102134D01*
X122104061Y-28108275D01*
X122114758Y-28129405D01*
X122126977Y-28145793D01*
X122142446Y-28158083D01*
X122162892Y-28166919D01*
X122190044Y-28172943D01*
X122225630Y-28176798D01*
X122271377Y-28179128D01*
X122296376Y-28179867D01*
X122336939Y-28180979D01*
X122366690Y-28182125D01*
X122387517Y-28183555D01*
X122401306Y-28185521D01*
X122409945Y-28188274D01*
X122415319Y-28192065D01*
X122418613Y-28196123D01*
X122420833Y-28200861D01*
X122422684Y-28208882D01*
X122424197Y-28221247D01*
X122425405Y-28239014D01*
X122426338Y-28263243D01*
X122427028Y-28294994D01*
X122427508Y-28335324D01*
X122427809Y-28385295D01*
X122427962Y-28445964D01*
X122428000Y-28509737D01*
X122428000Y-28809950D01*
X122123682Y-28809950D01*
X122145880Y-28862337D01*
X122165813Y-28908443D01*
X122182743Y-28944049D01*
X122198224Y-28970508D01*
X122213808Y-28989175D01*
X122231049Y-29001403D01*
X122251501Y-29008547D01*
X122276716Y-29011959D01*
X122308248Y-29012996D01*
X122318778Y-29013045D01*
X122360066Y-29014474D01*
X122390191Y-29018842D01*
X122410425Y-29026500D01*
X122422039Y-29037796D01*
X122424056Y-29042009D01*
X122424799Y-29050145D01*
X122425497Y-29069782D01*
X122426136Y-29099721D01*
X122426702Y-29138765D01*
X122427183Y-29185715D01*
X122427565Y-29239371D01*
X122427835Y-29298536D01*
X122427979Y-29362011D01*
X122428000Y-29397844D01*
X122428000Y-29743400D01*
X122218450Y-29743400D01*
X122153699Y-29743593D01*
X122100602Y-29744170D01*
X122059374Y-29745124D01*
X122030231Y-29746448D01*
X122013387Y-29748135D01*
X122008900Y-29749835D01*
X122011648Y-29760107D01*
X122019013Y-29778832D01*
X122029677Y-29803236D01*
X122042323Y-29830544D01*
X122055634Y-29857981D01*
X122068291Y-29882773D01*
X122078978Y-29902144D01*
X122086376Y-29913320D01*
X122086704Y-29913688D01*
X122094394Y-29921656D01*
X122102245Y-29928223D01*
X122111505Y-29933523D01*
X122123421Y-29937692D01*
X122139242Y-29940867D01*
X122160214Y-29943181D01*
X122187584Y-29944771D01*
X122222601Y-29945773D01*
X122266511Y-29946321D01*
X122320563Y-29946551D01*
X122386002Y-29946599D01*
X122389697Y-29946600D01*
X122637550Y-29946600D01*
X122637550Y-28008873D01*
X122618989Y-27990311D01*
X122600427Y-27971750D01*
X122320830Y-27971750D01*
X122041232Y-27971749D01*
X122067017Y-28027312D01*
X122067017Y-28027312D01*
G37*
X122067017Y-28027312D02*
X122079763Y-28054900D01*
X122091843Y-28081256D01*
X122101316Y-28102134D01*
X122104061Y-28108275D01*
X122114758Y-28129405D01*
X122126977Y-28145793D01*
X122142446Y-28158083D01*
X122162892Y-28166919D01*
X122190044Y-28172943D01*
X122225630Y-28176798D01*
X122271377Y-28179128D01*
X122296376Y-28179867D01*
X122336939Y-28180979D01*
X122366690Y-28182125D01*
X122387517Y-28183555D01*
X122401306Y-28185521D01*
X122409945Y-28188274D01*
X122415319Y-28192065D01*
X122418613Y-28196123D01*
X122420833Y-28200861D01*
X122422684Y-28208882D01*
X122424197Y-28221247D01*
X122425405Y-28239014D01*
X122426338Y-28263243D01*
X122427028Y-28294994D01*
X122427508Y-28335324D01*
X122427809Y-28385295D01*
X122427962Y-28445964D01*
X122428000Y-28509737D01*
X122428000Y-28809950D01*
X122123682Y-28809950D01*
X122145880Y-28862337D01*
X122165813Y-28908443D01*
X122182743Y-28944049D01*
X122198224Y-28970508D01*
X122213808Y-28989175D01*
X122231049Y-29001403D01*
X122251501Y-29008547D01*
X122276716Y-29011959D01*
X122308248Y-29012996D01*
X122318778Y-29013045D01*
X122360066Y-29014474D01*
X122390191Y-29018842D01*
X122410425Y-29026500D01*
X122422039Y-29037796D01*
X122424056Y-29042009D01*
X122424799Y-29050145D01*
X122425497Y-29069782D01*
X122426136Y-29099721D01*
X122426702Y-29138765D01*
X122427183Y-29185715D01*
X122427565Y-29239371D01*
X122427835Y-29298536D01*
X122427979Y-29362011D01*
X122428000Y-29397844D01*
X122428000Y-29743400D01*
X122218450Y-29743400D01*
X122153699Y-29743593D01*
X122100602Y-29744170D01*
X122059374Y-29745124D01*
X122030231Y-29746448D01*
X122013387Y-29748135D01*
X122008900Y-29749835D01*
X122011648Y-29760107D01*
X122019013Y-29778832D01*
X122029677Y-29803236D01*
X122042323Y-29830544D01*
X122055634Y-29857981D01*
X122068291Y-29882773D01*
X122078978Y-29902144D01*
X122086376Y-29913320D01*
X122086704Y-29913688D01*
X122094394Y-29921656D01*
X122102245Y-29928223D01*
X122111505Y-29933523D01*
X122123421Y-29937692D01*
X122139242Y-29940867D01*
X122160214Y-29943181D01*
X122187584Y-29944771D01*
X122222601Y-29945773D01*
X122266511Y-29946321D01*
X122320563Y-29946551D01*
X122386002Y-29946599D01*
X122389697Y-29946600D01*
X122637550Y-29946600D01*
X122637550Y-28008873D01*
X122618989Y-27990311D01*
X122600427Y-27971750D01*
X122320830Y-27971750D01*
X122041232Y-27971749D01*
X122067017Y-28027312D01*
G36*
X143392525Y-28140797D02*
X143348133Y-28140939D01*
X143313863Y-28141448D01*
X143287137Y-28142561D01*
X143265377Y-28144511D01*
X143246008Y-28147535D01*
X143226450Y-28151868D01*
X143204127Y-28157745D01*
X143202764Y-28158119D01*
X143116637Y-28187219D01*
X143039525Y-28224889D01*
X142970721Y-28271529D01*
X142917798Y-28318975D01*
X142881420Y-28357930D01*
X142852493Y-28394308D01*
X142827877Y-28432537D01*
X142804432Y-28477047D01*
X142801594Y-28482925D01*
X142782682Y-28524538D01*
X142768357Y-28562019D01*
X142758030Y-28598334D01*
X142751114Y-28636447D01*
X142747019Y-28679325D01*
X142745157Y-28729933D01*
X142744865Y-28768675D01*
X142745040Y-28813031D01*
X142745704Y-28847364D01*
X142747081Y-28874348D01*
X142749396Y-28896656D01*
X142752875Y-28916961D01*
X142757742Y-28937938D01*
X142759768Y-28945751D01*
X142787496Y-29030999D01*
X142823067Y-29106309D01*
X142866459Y-29171654D01*
X142917655Y-29227009D01*
X142976634Y-29272348D01*
X143024225Y-29298928D01*
X143048083Y-29310288D01*
X143069117Y-29319627D01*
X143088893Y-29327159D01*
X143108980Y-29333098D01*
X143130945Y-29337659D01*
X143156356Y-29341056D01*
X143186779Y-29343504D01*
X143223782Y-29345216D01*
X143268932Y-29346408D01*
X143323797Y-29347293D01*
X143383089Y-29348008D01*
X143443650Y-29348671D01*
X143492922Y-29349105D01*
X143532318Y-29349255D01*
X143563249Y-29349061D01*
X143587126Y-29348468D01*
X143605359Y-29347417D01*
X143619361Y-29345852D01*
X143630542Y-29343715D01*
X143640314Y-29340949D01*
X143650087Y-29337497D01*
X143651070Y-29337130D01*
X143691413Y-29316024D01*
X143728236Y-29285501D01*
X143757929Y-29248845D01*
X143768443Y-29230336D01*
X143775547Y-29215178D01*
X143780457Y-29201759D01*
X143783576Y-29187241D01*
X143785308Y-29168782D01*
X143786056Y-29143542D01*
X143786225Y-29108682D01*
X143786225Y-29105225D01*
X143786059Y-29069117D01*
X143785309Y-29042859D01*
X143783594Y-29023601D01*
X143780536Y-29008494D01*
X143775755Y-28994689D01*
X143769708Y-28981110D01*
X143746022Y-28940029D01*
X143716946Y-28908420D01*
X143679586Y-28883302D01*
X143669951Y-28878342D01*
X143627788Y-28857575D01*
X143506982Y-28854378D01*
X143460928Y-28852974D01*
X143425749Y-28851219D01*
X143399620Y-28848664D01*
X143380718Y-28844857D01*
X143367216Y-28839349D01*
X143357291Y-28831689D01*
X143349119Y-28821428D01*
X143344584Y-28814307D01*
X143333839Y-28785917D01*
X143333999Y-28756795D01*
X143344297Y-28730046D01*
X143363961Y-28708776D01*
X143371995Y-28703694D01*
X143379872Y-28700154D01*
X143390091Y-28697375D01*
X143404281Y-28695239D01*
X143424071Y-28693626D01*
X143451089Y-28692419D01*
X143486965Y-28691498D01*
X143533326Y-28690744D01*
X143552863Y-28690491D01*
X143596482Y-28689834D01*
X143635587Y-28689023D01*
X143668487Y-28688109D01*
X143693489Y-28687146D01*
X143708902Y-28686188D01*
X143713200Y-28685427D01*
X143710649Y-28678798D01*
X143703719Y-28663114D01*
X143693496Y-28640786D01*
X143682190Y-28616604D01*
X143669359Y-28589431D01*
X143658453Y-28568415D01*
X143647669Y-28552768D01*
X143635204Y-28541698D01*
X143619255Y-28534417D01*
X143598019Y-28530133D01*
X143569693Y-28528058D01*
X143532475Y-28527401D01*
X143484562Y-28527373D01*
X143478530Y-28527375D01*
X143433383Y-28527419D01*
X143398930Y-28527685D01*
X143373166Y-28528365D01*
X143354085Y-28529657D01*
X143339681Y-28531754D01*
X143327950Y-28534853D01*
X143316885Y-28539149D01*
X143305861Y-28544189D01*
X143265514Y-28569038D01*
X143230197Y-28602202D01*
X143203876Y-28639824D01*
X143198441Y-28650873D01*
X143194552Y-28661994D01*
X143191955Y-28675516D01*
X143190392Y-28693765D01*
X143189607Y-28719071D01*
X143189343Y-28753762D01*
X143189325Y-28771850D01*
X143189446Y-28811214D01*
X143189979Y-28840209D01*
X143191181Y-28861161D01*
X143193308Y-28876401D01*
X143196618Y-28888255D01*
X143201368Y-28899054D01*
X143203888Y-28903898D01*
X143233471Y-28947128D01*
X143270758Y-28981419D01*
X143299431Y-28998673D01*
X143312365Y-29004778D01*
X143324242Y-29009349D01*
X143337236Y-29012670D01*
X143353521Y-29015025D01*
X143375270Y-29016696D01*
X143404657Y-29017968D01*
X143443855Y-29019125D01*
X143459200Y-29019527D01*
X143502919Y-29020790D01*
X143535829Y-29022143D01*
X143559821Y-29023788D01*
X143576784Y-29025929D01*
X143588611Y-29028769D01*
X143597190Y-29032512D01*
X143600813Y-29034757D01*
X143621886Y-29055643D01*
X143633503Y-29081380D01*
X143635897Y-29109085D01*
X143629302Y-29135876D01*
X143613950Y-29158871D01*
X143590073Y-29175189D01*
X143589440Y-29175457D01*
X143575488Y-29178493D01*
X143550891Y-29180961D01*
X143517690Y-29182861D01*
X143477928Y-29184194D01*
X143433647Y-29184960D01*
X143386887Y-29185162D01*
X143339692Y-29184798D01*
X143294103Y-29183871D01*
X143252162Y-29182381D01*
X143215912Y-29180329D01*
X143187393Y-29177716D01*
X143171817Y-29175286D01*
X143111734Y-29156422D01*
X143058306Y-29126898D01*
X143011882Y-29087079D01*
X142972812Y-29037329D01*
X142941446Y-28978012D01*
X142918645Y-28911426D01*
X142910137Y-28868366D01*
X142904979Y-28818245D01*
X142903223Y-28765205D01*
X142904917Y-28713387D01*
X142910113Y-28666932D01*
X142915366Y-28641675D01*
X142940542Y-28569372D01*
X142976014Y-28504203D01*
X143021212Y-28446727D01*
X143075566Y-28397502D01*
X143138505Y-28357089D01*
X143209459Y-28326047D01*
X143249650Y-28313710D01*
X143295321Y-28304933D01*
X143349500Y-28299980D01*
X143408586Y-28298845D01*
X143468977Y-28301524D01*
X143527074Y-28308015D01*
X143560800Y-28314043D01*
X143646653Y-28337740D01*
X143724123Y-28370939D01*
X143793111Y-28413554D01*
X143853516Y-28465496D01*
X143905238Y-28526679D01*
X143948179Y-28597014D01*
X143982238Y-28676415D01*
X143986000Y-28687372D01*
X144008103Y-28771144D01*
X144020868Y-28860243D01*
X144024444Y-28952216D01*
X144018981Y-29044609D01*
X144004629Y-29134967D01*
X143981538Y-29220837D01*
X143949859Y-29299764D01*
X143948388Y-29302797D01*
X143907451Y-29374259D01*
X143858966Y-29436069D01*
X143802474Y-29488570D01*
X143737515Y-29532105D01*
X143663629Y-29567017D01*
X143580357Y-29593649D01*
X143548100Y-29601252D01*
X143511241Y-29607076D01*
X143465270Y-29611095D01*
X143413587Y-29613306D01*
X143359592Y-29613705D01*
X143306685Y-29612289D01*
X143258265Y-29609054D01*
X143217731Y-29603996D01*
X143205200Y-29601616D01*
X143125991Y-29581399D01*
X143050060Y-29555846D01*
X142979110Y-29525805D01*
X142914847Y-29492124D01*
X142858975Y-29455653D01*
X142813197Y-29417239D01*
X142793982Y-29396820D01*
X142770221Y-29369021D01*
X142706723Y-29413773D01*
X142682116Y-29431437D01*
X142661608Y-29446766D01*
X142647294Y-29458154D01*
X142641264Y-29463992D01*
X142641229Y-29464078D01*
X142644314Y-29472101D01*
X142655479Y-29486428D01*
X142672946Y-29505357D01*
X142694937Y-29527185D01*
X142719673Y-29550209D01*
X142745377Y-29572728D01*
X142770269Y-29593039D01*
X142792572Y-29609438D01*
X142794222Y-29610551D01*
X142871885Y-29656478D01*
X142958953Y-29697106D01*
X143052866Y-29731399D01*
X143151066Y-29758324D01*
X143170275Y-29762580D01*
X143212717Y-29769551D01*
X143264204Y-29774746D01*
X143321195Y-29778072D01*
X143380147Y-29779434D01*
X143437519Y-29778739D01*
X143489769Y-29775891D01*
X143525336Y-29772024D01*
X143627352Y-29751871D01*
X143721577Y-29721729D01*
X143807794Y-29681803D01*
X143885784Y-29632301D01*
X143955330Y-29573427D01*
X144016214Y-29505389D01*
X144068217Y-29428392D01*
X144111123Y-29342641D01*
X144144713Y-29248344D01*
X144164617Y-29167453D01*
X144170999Y-29127123D01*
X144176114Y-29077458D01*
X144179856Y-29021772D01*
X144182115Y-28963376D01*
X144182784Y-28905584D01*
X144181755Y-28851708D01*
X144178918Y-28805061D01*
X144177038Y-28787424D01*
X144162574Y-28707352D01*
X144139936Y-28627984D01*
X144110258Y-28552251D01*
X144074670Y-28483084D01*
X144038585Y-28428950D01*
X143977786Y-28359461D01*
X143907923Y-28298824D01*
X143829101Y-28247101D01*
X143741425Y-28204355D01*
X143644999Y-28170648D01*
X143581207Y-28154393D01*
X143556782Y-28149407D01*
X143533302Y-28145768D01*
X143508061Y-28143283D01*
X143478354Y-28141756D01*
X143441476Y-28140992D01*
X143394722Y-28140796D01*
X143392525Y-28140797D01*
X143392525Y-28140797D01*
G37*
X143392525Y-28140797D02*
X143348133Y-28140939D01*
X143313863Y-28141448D01*
X143287137Y-28142561D01*
X143265377Y-28144511D01*
X143246008Y-28147535D01*
X143226450Y-28151868D01*
X143204127Y-28157745D01*
X143202764Y-28158119D01*
X143116637Y-28187219D01*
X143039525Y-28224889D01*
X142970721Y-28271529D01*
X142917798Y-28318975D01*
X142881420Y-28357930D01*
X142852493Y-28394308D01*
X142827877Y-28432537D01*
X142804432Y-28477047D01*
X142801594Y-28482925D01*
X142782682Y-28524538D01*
X142768357Y-28562019D01*
X142758030Y-28598334D01*
X142751114Y-28636447D01*
X142747019Y-28679325D01*
X142745157Y-28729933D01*
X142744865Y-28768675D01*
X142745040Y-28813031D01*
X142745704Y-28847364D01*
X142747081Y-28874348D01*
X142749396Y-28896656D01*
X142752875Y-28916961D01*
X142757742Y-28937938D01*
X142759768Y-28945751D01*
X142787496Y-29030999D01*
X142823067Y-29106309D01*
X142866459Y-29171654D01*
X142917655Y-29227009D01*
X142976634Y-29272348D01*
X143024225Y-29298928D01*
X143048083Y-29310288D01*
X143069117Y-29319627D01*
X143088893Y-29327159D01*
X143108980Y-29333098D01*
X143130945Y-29337659D01*
X143156356Y-29341056D01*
X143186779Y-29343504D01*
X143223782Y-29345216D01*
X143268932Y-29346408D01*
X143323797Y-29347293D01*
X143383089Y-29348008D01*
X143443650Y-29348671D01*
X143492922Y-29349105D01*
X143532318Y-29349255D01*
X143563249Y-29349061D01*
X143587126Y-29348468D01*
X143605359Y-29347417D01*
X143619361Y-29345852D01*
X143630542Y-29343715D01*
X143640314Y-29340949D01*
X143650087Y-29337497D01*
X143651070Y-29337130D01*
X143691413Y-29316024D01*
X143728236Y-29285501D01*
X143757929Y-29248845D01*
X143768443Y-29230336D01*
X143775547Y-29215178D01*
X143780457Y-29201759D01*
X143783576Y-29187241D01*
X143785308Y-29168782D01*
X143786056Y-29143542D01*
X143786225Y-29108682D01*
X143786225Y-29105225D01*
X143786059Y-29069117D01*
X143785309Y-29042859D01*
X143783594Y-29023601D01*
X143780536Y-29008494D01*
X143775755Y-28994689D01*
X143769708Y-28981110D01*
X143746022Y-28940029D01*
X143716946Y-28908420D01*
X143679586Y-28883302D01*
X143669951Y-28878342D01*
X143627788Y-28857575D01*
X143506982Y-28854378D01*
X143460928Y-28852974D01*
X143425749Y-28851219D01*
X143399620Y-28848664D01*
X143380718Y-28844857D01*
X143367216Y-28839349D01*
X143357291Y-28831689D01*
X143349119Y-28821428D01*
X143344584Y-28814307D01*
X143333839Y-28785917D01*
X143333999Y-28756795D01*
X143344297Y-28730046D01*
X143363961Y-28708776D01*
X143371995Y-28703694D01*
X143379872Y-28700154D01*
X143390091Y-28697375D01*
X143404281Y-28695239D01*
X143424071Y-28693626D01*
X143451089Y-28692419D01*
X143486965Y-28691498D01*
X143533326Y-28690744D01*
X143552863Y-28690491D01*
X143596482Y-28689834D01*
X143635587Y-28689023D01*
X143668487Y-28688109D01*
X143693489Y-28687146D01*
X143708902Y-28686188D01*
X143713200Y-28685427D01*
X143710649Y-28678798D01*
X143703719Y-28663114D01*
X143693496Y-28640786D01*
X143682190Y-28616604D01*
X143669359Y-28589431D01*
X143658453Y-28568415D01*
X143647669Y-28552768D01*
X143635204Y-28541698D01*
X143619255Y-28534417D01*
X143598019Y-28530133D01*
X143569693Y-28528058D01*
X143532475Y-28527401D01*
X143484562Y-28527373D01*
X143478530Y-28527375D01*
X143433383Y-28527419D01*
X143398930Y-28527685D01*
X143373166Y-28528365D01*
X143354085Y-28529657D01*
X143339681Y-28531754D01*
X143327950Y-28534853D01*
X143316885Y-28539149D01*
X143305861Y-28544189D01*
X143265514Y-28569038D01*
X143230197Y-28602202D01*
X143203876Y-28639824D01*
X143198441Y-28650873D01*
X143194552Y-28661994D01*
X143191955Y-28675516D01*
X143190392Y-28693765D01*
X143189607Y-28719071D01*
X143189343Y-28753762D01*
X143189325Y-28771850D01*
X143189446Y-28811214D01*
X143189979Y-28840209D01*
X143191181Y-28861161D01*
X143193308Y-28876401D01*
X143196618Y-28888255D01*
X143201368Y-28899054D01*
X143203888Y-28903898D01*
X143233471Y-28947128D01*
X143270758Y-28981419D01*
X143299431Y-28998673D01*
X143312365Y-29004778D01*
X143324242Y-29009349D01*
X143337236Y-29012670D01*
X143353521Y-29015025D01*
X143375270Y-29016696D01*
X143404657Y-29017968D01*
X143443855Y-29019125D01*
X143459200Y-29019527D01*
X143502919Y-29020790D01*
X143535829Y-29022143D01*
X143559821Y-29023788D01*
X143576784Y-29025929D01*
X143588611Y-29028769D01*
X143597190Y-29032512D01*
X143600813Y-29034757D01*
X143621886Y-29055643D01*
X143633503Y-29081380D01*
X143635897Y-29109085D01*
X143629302Y-29135876D01*
X143613950Y-29158871D01*
X143590073Y-29175189D01*
X143589440Y-29175457D01*
X143575488Y-29178493D01*
X143550891Y-29180961D01*
X143517690Y-29182861D01*
X143477928Y-29184194D01*
X143433647Y-29184960D01*
X143386887Y-29185162D01*
X143339692Y-29184798D01*
X143294103Y-29183871D01*
X143252162Y-29182381D01*
X143215912Y-29180329D01*
X143187393Y-29177716D01*
X143171817Y-29175286D01*
X143111734Y-29156422D01*
X143058306Y-29126898D01*
X143011882Y-29087079D01*
X142972812Y-29037329D01*
X142941446Y-28978012D01*
X142918645Y-28911426D01*
X142910137Y-28868366D01*
X142904979Y-28818245D01*
X142903223Y-28765205D01*
X142904917Y-28713387D01*
X142910113Y-28666932D01*
X142915366Y-28641675D01*
X142940542Y-28569372D01*
X142976014Y-28504203D01*
X143021212Y-28446727D01*
X143075566Y-28397502D01*
X143138505Y-28357089D01*
X143209459Y-28326047D01*
X143249650Y-28313710D01*
X143295321Y-28304933D01*
X143349500Y-28299980D01*
X143408586Y-28298845D01*
X143468977Y-28301524D01*
X143527074Y-28308015D01*
X143560800Y-28314043D01*
X143646653Y-28337740D01*
X143724123Y-28370939D01*
X143793111Y-28413554D01*
X143853516Y-28465496D01*
X143905238Y-28526679D01*
X143948179Y-28597014D01*
X143982238Y-28676415D01*
X143986000Y-28687372D01*
X144008103Y-28771144D01*
X144020868Y-28860243D01*
X144024444Y-28952216D01*
X144018981Y-29044609D01*
X144004629Y-29134967D01*
X143981538Y-29220837D01*
X143949859Y-29299764D01*
X143948388Y-29302797D01*
X143907451Y-29374259D01*
X143858966Y-29436069D01*
X143802474Y-29488570D01*
X143737515Y-29532105D01*
X143663629Y-29567017D01*
X143580357Y-29593649D01*
X143548100Y-29601252D01*
X143511241Y-29607076D01*
X143465270Y-29611095D01*
X143413587Y-29613306D01*
X143359592Y-29613705D01*
X143306685Y-29612289D01*
X143258265Y-29609054D01*
X143217731Y-29603996D01*
X143205200Y-29601616D01*
X143125991Y-29581399D01*
X143050060Y-29555846D01*
X142979110Y-29525805D01*
X142914847Y-29492124D01*
X142858975Y-29455653D01*
X142813197Y-29417239D01*
X142793982Y-29396820D01*
X142770221Y-29369021D01*
X142706723Y-29413773D01*
X142682116Y-29431437D01*
X142661608Y-29446766D01*
X142647294Y-29458154D01*
X142641264Y-29463992D01*
X142641229Y-29464078D01*
X142644314Y-29472101D01*
X142655479Y-29486428D01*
X142672946Y-29505357D01*
X142694937Y-29527185D01*
X142719673Y-29550209D01*
X142745377Y-29572728D01*
X142770269Y-29593039D01*
X142792572Y-29609438D01*
X142794222Y-29610551D01*
X142871885Y-29656478D01*
X142958953Y-29697106D01*
X143052866Y-29731399D01*
X143151066Y-29758324D01*
X143170275Y-29762580D01*
X143212717Y-29769551D01*
X143264204Y-29774746D01*
X143321195Y-29778072D01*
X143380147Y-29779434D01*
X143437519Y-29778739D01*
X143489769Y-29775891D01*
X143525336Y-29772024D01*
X143627352Y-29751871D01*
X143721577Y-29721729D01*
X143807794Y-29681803D01*
X143885784Y-29632301D01*
X143955330Y-29573427D01*
X144016214Y-29505389D01*
X144068217Y-29428392D01*
X144111123Y-29342641D01*
X144144713Y-29248344D01*
X144164617Y-29167453D01*
X144170999Y-29127123D01*
X144176114Y-29077458D01*
X144179856Y-29021772D01*
X144182115Y-28963376D01*
X144182784Y-28905584D01*
X144181755Y-28851708D01*
X144178918Y-28805061D01*
X144177038Y-28787424D01*
X144162574Y-28707352D01*
X144139936Y-28627984D01*
X144110258Y-28552251D01*
X144074670Y-28483084D01*
X144038585Y-28428950D01*
X143977786Y-28359461D01*
X143907923Y-28298824D01*
X143829101Y-28247101D01*
X143741425Y-28204355D01*
X143644999Y-28170648D01*
X143581207Y-28154393D01*
X143556782Y-28149407D01*
X143533302Y-28145768D01*
X143508061Y-28143283D01*
X143478354Y-28141756D01*
X143441476Y-28140992D01*
X143394722Y-28140796D01*
X143392525Y-28140797D01*
D10*
G36*
X156490819Y-74097935D02*
X157311667Y-71842672D01*
X159050099Y-72475409D01*
X158229251Y-74730672D01*
X156490819Y-74097935D01*
X156490819Y-74097935D01*
G37*
G36*
X159329586Y-66298486D02*
X160150434Y-64043223D01*
X161888866Y-64675960D01*
X161068018Y-66931223D01*
X159329586Y-66298486D01*
X159329586Y-66298486D01*
G37*
G36*
X169411593Y-78800712D02*
X170232441Y-76545449D01*
X171970873Y-77178186D01*
X171150025Y-79433449D01*
X169411593Y-78800712D01*
X169411593Y-78800712D01*
G37*
G36*
X172250360Y-71001263D02*
X173071208Y-68746000D01*
X174809640Y-69378737D01*
X173988792Y-71634000D01*
X172250360Y-71001263D01*
X172250360Y-71001263D01*
G37*
G36*
X161067708Y-69431928D02*
X161717547Y-67646512D01*
X162845178Y-68056936D01*
X162195339Y-69842352D01*
X161067708Y-69431928D01*
X161067708Y-69431928D01*
G37*
G36*
X162101369Y-69808150D02*
X162751208Y-68022734D01*
X163878839Y-68433158D01*
X163229000Y-70218574D01*
X162101369Y-69808150D01*
X162101369Y-69808150D01*
G37*
G36*
X163135031Y-70184372D02*
X163784870Y-68398956D01*
X164912501Y-68809380D01*
X164262662Y-70594796D01*
X163135031Y-70184372D01*
X163135031Y-70184372D01*
G37*
G36*
X164168693Y-70560594D02*
X164818532Y-68775178D01*
X165946163Y-69185602D01*
X165296324Y-70971018D01*
X164168693Y-70560594D01*
X164168693Y-70560594D01*
G37*
G36*
X165202355Y-70936816D02*
X165852194Y-69151400D01*
X166979825Y-69561824D01*
X166329986Y-71347240D01*
X165202355Y-70936816D01*
X165202355Y-70936816D01*
G37*
G36*
X166236017Y-71313039D02*
X166885856Y-69527623D01*
X168013487Y-69938047D01*
X167363648Y-71723463D01*
X166236017Y-71313039D01*
X166236017Y-71313039D01*
G37*
G36*
X167269679Y-71689261D02*
X167919518Y-69903845D01*
X169047149Y-70314269D01*
X168397310Y-72099685D01*
X167269679Y-71689261D01*
X167269679Y-71689261D01*
G37*
G36*
X168303341Y-72065483D02*
X168953180Y-70280067D01*
X170080811Y-70690491D01*
X169430972Y-72475907D01*
X168303341Y-72065483D01*
X168303341Y-72065483D01*
G37*
D12*
X110744000Y-85852000D03*
D13*
X110744000Y-88392000D03*
X108204000Y-85852000D03*
X108204000Y-88392000D03*
D14*
X160384772Y-99312274D03*
X161884772Y-99312274D03*
D15*
X94383011Y-91741175D03*
X94383011Y-94141175D03*
D16*
X97058551Y-94242075D03*
X97058551Y-93592075D03*
X97058551Y-92942075D03*
X97058551Y-92292075D03*
X97058551Y-91642075D03*
D17*
X96933551Y-96042075D03*
X96933011Y-89842075D03*
D18*
X94383011Y-96741175D03*
X94383011Y-89141175D03*
D19*
X123888000Y-80692000D03*
X123888000Y-81962000D03*
X123888000Y-83232000D03*
X123888000Y-84502000D03*
X123888000Y-85772000D03*
X123888000Y-87042000D03*
X123888000Y-88312000D03*
X123888000Y-89582000D03*
X123888000Y-90852000D03*
X123888000Y-92122000D03*
X123888000Y-93392000D03*
X123888000Y-94662000D03*
X123888000Y-95932000D03*
X123888000Y-97202000D03*
D20*
X127173000Y-98692000D03*
X128443000Y-98692000D03*
X129713000Y-98692000D03*
X130983000Y-98692000D03*
X132253000Y-98692000D03*
X133523000Y-98692000D03*
X134793000Y-98692000D03*
X136063000Y-98692000D03*
X137333000Y-98692000D03*
X138603000Y-98692000D03*
D19*
X141888000Y-97202000D03*
X141888000Y-95932000D03*
X141888000Y-94662000D03*
X141888000Y-93392000D03*
X141888000Y-92122000D03*
X141888000Y-90852000D03*
X141888000Y-89582000D03*
X141888000Y-88312000D03*
X141888000Y-87042000D03*
X141888000Y-85772000D03*
X141888000Y-84502000D03*
X141888000Y-83232000D03*
X141888000Y-81962000D03*
X141888000Y-80692000D03*
D21*
X133188000Y-88392000D03*
D22*
X104394000Y-91948000D03*
X104394000Y-93448000D03*
X106172000Y-91960000D03*
X106172000Y-93460000D03*
X106680000Y-100088000D03*
X106680000Y-101588000D03*
X100584000Y-100088000D03*
X100584000Y-101588000D03*
D23*
X113042000Y-112014000D03*
X114542000Y-112014000D03*
X120650000Y-93472001D03*
X119150000Y-93472001D03*
X144296000Y-82042000D03*
X145796000Y-82042000D03*
X144284000Y-80264000D03*
X145784000Y-80264000D03*
X147344000Y-87630000D03*
X148844000Y-87630000D03*
X147332000Y-92710000D03*
X148832000Y-92710000D03*
X144272000Y-85598000D03*
X145772000Y-85598000D03*
D10*
G36*
X167718596Y-65092246D02*
X166637950Y-64698923D01*
X167048374Y-63571292D01*
X168129020Y-63964615D01*
X167718596Y-65092246D01*
X167718596Y-65092246D01*
G37*
G36*
X168231626Y-63682708D02*
X167150980Y-63289385D01*
X167561404Y-62161754D01*
X168642050Y-62555077D01*
X168231626Y-63682708D01*
X168231626Y-63682708D01*
G37*
D22*
X109085383Y-105913491D03*
X109085383Y-107413491D03*
X112776000Y-115812000D03*
X112776000Y-114312000D03*
D23*
X112883386Y-107679494D03*
X111383386Y-107679494D03*
D22*
X134620000Y-107442000D03*
X134620000Y-105942000D03*
X133096000Y-107430000D03*
X133096000Y-105930000D03*
X131572000Y-107430000D03*
X131572000Y-105930000D03*
X128524000Y-107442000D03*
X128524000Y-105942000D03*
X127000000Y-107442000D03*
X127000000Y-105942000D03*
X123952000Y-107442000D03*
X123952000Y-105942000D03*
X120396000Y-113526000D03*
X120396000Y-112026000D03*
X125476000Y-107430000D03*
X125476000Y-105930000D03*
X122428000Y-107442000D03*
X122428000Y-105942000D03*
X121920000Y-113526000D03*
X121920000Y-112026000D03*
X93345000Y-113931000D03*
X93345000Y-115431000D03*
X93345000Y-130810000D03*
X93345000Y-129310000D03*
X127762000Y-126849000D03*
X127762000Y-125349000D03*
X136398000Y-126607000D03*
X136398000Y-125107000D03*
X172466000Y-131560000D03*
X172466000Y-130060000D03*
X172974000Y-113296000D03*
X172974000Y-114796000D03*
D24*
X108712000Y-102142000D03*
X108712000Y-100042000D03*
D25*
X111286000Y-115824000D03*
X109186000Y-115824000D03*
D26*
X101384000Y-126428000D03*
X101384000Y-124428000D03*
D27*
X106934000Y-128778000D03*
X106934000Y-122078000D03*
D28*
X112760000Y-100142000D03*
X112760000Y-102042000D03*
X110760000Y-101092000D03*
D29*
X148148000Y-101870000D03*
X150048000Y-101870000D03*
X149098000Y-103870000D03*
D30*
X105410000Y-88380000D03*
X105410000Y-86880000D03*
D14*
X120638000Y-97028000D03*
X119138000Y-97028000D03*
X120638000Y-95250000D03*
X119138000Y-95250000D03*
X106692000Y-98298000D03*
X108192000Y-98298000D03*
X107684000Y-103632000D03*
X106184000Y-103632000D03*
X144296000Y-83820000D03*
X145796000Y-83820000D03*
D30*
X114554000Y-115812000D03*
X114554000Y-114312000D03*
D14*
X113042000Y-110236000D03*
X114542000Y-110236000D03*
X119392000Y-84074000D03*
X120892000Y-84074000D03*
X119404000Y-85852000D03*
X120904000Y-85852000D03*
X148348000Y-100076000D03*
X149848000Y-100076000D03*
X146558000Y-103886000D03*
X145058000Y-103886000D03*
D31*
X101092000Y-111926000D03*
X103592000Y-111926000D03*
X106092000Y-111926000D03*
X101092000Y-106426000D03*
X103592000Y-106426000D03*
X106092000Y-106426000D03*
D32*
X102532000Y-101788000D03*
X102532000Y-100838000D03*
X102532000Y-99888000D03*
X104732000Y-99888000D03*
X104732000Y-101788000D03*
D33*
X107810000Y-95062000D03*
X107810000Y-94562000D03*
X107810000Y-94062000D03*
X107810000Y-93562000D03*
X107810000Y-93062000D03*
X107810000Y-92562000D03*
X107810000Y-92062000D03*
D34*
X108760000Y-91112000D03*
X109260000Y-91112000D03*
X109760000Y-91112000D03*
X110260000Y-91112000D03*
X110760000Y-91112000D03*
X111260000Y-91112000D03*
X111760000Y-91112000D03*
D33*
X112710000Y-92062000D03*
X112710000Y-92562000D03*
X112710000Y-93062000D03*
X112710000Y-93562000D03*
X112710000Y-94062000D03*
X112710000Y-94562000D03*
X112710000Y-95062000D03*
D34*
X111760000Y-96012000D03*
X111260000Y-96012000D03*
X110760000Y-96012000D03*
X110260000Y-96012000D03*
X109760000Y-96012000D03*
X109260000Y-96012000D03*
X108760000Y-96012000D03*
D35*
X111097500Y-92724500D03*
X111097500Y-94399500D03*
X109422500Y-92724500D03*
X109422500Y-94399500D03*
D36*
X114902000Y-91567002D03*
X114902000Y-90297002D03*
X114902000Y-89027002D03*
X114902000Y-87757002D03*
X120302000Y-87757002D03*
X120302000Y-89027002D03*
X120302000Y-90297002D03*
X120302000Y-91567002D03*
D22*
X130048000Y-107442000D03*
X130048000Y-105942000D03*
D37*
X124042000Y-112522000D03*
X141617000Y-112522000D03*
D38*
X140077000Y-110197000D03*
X139577000Y-110197000D03*
X139082000Y-110197000D03*
X138582000Y-110197000D03*
X138082000Y-110197000D03*
X137582000Y-110197000D03*
X137082000Y-110197000D03*
X136582000Y-110197000D03*
X136082000Y-110197000D03*
X135582000Y-110197000D03*
X135082000Y-110197000D03*
X134582000Y-110197000D03*
X134082000Y-110197000D03*
X133582000Y-110197000D03*
X133082000Y-110197000D03*
X132582000Y-110197000D03*
X132082000Y-110197000D03*
X131582000Y-110197000D03*
X131082000Y-110197000D03*
X130582000Y-110197000D03*
X130082000Y-110197000D03*
X129582000Y-110197000D03*
X129082000Y-110197000D03*
X128582000Y-110197000D03*
X128082000Y-110197000D03*
X127582000Y-110197000D03*
X127082000Y-110197000D03*
X126582000Y-110197000D03*
X126082000Y-110197000D03*
X125582000Y-110197000D03*
D39*
X102191820Y-92448380D03*
D40*
X102191820Y-94167960D03*
X99992180Y-94167960D03*
X99992180Y-92268040D03*
D32*
X109052000Y-111882000D03*
X109052000Y-110932000D03*
X109052000Y-109982000D03*
X111252000Y-109982000D03*
X111252000Y-111882000D03*
X110779383Y-105835486D03*
X110779383Y-104885486D03*
X110779383Y-103935486D03*
X112979383Y-103935486D03*
X112979383Y-105835486D03*
D41*
X102182000Y-97028000D03*
X105082000Y-97028000D03*
D14*
X109498000Y-113792000D03*
X110998000Y-113792000D03*
D30*
X114673384Y-107413492D03*
X114673384Y-105913492D03*
D42*
X90522000Y-124591000D03*
X90522000Y-123941000D03*
X90522000Y-123291000D03*
X90522000Y-122641000D03*
X90522000Y-121991000D03*
X90522000Y-121341000D03*
X90522000Y-120691000D03*
X90522000Y-120041000D03*
X90522000Y-119391000D03*
X90522000Y-118741000D03*
X96422000Y-118741000D03*
X96422000Y-119391000D03*
X96422000Y-120041000D03*
X96422000Y-120691000D03*
X96422000Y-121341000D03*
X96422000Y-121991000D03*
X96422000Y-122641000D03*
X96422000Y-123291000D03*
X96422000Y-123941000D03*
X96422000Y-124591000D03*
D43*
X145376000Y-91440000D03*
X145376000Y-88840000D03*
X150876000Y-88840000D03*
X150876000Y-91440000D03*
D22*
X114554000Y-100318000D03*
X114554000Y-98818000D03*
X116332000Y-100330000D03*
X116332000Y-98830000D03*
D23*
X121146000Y-102870000D03*
X119646000Y-102870000D03*
X156054776Y-103630271D03*
X154554776Y-103630271D03*
X156054767Y-102106282D03*
X154554767Y-102106282D03*
D22*
X164956768Y-104126277D03*
X164956768Y-102626277D03*
D23*
X156054767Y-105154269D03*
X154554767Y-105154269D03*
D22*
X163178770Y-103364282D03*
X163178770Y-101864282D03*
D23*
X161908764Y-97534281D03*
X163408764Y-97534281D03*
X157324769Y-97534283D03*
X155824769Y-97534283D03*
D22*
X154940000Y-75462001D03*
X154940000Y-76962001D03*
X110871000Y-76097000D03*
X110871000Y-77597000D03*
D28*
X96806000Y-106360000D03*
X96806000Y-104460000D03*
X98806000Y-105410000D03*
X96806000Y-100772000D03*
X96806000Y-98872000D03*
X98806000Y-99822000D03*
D30*
X94996000Y-106160000D03*
X94996000Y-104660000D03*
D14*
X98552000Y-102616000D03*
X97052000Y-102616000D03*
D30*
X94996000Y-100572000D03*
X94996000Y-99072000D03*
D14*
X100572000Y-97028000D03*
X99072000Y-97028000D03*
X161920763Y-95756281D03*
X163420763Y-95756281D03*
X157324767Y-95756283D03*
X155824767Y-95756283D03*
X158848774Y-99312278D03*
X157348774Y-99312278D03*
D44*
X161590771Y-101934283D03*
X161590771Y-102584283D03*
X161590771Y-103234283D03*
X161590771Y-103884283D03*
D45*
X160565771Y-104909283D03*
X159915771Y-104909283D03*
X159265771Y-104909283D03*
X158615771Y-104909283D03*
D44*
X157590771Y-103884283D03*
X157590771Y-103234283D03*
X157590771Y-102584283D03*
X157590771Y-101934283D03*
D45*
X158615771Y-100909283D03*
X159265771Y-100909283D03*
X159915771Y-100909283D03*
X160565771Y-100909283D03*
D46*
X158965771Y-103534283D03*
X158965771Y-102284283D03*
X160215771Y-103534283D03*
X160215771Y-102284283D03*
D47*
X118080000Y-29490000D03*
X148082000Y-29464000D03*
D22*
X169176730Y-97698210D03*
X169176730Y-99198210D03*
D23*
X167664740Y-105802213D03*
X169164740Y-105802213D03*
D22*
X172732733Y-102246214D03*
X172732733Y-100746214D03*
X167398729Y-100734214D03*
X167398729Y-102234214D03*
D30*
X170954728Y-100734212D03*
X170954728Y-102234212D03*
X170954737Y-105028209D03*
X170954737Y-103528209D03*
X169176734Y-102246207D03*
X169176734Y-100746207D03*
D14*
X167664736Y-104024212D03*
X169164736Y-104024212D03*
D30*
X170954736Y-97686209D03*
X170954736Y-99186209D03*
X166636731Y-109842208D03*
X166636731Y-108342208D03*
D48*
X168486732Y-107666213D03*
X169136732Y-107666213D03*
X169796732Y-107666213D03*
X170446732Y-107666213D03*
X170446732Y-109866213D03*
X169796732Y-109866213D03*
X169136732Y-109866213D03*
X168486732Y-109866213D03*
D49*
X167894000Y-91186000D03*
D50*
X155494000Y-90436000D03*
D51*
X167094000Y-87286000D03*
X169894000Y-87286000D03*
D50*
X159594000Y-94886000D03*
D52*
X168994000Y-94886000D03*
D51*
X171794000Y-94886000D03*
D49*
X160894000Y-91186000D03*
D53*
X101124924Y-69149164D03*
X98764924Y-69629164D03*
X100264924Y-66899164D03*
X105014924Y-69559164D03*
X101904924Y-72709164D03*
D54*
X146526000Y-106718000D03*
X148526000Y-106718000D03*
D55*
X144176000Y-112268000D03*
X150876000Y-112268000D03*
D14*
X100838000Y-89916000D03*
X99338000Y-89916000D03*
X103378000Y-89916000D03*
X101878000Y-89916000D03*
X100814000Y-88392000D03*
X99314000Y-88392000D03*
X103354000Y-88392000D03*
X101854000Y-88392000D03*
D56*
X113538000Y-95758000D03*
D14*
X109371000Y-83185000D03*
X110871000Y-83185000D03*
D10*
G36*
X171630624Y-63801056D02*
X172852224Y-64245682D01*
X172544406Y-65091406D01*
X171322806Y-64646780D01*
X171630624Y-63801056D01*
X171630624Y-63801056D01*
G37*
G36*
X171117594Y-65210594D02*
X172339194Y-65655220D01*
X172031376Y-66500944D01*
X170809776Y-66056318D01*
X171117594Y-65210594D01*
X171117594Y-65210594D01*
G37*
G36*
X170233624Y-63293056D02*
X171455224Y-63737682D01*
X171147406Y-64583406D01*
X169925806Y-64138780D01*
X170233624Y-63293056D01*
X170233624Y-63293056D01*
G37*
G36*
X169720594Y-64702594D02*
X170942194Y-65147220D01*
X170634376Y-65992944D01*
X169412776Y-65548318D01*
X169720594Y-64702594D01*
X169720594Y-64702594D01*
G37*
G36*
X168836624Y-62785056D02*
X170058224Y-63229682D01*
X169750406Y-64075406D01*
X168528806Y-63630780D01*
X168836624Y-62785056D01*
X168836624Y-62785056D01*
G37*
G36*
X168323594Y-64194594D02*
X169545194Y-64639220D01*
X169237376Y-65484944D01*
X168015776Y-65040318D01*
X168323594Y-64194594D01*
X168323594Y-64194594D01*
G37*
G36*
X166042624Y-61769056D02*
X167264224Y-62213682D01*
X166956406Y-63059406D01*
X165734806Y-62614780D01*
X166042624Y-61769056D01*
X166042624Y-61769056D01*
G37*
G36*
X165529594Y-63178594D02*
X166751194Y-63623220D01*
X166443376Y-64468944D01*
X165221776Y-64024318D01*
X165529594Y-63178594D01*
X165529594Y-63178594D01*
G37*
G36*
X164645624Y-61261056D02*
X165867224Y-61705682D01*
X165559406Y-62551406D01*
X164337806Y-62106780D01*
X164645624Y-61261056D01*
X164645624Y-61261056D01*
G37*
G36*
X164132594Y-62670594D02*
X165354194Y-63115220D01*
X165046376Y-63960944D01*
X163824776Y-63516318D01*
X164132594Y-62670594D01*
X164132594Y-62670594D01*
G37*
G36*
X163248624Y-60753056D02*
X164470224Y-61197682D01*
X164162406Y-62043406D01*
X162940806Y-61598780D01*
X163248624Y-60753056D01*
X163248624Y-60753056D01*
G37*
G36*
X162735594Y-62162594D02*
X163957194Y-62607220D01*
X163649376Y-63452944D01*
X162427776Y-63008318D01*
X162735594Y-62162594D01*
X162735594Y-62162594D01*
G37*
D57*
X107569000Y-78486000D03*
X107569000Y-76073000D03*
D30*
X93345000Y-104660000D03*
X93345000Y-106160000D03*
X94996000Y-103366000D03*
X94996000Y-101866000D03*
D14*
X147054000Y-100076000D03*
X145554000Y-100076000D03*
D58*
X119438000Y-98859000D03*
X119938000Y-98859000D03*
X118938000Y-98859000D03*
X118938000Y-101409000D03*
X119938000Y-101409000D03*
X119438000Y-101409000D03*
D59*
X118163000Y-100134000D03*
X118163000Y-100634000D03*
X118163000Y-101134000D03*
X118163000Y-99634000D03*
X118163000Y-99134000D03*
X120713000Y-99134000D03*
X120713000Y-99634000D03*
X120713000Y-101134000D03*
X120713000Y-100634000D03*
X120713000Y-100134000D03*
D29*
X128333500Y-104076500D03*
X126433500Y-104076500D03*
X127383500Y-102076500D03*
X124711500Y-103298500D03*
X122811500Y-103298500D03*
X123761500Y-101298500D03*
D14*
X123075000Y-99758500D03*
X124575000Y-99758500D03*
D60*
X137961000Y-138963400D03*
D61*
X129961000Y-131963400D03*
X134961000Y-131963400D03*
X129961000Y-146463400D03*
X132461000Y-146463400D03*
X134961000Y-146463400D03*
D60*
X126961000Y-138963400D03*
M02*
