G04 #@! TF.FileFunction,Paste,Bot*
%FSLAX46Y46*%
G04 Gerber Fmt 4.6, Leading zero omitted, Abs format (unit mm)*
G04 Created by KiCad (PCBNEW 4.0.6) date 06/27/17 19:22:01*
%MOMM*%
%LPD*%
G01*
G04 APERTURE LIST*
%ADD10C,0.100000*%
%ADD11R,1.700000X1.700000*%
%ADD12O,1.700000X1.700000*%
%ADD13R,0.500000X0.900000*%
%ADD14R,1.900000X1.900000*%
%ADD15R,1.350000X0.400000*%
%ADD16R,1.600000X2.100000*%
%ADD17R,1.900000X1.800000*%
%ADD18O,2.500000X0.900000*%
%ADD19O,0.900000X2.500000*%
%ADD20R,6.000000X6.000000*%
%ADD21R,0.750000X0.800000*%
%ADD22R,0.800000X0.750000*%
%ADD23R,0.450000X0.600000*%
%ADD24R,0.600000X0.450000*%
%ADD25R,3.500000X1.000000*%
%ADD26R,3.400000X1.500000*%
%ADD27R,0.900000X0.800000*%
%ADD28R,0.800000X0.900000*%
%ADD29R,0.900000X0.500000*%
%ADD30R,1.200000X2.500000*%
%ADD31R,1.060000X0.650000*%
%ADD32O,0.850000X0.300000*%
%ADD33O,0.300000X0.850000*%
%ADD34R,1.005000X1.005000*%
%ADD35R,1.550000X0.600000*%
%ADD36R,2.000000X3.000000*%
%ADD37R,0.300000X1.250000*%
%ADD38R,1.399540X1.198880*%
%ADD39R,1.399540X1.000760*%
%ADD40R,0.900000X2.500000*%
%ADD41R,1.450000X0.450000*%
%ADD42R,1.300000X1.300000*%
%ADD43R,0.800000X0.350000*%
%ADD44R,0.350000X0.800000*%
%ADD45R,0.750000X0.750000*%
%ADD46R,0.400000X1.060000*%
%ADD47R,2.800000X2.800000*%
%ADD48R,2.000000X2.800000*%
%ADD49R,2.200000X2.800000*%
%ADD50R,1.000000X3.500000*%
%ADD51R,1.500000X3.400000*%
%ADD52R,0.305000X0.813000*%
%ADD53R,0.813000X0.305000*%
G04 APERTURE END LIST*
D10*
G36*
X156747162Y-73978400D02*
X157431202Y-72099015D01*
X158793756Y-72594944D01*
X158109716Y-74474329D01*
X156747162Y-73978400D01*
X156747162Y-73978400D01*
G37*
G36*
X159585929Y-66178951D02*
X160269969Y-64299566D01*
X161632523Y-64795495D01*
X160948483Y-66674880D01*
X159585929Y-66178951D01*
X159585929Y-66178951D01*
G37*
G36*
X169667936Y-78681177D02*
X170351976Y-76801792D01*
X171714530Y-77297721D01*
X171030490Y-79177106D01*
X169667936Y-78681177D01*
X169667936Y-78681177D01*
G37*
G36*
X172506703Y-70881728D02*
X173190743Y-69002343D01*
X174553297Y-69498272D01*
X173869257Y-71377657D01*
X172506703Y-70881728D01*
X172506703Y-70881728D01*
G37*
G36*
X161324051Y-69312393D02*
X161837081Y-67902854D01*
X162588835Y-68176471D01*
X162075805Y-69586010D01*
X161324051Y-69312393D01*
X161324051Y-69312393D01*
G37*
G36*
X162357712Y-69688615D02*
X162870742Y-68279076D01*
X163622496Y-68552693D01*
X163109466Y-69962232D01*
X162357712Y-69688615D01*
X162357712Y-69688615D01*
G37*
G36*
X163391374Y-70064837D02*
X163904404Y-68655298D01*
X164656158Y-68928915D01*
X164143128Y-70338454D01*
X163391374Y-70064837D01*
X163391374Y-70064837D01*
G37*
G36*
X164425036Y-70441059D02*
X164938066Y-69031520D01*
X165689820Y-69305137D01*
X165176790Y-70714676D01*
X164425036Y-70441059D01*
X164425036Y-70441059D01*
G37*
G36*
X165458698Y-70817281D02*
X165971728Y-69407742D01*
X166723482Y-69681359D01*
X166210452Y-71090898D01*
X165458698Y-70817281D01*
X165458698Y-70817281D01*
G37*
G36*
X166492360Y-71193504D02*
X167005390Y-69783965D01*
X167757144Y-70057582D01*
X167244114Y-71467121D01*
X166492360Y-71193504D01*
X166492360Y-71193504D01*
G37*
G36*
X167526022Y-71569726D02*
X168039052Y-70160187D01*
X168790806Y-70433804D01*
X168277776Y-71843343D01*
X167526022Y-71569726D01*
X167526022Y-71569726D01*
G37*
G36*
X168559684Y-71945948D02*
X169072714Y-70536409D01*
X169824468Y-70810026D01*
X169311438Y-72219565D01*
X168559684Y-71945948D01*
X168559684Y-71945948D01*
G37*
D11*
X110744000Y-85852000D03*
D12*
X110744000Y-88392000D03*
X108204000Y-85852000D03*
X108204000Y-88392000D03*
D13*
X160384772Y-99312274D03*
X161884772Y-99312274D03*
D14*
X94383011Y-91741175D03*
X94383011Y-94141175D03*
D15*
X97058551Y-94242075D03*
X97058551Y-93592075D03*
X97058551Y-92942075D03*
X97058551Y-92292075D03*
X97058551Y-91642075D03*
D16*
X96933551Y-96042075D03*
X96933011Y-89842075D03*
D17*
X94383011Y-96741175D03*
X94383011Y-89141175D03*
D18*
X123888000Y-80692000D03*
X123888000Y-81962000D03*
X123888000Y-83232000D03*
X123888000Y-84502000D03*
X123888000Y-85772000D03*
X123888000Y-87042000D03*
X123888000Y-88312000D03*
X123888000Y-89582000D03*
X123888000Y-90852000D03*
X123888000Y-92122000D03*
X123888000Y-93392000D03*
X123888000Y-94662000D03*
X123888000Y-95932000D03*
X123888000Y-97202000D03*
D19*
X127173000Y-98692000D03*
X128443000Y-98692000D03*
X129713000Y-98692000D03*
X130983000Y-98692000D03*
X132253000Y-98692000D03*
X133523000Y-98692000D03*
X134793000Y-98692000D03*
X136063000Y-98692000D03*
X137333000Y-98692000D03*
X138603000Y-98692000D03*
D18*
X141888000Y-97202000D03*
X141888000Y-95932000D03*
X141888000Y-94662000D03*
X141888000Y-93392000D03*
X141888000Y-92122000D03*
X141888000Y-90852000D03*
X141888000Y-89582000D03*
X141888000Y-88312000D03*
X141888000Y-87042000D03*
X141888000Y-85772000D03*
X141888000Y-84502000D03*
X141888000Y-83232000D03*
X141888000Y-81962000D03*
X141888000Y-80692000D03*
D20*
X133188000Y-88392000D03*
D21*
X104394000Y-91948000D03*
X104394000Y-93448000D03*
X106172000Y-91960000D03*
X106172000Y-93460000D03*
X106680000Y-100088000D03*
X106680000Y-101588000D03*
X100584000Y-100088000D03*
X100584000Y-101588000D03*
D22*
X113042000Y-112014000D03*
X114542000Y-112014000D03*
X120650000Y-93472001D03*
X119150000Y-93472001D03*
X144296000Y-82042000D03*
X145796000Y-82042000D03*
X144284000Y-80264000D03*
X145784000Y-80264000D03*
X147344000Y-87630000D03*
X148844000Y-87630000D03*
X147332000Y-92710000D03*
X148832000Y-92710000D03*
X144272000Y-85598000D03*
X145772000Y-85598000D03*
D10*
G36*
X167599062Y-64835904D02*
X166894292Y-64579388D01*
X167167908Y-63827634D01*
X167872678Y-64084150D01*
X167599062Y-64835904D01*
X167599062Y-64835904D01*
G37*
G36*
X168112092Y-63426366D02*
X167407322Y-63169850D01*
X167680938Y-62418096D01*
X168385708Y-62674612D01*
X168112092Y-63426366D01*
X168112092Y-63426366D01*
G37*
D21*
X109085383Y-105913491D03*
X109085383Y-107413491D03*
X112776000Y-115812000D03*
X112776000Y-114312000D03*
D22*
X112883386Y-107679494D03*
X111383386Y-107679494D03*
D21*
X134620000Y-107442000D03*
X134620000Y-105942000D03*
X133096000Y-107430000D03*
X133096000Y-105930000D03*
X131572000Y-107430000D03*
X131572000Y-105930000D03*
X128524000Y-107442000D03*
X128524000Y-105942000D03*
X127000000Y-107442000D03*
X127000000Y-105942000D03*
X123952000Y-107442000D03*
X123952000Y-105942000D03*
X120396000Y-113526000D03*
X120396000Y-112026000D03*
X125476000Y-107430000D03*
X125476000Y-105930000D03*
X122428000Y-107442000D03*
X122428000Y-105942000D03*
X121920000Y-113526000D03*
X121920000Y-112026000D03*
X93345000Y-113931000D03*
X93345000Y-115431000D03*
X93345000Y-130810000D03*
X93345000Y-129310000D03*
X127762000Y-126849000D03*
X127762000Y-125349000D03*
X136398000Y-126607000D03*
X136398000Y-125107000D03*
X172466000Y-131560000D03*
X172466000Y-130060000D03*
X172974000Y-113296000D03*
X172974000Y-114796000D03*
D23*
X108712000Y-102142000D03*
X108712000Y-100042000D03*
D24*
X111286000Y-115824000D03*
X109186000Y-115824000D03*
D25*
X101384000Y-126428000D03*
X101384000Y-124428000D03*
D26*
X106934000Y-128778000D03*
X106934000Y-122078000D03*
D27*
X112760000Y-100142000D03*
X112760000Y-102042000D03*
X110760000Y-101092000D03*
D28*
X148148000Y-101870000D03*
X150048000Y-101870000D03*
X149098000Y-103870000D03*
D29*
X105410000Y-88380000D03*
X105410000Y-86880000D03*
D13*
X120638000Y-97028000D03*
X119138000Y-97028000D03*
X120638000Y-95250000D03*
X119138000Y-95250000D03*
X106692000Y-98298000D03*
X108192000Y-98298000D03*
X107684000Y-103632000D03*
X106184000Y-103632000D03*
X144296000Y-83820000D03*
X145796000Y-83820000D03*
D29*
X114554000Y-115812000D03*
X114554000Y-114312000D03*
D13*
X113042000Y-110236000D03*
X114542000Y-110236000D03*
X119392000Y-84074000D03*
X120892000Y-84074000D03*
X119404000Y-85852000D03*
X120904000Y-85852000D03*
X148348000Y-100076000D03*
X149848000Y-100076000D03*
X146558000Y-103886000D03*
X145058000Y-103886000D03*
D30*
X101092000Y-111926000D03*
X103592000Y-111926000D03*
X106092000Y-111926000D03*
X101092000Y-106426000D03*
X103592000Y-106426000D03*
X106092000Y-106426000D03*
D31*
X102532000Y-101788000D03*
X102532000Y-100838000D03*
X102532000Y-99888000D03*
X104732000Y-99888000D03*
X104732000Y-101788000D03*
D32*
X107810000Y-95062000D03*
X107810000Y-94562000D03*
X107810000Y-94062000D03*
X107810000Y-93562000D03*
X107810000Y-93062000D03*
X107810000Y-92562000D03*
X107810000Y-92062000D03*
D33*
X108760000Y-91112000D03*
X109260000Y-91112000D03*
X109760000Y-91112000D03*
X110260000Y-91112000D03*
X110760000Y-91112000D03*
X111260000Y-91112000D03*
X111760000Y-91112000D03*
D32*
X112710000Y-92062000D03*
X112710000Y-92562000D03*
X112710000Y-93062000D03*
X112710000Y-93562000D03*
X112710000Y-94062000D03*
X112710000Y-94562000D03*
X112710000Y-95062000D03*
D33*
X111760000Y-96012000D03*
X111260000Y-96012000D03*
X110760000Y-96012000D03*
X110260000Y-96012000D03*
X109760000Y-96012000D03*
X109260000Y-96012000D03*
X108760000Y-96012000D03*
D34*
X111097500Y-92724500D03*
X111097500Y-94399500D03*
X109422500Y-92724500D03*
X109422500Y-94399500D03*
D35*
X114902000Y-91567002D03*
X114902000Y-90297002D03*
X114902000Y-89027002D03*
X114902000Y-87757002D03*
X120302000Y-87757002D03*
X120302000Y-89027002D03*
X120302000Y-90297002D03*
X120302000Y-91567002D03*
D21*
X130048000Y-107442000D03*
X130048000Y-105942000D03*
D36*
X124042000Y-112522000D03*
X141617000Y-112522000D03*
D37*
X140077000Y-110197000D03*
X139577000Y-110197000D03*
X139082000Y-110197000D03*
X138582000Y-110197000D03*
X138082000Y-110197000D03*
X137582000Y-110197000D03*
X137082000Y-110197000D03*
X136582000Y-110197000D03*
X136082000Y-110197000D03*
X135582000Y-110197000D03*
X135082000Y-110197000D03*
X134582000Y-110197000D03*
X134082000Y-110197000D03*
X133582000Y-110197000D03*
X133082000Y-110197000D03*
X132582000Y-110197000D03*
X132082000Y-110197000D03*
X131582000Y-110197000D03*
X131082000Y-110197000D03*
X130582000Y-110197000D03*
X130082000Y-110197000D03*
X129582000Y-110197000D03*
X129082000Y-110197000D03*
X128582000Y-110197000D03*
X128082000Y-110197000D03*
X127582000Y-110197000D03*
X127082000Y-110197000D03*
X126582000Y-110197000D03*
X126082000Y-110197000D03*
X125582000Y-110197000D03*
D38*
X102191820Y-92448380D03*
D39*
X102191820Y-94167960D03*
X99992180Y-94167960D03*
X99992180Y-92268040D03*
D31*
X109052000Y-111882000D03*
X109052000Y-110932000D03*
X109052000Y-109982000D03*
X111252000Y-109982000D03*
X111252000Y-111882000D03*
X110779383Y-105835486D03*
X110779383Y-104885486D03*
X110779383Y-103935486D03*
X112979383Y-103935486D03*
X112979383Y-105835486D03*
D40*
X102182000Y-97028000D03*
X105082000Y-97028000D03*
D13*
X109498000Y-113792000D03*
X110998000Y-113792000D03*
D29*
X114673384Y-107413492D03*
X114673384Y-105913492D03*
D41*
X90522000Y-124591000D03*
X90522000Y-123941000D03*
X90522000Y-123291000D03*
X90522000Y-122641000D03*
X90522000Y-121991000D03*
X90522000Y-121341000D03*
X90522000Y-120691000D03*
X90522000Y-120041000D03*
X90522000Y-119391000D03*
X90522000Y-118741000D03*
X96422000Y-118741000D03*
X96422000Y-119391000D03*
X96422000Y-120041000D03*
X96422000Y-120691000D03*
X96422000Y-121341000D03*
X96422000Y-121991000D03*
X96422000Y-122641000D03*
X96422000Y-123291000D03*
X96422000Y-123941000D03*
X96422000Y-124591000D03*
D42*
X145376000Y-91440000D03*
X145376000Y-88840000D03*
X150876000Y-88840000D03*
X150876000Y-91440000D03*
D21*
X114554000Y-100318000D03*
X114554000Y-98818000D03*
X116332000Y-100330000D03*
X116332000Y-98830000D03*
D22*
X121146000Y-102870000D03*
X119646000Y-102870000D03*
X156054776Y-103630271D03*
X154554776Y-103630271D03*
X156054767Y-102106282D03*
X154554767Y-102106282D03*
D21*
X164956768Y-104126277D03*
X164956768Y-102626277D03*
D22*
X156054767Y-105154269D03*
X154554767Y-105154269D03*
D21*
X163178770Y-103364282D03*
X163178770Y-101864282D03*
D22*
X161908764Y-97534281D03*
X163408764Y-97534281D03*
X157324769Y-97534283D03*
X155824769Y-97534283D03*
D21*
X154940000Y-75462001D03*
X154940000Y-76962001D03*
X110871000Y-76097000D03*
X110871000Y-77597000D03*
D27*
X96806000Y-106360000D03*
X96806000Y-104460000D03*
X98806000Y-105410000D03*
X96806000Y-100772000D03*
X96806000Y-98872000D03*
X98806000Y-99822000D03*
D29*
X94996000Y-106160000D03*
X94996000Y-104660000D03*
D13*
X98552000Y-102616000D03*
X97052000Y-102616000D03*
D29*
X94996000Y-100572000D03*
X94996000Y-99072000D03*
D13*
X100572000Y-97028000D03*
X99072000Y-97028000D03*
X161920763Y-95756281D03*
X163420763Y-95756281D03*
X157324767Y-95756283D03*
X155824767Y-95756283D03*
X158848774Y-99312278D03*
X157348774Y-99312278D03*
D43*
X161590771Y-101934283D03*
X161590771Y-102584283D03*
X161590771Y-103234283D03*
X161590771Y-103884283D03*
D44*
X160565771Y-104909283D03*
X159915771Y-104909283D03*
X159265771Y-104909283D03*
X158615771Y-104909283D03*
D43*
X157590771Y-103884283D03*
X157590771Y-103234283D03*
X157590771Y-102584283D03*
X157590771Y-101934283D03*
D44*
X158615771Y-100909283D03*
X159265771Y-100909283D03*
X159915771Y-100909283D03*
X160565771Y-100909283D03*
D45*
X158965771Y-103534283D03*
X158965771Y-102284283D03*
X160215771Y-103534283D03*
X160215771Y-102284283D03*
D21*
X169176730Y-97698210D03*
X169176730Y-99198210D03*
D22*
X167664740Y-105802213D03*
X169164740Y-105802213D03*
D21*
X172732733Y-102246214D03*
X172732733Y-100746214D03*
X167398729Y-100734214D03*
X167398729Y-102234214D03*
D29*
X170954728Y-100734212D03*
X170954728Y-102234212D03*
X170954737Y-105028209D03*
X170954737Y-103528209D03*
X169176734Y-102246207D03*
X169176734Y-100746207D03*
D13*
X167664736Y-104024212D03*
X169164736Y-104024212D03*
D29*
X170954736Y-97686209D03*
X170954736Y-99186209D03*
X166636731Y-109842208D03*
X166636731Y-108342208D03*
D46*
X168486732Y-107666213D03*
X169136732Y-107666213D03*
X169796732Y-107666213D03*
X170446732Y-107666213D03*
X170446732Y-109866213D03*
X169796732Y-109866213D03*
X169136732Y-109866213D03*
X168486732Y-109866213D03*
D47*
X155494000Y-90436000D03*
D48*
X167094000Y-87286000D03*
X169894000Y-87286000D03*
D47*
X159594000Y-94886000D03*
D49*
X168994000Y-94886000D03*
D48*
X171794000Y-94886000D03*
D50*
X146526000Y-106718000D03*
X148526000Y-106718000D03*
D51*
X144176000Y-112268000D03*
X150876000Y-112268000D03*
D13*
X100838000Y-89916000D03*
X99338000Y-89916000D03*
X103378000Y-89916000D03*
X101878000Y-89916000D03*
X100814000Y-88392000D03*
X99314000Y-88392000D03*
X103354000Y-88392000D03*
X101854000Y-88392000D03*
X109371000Y-83185000D03*
X110871000Y-83185000D03*
D10*
G36*
X171750158Y-64057399D02*
X172595882Y-64365217D01*
X172424872Y-64835063D01*
X171579148Y-64527245D01*
X171750158Y-64057399D01*
X171750158Y-64057399D01*
G37*
G36*
X171237128Y-65466937D02*
X172082852Y-65774755D01*
X171911842Y-66244601D01*
X171066118Y-65936783D01*
X171237128Y-65466937D01*
X171237128Y-65466937D01*
G37*
G36*
X170353158Y-63549399D02*
X171198882Y-63857217D01*
X171027872Y-64327063D01*
X170182148Y-64019245D01*
X170353158Y-63549399D01*
X170353158Y-63549399D01*
G37*
G36*
X169840128Y-64958937D02*
X170685852Y-65266755D01*
X170514842Y-65736601D01*
X169669118Y-65428783D01*
X169840128Y-64958937D01*
X169840128Y-64958937D01*
G37*
G36*
X168956158Y-63041399D02*
X169801882Y-63349217D01*
X169630872Y-63819063D01*
X168785148Y-63511245D01*
X168956158Y-63041399D01*
X168956158Y-63041399D01*
G37*
G36*
X168443128Y-64450937D02*
X169288852Y-64758755D01*
X169117842Y-65228601D01*
X168272118Y-64920783D01*
X168443128Y-64450937D01*
X168443128Y-64450937D01*
G37*
G36*
X166162158Y-62025399D02*
X167007882Y-62333217D01*
X166836872Y-62803063D01*
X165991148Y-62495245D01*
X166162158Y-62025399D01*
X166162158Y-62025399D01*
G37*
G36*
X165649128Y-63434937D02*
X166494852Y-63742755D01*
X166323842Y-64212601D01*
X165478118Y-63904783D01*
X165649128Y-63434937D01*
X165649128Y-63434937D01*
G37*
G36*
X164765158Y-61517399D02*
X165610882Y-61825217D01*
X165439872Y-62295063D01*
X164594148Y-61987245D01*
X164765158Y-61517399D01*
X164765158Y-61517399D01*
G37*
G36*
X164252128Y-62926937D02*
X165097852Y-63234755D01*
X164926842Y-63704601D01*
X164081118Y-63396783D01*
X164252128Y-62926937D01*
X164252128Y-62926937D01*
G37*
G36*
X163368158Y-61009399D02*
X164213882Y-61317217D01*
X164042872Y-61787063D01*
X163197148Y-61479245D01*
X163368158Y-61009399D01*
X163368158Y-61009399D01*
G37*
G36*
X162855128Y-62418937D02*
X163700852Y-62726755D01*
X163529842Y-63196601D01*
X162684118Y-62888783D01*
X162855128Y-62418937D01*
X162855128Y-62418937D01*
G37*
D29*
X93345000Y-104660000D03*
X93345000Y-106160000D03*
X94996000Y-103366000D03*
X94996000Y-101866000D03*
D13*
X147054000Y-100076000D03*
X145554000Y-100076000D03*
D52*
X119438000Y-98859000D03*
X119938000Y-98859000D03*
X118938000Y-98859000D03*
X118938000Y-101409000D03*
X119938000Y-101409000D03*
X119438000Y-101409000D03*
D53*
X118163000Y-100134000D03*
X118163000Y-100634000D03*
X118163000Y-101134000D03*
X118163000Y-99634000D03*
X118163000Y-99134000D03*
X120713000Y-99134000D03*
X120713000Y-99634000D03*
X120713000Y-101134000D03*
X120713000Y-100634000D03*
X120713000Y-100134000D03*
D28*
X128333500Y-104076500D03*
X126433500Y-104076500D03*
X127383500Y-102076500D03*
X124711500Y-103298500D03*
X122811500Y-103298500D03*
X123761500Y-101298500D03*
D13*
X123075000Y-99758500D03*
X124575000Y-99758500D03*
M02*
