G04 #@! TF.FileFunction,Soldermask,Bot*
%FSLAX46Y46*%
G04 Gerber Fmt 4.6, Leading zero omitted, Abs format (unit mm)*
G04 Created by KiCad (PCBNEW 4.0.6) date 04/26/17 00:01:20*
%MOMM*%
%LPD*%
G01*
G04 APERTURE LIST*
%ADD10C,0.100000*%
%ADD11R,2.100000X2.100000*%
%ADD12O,2.100000X2.100000*%
%ADD13R,0.900000X1.300000*%
%ADD14R,2.300000X2.300000*%
%ADD15R,1.750000X0.800000*%
%ADD16R,2.000000X2.500000*%
%ADD17R,2.300000X2.200000*%
%ADD18O,2.900000X1.300000*%
%ADD19O,1.300000X2.900000*%
%ADD20R,6.400000X6.400000*%
%ADD21R,1.150000X1.200000*%
%ADD22R,1.200000X1.150000*%
%ADD23R,0.850000X1.000000*%
%ADD24R,1.000000X0.850000*%
%ADD25R,3.900000X1.400000*%
%ADD26R,3.800000X1.900000*%
%ADD27R,1.300000X1.200000*%
%ADD28R,1.200000X1.300000*%
%ADD29R,1.300000X0.900000*%
%ADD30R,1.600000X2.900000*%
%ADD31R,1.460000X1.050000*%
%ADD32O,1.250000X0.700000*%
%ADD33O,0.700000X1.250000*%
%ADD34R,2.075000X2.075000*%
%ADD35R,1.950000X1.000000*%
%ADD36R,2.400000X3.400000*%
%ADD37R,0.700000X1.650000*%
%ADD38R,1.799540X1.598880*%
%ADD39R,1.799540X1.400760*%
%ADD40R,1.300000X2.900000*%
%ADD41C,2.900000*%
%ADD42C,1.924000*%
%ADD43R,1.850000X0.850000*%
%ADD44R,1.700000X1.700000*%
%ADD45R,1.200000X0.750000*%
%ADD46R,0.750000X1.200000*%
%ADD47R,1.650000X1.650000*%
%ADD48C,4.400000*%
%ADD49R,0.800000X1.460000*%
%ADD50C,2.100000*%
%ADD51R,3.200000X3.200000*%
%ADD52R,2.400000X3.200000*%
%ADD53R,2.600000X3.200000*%
%ADD54C,1.400000*%
%ADD55R,1.400000X3.900000*%
%ADD56R,1.900000X3.800000*%
%ADD57C,0.908000*%
%ADD58R,0.705000X1.213000*%
%ADD59R,1.213000X0.705000*%
%ADD60C,1.900000*%
G04 APERTURE END LIST*
D10*
D11*
X110744000Y-85852000D03*
D12*
X110744000Y-88392000D03*
X108204000Y-85852000D03*
X108204000Y-88392000D03*
D13*
X160384772Y-99312274D03*
X161884772Y-99312274D03*
D14*
X94383011Y-91741175D03*
X94383011Y-94141175D03*
D15*
X97058551Y-94242075D03*
X97058551Y-93592075D03*
X97058551Y-92942075D03*
X97058551Y-92292075D03*
X97058551Y-91642075D03*
D16*
X96933551Y-96042075D03*
X96933011Y-89842075D03*
D17*
X94383011Y-96741175D03*
X94383011Y-89141175D03*
D18*
X123888000Y-80692000D03*
X123888000Y-81962000D03*
X123888000Y-83232000D03*
X123888000Y-84502000D03*
X123888000Y-85772000D03*
X123888000Y-87042000D03*
X123888000Y-88312000D03*
X123888000Y-89582000D03*
X123888000Y-90852000D03*
X123888000Y-92122000D03*
X123888000Y-93392000D03*
X123888000Y-94662000D03*
X123888000Y-95932000D03*
X123888000Y-97202000D03*
D19*
X127173000Y-98692000D03*
X128443000Y-98692000D03*
X129713000Y-98692000D03*
X130983000Y-98692000D03*
X132253000Y-98692000D03*
X133523000Y-98692000D03*
X134793000Y-98692000D03*
X136063000Y-98692000D03*
X137333000Y-98692000D03*
X138603000Y-98692000D03*
D18*
X141888000Y-97202000D03*
X141888000Y-95932000D03*
X141888000Y-94662000D03*
X141888000Y-93392000D03*
X141888000Y-92122000D03*
X141888000Y-90852000D03*
X141888000Y-89582000D03*
X141888000Y-88312000D03*
X141888000Y-87042000D03*
X141888000Y-85772000D03*
X141888000Y-84502000D03*
X141888000Y-83232000D03*
X141888000Y-81962000D03*
X141888000Y-80692000D03*
D20*
X133188000Y-88392000D03*
D21*
X104394000Y-91948000D03*
X104394000Y-93448000D03*
X106172000Y-91960000D03*
X106172000Y-93460000D03*
X106680000Y-100088000D03*
X106680000Y-101588000D03*
X100584000Y-100088000D03*
X100584000Y-101588000D03*
D22*
X113042000Y-112014000D03*
X114542000Y-112014000D03*
X120650000Y-93472001D03*
X119150000Y-93472001D03*
X144296000Y-82042000D03*
X145796000Y-82042000D03*
X144284000Y-80264000D03*
X145784000Y-80264000D03*
X147344000Y-87630000D03*
X148844000Y-87630000D03*
X147332000Y-92710000D03*
X148832000Y-92710000D03*
X144272000Y-85598000D03*
X145772000Y-85598000D03*
D10*
G36*
X167718596Y-65092246D02*
X166637950Y-64698923D01*
X167048374Y-63571292D01*
X168129020Y-63964615D01*
X167718596Y-65092246D01*
X167718596Y-65092246D01*
G37*
G36*
X168231626Y-63682708D02*
X167150980Y-63289385D01*
X167561404Y-62161754D01*
X168642050Y-62555077D01*
X168231626Y-63682708D01*
X168231626Y-63682708D01*
G37*
D21*
X109085383Y-105913491D03*
X109085383Y-107413491D03*
X112776000Y-115812000D03*
X112776000Y-114312000D03*
D22*
X112883386Y-107679494D03*
X111383386Y-107679494D03*
D21*
X134620000Y-107442000D03*
X134620000Y-105942000D03*
X133096000Y-107430000D03*
X133096000Y-105930000D03*
X131572000Y-107430000D03*
X131572000Y-105930000D03*
X128524000Y-107442000D03*
X128524000Y-105942000D03*
X127000000Y-107442000D03*
X127000000Y-105942000D03*
X123952000Y-107442000D03*
X123952000Y-105942000D03*
X120396000Y-113526000D03*
X120396000Y-112026000D03*
X125476000Y-107430000D03*
X125476000Y-105930000D03*
X122428000Y-107442000D03*
X122428000Y-105942000D03*
X121920000Y-113526000D03*
X121920000Y-112026000D03*
X93345000Y-113931000D03*
X93345000Y-115431000D03*
X93345000Y-130810000D03*
X93345000Y-129310000D03*
X127762000Y-126849000D03*
X127762000Y-125349000D03*
X136398000Y-126607000D03*
X136398000Y-125107000D03*
X172466000Y-131560000D03*
X172466000Y-130060000D03*
X172974000Y-113296000D03*
X172974000Y-114796000D03*
D10*
G36*
X156490819Y-74097935D02*
X157311667Y-71842672D01*
X159050099Y-72475409D01*
X158229251Y-74730672D01*
X156490819Y-74097935D01*
X156490819Y-74097935D01*
G37*
G36*
X159329586Y-66298486D02*
X160150434Y-64043223D01*
X161888866Y-64675960D01*
X161068018Y-66931223D01*
X159329586Y-66298486D01*
X159329586Y-66298486D01*
G37*
G36*
X169411593Y-78800712D02*
X170232441Y-76545449D01*
X171970873Y-77178186D01*
X171150025Y-79433449D01*
X169411593Y-78800712D01*
X169411593Y-78800712D01*
G37*
G36*
X172250360Y-71001263D02*
X173071208Y-68746000D01*
X174809640Y-69378737D01*
X173988792Y-71634000D01*
X172250360Y-71001263D01*
X172250360Y-71001263D01*
G37*
G36*
X161067708Y-69431928D02*
X161717547Y-67646512D01*
X162845178Y-68056936D01*
X162195339Y-69842352D01*
X161067708Y-69431928D01*
X161067708Y-69431928D01*
G37*
G36*
X162101369Y-69808150D02*
X162751208Y-68022734D01*
X163878839Y-68433158D01*
X163229000Y-70218574D01*
X162101369Y-69808150D01*
X162101369Y-69808150D01*
G37*
G36*
X163135031Y-70184372D02*
X163784870Y-68398956D01*
X164912501Y-68809380D01*
X164262662Y-70594796D01*
X163135031Y-70184372D01*
X163135031Y-70184372D01*
G37*
G36*
X164168693Y-70560594D02*
X164818532Y-68775178D01*
X165946163Y-69185602D01*
X165296324Y-70971018D01*
X164168693Y-70560594D01*
X164168693Y-70560594D01*
G37*
G36*
X165202355Y-70936816D02*
X165852194Y-69151400D01*
X166979825Y-69561824D01*
X166329986Y-71347240D01*
X165202355Y-70936816D01*
X165202355Y-70936816D01*
G37*
G36*
X166236017Y-71313039D02*
X166885856Y-69527623D01*
X168013487Y-69938047D01*
X167363648Y-71723463D01*
X166236017Y-71313039D01*
X166236017Y-71313039D01*
G37*
G36*
X167269679Y-71689261D02*
X167919518Y-69903845D01*
X169047149Y-70314269D01*
X168397310Y-72099685D01*
X167269679Y-71689261D01*
X167269679Y-71689261D01*
G37*
G36*
X168303341Y-72065483D02*
X168953180Y-70280067D01*
X170080811Y-70690491D01*
X169430972Y-72475907D01*
X168303341Y-72065483D01*
X168303341Y-72065483D01*
G37*
D23*
X108712000Y-102142000D03*
X108712000Y-100042000D03*
D24*
X111286000Y-115824000D03*
X109186000Y-115824000D03*
D25*
X101384000Y-126428000D03*
X101384000Y-124428000D03*
D26*
X106934000Y-128778000D03*
X106934000Y-122078000D03*
D27*
X112760000Y-100142000D03*
X112760000Y-102042000D03*
X110760000Y-101092000D03*
D28*
X148148000Y-101870000D03*
X150048000Y-101870000D03*
X149098000Y-103870000D03*
D29*
X105410000Y-88380000D03*
X105410000Y-86880000D03*
D13*
X120638000Y-97028000D03*
X119138000Y-97028000D03*
X120638000Y-95250000D03*
X119138000Y-95250000D03*
X106692000Y-98298000D03*
X108192000Y-98298000D03*
X107684000Y-103632000D03*
X106184000Y-103632000D03*
X144296000Y-83820000D03*
X145796000Y-83820000D03*
D29*
X114554000Y-115812000D03*
X114554000Y-114312000D03*
D13*
X113042000Y-110236000D03*
X114542000Y-110236000D03*
X119392000Y-84074000D03*
X120892000Y-84074000D03*
X119404000Y-85852000D03*
X120904000Y-85852000D03*
X148348000Y-100076000D03*
X149848000Y-100076000D03*
X146558000Y-103886000D03*
X145058000Y-103886000D03*
D30*
X101092000Y-111926000D03*
X103592000Y-111926000D03*
X106092000Y-111926000D03*
X101092000Y-106426000D03*
X103592000Y-106426000D03*
X106092000Y-106426000D03*
D31*
X102532000Y-101788000D03*
X102532000Y-100838000D03*
X102532000Y-99888000D03*
X104732000Y-99888000D03*
X104732000Y-101788000D03*
D32*
X107810000Y-95062000D03*
X107810000Y-94562000D03*
X107810000Y-94062000D03*
X107810000Y-93562000D03*
X107810000Y-93062000D03*
X107810000Y-92562000D03*
X107810000Y-92062000D03*
D33*
X108760000Y-91112000D03*
X109260000Y-91112000D03*
X109760000Y-91112000D03*
X110260000Y-91112000D03*
X110760000Y-91112000D03*
X111260000Y-91112000D03*
X111760000Y-91112000D03*
D32*
X112710000Y-92062000D03*
X112710000Y-92562000D03*
X112710000Y-93062000D03*
X112710000Y-93562000D03*
X112710000Y-94062000D03*
X112710000Y-94562000D03*
X112710000Y-95062000D03*
D33*
X111760000Y-96012000D03*
X111260000Y-96012000D03*
X110760000Y-96012000D03*
X110260000Y-96012000D03*
X109760000Y-96012000D03*
X109260000Y-96012000D03*
X108760000Y-96012000D03*
D34*
X111097500Y-92724500D03*
X111097500Y-94399500D03*
X109422500Y-92724500D03*
X109422500Y-94399500D03*
D35*
X114902000Y-91567002D03*
X114902000Y-90297002D03*
X114902000Y-89027002D03*
X114902000Y-87757002D03*
X120302000Y-87757002D03*
X120302000Y-89027002D03*
X120302000Y-90297002D03*
X120302000Y-91567002D03*
D21*
X130048000Y-107442000D03*
X130048000Y-105942000D03*
D36*
X124042000Y-112522000D03*
X141617000Y-112522000D03*
D37*
X140077000Y-110197000D03*
X139577000Y-110197000D03*
X139082000Y-110197000D03*
X138582000Y-110197000D03*
X138082000Y-110197000D03*
X137582000Y-110197000D03*
X137082000Y-110197000D03*
X136582000Y-110197000D03*
X136082000Y-110197000D03*
X135582000Y-110197000D03*
X135082000Y-110197000D03*
X134582000Y-110197000D03*
X134082000Y-110197000D03*
X133582000Y-110197000D03*
X133082000Y-110197000D03*
X132582000Y-110197000D03*
X132082000Y-110197000D03*
X131582000Y-110197000D03*
X131082000Y-110197000D03*
X130582000Y-110197000D03*
X130082000Y-110197000D03*
X129582000Y-110197000D03*
X129082000Y-110197000D03*
X128582000Y-110197000D03*
X128082000Y-110197000D03*
X127582000Y-110197000D03*
X127082000Y-110197000D03*
X126582000Y-110197000D03*
X126082000Y-110197000D03*
X125582000Y-110197000D03*
D38*
X102191820Y-92448380D03*
D39*
X102191820Y-94167960D03*
X99992180Y-94167960D03*
X99992180Y-92268040D03*
D31*
X109052000Y-111882000D03*
X109052000Y-110932000D03*
X109052000Y-109982000D03*
X111252000Y-109982000D03*
X111252000Y-111882000D03*
X110779383Y-105835486D03*
X110779383Y-104885486D03*
X110779383Y-103935486D03*
X112979383Y-103935486D03*
X112979383Y-105835486D03*
D40*
X102182000Y-97028000D03*
X105082000Y-97028000D03*
D13*
X109498000Y-113792000D03*
X110998000Y-113792000D03*
D29*
X114673384Y-107413492D03*
X114673384Y-105913492D03*
D41*
X137961000Y-138963400D03*
D42*
X129961000Y-131963400D03*
X134961000Y-131963400D03*
X129961000Y-146463400D03*
X132461000Y-146463400D03*
X134961000Y-146463400D03*
D41*
X126961000Y-138963400D03*
D43*
X90522000Y-124591000D03*
X90522000Y-123941000D03*
X90522000Y-123291000D03*
X90522000Y-122641000D03*
X90522000Y-121991000D03*
X90522000Y-121341000D03*
X90522000Y-120691000D03*
X90522000Y-120041000D03*
X90522000Y-119391000D03*
X90522000Y-118741000D03*
X96422000Y-118741000D03*
X96422000Y-119391000D03*
X96422000Y-120041000D03*
X96422000Y-120691000D03*
X96422000Y-121341000D03*
X96422000Y-121991000D03*
X96422000Y-122641000D03*
X96422000Y-123291000D03*
X96422000Y-123941000D03*
X96422000Y-124591000D03*
D44*
X145376000Y-91440000D03*
X145376000Y-88840000D03*
X150876000Y-88840000D03*
X150876000Y-91440000D03*
D21*
X114554000Y-98818000D03*
X114554000Y-100318000D03*
X116332000Y-98830000D03*
X116332000Y-100330000D03*
X122809000Y-100203000D03*
X122809000Y-98703000D03*
D22*
X156054776Y-103630271D03*
X154554776Y-103630271D03*
X156054767Y-102106282D03*
X154554767Y-102106282D03*
D21*
X164956768Y-104126277D03*
X164956768Y-102626277D03*
D22*
X156054767Y-105154269D03*
X154554767Y-105154269D03*
D21*
X163178770Y-103364282D03*
X163178770Y-101864282D03*
D22*
X161908764Y-97534281D03*
X163408764Y-97534281D03*
X157324769Y-97534283D03*
X155824769Y-97534283D03*
D21*
X154940000Y-75462001D03*
X154940000Y-76962001D03*
X110871000Y-76097000D03*
X110871000Y-77597000D03*
D27*
X96806000Y-106360000D03*
X96806000Y-104460000D03*
X98806000Y-105410000D03*
X96806000Y-100772000D03*
X96806000Y-98872000D03*
X98806000Y-99822000D03*
D29*
X94996000Y-106160000D03*
X94996000Y-104660000D03*
D13*
X98552000Y-102616000D03*
X97052000Y-102616000D03*
D29*
X94996000Y-100572000D03*
X94996000Y-99072000D03*
D13*
X100572000Y-97028000D03*
X99072000Y-97028000D03*
X161920763Y-95756281D03*
X163420763Y-95756281D03*
X157324767Y-95756283D03*
X155824767Y-95756283D03*
X158848774Y-99312278D03*
X157348774Y-99312278D03*
D45*
X161590771Y-101934283D03*
X161590771Y-102584283D03*
X161590771Y-103234283D03*
X161590771Y-103884283D03*
D46*
X160565771Y-104909283D03*
X159915771Y-104909283D03*
X159265771Y-104909283D03*
X158615771Y-104909283D03*
D45*
X157590771Y-103884283D03*
X157590771Y-103234283D03*
X157590771Y-102584283D03*
X157590771Y-101934283D03*
D46*
X158615771Y-100909283D03*
X159265771Y-100909283D03*
X159915771Y-100909283D03*
X160565771Y-100909283D03*
D47*
X158965771Y-103534283D03*
X158965771Y-102284283D03*
X160215771Y-103534283D03*
X160215771Y-102284283D03*
D48*
X118080000Y-29490000D03*
X148082000Y-29464000D03*
D21*
X169176730Y-97698210D03*
X169176730Y-99198210D03*
D22*
X167664740Y-105802213D03*
X169164740Y-105802213D03*
D21*
X172732733Y-102246214D03*
X172732733Y-100746214D03*
X167398729Y-100734214D03*
X167398729Y-102234214D03*
D29*
X170954728Y-100734212D03*
X170954728Y-102234212D03*
X170954737Y-105028209D03*
X170954737Y-103528209D03*
X169176734Y-102246207D03*
X169176734Y-100746207D03*
D13*
X167664736Y-104024212D03*
X169164736Y-104024212D03*
D29*
X170954736Y-97686209D03*
X170954736Y-99186209D03*
X166636731Y-109842208D03*
X166636731Y-108342208D03*
D49*
X168486732Y-107666213D03*
X169136732Y-107666213D03*
X169796732Y-107666213D03*
X170446732Y-107666213D03*
X170446732Y-109866213D03*
X169796732Y-109866213D03*
X169136732Y-109866213D03*
X168486732Y-109866213D03*
D50*
X167894000Y-91186000D03*
D51*
X155494000Y-90436000D03*
D52*
X167094000Y-87286000D03*
X169894000Y-87286000D03*
D51*
X159594000Y-94886000D03*
D53*
X168994000Y-94886000D03*
D52*
X171794000Y-94886000D03*
D50*
X160894000Y-91186000D03*
D54*
X101124924Y-69149164D03*
X98764924Y-69629164D03*
X100264924Y-66899164D03*
X105014924Y-69559164D03*
X101904924Y-72709164D03*
D55*
X146526000Y-106718000D03*
X148526000Y-106718000D03*
D56*
X144176000Y-112268000D03*
X150876000Y-112268000D03*
D13*
X100838000Y-89916000D03*
X99338000Y-89916000D03*
X103378000Y-89916000D03*
X101878000Y-89916000D03*
X100814000Y-88392000D03*
X99314000Y-88392000D03*
X103354000Y-88392000D03*
X101854000Y-88392000D03*
D57*
X113538000Y-95758000D03*
D58*
X119438000Y-101409000D03*
X119938000Y-101409000D03*
X118938000Y-101409000D03*
X118938000Y-98859000D03*
X119938000Y-98859000D03*
X119438000Y-98859000D03*
D59*
X118163000Y-100134000D03*
X118163000Y-99634000D03*
X118163000Y-99134000D03*
X118163000Y-100634000D03*
X118163000Y-101134000D03*
X120713000Y-101134000D03*
X120713000Y-100634000D03*
X120713000Y-99134000D03*
X120713000Y-99634000D03*
X120713000Y-100134000D03*
D13*
X109371000Y-83185000D03*
X110871000Y-83185000D03*
D10*
G36*
X171630624Y-63801056D02*
X172852224Y-64245682D01*
X172544406Y-65091406D01*
X171322806Y-64646780D01*
X171630624Y-63801056D01*
X171630624Y-63801056D01*
G37*
G36*
X171117594Y-65210594D02*
X172339194Y-65655220D01*
X172031376Y-66500944D01*
X170809776Y-66056318D01*
X171117594Y-65210594D01*
X171117594Y-65210594D01*
G37*
G36*
X170233624Y-63293056D02*
X171455224Y-63737682D01*
X171147406Y-64583406D01*
X169925806Y-64138780D01*
X170233624Y-63293056D01*
X170233624Y-63293056D01*
G37*
G36*
X169720594Y-64702594D02*
X170942194Y-65147220D01*
X170634376Y-65992944D01*
X169412776Y-65548318D01*
X169720594Y-64702594D01*
X169720594Y-64702594D01*
G37*
G36*
X168836624Y-62785056D02*
X170058224Y-63229682D01*
X169750406Y-64075406D01*
X168528806Y-63630780D01*
X168836624Y-62785056D01*
X168836624Y-62785056D01*
G37*
G36*
X168323594Y-64194594D02*
X169545194Y-64639220D01*
X169237376Y-65484944D01*
X168015776Y-65040318D01*
X168323594Y-64194594D01*
X168323594Y-64194594D01*
G37*
G36*
X166042624Y-61769056D02*
X167264224Y-62213682D01*
X166956406Y-63059406D01*
X165734806Y-62614780D01*
X166042624Y-61769056D01*
X166042624Y-61769056D01*
G37*
G36*
X165529594Y-63178594D02*
X166751194Y-63623220D01*
X166443376Y-64468944D01*
X165221776Y-64024318D01*
X165529594Y-63178594D01*
X165529594Y-63178594D01*
G37*
G36*
X164645624Y-61261056D02*
X165867224Y-61705682D01*
X165559406Y-62551406D01*
X164337806Y-62106780D01*
X164645624Y-61261056D01*
X164645624Y-61261056D01*
G37*
G36*
X164132594Y-62670594D02*
X165354194Y-63115220D01*
X165046376Y-63960944D01*
X163824776Y-63516318D01*
X164132594Y-62670594D01*
X164132594Y-62670594D01*
G37*
G36*
X163248624Y-60753056D02*
X164470224Y-61197682D01*
X164162406Y-62043406D01*
X162940806Y-61598780D01*
X163248624Y-60753056D01*
X163248624Y-60753056D01*
G37*
G36*
X162735594Y-62162594D02*
X163957194Y-62607220D01*
X163649376Y-63452944D01*
X162427776Y-63008318D01*
X162735594Y-62162594D01*
X162735594Y-62162594D01*
G37*
D60*
X107569000Y-78486000D03*
X107569000Y-76073000D03*
D29*
X93345000Y-104660000D03*
X93345000Y-106160000D03*
X94996000Y-103366000D03*
X94996000Y-101866000D03*
D13*
X147054000Y-100076000D03*
X145554000Y-100076000D03*
M02*
