G04 #@! TF.FileFunction,Legend,Bot*
%FSLAX46Y46*%
G04 Gerber Fmt 4.6, Leading zero omitted, Abs format (unit mm)*
G04 Created by KiCad (PCBNEW 4.0.6) date 04/26/17 00:01:20*
%MOMM*%
%LPD*%
G01*
G04 APERTURE LIST*
%ADD10C,0.100000*%
%ADD11C,0.300000*%
%ADD12C,0.120000*%
%ADD13C,0.150000*%
%ADD14C,0.500000*%
%ADD15C,0.050000*%
G04 APERTURE END LIST*
D10*
D11*
X100270571Y-114141429D02*
X100270571Y-114427143D01*
X100342000Y-114570001D01*
X100484857Y-114712858D01*
X100770571Y-114784286D01*
X101270571Y-114784286D01*
X101556286Y-114712858D01*
X101699143Y-114570001D01*
X101770571Y-114427143D01*
X101770571Y-114141429D01*
X101699143Y-113998572D01*
X101556286Y-113855715D01*
X101270571Y-113784286D01*
X100770571Y-113784286D01*
X100484857Y-113855715D01*
X100342000Y-113998572D01*
X100270571Y-114141429D01*
X100984857Y-115927144D02*
X100984857Y-115427144D01*
X101770571Y-115427144D02*
X100270571Y-115427144D01*
X100270571Y-116141430D01*
X100984857Y-117212858D02*
X100984857Y-116712858D01*
X101770571Y-116712858D02*
X100270571Y-116712858D01*
X100270571Y-117427144D01*
X105350571Y-114133428D02*
X105350571Y-114419142D01*
X105422000Y-114562000D01*
X105564857Y-114704857D01*
X105850571Y-114776285D01*
X106350571Y-114776285D01*
X106636286Y-114704857D01*
X106779143Y-114562000D01*
X106850571Y-114419142D01*
X106850571Y-114133428D01*
X106779143Y-113990571D01*
X106636286Y-113847714D01*
X106350571Y-113776285D01*
X105850571Y-113776285D01*
X105564857Y-113847714D01*
X105422000Y-113990571D01*
X105350571Y-114133428D01*
X106850571Y-115419143D02*
X105350571Y-115419143D01*
X106850571Y-116276286D01*
X105350571Y-116276286D01*
D12*
X109474000Y-84522000D02*
X106874000Y-84522000D01*
X106874000Y-84522000D02*
X106874000Y-89722000D01*
X106874000Y-89722000D02*
X112074000Y-89722000D01*
X112074000Y-89722000D02*
X112074000Y-87122000D01*
X112074000Y-87122000D02*
X109474000Y-87122000D01*
X109474000Y-87122000D02*
X109474000Y-84522000D01*
X110744000Y-84522000D02*
X112074000Y-84522000D01*
X112074000Y-84522000D02*
X112074000Y-85792000D01*
D13*
X161634772Y-98637274D02*
X160634772Y-98637274D01*
X160634772Y-99987274D02*
X161634772Y-99987274D01*
X91678551Y-97292075D02*
X91678551Y-88592075D01*
X98083551Y-97292075D02*
X98083551Y-88592075D01*
X98083551Y-88592075D02*
X91678551Y-88592075D01*
X92908551Y-88592075D02*
X92908551Y-97292075D01*
X91678551Y-97292075D02*
X98083551Y-97292075D01*
D14*
X143077981Y-79338000D02*
G75*
G03X143077981Y-79338000I-283981J0D01*
G01*
D13*
X123888000Y-79192000D02*
X141888000Y-79192000D01*
X141888000Y-73192000D02*
X141888000Y-98692000D01*
X123888000Y-73192000D02*
X123888000Y-98692000D01*
X123888000Y-98692000D02*
X141888000Y-98692000D01*
X123888000Y-73192000D02*
X141888000Y-73192000D01*
X103794000Y-92348000D02*
X103794000Y-93048000D01*
X104994000Y-93048000D02*
X104994000Y-92348000D01*
X105572000Y-92360000D02*
X105572000Y-93060000D01*
X106772000Y-93060000D02*
X106772000Y-92360000D01*
X106080000Y-100488000D02*
X106080000Y-101188000D01*
X107280000Y-101188000D02*
X107280000Y-100488000D01*
X99984000Y-100488000D02*
X99984000Y-101188000D01*
X101184000Y-101188000D02*
X101184000Y-100488000D01*
X113442000Y-112614000D02*
X114142000Y-112614000D01*
X114142000Y-111414000D02*
X113442000Y-111414000D01*
X120250000Y-92872001D02*
X119550000Y-92872001D01*
X119550000Y-94072001D02*
X120250000Y-94072001D01*
X144696000Y-82642000D02*
X145396000Y-82642000D01*
X145396000Y-81442000D02*
X144696000Y-81442000D01*
X144684000Y-80864000D02*
X145384000Y-80864000D01*
X145384000Y-79664000D02*
X144684000Y-79664000D01*
X147744000Y-88230000D02*
X148444000Y-88230000D01*
X148444000Y-87030000D02*
X147744000Y-87030000D01*
X147732000Y-93310000D02*
X148432000Y-93310000D01*
X148432000Y-92110000D02*
X147732000Y-92110000D01*
X144672000Y-86198000D02*
X145372000Y-86198000D01*
X145372000Y-84998000D02*
X144672000Y-84998000D01*
X168084109Y-64161105D02*
X168323523Y-63503320D01*
X167195891Y-63092895D02*
X166956477Y-63750680D01*
X108485383Y-106313491D02*
X108485383Y-107013491D01*
X109685383Y-107013491D02*
X109685383Y-106313491D01*
X113376000Y-115412000D02*
X113376000Y-114712000D01*
X112176000Y-114712000D02*
X112176000Y-115412000D01*
X112483386Y-107079494D02*
X111783386Y-107079494D01*
X111783386Y-108279494D02*
X112483386Y-108279494D01*
X135220000Y-107042000D02*
X135220000Y-106342000D01*
X134020000Y-106342000D02*
X134020000Y-107042000D01*
X133696000Y-107030000D02*
X133696000Y-106330000D01*
X132496000Y-106330000D02*
X132496000Y-107030000D01*
X132172000Y-107030000D02*
X132172000Y-106330000D01*
X130972000Y-106330000D02*
X130972000Y-107030000D01*
X129124000Y-107042000D02*
X129124000Y-106342000D01*
X127924000Y-106342000D02*
X127924000Y-107042000D01*
X127600000Y-107042000D02*
X127600000Y-106342000D01*
X126400000Y-106342000D02*
X126400000Y-107042000D01*
X124552000Y-107042000D02*
X124552000Y-106342000D01*
X123352000Y-106342000D02*
X123352000Y-107042000D01*
X120996000Y-113126000D02*
X120996000Y-112426000D01*
X119796000Y-112426000D02*
X119796000Y-113126000D01*
X126076000Y-107030000D02*
X126076000Y-106330000D01*
X124876000Y-106330000D02*
X124876000Y-107030000D01*
X123028000Y-107042000D02*
X123028000Y-106342000D01*
X121828000Y-106342000D02*
X121828000Y-107042000D01*
X122520000Y-113126000D02*
X122520000Y-112426000D01*
X121320000Y-112426000D02*
X121320000Y-113126000D01*
X92745000Y-114331000D02*
X92745000Y-115031000D01*
X93945000Y-115031000D02*
X93945000Y-114331000D01*
X93945000Y-130410000D02*
X93945000Y-129710000D01*
X92745000Y-129710000D02*
X92745000Y-130410000D01*
X128362000Y-126449000D02*
X128362000Y-125749000D01*
X127162000Y-125749000D02*
X127162000Y-126449000D01*
X136998000Y-126207000D02*
X136998000Y-125507000D01*
X135798000Y-125507000D02*
X135798000Y-126207000D01*
X173066000Y-131160000D02*
X173066000Y-130460000D01*
X171866000Y-130460000D02*
X171866000Y-131160000D01*
X172374000Y-113696000D02*
X172374000Y-114396000D01*
X173574000Y-114396000D02*
X173574000Y-113696000D01*
D10*
X175083429Y-68041748D02*
X170124136Y-81667291D01*
X170124136Y-81667291D02*
X155840809Y-76468585D01*
X155840809Y-76468585D02*
X160800101Y-62843042D01*
X160800101Y-62843042D02*
X175083429Y-68041748D01*
D12*
X109562000Y-102592000D02*
X107862000Y-102592000D01*
X107862000Y-102592000D02*
X107862000Y-100042000D01*
X109562000Y-102592000D02*
X109562000Y-100042000D01*
X111736000Y-114974000D02*
X111736000Y-116674000D01*
X111736000Y-116674000D02*
X109186000Y-116674000D01*
X111736000Y-114974000D02*
X109186000Y-114974000D01*
X111000000Y-102672000D02*
X111000000Y-101742000D01*
X111000000Y-99512000D02*
X111000000Y-100442000D01*
X111000000Y-99512000D02*
X113160000Y-99512000D01*
X111000000Y-102672000D02*
X112460000Y-102672000D01*
X150678000Y-103630000D02*
X149748000Y-103630000D01*
X147518000Y-103630000D02*
X148448000Y-103630000D01*
X147518000Y-103630000D02*
X147518000Y-101470000D01*
X150678000Y-103630000D02*
X150678000Y-102170000D01*
D13*
X104735000Y-87130000D02*
X104735000Y-88130000D01*
X106085000Y-88130000D02*
X106085000Y-87130000D01*
X119388000Y-97703000D02*
X120388000Y-97703000D01*
X120388000Y-96353000D02*
X119388000Y-96353000D01*
X119388000Y-95925000D02*
X120388000Y-95925000D01*
X120388000Y-94575000D02*
X119388000Y-94575000D01*
X107942000Y-97623000D02*
X106942000Y-97623000D01*
X106942000Y-98973000D02*
X107942000Y-98973000D01*
X106434000Y-104307000D02*
X107434000Y-104307000D01*
X107434000Y-102957000D02*
X106434000Y-102957000D01*
X145546000Y-83145000D02*
X144546000Y-83145000D01*
X144546000Y-84495000D02*
X145546000Y-84495000D01*
X113879000Y-114562000D02*
X113879000Y-115562000D01*
X115229000Y-115562000D02*
X115229000Y-114562000D01*
X114292000Y-109561000D02*
X113292000Y-109561000D01*
X113292000Y-110911000D02*
X114292000Y-110911000D01*
X120642000Y-83399000D02*
X119642000Y-83399000D01*
X119642000Y-84749000D02*
X120642000Y-84749000D01*
X120654000Y-85177000D02*
X119654000Y-85177000D01*
X119654000Y-86527000D02*
X120654000Y-86527000D01*
X149598000Y-99401000D02*
X148598000Y-99401000D01*
X148598000Y-100751000D02*
X149598000Y-100751000D01*
X145308000Y-104561000D02*
X146308000Y-104561000D01*
X146308000Y-103211000D02*
X145308000Y-103211000D01*
D12*
X102732000Y-99228000D02*
X104532000Y-99228000D01*
X104532000Y-102448000D02*
X102082000Y-102448000D01*
D13*
X112885000Y-96187000D02*
X112885000Y-95437000D01*
X107635000Y-90937000D02*
X107635000Y-91687000D01*
X112885000Y-90937000D02*
X112885000Y-91687000D01*
X107635000Y-96187000D02*
X108385000Y-96187000D01*
X107635000Y-90937000D02*
X108385000Y-90937000D01*
X112885000Y-90937000D02*
X112135000Y-90937000D01*
X112885000Y-96187000D02*
X112135000Y-96187000D01*
X115527000Y-92237002D02*
X115527000Y-92187002D01*
X119677000Y-92237002D02*
X119677000Y-92092002D01*
X119677000Y-87087002D02*
X119677000Y-87232002D01*
X115527000Y-87087002D02*
X115527000Y-87232002D01*
X115527000Y-92237002D02*
X119677000Y-92237002D01*
X115527000Y-87087002D02*
X119677000Y-87087002D01*
X115527000Y-92187002D02*
X114127000Y-92187002D01*
D12*
X130648000Y-107042000D02*
X130648000Y-106342000D01*
X129448000Y-106342000D02*
X129448000Y-107042000D01*
D13*
X102483340Y-91518000D02*
X103192000Y-91518000D01*
X103192000Y-91518000D02*
X103192000Y-91919320D01*
D12*
X109252000Y-109322000D02*
X111052000Y-109322000D01*
X111052000Y-112542000D02*
X108602000Y-112542000D01*
X110979383Y-103275486D02*
X112779383Y-103275486D01*
X112779383Y-106495486D02*
X110329383Y-106495486D01*
D13*
X104632000Y-95553000D02*
X102632000Y-95553000D01*
X102632000Y-98503000D02*
X104632000Y-98503000D01*
X110748000Y-113117000D02*
X109748000Y-113117000D01*
X109748000Y-114467000D02*
X110748000Y-114467000D01*
X113998384Y-106163492D02*
X113998384Y-107163492D01*
X115348384Y-107163492D02*
X115348384Y-106163492D01*
X91247000Y-118216000D02*
X95697000Y-118216000D01*
X89722000Y-125116000D02*
X95697000Y-125116000D01*
X144126000Y-91640000D02*
X152126000Y-91640000D01*
X152126000Y-91640000D02*
X152126000Y-88640000D01*
X152126000Y-88640000D02*
X144126000Y-88640000D01*
X144126000Y-88640000D02*
X144126000Y-91640000D01*
D12*
X113954000Y-99218000D02*
X113954000Y-99918000D01*
X115154000Y-99918000D02*
X115154000Y-99218000D01*
X115732000Y-99230000D02*
X115732000Y-99930000D01*
X116932000Y-99930000D02*
X116932000Y-99230000D01*
X123409000Y-99803000D02*
X123409000Y-99103000D01*
X122209000Y-99103000D02*
X122209000Y-99803000D01*
X155654776Y-103030271D02*
X154954776Y-103030271D01*
X154954776Y-104230271D02*
X155654776Y-104230271D01*
X155654767Y-101506282D02*
X154954767Y-101506282D01*
X154954767Y-102706282D02*
X155654767Y-102706282D01*
X165556768Y-103726277D02*
X165556768Y-103026277D01*
X164356768Y-103026277D02*
X164356768Y-103726277D01*
X155654767Y-104554269D02*
X154954767Y-104554269D01*
X154954767Y-105754269D02*
X155654767Y-105754269D01*
X163778770Y-102964282D02*
X163778770Y-102264282D01*
X162578770Y-102264282D02*
X162578770Y-102964282D01*
X162308764Y-98134281D02*
X163008764Y-98134281D01*
X163008764Y-96934281D02*
X162308764Y-96934281D01*
X156924769Y-96934283D02*
X156224769Y-96934283D01*
X156224769Y-98134283D02*
X156924769Y-98134283D01*
X154340000Y-75862001D02*
X154340000Y-76562001D01*
X155540000Y-76562001D02*
X155540000Y-75862001D01*
X110271000Y-76497000D02*
X110271000Y-77197000D01*
X111471000Y-77197000D02*
X111471000Y-76497000D01*
X98566000Y-103830000D02*
X98566000Y-104760000D01*
X98566000Y-106990000D02*
X98566000Y-106060000D01*
X98566000Y-106990000D02*
X96406000Y-106990000D01*
X98566000Y-103830000D02*
X97106000Y-103830000D01*
X98566000Y-98242000D02*
X98566000Y-99172000D01*
X98566000Y-101402000D02*
X98566000Y-100472000D01*
X98566000Y-101402000D02*
X96406000Y-101402000D01*
X98566000Y-98242000D02*
X97106000Y-98242000D01*
D13*
X94321000Y-104910000D02*
X94321000Y-105910000D01*
X95671000Y-105910000D02*
X95671000Y-104910000D01*
X97302000Y-103291000D02*
X98302000Y-103291000D01*
X98302000Y-101941000D02*
X97302000Y-101941000D01*
X94321000Y-99322000D02*
X94321000Y-100322000D01*
X95671000Y-100322000D02*
X95671000Y-99322000D01*
X99322000Y-97703000D02*
X100322000Y-97703000D01*
X100322000Y-96353000D02*
X99322000Y-96353000D01*
X163170763Y-95081281D02*
X162170763Y-95081281D01*
X162170763Y-96431281D02*
X163170763Y-96431281D01*
X156074767Y-96431283D02*
X157074767Y-96431283D01*
X157074767Y-95081283D02*
X156074767Y-95081283D01*
X157598774Y-99987278D02*
X158598774Y-99987278D01*
X158598774Y-98637278D02*
X157598774Y-98637278D01*
X157440771Y-100759283D02*
X157440771Y-101534283D01*
X161740771Y-105059283D02*
X161740771Y-104284283D01*
X157440771Y-105059283D02*
X157440771Y-104284283D01*
X161740771Y-100759283D02*
X160965771Y-100759283D01*
X161740771Y-105059283D02*
X160965771Y-105059283D01*
X157440771Y-105059283D02*
X158215771Y-105059283D01*
X157440771Y-100759283D02*
X158215771Y-100759283D01*
D12*
X168576730Y-98098210D02*
X168576730Y-98798210D01*
X169776730Y-98798210D02*
X169776730Y-98098210D01*
X168064740Y-106402213D02*
X168764740Y-106402213D01*
X168764740Y-105202213D02*
X168064740Y-105202213D01*
X173332733Y-101846214D02*
X173332733Y-101146214D01*
X172132733Y-101146214D02*
X172132733Y-101846214D01*
X166798729Y-101134214D02*
X166798729Y-101834214D01*
X167998729Y-101834214D02*
X167998729Y-101134214D01*
D13*
X171629728Y-101984212D02*
X171629728Y-100984212D01*
X170279728Y-100984212D02*
X170279728Y-101984212D01*
X170279737Y-103778209D02*
X170279737Y-104778209D01*
X171629737Y-104778209D02*
X171629737Y-103778209D01*
X168501734Y-100996207D02*
X168501734Y-101996207D01*
X169851734Y-101996207D02*
X169851734Y-100996207D01*
X168914736Y-103349212D02*
X167914736Y-103349212D01*
X167914736Y-104699212D02*
X168914736Y-104699212D01*
X171629736Y-98936209D02*
X171629736Y-97936209D01*
X170279736Y-97936209D02*
X170279736Y-98936209D01*
X165961731Y-108592208D02*
X165961731Y-109592208D01*
X167311731Y-109592208D02*
X167311731Y-108592208D01*
D12*
X171076732Y-107866213D02*
X171076732Y-109666213D01*
X167856732Y-109666213D02*
X167856732Y-107216213D01*
D13*
X173894000Y-88786000D02*
X156994000Y-88786000D01*
X156994000Y-88786000D02*
X156994000Y-93486000D01*
X156994000Y-93486000D02*
X173794000Y-93486000D01*
X173794000Y-93486000D02*
X173894000Y-93486000D01*
X173894000Y-93486000D02*
X173894000Y-88786000D01*
X172394000Y-87786000D02*
X172394000Y-94786000D01*
D12*
X99588000Y-90596000D02*
X100588000Y-90596000D01*
X100588000Y-89236000D02*
X99588000Y-89236000D01*
X102128000Y-90596000D02*
X103128000Y-90596000D01*
X103128000Y-89236000D02*
X102128000Y-89236000D01*
X99564000Y-89072000D02*
X100564000Y-89072000D01*
X100564000Y-87712000D02*
X99564000Y-87712000D01*
X102104000Y-89072000D02*
X103104000Y-89072000D01*
X103104000Y-87712000D02*
X102104000Y-87712000D01*
D15*
X117858711Y-98484000D02*
G75*
G03X117858711Y-98484000I-70711J0D01*
G01*
X117938000Y-98634000D02*
X117938000Y-101634000D01*
X120938000Y-98634000D02*
X117938000Y-98634000D01*
X120938000Y-101634000D02*
X120938000Y-98634000D01*
X117938000Y-101634000D02*
X120938000Y-101634000D01*
D12*
X110621000Y-82505000D02*
X109621000Y-82505000D01*
X109621000Y-83865000D02*
X110621000Y-83865000D01*
X172298981Y-65853420D02*
X172641001Y-64913727D01*
X171363019Y-64448580D02*
X171020999Y-65388273D01*
X170901981Y-65345420D02*
X171244001Y-64405727D01*
X169966019Y-63940580D02*
X169623999Y-64880273D01*
X169504981Y-64837420D02*
X169847001Y-63897727D01*
X168569019Y-63432580D02*
X168226999Y-64372273D01*
X166710981Y-63821420D02*
X167053001Y-62881727D01*
X165775019Y-62416580D02*
X165432999Y-63356273D01*
X165313981Y-63313420D02*
X165656001Y-62373727D01*
X164378019Y-61908580D02*
X164035999Y-62848273D01*
X163916981Y-62805420D02*
X164259001Y-61865727D01*
X162981019Y-61400580D02*
X162638999Y-62340273D01*
X94025000Y-105910000D02*
X94025000Y-104910000D01*
X92665000Y-104910000D02*
X92665000Y-105910000D01*
X94316000Y-102116000D02*
X94316000Y-103116000D01*
X95676000Y-103116000D02*
X95676000Y-102116000D01*
X145804000Y-100756000D02*
X146804000Y-100756000D01*
X146804000Y-99396000D02*
X145804000Y-99396000D01*
D13*
X113526381Y-86383905D02*
X112526381Y-86383905D01*
X112526381Y-86764858D01*
X112574000Y-86860096D01*
X112621619Y-86907715D01*
X112716857Y-86955334D01*
X112859714Y-86955334D01*
X112954952Y-86907715D01*
X113002571Y-86860096D01*
X113050190Y-86764858D01*
X113050190Y-86383905D01*
X112621619Y-87336286D02*
X112574000Y-87383905D01*
X112526381Y-87479143D01*
X112526381Y-87717239D01*
X112574000Y-87812477D01*
X112621619Y-87860096D01*
X112716857Y-87907715D01*
X112812095Y-87907715D01*
X112954952Y-87860096D01*
X113526381Y-87288667D01*
X113526381Y-87907715D01*
X160408857Y-98242381D02*
X160742191Y-97766190D01*
X160980286Y-98242381D02*
X160980286Y-97242381D01*
X160599333Y-97242381D01*
X160504095Y-97290000D01*
X160456476Y-97337619D01*
X160408857Y-97432857D01*
X160408857Y-97575714D01*
X160456476Y-97670952D01*
X160504095Y-97718571D01*
X160599333Y-97766190D01*
X160980286Y-97766190D01*
X160075524Y-97242381D02*
X159456476Y-97242381D01*
X159789810Y-97623333D01*
X159646952Y-97623333D01*
X159551714Y-97670952D01*
X159504095Y-97718571D01*
X159456476Y-97813810D01*
X159456476Y-98051905D01*
X159504095Y-98147143D01*
X159551714Y-98194762D01*
X159646952Y-98242381D01*
X159932667Y-98242381D01*
X160027905Y-98194762D01*
X160075524Y-98147143D01*
X158837429Y-97242381D02*
X158742190Y-97242381D01*
X158646952Y-97290000D01*
X158599333Y-97337619D01*
X158551714Y-97432857D01*
X158504095Y-97623333D01*
X158504095Y-97861429D01*
X158551714Y-98051905D01*
X158599333Y-98147143D01*
X158646952Y-98194762D01*
X158742190Y-98242381D01*
X158837429Y-98242381D01*
X158932667Y-98194762D01*
X158980286Y-98147143D01*
X159027905Y-98051905D01*
X159075524Y-97861429D01*
X159075524Y-97623333D01*
X159027905Y-97432857D01*
X158980286Y-97337619D01*
X158932667Y-97290000D01*
X158837429Y-97242381D01*
X95956381Y-86383905D02*
X94956381Y-86383905D01*
X94956381Y-86764858D01*
X95004000Y-86860096D01*
X95051619Y-86907715D01*
X95146857Y-86955334D01*
X95289714Y-86955334D01*
X95384952Y-86907715D01*
X95432571Y-86860096D01*
X95480190Y-86764858D01*
X95480190Y-86383905D01*
X95956381Y-87907715D02*
X95956381Y-87336286D01*
X95956381Y-87622000D02*
X94956381Y-87622000D01*
X95099238Y-87526762D01*
X95194476Y-87431524D01*
X95242095Y-87336286D01*
X122092905Y-76377381D02*
X122092905Y-77186905D01*
X122045286Y-77282143D01*
X121997667Y-77329762D01*
X121902429Y-77377381D01*
X121711952Y-77377381D01*
X121616714Y-77329762D01*
X121569095Y-77282143D01*
X121521476Y-77186905D01*
X121521476Y-76377381D01*
X121140524Y-76377381D02*
X120473857Y-76377381D01*
X120902429Y-77377381D01*
X125958571Y-80259570D02*
X125958571Y-80592904D01*
X126482381Y-80735761D02*
X126482381Y-80259570D01*
X125482381Y-80259570D01*
X125482381Y-80735761D01*
X126434762Y-81116713D02*
X126482381Y-81211951D01*
X126482381Y-81402427D01*
X126434762Y-81497666D01*
X126339524Y-81545285D01*
X126291905Y-81545285D01*
X126196667Y-81497666D01*
X126149048Y-81402427D01*
X126149048Y-81259570D01*
X126101429Y-81164332D01*
X126006190Y-81116713D01*
X125958571Y-81116713D01*
X125863333Y-81164332D01*
X125815714Y-81259570D01*
X125815714Y-81402427D01*
X125863333Y-81497666D01*
X125815714Y-81973856D02*
X126815714Y-81973856D01*
X125863333Y-81973856D02*
X125815714Y-82069094D01*
X125815714Y-82259571D01*
X125863333Y-82354809D01*
X125910952Y-82402428D01*
X126006190Y-82450047D01*
X126291905Y-82450047D01*
X126387143Y-82402428D01*
X126434762Y-82354809D01*
X126482381Y-82259571D01*
X126482381Y-82069094D01*
X126434762Y-81973856D01*
X126482381Y-82878618D02*
X125815714Y-82878618D01*
X126006190Y-82878618D02*
X125910952Y-82926237D01*
X125863333Y-82973856D01*
X125815714Y-83069094D01*
X125815714Y-83164333D01*
X126434762Y-83878619D02*
X126482381Y-83783381D01*
X126482381Y-83592904D01*
X126434762Y-83497666D01*
X126339524Y-83450047D01*
X125958571Y-83450047D01*
X125863333Y-83497666D01*
X125815714Y-83592904D01*
X125815714Y-83783381D01*
X125863333Y-83878619D01*
X125958571Y-83926238D01*
X126053810Y-83926238D01*
X126149048Y-83450047D01*
X126434762Y-84307190D02*
X126482381Y-84402428D01*
X126482381Y-84592904D01*
X126434762Y-84688143D01*
X126339524Y-84735762D01*
X126291905Y-84735762D01*
X126196667Y-84688143D01*
X126149048Y-84592904D01*
X126149048Y-84450047D01*
X126101429Y-84354809D01*
X126006190Y-84307190D01*
X125958571Y-84307190D01*
X125863333Y-84354809D01*
X125815714Y-84450047D01*
X125815714Y-84592904D01*
X125863333Y-84688143D01*
X126434762Y-85116714D02*
X126482381Y-85211952D01*
X126482381Y-85402428D01*
X126434762Y-85497667D01*
X126339524Y-85545286D01*
X126291905Y-85545286D01*
X126196667Y-85497667D01*
X126149048Y-85402428D01*
X126149048Y-85259571D01*
X126101429Y-85164333D01*
X126006190Y-85116714D01*
X125958571Y-85116714D01*
X125863333Y-85164333D01*
X125815714Y-85259571D01*
X125815714Y-85402428D01*
X125863333Y-85497667D01*
X126482381Y-85973857D02*
X125815714Y-85973857D01*
X125482381Y-85973857D02*
X125530000Y-85926238D01*
X125577619Y-85973857D01*
X125530000Y-86021476D01*
X125482381Y-85973857D01*
X125577619Y-85973857D01*
X125815714Y-86307190D02*
X125815714Y-86688142D01*
X126482381Y-86450047D02*
X125625238Y-86450047D01*
X125530000Y-86497666D01*
X125482381Y-86592904D01*
X125482381Y-86688142D01*
X126434762Y-87735762D02*
X126482381Y-87878619D01*
X126482381Y-88116715D01*
X126434762Y-88211953D01*
X126387143Y-88259572D01*
X126291905Y-88307191D01*
X126196667Y-88307191D01*
X126101429Y-88259572D01*
X126053810Y-88211953D01*
X126006190Y-88116715D01*
X125958571Y-87926238D01*
X125910952Y-87831000D01*
X125863333Y-87783381D01*
X125768095Y-87735762D01*
X125672857Y-87735762D01*
X125577619Y-87783381D01*
X125530000Y-87831000D01*
X125482381Y-87926238D01*
X125482381Y-88164334D01*
X125530000Y-88307191D01*
X125815714Y-88640524D02*
X126482381Y-88878619D01*
X125815714Y-89116715D02*
X126482381Y-88878619D01*
X126720476Y-88783381D01*
X126768095Y-88735762D01*
X126815714Y-88640524D01*
X126434762Y-89450048D02*
X126482381Y-89545286D01*
X126482381Y-89735762D01*
X126434762Y-89831001D01*
X126339524Y-89878620D01*
X126291905Y-89878620D01*
X126196667Y-89831001D01*
X126149048Y-89735762D01*
X126149048Y-89592905D01*
X126101429Y-89497667D01*
X126006190Y-89450048D01*
X125958571Y-89450048D01*
X125863333Y-89497667D01*
X125815714Y-89592905D01*
X125815714Y-89735762D01*
X125863333Y-89831001D01*
X125815714Y-90164334D02*
X125815714Y-90545286D01*
X125482381Y-90307191D02*
X126339524Y-90307191D01*
X126434762Y-90354810D01*
X126482381Y-90450048D01*
X126482381Y-90545286D01*
X126434762Y-91259573D02*
X126482381Y-91164335D01*
X126482381Y-90973858D01*
X126434762Y-90878620D01*
X126339524Y-90831001D01*
X125958571Y-90831001D01*
X125863333Y-90878620D01*
X125815714Y-90973858D01*
X125815714Y-91164335D01*
X125863333Y-91259573D01*
X125958571Y-91307192D01*
X126053810Y-91307192D01*
X126149048Y-90831001D01*
X126482381Y-91735763D02*
X125815714Y-91735763D01*
X125910952Y-91735763D02*
X125863333Y-91783382D01*
X125815714Y-91878620D01*
X125815714Y-92021478D01*
X125863333Y-92116716D01*
X125958571Y-92164335D01*
X126482381Y-92164335D01*
X125958571Y-92164335D02*
X125863333Y-92211954D01*
X125815714Y-92307192D01*
X125815714Y-92450049D01*
X125863333Y-92545287D01*
X125958571Y-92592906D01*
X126482381Y-92592906D01*
X126434762Y-93021477D02*
X126482381Y-93116715D01*
X126482381Y-93307191D01*
X126434762Y-93402430D01*
X126339524Y-93450049D01*
X126291905Y-93450049D01*
X126196667Y-93402430D01*
X126149048Y-93307191D01*
X126149048Y-93164334D01*
X126101429Y-93069096D01*
X126006190Y-93021477D01*
X125958571Y-93021477D01*
X125863333Y-93069096D01*
X125815714Y-93164334D01*
X125815714Y-93307191D01*
X125863333Y-93402430D01*
X127609571Y-80235619D02*
X127609571Y-80568953D01*
X128133381Y-80711810D02*
X128133381Y-80235619D01*
X127133381Y-80235619D01*
X127133381Y-80711810D01*
X128085762Y-81092762D02*
X128133381Y-81235619D01*
X128133381Y-81473715D01*
X128085762Y-81568953D01*
X128038143Y-81616572D01*
X127942905Y-81664191D01*
X127847667Y-81664191D01*
X127752429Y-81616572D01*
X127704810Y-81568953D01*
X127657190Y-81473715D01*
X127609571Y-81283238D01*
X127561952Y-81188000D01*
X127514333Y-81140381D01*
X127419095Y-81092762D01*
X127323857Y-81092762D01*
X127228619Y-81140381D01*
X127181000Y-81188000D01*
X127133381Y-81283238D01*
X127133381Y-81521334D01*
X127181000Y-81664191D01*
X128133381Y-82092762D02*
X127133381Y-82092762D01*
X127133381Y-82473715D01*
X127181000Y-82568953D01*
X127228619Y-82616572D01*
X127323857Y-82664191D01*
X127466714Y-82664191D01*
X127561952Y-82616572D01*
X127609571Y-82568953D01*
X127657190Y-82473715D01*
X127657190Y-82092762D01*
X127133381Y-82997524D02*
X127133381Y-83616572D01*
X127514333Y-83283238D01*
X127514333Y-83426096D01*
X127561952Y-83521334D01*
X127609571Y-83568953D01*
X127704810Y-83616572D01*
X127942905Y-83616572D01*
X128038143Y-83568953D01*
X128085762Y-83521334D01*
X128133381Y-83426096D01*
X128133381Y-83140381D01*
X128085762Y-83045143D01*
X128038143Y-82997524D01*
X127228619Y-83997524D02*
X127181000Y-84045143D01*
X127133381Y-84140381D01*
X127133381Y-84378477D01*
X127181000Y-84473715D01*
X127228619Y-84521334D01*
X127323857Y-84568953D01*
X127419095Y-84568953D01*
X127561952Y-84521334D01*
X128133381Y-83949905D01*
X128133381Y-84568953D01*
X127752429Y-84997524D02*
X127752429Y-85759429D01*
X127133381Y-86140381D02*
X128133381Y-86378476D01*
X127419095Y-86568953D01*
X128133381Y-86759429D01*
X127133381Y-86997524D01*
X128133381Y-87949905D02*
X127657190Y-87616571D01*
X128133381Y-87378476D02*
X127133381Y-87378476D01*
X127133381Y-87759429D01*
X127181000Y-87854667D01*
X127228619Y-87902286D01*
X127323857Y-87949905D01*
X127466714Y-87949905D01*
X127561952Y-87902286D01*
X127609571Y-87854667D01*
X127657190Y-87759429D01*
X127657190Y-87378476D01*
X127133381Y-88568952D02*
X127133381Y-88759429D01*
X127181000Y-88854667D01*
X127276238Y-88949905D01*
X127466714Y-88997524D01*
X127800048Y-88997524D01*
X127990524Y-88949905D01*
X128085762Y-88854667D01*
X128133381Y-88759429D01*
X128133381Y-88568952D01*
X128085762Y-88473714D01*
X127990524Y-88378476D01*
X127800048Y-88330857D01*
X127466714Y-88330857D01*
X127276238Y-88378476D01*
X127181000Y-88473714D01*
X127133381Y-88568952D01*
X127133381Y-89616571D02*
X127133381Y-89807048D01*
X127181000Y-89902286D01*
X127276238Y-89997524D01*
X127466714Y-90045143D01*
X127800048Y-90045143D01*
X127990524Y-89997524D01*
X128085762Y-89902286D01*
X128133381Y-89807048D01*
X128133381Y-89616571D01*
X128085762Y-89521333D01*
X127990524Y-89426095D01*
X127800048Y-89378476D01*
X127466714Y-89378476D01*
X127276238Y-89426095D01*
X127181000Y-89521333D01*
X127133381Y-89616571D01*
X128133381Y-90473714D02*
X127133381Y-90473714D01*
X127847667Y-90807048D01*
X127133381Y-91140381D01*
X128133381Y-91140381D01*
X105005143Y-90003334D02*
X105052762Y-89955715D01*
X105100381Y-89812858D01*
X105100381Y-89717620D01*
X105052762Y-89574762D01*
X104957524Y-89479524D01*
X104862286Y-89431905D01*
X104671810Y-89384286D01*
X104528952Y-89384286D01*
X104338476Y-89431905D01*
X104243238Y-89479524D01*
X104148000Y-89574762D01*
X104100381Y-89717620D01*
X104100381Y-89812858D01*
X104148000Y-89955715D01*
X104195619Y-90003334D01*
X105100381Y-90955715D02*
X105100381Y-90384286D01*
X105100381Y-90670000D02*
X104100381Y-90670000D01*
X104243238Y-90574762D01*
X104338476Y-90479524D01*
X104386095Y-90384286D01*
X106656143Y-90130334D02*
X106703762Y-90082715D01*
X106751381Y-89939858D01*
X106751381Y-89844620D01*
X106703762Y-89701762D01*
X106608524Y-89606524D01*
X106513286Y-89558905D01*
X106322810Y-89511286D01*
X106179952Y-89511286D01*
X105989476Y-89558905D01*
X105894238Y-89606524D01*
X105799000Y-89701762D01*
X105751381Y-89844620D01*
X105751381Y-89939858D01*
X105799000Y-90082715D01*
X105846619Y-90130334D01*
X105846619Y-90511286D02*
X105799000Y-90558905D01*
X105751381Y-90654143D01*
X105751381Y-90892239D01*
X105799000Y-90987477D01*
X105846619Y-91035096D01*
X105941857Y-91082715D01*
X106037095Y-91082715D01*
X106179952Y-91035096D01*
X106751381Y-90463667D01*
X106751381Y-91082715D01*
X105259143Y-103465334D02*
X105306762Y-103417715D01*
X105354381Y-103274858D01*
X105354381Y-103179620D01*
X105306762Y-103036762D01*
X105211524Y-102941524D01*
X105116286Y-102893905D01*
X104925810Y-102846286D01*
X104782952Y-102846286D01*
X104592476Y-102893905D01*
X104497238Y-102941524D01*
X104402000Y-103036762D01*
X104354381Y-103179620D01*
X104354381Y-103274858D01*
X104402000Y-103417715D01*
X104449619Y-103465334D01*
X104354381Y-103798667D02*
X104354381Y-104417715D01*
X104735333Y-104084381D01*
X104735333Y-104227239D01*
X104782952Y-104322477D01*
X104830571Y-104370096D01*
X104925810Y-104417715D01*
X105163905Y-104417715D01*
X105259143Y-104370096D01*
X105306762Y-104322477D01*
X105354381Y-104227239D01*
X105354381Y-103941524D01*
X105306762Y-103846286D01*
X105259143Y-103798667D01*
X100941143Y-103211334D02*
X100988762Y-103163715D01*
X101036381Y-103020858D01*
X101036381Y-102925620D01*
X100988762Y-102782762D01*
X100893524Y-102687524D01*
X100798286Y-102639905D01*
X100607810Y-102592286D01*
X100464952Y-102592286D01*
X100274476Y-102639905D01*
X100179238Y-102687524D01*
X100084000Y-102782762D01*
X100036381Y-102925620D01*
X100036381Y-103020858D01*
X100084000Y-103163715D01*
X100131619Y-103211334D01*
X100369714Y-104068477D02*
X101036381Y-104068477D01*
X99988762Y-103830381D02*
X100703048Y-103592286D01*
X100703048Y-104211334D01*
X114720666Y-113641143D02*
X114768285Y-113688762D01*
X114911142Y-113736381D01*
X115006380Y-113736381D01*
X115149238Y-113688762D01*
X115244476Y-113593524D01*
X115292095Y-113498286D01*
X115339714Y-113307810D01*
X115339714Y-113164952D01*
X115292095Y-112974476D01*
X115244476Y-112879238D01*
X115149238Y-112784000D01*
X115006380Y-112736381D01*
X114911142Y-112736381D01*
X114768285Y-112784000D01*
X114720666Y-112831619D01*
X113815904Y-112736381D02*
X114292095Y-112736381D01*
X114339714Y-113212571D01*
X114292095Y-113164952D01*
X114196857Y-113117333D01*
X113958761Y-113117333D01*
X113863523Y-113164952D01*
X113815904Y-113212571D01*
X113768285Y-113307810D01*
X113768285Y-113545905D01*
X113815904Y-113641143D01*
X113863523Y-113688762D01*
X113958761Y-113736381D01*
X114196857Y-113736381D01*
X114292095Y-113688762D01*
X114339714Y-113641143D01*
X117514666Y-93829143D02*
X117562285Y-93876762D01*
X117705142Y-93924381D01*
X117800380Y-93924381D01*
X117943238Y-93876762D01*
X118038476Y-93781524D01*
X118086095Y-93686286D01*
X118133714Y-93495810D01*
X118133714Y-93352952D01*
X118086095Y-93162476D01*
X118038476Y-93067238D01*
X117943238Y-92972000D01*
X117800380Y-92924381D01*
X117705142Y-92924381D01*
X117562285Y-92972000D01*
X117514666Y-93019619D01*
X116657523Y-92924381D02*
X116848000Y-92924381D01*
X116943238Y-92972000D01*
X116990857Y-93019619D01*
X117086095Y-93162476D01*
X117133714Y-93352952D01*
X117133714Y-93733905D01*
X117086095Y-93829143D01*
X117038476Y-93876762D01*
X116943238Y-93924381D01*
X116752761Y-93924381D01*
X116657523Y-93876762D01*
X116609904Y-93829143D01*
X116562285Y-93733905D01*
X116562285Y-93495810D01*
X116609904Y-93400571D01*
X116657523Y-93352952D01*
X116752761Y-93305333D01*
X116943238Y-93305333D01*
X117038476Y-93352952D01*
X117086095Y-93400571D01*
X117133714Y-93495810D01*
X147740666Y-82653143D02*
X147788285Y-82700762D01*
X147931142Y-82748381D01*
X148026380Y-82748381D01*
X148169238Y-82700762D01*
X148264476Y-82605524D01*
X148312095Y-82510286D01*
X148359714Y-82319810D01*
X148359714Y-82176952D01*
X148312095Y-81986476D01*
X148264476Y-81891238D01*
X148169238Y-81796000D01*
X148026380Y-81748381D01*
X147931142Y-81748381D01*
X147788285Y-81796000D01*
X147740666Y-81843619D01*
X147407333Y-81748381D02*
X146740666Y-81748381D01*
X147169238Y-82748381D01*
X147740666Y-80621143D02*
X147788285Y-80668762D01*
X147931142Y-80716381D01*
X148026380Y-80716381D01*
X148169238Y-80668762D01*
X148264476Y-80573524D01*
X148312095Y-80478286D01*
X148359714Y-80287810D01*
X148359714Y-80144952D01*
X148312095Y-79954476D01*
X148264476Y-79859238D01*
X148169238Y-79764000D01*
X148026380Y-79716381D01*
X147931142Y-79716381D01*
X147788285Y-79764000D01*
X147740666Y-79811619D01*
X147169238Y-80144952D02*
X147264476Y-80097333D01*
X147312095Y-80049714D01*
X147359714Y-79954476D01*
X147359714Y-79906857D01*
X147312095Y-79811619D01*
X147264476Y-79764000D01*
X147169238Y-79716381D01*
X146978761Y-79716381D01*
X146883523Y-79764000D01*
X146835904Y-79811619D01*
X146788285Y-79906857D01*
X146788285Y-79954476D01*
X146835904Y-80049714D01*
X146883523Y-80097333D01*
X146978761Y-80144952D01*
X147169238Y-80144952D01*
X147264476Y-80192571D01*
X147312095Y-80240190D01*
X147359714Y-80335429D01*
X147359714Y-80525905D01*
X147312095Y-80621143D01*
X147264476Y-80668762D01*
X147169238Y-80716381D01*
X146978761Y-80716381D01*
X146883523Y-80668762D01*
X146835904Y-80621143D01*
X146788285Y-80525905D01*
X146788285Y-80335429D01*
X146835904Y-80240190D01*
X146883523Y-80192571D01*
X146978761Y-80144952D01*
X151042666Y-87479143D02*
X151090285Y-87526762D01*
X151233142Y-87574381D01*
X151328380Y-87574381D01*
X151471238Y-87526762D01*
X151566476Y-87431524D01*
X151614095Y-87336286D01*
X151661714Y-87145810D01*
X151661714Y-87002952D01*
X151614095Y-86812476D01*
X151566476Y-86717238D01*
X151471238Y-86622000D01*
X151328380Y-86574381D01*
X151233142Y-86574381D01*
X151090285Y-86622000D01*
X151042666Y-86669619D01*
X150566476Y-87574381D02*
X150376000Y-87574381D01*
X150280761Y-87526762D01*
X150233142Y-87479143D01*
X150137904Y-87336286D01*
X150090285Y-87145810D01*
X150090285Y-86764857D01*
X150137904Y-86669619D01*
X150185523Y-86622000D01*
X150280761Y-86574381D01*
X150471238Y-86574381D01*
X150566476Y-86622000D01*
X150614095Y-86669619D01*
X150661714Y-86764857D01*
X150661714Y-87002952D01*
X150614095Y-87098190D01*
X150566476Y-87145810D01*
X150471238Y-87193429D01*
X150280761Y-87193429D01*
X150185523Y-87145810D01*
X150137904Y-87098190D01*
X150090285Y-87002952D01*
X151772857Y-93575143D02*
X151820476Y-93622762D01*
X151963333Y-93670381D01*
X152058571Y-93670381D01*
X152201429Y-93622762D01*
X152296667Y-93527524D01*
X152344286Y-93432286D01*
X152391905Y-93241810D01*
X152391905Y-93098952D01*
X152344286Y-92908476D01*
X152296667Y-92813238D01*
X152201429Y-92718000D01*
X152058571Y-92670381D01*
X151963333Y-92670381D01*
X151820476Y-92718000D01*
X151772857Y-92765619D01*
X150820476Y-93670381D02*
X151391905Y-93670381D01*
X151106191Y-93670381D02*
X151106191Y-92670381D01*
X151201429Y-92813238D01*
X151296667Y-92908476D01*
X151391905Y-92956095D01*
X150201429Y-92670381D02*
X150106190Y-92670381D01*
X150010952Y-92718000D01*
X149963333Y-92765619D01*
X149915714Y-92860857D01*
X149868095Y-93051333D01*
X149868095Y-93289429D01*
X149915714Y-93479905D01*
X149963333Y-93575143D01*
X150010952Y-93622762D01*
X150106190Y-93670381D01*
X150201429Y-93670381D01*
X150296667Y-93622762D01*
X150344286Y-93575143D01*
X150391905Y-93479905D01*
X150439524Y-93289429D01*
X150439524Y-93051333D01*
X150391905Y-92860857D01*
X150344286Y-92765619D01*
X150296667Y-92718000D01*
X150201429Y-92670381D01*
X148724857Y-85955143D02*
X148772476Y-86002762D01*
X148915333Y-86050381D01*
X149010571Y-86050381D01*
X149153429Y-86002762D01*
X149248667Y-85907524D01*
X149296286Y-85812286D01*
X149343905Y-85621810D01*
X149343905Y-85478952D01*
X149296286Y-85288476D01*
X149248667Y-85193238D01*
X149153429Y-85098000D01*
X149010571Y-85050381D01*
X148915333Y-85050381D01*
X148772476Y-85098000D01*
X148724857Y-85145619D01*
X147772476Y-86050381D02*
X148343905Y-86050381D01*
X148058191Y-86050381D02*
X148058191Y-85050381D01*
X148153429Y-85193238D01*
X148248667Y-85288476D01*
X148343905Y-85336095D01*
X146820095Y-86050381D02*
X147391524Y-86050381D01*
X147105810Y-86050381D02*
X147105810Y-85050381D01*
X147201048Y-85193238D01*
X147296286Y-85288476D01*
X147391524Y-85336095D01*
X169338475Y-60478062D02*
X169399509Y-60449602D01*
X169493116Y-60331647D01*
X169525689Y-60242152D01*
X169529802Y-60091623D01*
X169472881Y-59969555D01*
X169399673Y-59892235D01*
X169236971Y-59782341D01*
X169102728Y-59733480D01*
X168907453Y-59713081D01*
X168801672Y-59725255D01*
X168679604Y-59782176D01*
X168585996Y-59900132D01*
X168553423Y-59989626D01*
X168549310Y-60140155D01*
X168577771Y-60201189D01*
X169102236Y-61405581D02*
X169297676Y-60868613D01*
X169199956Y-61137097D02*
X168260263Y-60795076D01*
X168427078Y-60754442D01*
X168549146Y-60697521D01*
X168626467Y-60624313D01*
X168121744Y-61454112D02*
X168060710Y-61482572D01*
X167983390Y-61555780D01*
X167901956Y-61779517D01*
X167914130Y-61885298D01*
X167942591Y-61946332D01*
X168015798Y-62023653D01*
X168105293Y-62056226D01*
X168255821Y-62060339D01*
X168988229Y-61718811D01*
X168776502Y-62300526D01*
X108053143Y-107561143D02*
X108100762Y-107513524D01*
X108148381Y-107370667D01*
X108148381Y-107275429D01*
X108100762Y-107132571D01*
X108005524Y-107037333D01*
X107910286Y-106989714D01*
X107719810Y-106942095D01*
X107576952Y-106942095D01*
X107386476Y-106989714D01*
X107291238Y-107037333D01*
X107196000Y-107132571D01*
X107148381Y-107275429D01*
X107148381Y-107370667D01*
X107196000Y-107513524D01*
X107243619Y-107561143D01*
X108148381Y-108513524D02*
X108148381Y-107942095D01*
X108148381Y-108227809D02*
X107148381Y-108227809D01*
X107291238Y-108132571D01*
X107386476Y-108037333D01*
X107434095Y-107942095D01*
X107148381Y-108846857D02*
X107148381Y-109465905D01*
X107529333Y-109132571D01*
X107529333Y-109275429D01*
X107576952Y-109370667D01*
X107624571Y-109418286D01*
X107719810Y-109465905D01*
X107957905Y-109465905D01*
X108053143Y-109418286D01*
X108100762Y-109370667D01*
X108148381Y-109275429D01*
X108148381Y-108989714D01*
X108100762Y-108894476D01*
X108053143Y-108846857D01*
X113133143Y-117467143D02*
X113180762Y-117419524D01*
X113228381Y-117276667D01*
X113228381Y-117181429D01*
X113180762Y-117038571D01*
X113085524Y-116943333D01*
X112990286Y-116895714D01*
X112799810Y-116848095D01*
X112656952Y-116848095D01*
X112466476Y-116895714D01*
X112371238Y-116943333D01*
X112276000Y-117038571D01*
X112228381Y-117181429D01*
X112228381Y-117276667D01*
X112276000Y-117419524D01*
X112323619Y-117467143D01*
X113228381Y-118419524D02*
X113228381Y-117848095D01*
X113228381Y-118133809D02*
X112228381Y-118133809D01*
X112371238Y-118038571D01*
X112466476Y-117943333D01*
X112514095Y-117848095D01*
X112561714Y-119276667D02*
X113228381Y-119276667D01*
X112180762Y-119038571D02*
X112895048Y-118800476D01*
X112895048Y-119419524D01*
X112776243Y-109323143D02*
X112823862Y-109370762D01*
X112966719Y-109418381D01*
X113061957Y-109418381D01*
X113204815Y-109370762D01*
X113300053Y-109275524D01*
X113347672Y-109180286D01*
X113395291Y-108989810D01*
X113395291Y-108846952D01*
X113347672Y-108656476D01*
X113300053Y-108561238D01*
X113204815Y-108466000D01*
X113061957Y-108418381D01*
X112966719Y-108418381D01*
X112823862Y-108466000D01*
X112776243Y-108513619D01*
X111823862Y-109418381D02*
X112395291Y-109418381D01*
X112109577Y-109418381D02*
X112109577Y-108418381D01*
X112204815Y-108561238D01*
X112300053Y-108656476D01*
X112395291Y-108704095D01*
X110919100Y-108418381D02*
X111395291Y-108418381D01*
X111442910Y-108894571D01*
X111395291Y-108846952D01*
X111300053Y-108799333D01*
X111061957Y-108799333D01*
X110966719Y-108846952D01*
X110919100Y-108894571D01*
X110871481Y-108989810D01*
X110871481Y-109227905D01*
X110919100Y-109323143D01*
X110966719Y-109370762D01*
X111061957Y-109418381D01*
X111300053Y-109418381D01*
X111395291Y-109370762D01*
X111442910Y-109323143D01*
X134977143Y-102989143D02*
X135024762Y-102941524D01*
X135072381Y-102798667D01*
X135072381Y-102703429D01*
X135024762Y-102560571D01*
X134929524Y-102465333D01*
X134834286Y-102417714D01*
X134643810Y-102370095D01*
X134500952Y-102370095D01*
X134310476Y-102417714D01*
X134215238Y-102465333D01*
X134120000Y-102560571D01*
X134072381Y-102703429D01*
X134072381Y-102798667D01*
X134120000Y-102941524D01*
X134167619Y-102989143D01*
X135072381Y-103941524D02*
X135072381Y-103370095D01*
X135072381Y-103655809D02*
X134072381Y-103655809D01*
X134215238Y-103560571D01*
X134310476Y-103465333D01*
X134358095Y-103370095D01*
X134072381Y-104798667D02*
X134072381Y-104608190D01*
X134120000Y-104512952D01*
X134167619Y-104465333D01*
X134310476Y-104370095D01*
X134500952Y-104322476D01*
X134881905Y-104322476D01*
X134977143Y-104370095D01*
X135024762Y-104417714D01*
X135072381Y-104512952D01*
X135072381Y-104703429D01*
X135024762Y-104798667D01*
X134977143Y-104846286D01*
X134881905Y-104893905D01*
X134643810Y-104893905D01*
X134548571Y-104846286D01*
X134500952Y-104798667D01*
X134453333Y-104703429D01*
X134453333Y-104512952D01*
X134500952Y-104417714D01*
X134548571Y-104370095D01*
X134643810Y-104322476D01*
X133453143Y-102989143D02*
X133500762Y-102941524D01*
X133548381Y-102798667D01*
X133548381Y-102703429D01*
X133500762Y-102560571D01*
X133405524Y-102465333D01*
X133310286Y-102417714D01*
X133119810Y-102370095D01*
X132976952Y-102370095D01*
X132786476Y-102417714D01*
X132691238Y-102465333D01*
X132596000Y-102560571D01*
X132548381Y-102703429D01*
X132548381Y-102798667D01*
X132596000Y-102941524D01*
X132643619Y-102989143D01*
X133548381Y-103941524D02*
X133548381Y-103370095D01*
X133548381Y-103655809D02*
X132548381Y-103655809D01*
X132691238Y-103560571D01*
X132786476Y-103465333D01*
X132834095Y-103370095D01*
X132548381Y-104274857D02*
X132548381Y-104941524D01*
X133548381Y-104512952D01*
X131929143Y-102989143D02*
X131976762Y-102941524D01*
X132024381Y-102798667D01*
X132024381Y-102703429D01*
X131976762Y-102560571D01*
X131881524Y-102465333D01*
X131786286Y-102417714D01*
X131595810Y-102370095D01*
X131452952Y-102370095D01*
X131262476Y-102417714D01*
X131167238Y-102465333D01*
X131072000Y-102560571D01*
X131024381Y-102703429D01*
X131024381Y-102798667D01*
X131072000Y-102941524D01*
X131119619Y-102989143D01*
X132024381Y-103941524D02*
X132024381Y-103370095D01*
X132024381Y-103655809D02*
X131024381Y-103655809D01*
X131167238Y-103560571D01*
X131262476Y-103465333D01*
X131310095Y-103370095D01*
X131452952Y-104512952D02*
X131405333Y-104417714D01*
X131357714Y-104370095D01*
X131262476Y-104322476D01*
X131214857Y-104322476D01*
X131119619Y-104370095D01*
X131072000Y-104417714D01*
X131024381Y-104512952D01*
X131024381Y-104703429D01*
X131072000Y-104798667D01*
X131119619Y-104846286D01*
X131214857Y-104893905D01*
X131262476Y-104893905D01*
X131357714Y-104846286D01*
X131405333Y-104798667D01*
X131452952Y-104703429D01*
X131452952Y-104512952D01*
X131500571Y-104417714D01*
X131548190Y-104370095D01*
X131643429Y-104322476D01*
X131833905Y-104322476D01*
X131929143Y-104370095D01*
X131976762Y-104417714D01*
X132024381Y-104512952D01*
X132024381Y-104703429D01*
X131976762Y-104798667D01*
X131929143Y-104846286D01*
X131833905Y-104893905D01*
X131643429Y-104893905D01*
X131548190Y-104846286D01*
X131500571Y-104798667D01*
X131452952Y-104703429D01*
X128881143Y-102989143D02*
X128928762Y-102941524D01*
X128976381Y-102798667D01*
X128976381Y-102703429D01*
X128928762Y-102560571D01*
X128833524Y-102465333D01*
X128738286Y-102417714D01*
X128547810Y-102370095D01*
X128404952Y-102370095D01*
X128214476Y-102417714D01*
X128119238Y-102465333D01*
X128024000Y-102560571D01*
X127976381Y-102703429D01*
X127976381Y-102798667D01*
X128024000Y-102941524D01*
X128071619Y-102989143D01*
X128976381Y-103941524D02*
X128976381Y-103370095D01*
X128976381Y-103655809D02*
X127976381Y-103655809D01*
X128119238Y-103560571D01*
X128214476Y-103465333D01*
X128262095Y-103370095D01*
X128976381Y-104417714D02*
X128976381Y-104608190D01*
X128928762Y-104703429D01*
X128881143Y-104751048D01*
X128738286Y-104846286D01*
X128547810Y-104893905D01*
X128166857Y-104893905D01*
X128071619Y-104846286D01*
X128024000Y-104798667D01*
X127976381Y-104703429D01*
X127976381Y-104512952D01*
X128024000Y-104417714D01*
X128071619Y-104370095D01*
X128166857Y-104322476D01*
X128404952Y-104322476D01*
X128500190Y-104370095D01*
X128547810Y-104417714D01*
X128595429Y-104512952D01*
X128595429Y-104703429D01*
X128547810Y-104798667D01*
X128500190Y-104846286D01*
X128404952Y-104893905D01*
X127357143Y-102989143D02*
X127404762Y-102941524D01*
X127452381Y-102798667D01*
X127452381Y-102703429D01*
X127404762Y-102560571D01*
X127309524Y-102465333D01*
X127214286Y-102417714D01*
X127023810Y-102370095D01*
X126880952Y-102370095D01*
X126690476Y-102417714D01*
X126595238Y-102465333D01*
X126500000Y-102560571D01*
X126452381Y-102703429D01*
X126452381Y-102798667D01*
X126500000Y-102941524D01*
X126547619Y-102989143D01*
X126547619Y-103370095D02*
X126500000Y-103417714D01*
X126452381Y-103512952D01*
X126452381Y-103751048D01*
X126500000Y-103846286D01*
X126547619Y-103893905D01*
X126642857Y-103941524D01*
X126738095Y-103941524D01*
X126880952Y-103893905D01*
X127452381Y-103322476D01*
X127452381Y-103941524D01*
X126452381Y-104560571D02*
X126452381Y-104655810D01*
X126500000Y-104751048D01*
X126547619Y-104798667D01*
X126642857Y-104846286D01*
X126833333Y-104893905D01*
X127071429Y-104893905D01*
X127261905Y-104846286D01*
X127357143Y-104798667D01*
X127404762Y-104751048D01*
X127452381Y-104655810D01*
X127452381Y-104560571D01*
X127404762Y-104465333D01*
X127357143Y-104417714D01*
X127261905Y-104370095D01*
X127071429Y-104322476D01*
X126833333Y-104322476D01*
X126642857Y-104370095D01*
X126547619Y-104417714D01*
X126500000Y-104465333D01*
X126452381Y-104560571D01*
X124309143Y-102989143D02*
X124356762Y-102941524D01*
X124404381Y-102798667D01*
X124404381Y-102703429D01*
X124356762Y-102560571D01*
X124261524Y-102465333D01*
X124166286Y-102417714D01*
X123975810Y-102370095D01*
X123832952Y-102370095D01*
X123642476Y-102417714D01*
X123547238Y-102465333D01*
X123452000Y-102560571D01*
X123404381Y-102703429D01*
X123404381Y-102798667D01*
X123452000Y-102941524D01*
X123499619Y-102989143D01*
X123499619Y-103370095D02*
X123452000Y-103417714D01*
X123404381Y-103512952D01*
X123404381Y-103751048D01*
X123452000Y-103846286D01*
X123499619Y-103893905D01*
X123594857Y-103941524D01*
X123690095Y-103941524D01*
X123832952Y-103893905D01*
X124404381Y-103322476D01*
X124404381Y-103941524D01*
X124404381Y-104893905D02*
X124404381Y-104322476D01*
X124404381Y-104608190D02*
X123404381Y-104608190D01*
X123547238Y-104512952D01*
X123642476Y-104417714D01*
X123690095Y-104322476D01*
X120753143Y-109073143D02*
X120800762Y-109025524D01*
X120848381Y-108882667D01*
X120848381Y-108787429D01*
X120800762Y-108644571D01*
X120705524Y-108549333D01*
X120610286Y-108501714D01*
X120419810Y-108454095D01*
X120276952Y-108454095D01*
X120086476Y-108501714D01*
X119991238Y-108549333D01*
X119896000Y-108644571D01*
X119848381Y-108787429D01*
X119848381Y-108882667D01*
X119896000Y-109025524D01*
X119943619Y-109073143D01*
X119943619Y-109454095D02*
X119896000Y-109501714D01*
X119848381Y-109596952D01*
X119848381Y-109835048D01*
X119896000Y-109930286D01*
X119943619Y-109977905D01*
X120038857Y-110025524D01*
X120134095Y-110025524D01*
X120276952Y-109977905D01*
X120848381Y-109406476D01*
X120848381Y-110025524D01*
X119943619Y-110406476D02*
X119896000Y-110454095D01*
X119848381Y-110549333D01*
X119848381Y-110787429D01*
X119896000Y-110882667D01*
X119943619Y-110930286D01*
X120038857Y-110977905D01*
X120134095Y-110977905D01*
X120276952Y-110930286D01*
X120848381Y-110358857D01*
X120848381Y-110977905D01*
X125833143Y-102989143D02*
X125880762Y-102941524D01*
X125928381Y-102798667D01*
X125928381Y-102703429D01*
X125880762Y-102560571D01*
X125785524Y-102465333D01*
X125690286Y-102417714D01*
X125499810Y-102370095D01*
X125356952Y-102370095D01*
X125166476Y-102417714D01*
X125071238Y-102465333D01*
X124976000Y-102560571D01*
X124928381Y-102703429D01*
X124928381Y-102798667D01*
X124976000Y-102941524D01*
X125023619Y-102989143D01*
X125023619Y-103370095D02*
X124976000Y-103417714D01*
X124928381Y-103512952D01*
X124928381Y-103751048D01*
X124976000Y-103846286D01*
X125023619Y-103893905D01*
X125118857Y-103941524D01*
X125214095Y-103941524D01*
X125356952Y-103893905D01*
X125928381Y-103322476D01*
X125928381Y-103941524D01*
X124928381Y-104274857D02*
X124928381Y-104893905D01*
X125309333Y-104560571D01*
X125309333Y-104703429D01*
X125356952Y-104798667D01*
X125404571Y-104846286D01*
X125499810Y-104893905D01*
X125737905Y-104893905D01*
X125833143Y-104846286D01*
X125880762Y-104798667D01*
X125928381Y-104703429D01*
X125928381Y-104417714D01*
X125880762Y-104322476D01*
X125833143Y-104274857D01*
X122785143Y-102989143D02*
X122832762Y-102941524D01*
X122880381Y-102798667D01*
X122880381Y-102703429D01*
X122832762Y-102560571D01*
X122737524Y-102465333D01*
X122642286Y-102417714D01*
X122451810Y-102370095D01*
X122308952Y-102370095D01*
X122118476Y-102417714D01*
X122023238Y-102465333D01*
X121928000Y-102560571D01*
X121880381Y-102703429D01*
X121880381Y-102798667D01*
X121928000Y-102941524D01*
X121975619Y-102989143D01*
X121975619Y-103370095D02*
X121928000Y-103417714D01*
X121880381Y-103512952D01*
X121880381Y-103751048D01*
X121928000Y-103846286D01*
X121975619Y-103893905D01*
X122070857Y-103941524D01*
X122166095Y-103941524D01*
X122308952Y-103893905D01*
X122880381Y-103322476D01*
X122880381Y-103941524D01*
X122213714Y-104798667D02*
X122880381Y-104798667D01*
X121832762Y-104560571D02*
X122547048Y-104322476D01*
X122547048Y-104941524D01*
X122277143Y-109073143D02*
X122324762Y-109025524D01*
X122372381Y-108882667D01*
X122372381Y-108787429D01*
X122324762Y-108644571D01*
X122229524Y-108549333D01*
X122134286Y-108501714D01*
X121943810Y-108454095D01*
X121800952Y-108454095D01*
X121610476Y-108501714D01*
X121515238Y-108549333D01*
X121420000Y-108644571D01*
X121372381Y-108787429D01*
X121372381Y-108882667D01*
X121420000Y-109025524D01*
X121467619Y-109073143D01*
X121467619Y-109454095D02*
X121420000Y-109501714D01*
X121372381Y-109596952D01*
X121372381Y-109835048D01*
X121420000Y-109930286D01*
X121467619Y-109977905D01*
X121562857Y-110025524D01*
X121658095Y-110025524D01*
X121800952Y-109977905D01*
X122372381Y-109406476D01*
X122372381Y-110025524D01*
X121372381Y-110930286D02*
X121372381Y-110454095D01*
X121848571Y-110406476D01*
X121800952Y-110454095D01*
X121753333Y-110549333D01*
X121753333Y-110787429D01*
X121800952Y-110882667D01*
X121848571Y-110930286D01*
X121943810Y-110977905D01*
X122181905Y-110977905D01*
X122277143Y-110930286D01*
X122324762Y-110882667D01*
X122372381Y-110787429D01*
X122372381Y-110549333D01*
X122324762Y-110454095D01*
X122277143Y-110406476D01*
X91802143Y-114038143D02*
X91849762Y-113990524D01*
X91897381Y-113847667D01*
X91897381Y-113752429D01*
X91849762Y-113609571D01*
X91754524Y-113514333D01*
X91659286Y-113466714D01*
X91468810Y-113419095D01*
X91325952Y-113419095D01*
X91135476Y-113466714D01*
X91040238Y-113514333D01*
X90945000Y-113609571D01*
X90897381Y-113752429D01*
X90897381Y-113847667D01*
X90945000Y-113990524D01*
X90992619Y-114038143D01*
X90992619Y-114419095D02*
X90945000Y-114466714D01*
X90897381Y-114561952D01*
X90897381Y-114800048D01*
X90945000Y-114895286D01*
X90992619Y-114942905D01*
X91087857Y-114990524D01*
X91183095Y-114990524D01*
X91325952Y-114942905D01*
X91897381Y-114371476D01*
X91897381Y-114990524D01*
X90897381Y-115847667D02*
X90897381Y-115657190D01*
X90945000Y-115561952D01*
X90992619Y-115514333D01*
X91135476Y-115419095D01*
X91325952Y-115371476D01*
X91706905Y-115371476D01*
X91802143Y-115419095D01*
X91849762Y-115466714D01*
X91897381Y-115561952D01*
X91897381Y-115752429D01*
X91849762Y-115847667D01*
X91802143Y-115895286D01*
X91706905Y-115942905D01*
X91468810Y-115942905D01*
X91373571Y-115895286D01*
X91325952Y-115847667D01*
X91278333Y-115752429D01*
X91278333Y-115561952D01*
X91325952Y-115466714D01*
X91373571Y-115419095D01*
X91468810Y-115371476D01*
X95602143Y-129417143D02*
X95649762Y-129369524D01*
X95697381Y-129226667D01*
X95697381Y-129131429D01*
X95649762Y-128988571D01*
X95554524Y-128893333D01*
X95459286Y-128845714D01*
X95268810Y-128798095D01*
X95125952Y-128798095D01*
X94935476Y-128845714D01*
X94840238Y-128893333D01*
X94745000Y-128988571D01*
X94697381Y-129131429D01*
X94697381Y-129226667D01*
X94745000Y-129369524D01*
X94792619Y-129417143D01*
X94792619Y-129798095D02*
X94745000Y-129845714D01*
X94697381Y-129940952D01*
X94697381Y-130179048D01*
X94745000Y-130274286D01*
X94792619Y-130321905D01*
X94887857Y-130369524D01*
X94983095Y-130369524D01*
X95125952Y-130321905D01*
X95697381Y-129750476D01*
X95697381Y-130369524D01*
X94697381Y-130702857D02*
X94697381Y-131369524D01*
X95697381Y-130940952D01*
X126722143Y-125456143D02*
X126769762Y-125408524D01*
X126817381Y-125265667D01*
X126817381Y-125170429D01*
X126769762Y-125027571D01*
X126674524Y-124932333D01*
X126579286Y-124884714D01*
X126388810Y-124837095D01*
X126245952Y-124837095D01*
X126055476Y-124884714D01*
X125960238Y-124932333D01*
X125865000Y-125027571D01*
X125817381Y-125170429D01*
X125817381Y-125265667D01*
X125865000Y-125408524D01*
X125912619Y-125456143D01*
X125912619Y-125837095D02*
X125865000Y-125884714D01*
X125817381Y-125979952D01*
X125817381Y-126218048D01*
X125865000Y-126313286D01*
X125912619Y-126360905D01*
X126007857Y-126408524D01*
X126103095Y-126408524D01*
X126245952Y-126360905D01*
X126817381Y-125789476D01*
X126817381Y-126408524D01*
X126245952Y-126979952D02*
X126198333Y-126884714D01*
X126150714Y-126837095D01*
X126055476Y-126789476D01*
X126007857Y-126789476D01*
X125912619Y-126837095D01*
X125865000Y-126884714D01*
X125817381Y-126979952D01*
X125817381Y-127170429D01*
X125865000Y-127265667D01*
X125912619Y-127313286D01*
X126007857Y-127360905D01*
X126055476Y-127360905D01*
X126150714Y-127313286D01*
X126198333Y-127265667D01*
X126245952Y-127170429D01*
X126245952Y-126979952D01*
X126293571Y-126884714D01*
X126341190Y-126837095D01*
X126436429Y-126789476D01*
X126626905Y-126789476D01*
X126722143Y-126837095D01*
X126769762Y-126884714D01*
X126817381Y-126979952D01*
X126817381Y-127170429D01*
X126769762Y-127265667D01*
X126722143Y-127313286D01*
X126626905Y-127360905D01*
X126436429Y-127360905D01*
X126341190Y-127313286D01*
X126293571Y-127265667D01*
X126245952Y-127170429D01*
X138655143Y-125214143D02*
X138702762Y-125166524D01*
X138750381Y-125023667D01*
X138750381Y-124928429D01*
X138702762Y-124785571D01*
X138607524Y-124690333D01*
X138512286Y-124642714D01*
X138321810Y-124595095D01*
X138178952Y-124595095D01*
X137988476Y-124642714D01*
X137893238Y-124690333D01*
X137798000Y-124785571D01*
X137750381Y-124928429D01*
X137750381Y-125023667D01*
X137798000Y-125166524D01*
X137845619Y-125214143D01*
X137845619Y-125595095D02*
X137798000Y-125642714D01*
X137750381Y-125737952D01*
X137750381Y-125976048D01*
X137798000Y-126071286D01*
X137845619Y-126118905D01*
X137940857Y-126166524D01*
X138036095Y-126166524D01*
X138178952Y-126118905D01*
X138750381Y-125547476D01*
X138750381Y-126166524D01*
X138750381Y-126642714D02*
X138750381Y-126833190D01*
X138702762Y-126928429D01*
X138655143Y-126976048D01*
X138512286Y-127071286D01*
X138321810Y-127118905D01*
X137940857Y-127118905D01*
X137845619Y-127071286D01*
X137798000Y-127023667D01*
X137750381Y-126928429D01*
X137750381Y-126737952D01*
X137798000Y-126642714D01*
X137845619Y-126595095D01*
X137940857Y-126547476D01*
X138178952Y-126547476D01*
X138274190Y-126595095D01*
X138321810Y-126642714D01*
X138369429Y-126737952D01*
X138369429Y-126928429D01*
X138321810Y-127023667D01*
X138274190Y-127071286D01*
X138178952Y-127118905D01*
X174723143Y-130167143D02*
X174770762Y-130119524D01*
X174818381Y-129976667D01*
X174818381Y-129881429D01*
X174770762Y-129738571D01*
X174675524Y-129643333D01*
X174580286Y-129595714D01*
X174389810Y-129548095D01*
X174246952Y-129548095D01*
X174056476Y-129595714D01*
X173961238Y-129643333D01*
X173866000Y-129738571D01*
X173818381Y-129881429D01*
X173818381Y-129976667D01*
X173866000Y-130119524D01*
X173913619Y-130167143D01*
X173818381Y-130500476D02*
X173818381Y-131119524D01*
X174199333Y-130786190D01*
X174199333Y-130929048D01*
X174246952Y-131024286D01*
X174294571Y-131071905D01*
X174389810Y-131119524D01*
X174627905Y-131119524D01*
X174723143Y-131071905D01*
X174770762Y-131024286D01*
X174818381Y-130929048D01*
X174818381Y-130643333D01*
X174770762Y-130548095D01*
X174723143Y-130500476D01*
X173818381Y-131738571D02*
X173818381Y-131833810D01*
X173866000Y-131929048D01*
X173913619Y-131976667D01*
X174008857Y-132024286D01*
X174199333Y-132071905D01*
X174437429Y-132071905D01*
X174627905Y-132024286D01*
X174723143Y-131976667D01*
X174770762Y-131929048D01*
X174818381Y-131833810D01*
X174818381Y-131738571D01*
X174770762Y-131643333D01*
X174723143Y-131595714D01*
X174627905Y-131548095D01*
X174437429Y-131500476D01*
X174199333Y-131500476D01*
X174008857Y-131548095D01*
X173913619Y-131595714D01*
X173866000Y-131643333D01*
X173818381Y-131738571D01*
X171431143Y-113403143D02*
X171478762Y-113355524D01*
X171526381Y-113212667D01*
X171526381Y-113117429D01*
X171478762Y-112974571D01*
X171383524Y-112879333D01*
X171288286Y-112831714D01*
X171097810Y-112784095D01*
X170954952Y-112784095D01*
X170764476Y-112831714D01*
X170669238Y-112879333D01*
X170574000Y-112974571D01*
X170526381Y-113117429D01*
X170526381Y-113212667D01*
X170574000Y-113355524D01*
X170621619Y-113403143D01*
X170526381Y-113736476D02*
X170526381Y-114355524D01*
X170907333Y-114022190D01*
X170907333Y-114165048D01*
X170954952Y-114260286D01*
X171002571Y-114307905D01*
X171097810Y-114355524D01*
X171335905Y-114355524D01*
X171431143Y-114307905D01*
X171478762Y-114260286D01*
X171526381Y-114165048D01*
X171526381Y-113879333D01*
X171478762Y-113784095D01*
X171431143Y-113736476D01*
X171526381Y-115307905D02*
X171526381Y-114736476D01*
X171526381Y-115022190D02*
X170526381Y-115022190D01*
X170669238Y-114926952D01*
X170764476Y-114831714D01*
X170812095Y-114736476D01*
X166021542Y-73903022D02*
X166050002Y-73964055D01*
X166167957Y-74057663D01*
X166257452Y-74090236D01*
X166407981Y-74094349D01*
X166530049Y-74037428D01*
X166607369Y-73964220D01*
X166717263Y-73801518D01*
X166766123Y-73667275D01*
X166786523Y-73472000D01*
X166774349Y-73366219D01*
X166717428Y-73244151D01*
X166599472Y-73150543D01*
X166509977Y-73117970D01*
X166359449Y-73113857D01*
X166298415Y-73142318D01*
X165749274Y-72841097D02*
X165570285Y-72775950D01*
X165464504Y-72788124D01*
X165342436Y-72845045D01*
X165232542Y-73007747D01*
X165118535Y-73320979D01*
X165098136Y-73516254D01*
X165155057Y-73638322D01*
X165228265Y-73715643D01*
X165407254Y-73780789D01*
X165513035Y-73768616D01*
X165635103Y-73711694D01*
X165744997Y-73548992D01*
X165859004Y-73235761D01*
X165879403Y-73040485D01*
X165822482Y-72918417D01*
X165749274Y-72841097D01*
X164601803Y-73487629D02*
X164943824Y-72547937D01*
X164064836Y-73292189D01*
X164406856Y-72352496D01*
X163125143Y-72950169D02*
X163662111Y-73145609D01*
X163393627Y-73047889D02*
X163735648Y-72108197D01*
X163776282Y-72275012D01*
X163833203Y-72397079D01*
X163906411Y-72474400D01*
X109164381Y-102893905D02*
X108164381Y-102893905D01*
X108164381Y-103132000D01*
X108212000Y-103274858D01*
X108307238Y-103370096D01*
X108402476Y-103417715D01*
X108592952Y-103465334D01*
X108735810Y-103465334D01*
X108926286Y-103417715D01*
X109021524Y-103370096D01*
X109116762Y-103274858D01*
X109164381Y-103132000D01*
X109164381Y-102893905D01*
X109164381Y-104417715D02*
X109164381Y-103846286D01*
X109164381Y-104132000D02*
X108164381Y-104132000D01*
X108307238Y-104036762D01*
X108402476Y-103941524D01*
X108450095Y-103846286D01*
X110974095Y-118054381D02*
X110974095Y-117054381D01*
X110736000Y-117054381D01*
X110593142Y-117102000D01*
X110497904Y-117197238D01*
X110450285Y-117292476D01*
X110402666Y-117482952D01*
X110402666Y-117625810D01*
X110450285Y-117816286D01*
X110497904Y-117911524D01*
X110593142Y-118006762D01*
X110736000Y-118054381D01*
X110974095Y-118054381D01*
X110021714Y-117149619D02*
X109974095Y-117102000D01*
X109878857Y-117054381D01*
X109640761Y-117054381D01*
X109545523Y-117102000D01*
X109497904Y-117149619D01*
X109450285Y-117244857D01*
X109450285Y-117340095D01*
X109497904Y-117482952D01*
X110069333Y-118054381D01*
X109450285Y-118054381D01*
X110291571Y-123356571D02*
X110339190Y-123499428D01*
X110386810Y-123547047D01*
X110482048Y-123594666D01*
X110624905Y-123594666D01*
X110720143Y-123547047D01*
X110767762Y-123499428D01*
X110815381Y-123404190D01*
X110815381Y-123023237D01*
X109815381Y-123023237D01*
X109815381Y-123356571D01*
X109863000Y-123451809D01*
X109910619Y-123499428D01*
X110005857Y-123547047D01*
X110101095Y-123547047D01*
X110196333Y-123499428D01*
X110243952Y-123451809D01*
X110291571Y-123356571D01*
X110291571Y-123023237D01*
X110815381Y-124451809D02*
X110291571Y-124451809D01*
X110196333Y-124404190D01*
X110148714Y-124308952D01*
X110148714Y-124118475D01*
X110196333Y-124023237D01*
X110767762Y-124451809D02*
X110815381Y-124356571D01*
X110815381Y-124118475D01*
X110767762Y-124023237D01*
X110672524Y-123975618D01*
X110577286Y-123975618D01*
X110482048Y-124023237D01*
X110434429Y-124118475D01*
X110434429Y-124356571D01*
X110386810Y-124451809D01*
X110148714Y-124785142D02*
X110148714Y-125166094D01*
X109815381Y-124927999D02*
X110672524Y-124927999D01*
X110767762Y-124975618D01*
X110815381Y-125070856D01*
X110815381Y-125166094D01*
X110148714Y-125356571D02*
X110148714Y-125737523D01*
X109815381Y-125499428D02*
X110672524Y-125499428D01*
X110767762Y-125547047D01*
X110815381Y-125642285D01*
X110815381Y-125737523D01*
X110767762Y-126451810D02*
X110815381Y-126356572D01*
X110815381Y-126166095D01*
X110767762Y-126070857D01*
X110672524Y-126023238D01*
X110291571Y-126023238D01*
X110196333Y-126070857D01*
X110148714Y-126166095D01*
X110148714Y-126356572D01*
X110196333Y-126451810D01*
X110291571Y-126499429D01*
X110386810Y-126499429D01*
X110482048Y-126023238D01*
X110815381Y-126928000D02*
X110148714Y-126928000D01*
X110339190Y-126928000D02*
X110243952Y-126975619D01*
X110196333Y-127023238D01*
X110148714Y-127118476D01*
X110148714Y-127213715D01*
X110148714Y-127451810D02*
X110815381Y-127689905D01*
X110148714Y-127928001D02*
X110815381Y-127689905D01*
X111053476Y-127594667D01*
X111101095Y-127547048D01*
X111148714Y-127451810D01*
X111855238Y-99139619D02*
X111950476Y-99092000D01*
X112045714Y-98996762D01*
X112188571Y-98853905D01*
X112283810Y-98806286D01*
X112379048Y-98806286D01*
X112331429Y-99044381D02*
X112426667Y-98996762D01*
X112521905Y-98901524D01*
X112569524Y-98711048D01*
X112569524Y-98377714D01*
X112521905Y-98187238D01*
X112426667Y-98092000D01*
X112331429Y-98044381D01*
X112140952Y-98044381D01*
X112045714Y-98092000D01*
X111950476Y-98187238D01*
X111902857Y-98377714D01*
X111902857Y-98711048D01*
X111950476Y-98901524D01*
X112045714Y-98996762D01*
X112140952Y-99044381D01*
X112331429Y-99044381D01*
X110950476Y-99044381D02*
X111521905Y-99044381D01*
X111236191Y-99044381D02*
X111236191Y-98044381D01*
X111331429Y-98187238D01*
X111426667Y-98282476D01*
X111521905Y-98330095D01*
X150661619Y-105568762D02*
X150614000Y-105473524D01*
X150518762Y-105378286D01*
X150375905Y-105235429D01*
X150328286Y-105140190D01*
X150328286Y-105044952D01*
X150566381Y-105092571D02*
X150518762Y-104997333D01*
X150423524Y-104902095D01*
X150233048Y-104854476D01*
X149899714Y-104854476D01*
X149709238Y-104902095D01*
X149614000Y-104997333D01*
X149566381Y-105092571D01*
X149566381Y-105283048D01*
X149614000Y-105378286D01*
X149709238Y-105473524D01*
X149899714Y-105521143D01*
X150233048Y-105521143D01*
X150423524Y-105473524D01*
X150518762Y-105378286D01*
X150566381Y-105283048D01*
X150566381Y-105092571D01*
X149661619Y-105902095D02*
X149614000Y-105949714D01*
X149566381Y-106044952D01*
X149566381Y-106283048D01*
X149614000Y-106378286D01*
X149661619Y-106425905D01*
X149756857Y-106473524D01*
X149852095Y-106473524D01*
X149994952Y-106425905D01*
X150566381Y-105854476D01*
X150566381Y-106473524D01*
X105862381Y-84796334D02*
X105386190Y-84463000D01*
X105862381Y-84224905D02*
X104862381Y-84224905D01*
X104862381Y-84605858D01*
X104910000Y-84701096D01*
X104957619Y-84748715D01*
X105052857Y-84796334D01*
X105195714Y-84796334D01*
X105290952Y-84748715D01*
X105338571Y-84701096D01*
X105386190Y-84605858D01*
X105386190Y-84224905D01*
X105862381Y-85748715D02*
X105862381Y-85177286D01*
X105862381Y-85463000D02*
X104862381Y-85463000D01*
X105005238Y-85367762D01*
X105100476Y-85272524D01*
X105148095Y-85177286D01*
X117768666Y-97480381D02*
X118102000Y-97004190D01*
X118340095Y-97480381D02*
X118340095Y-96480381D01*
X117959142Y-96480381D01*
X117863904Y-96528000D01*
X117816285Y-96575619D01*
X117768666Y-96670857D01*
X117768666Y-96813714D01*
X117816285Y-96908952D01*
X117863904Y-96956571D01*
X117959142Y-97004190D01*
X118340095Y-97004190D01*
X117387714Y-96575619D02*
X117340095Y-96528000D01*
X117244857Y-96480381D01*
X117006761Y-96480381D01*
X116911523Y-96528000D01*
X116863904Y-96575619D01*
X116816285Y-96670857D01*
X116816285Y-96766095D01*
X116863904Y-96908952D01*
X117435333Y-97480381D01*
X116816285Y-97480381D01*
X117768666Y-95702381D02*
X118102000Y-95226190D01*
X118340095Y-95702381D02*
X118340095Y-94702381D01*
X117959142Y-94702381D01*
X117863904Y-94750000D01*
X117816285Y-94797619D01*
X117768666Y-94892857D01*
X117768666Y-95035714D01*
X117816285Y-95130952D01*
X117863904Y-95178571D01*
X117959142Y-95226190D01*
X118340095Y-95226190D01*
X117435333Y-94702381D02*
X116816285Y-94702381D01*
X117149619Y-95083333D01*
X117006761Y-95083333D01*
X116911523Y-95130952D01*
X116863904Y-95178571D01*
X116816285Y-95273810D01*
X116816285Y-95511905D01*
X116863904Y-95607143D01*
X116911523Y-95654762D01*
X117006761Y-95702381D01*
X117292476Y-95702381D01*
X117387714Y-95654762D01*
X117435333Y-95607143D01*
X109894666Y-98750381D02*
X110228000Y-98274190D01*
X110466095Y-98750381D02*
X110466095Y-97750381D01*
X110085142Y-97750381D01*
X109989904Y-97798000D01*
X109942285Y-97845619D01*
X109894666Y-97940857D01*
X109894666Y-98083714D01*
X109942285Y-98178952D01*
X109989904Y-98226571D01*
X110085142Y-98274190D01*
X110466095Y-98274190D01*
X109037523Y-98083714D02*
X109037523Y-98750381D01*
X109275619Y-97702762D02*
X109513714Y-98417048D01*
X108894666Y-98417048D01*
X108116666Y-105862381D02*
X108450000Y-105386190D01*
X108688095Y-105862381D02*
X108688095Y-104862381D01*
X108307142Y-104862381D01*
X108211904Y-104910000D01*
X108164285Y-104957619D01*
X108116666Y-105052857D01*
X108116666Y-105195714D01*
X108164285Y-105290952D01*
X108211904Y-105338571D01*
X108307142Y-105386190D01*
X108688095Y-105386190D01*
X107211904Y-104862381D02*
X107688095Y-104862381D01*
X107735714Y-105338571D01*
X107688095Y-105290952D01*
X107592857Y-105243333D01*
X107354761Y-105243333D01*
X107259523Y-105290952D01*
X107211904Y-105338571D01*
X107164285Y-105433810D01*
X107164285Y-105671905D01*
X107211904Y-105767143D01*
X107259523Y-105814762D01*
X107354761Y-105862381D01*
X107592857Y-105862381D01*
X107688095Y-105814762D01*
X107735714Y-105767143D01*
X147740666Y-84272381D02*
X148074000Y-83796190D01*
X148312095Y-84272381D02*
X148312095Y-83272381D01*
X147931142Y-83272381D01*
X147835904Y-83320000D01*
X147788285Y-83367619D01*
X147740666Y-83462857D01*
X147740666Y-83605714D01*
X147788285Y-83700952D01*
X147835904Y-83748571D01*
X147931142Y-83796190D01*
X148312095Y-83796190D01*
X146883523Y-83272381D02*
X147074000Y-83272381D01*
X147169238Y-83320000D01*
X147216857Y-83367619D01*
X147312095Y-83510476D01*
X147359714Y-83700952D01*
X147359714Y-84081905D01*
X147312095Y-84177143D01*
X147264476Y-84224762D01*
X147169238Y-84272381D01*
X146978761Y-84272381D01*
X146883523Y-84224762D01*
X146835904Y-84177143D01*
X146788285Y-84081905D01*
X146788285Y-83843810D01*
X146835904Y-83748571D01*
X146883523Y-83700952D01*
X146978761Y-83653333D01*
X147169238Y-83653333D01*
X147264476Y-83700952D01*
X147312095Y-83748571D01*
X147359714Y-83843810D01*
X115006381Y-117435334D02*
X114530190Y-117102000D01*
X115006381Y-116863905D02*
X114006381Y-116863905D01*
X114006381Y-117244858D01*
X114054000Y-117340096D01*
X114101619Y-117387715D01*
X114196857Y-117435334D01*
X114339714Y-117435334D01*
X114434952Y-117387715D01*
X114482571Y-117340096D01*
X114530190Y-117244858D01*
X114530190Y-116863905D01*
X114006381Y-117768667D02*
X114006381Y-118435334D01*
X115006381Y-118006762D01*
X116498666Y-110688381D02*
X116832000Y-110212190D01*
X117070095Y-110688381D02*
X117070095Y-109688381D01*
X116689142Y-109688381D01*
X116593904Y-109736000D01*
X116546285Y-109783619D01*
X116498666Y-109878857D01*
X116498666Y-110021714D01*
X116546285Y-110116952D01*
X116593904Y-110164571D01*
X116689142Y-110212190D01*
X117070095Y-110212190D01*
X115927238Y-110116952D02*
X116022476Y-110069333D01*
X116070095Y-110021714D01*
X116117714Y-109926476D01*
X116117714Y-109878857D01*
X116070095Y-109783619D01*
X116022476Y-109736000D01*
X115927238Y-109688381D01*
X115736761Y-109688381D01*
X115641523Y-109736000D01*
X115593904Y-109783619D01*
X115546285Y-109878857D01*
X115546285Y-109926476D01*
X115593904Y-110021714D01*
X115641523Y-110069333D01*
X115736761Y-110116952D01*
X115927238Y-110116952D01*
X116022476Y-110164571D01*
X116070095Y-110212190D01*
X116117714Y-110307429D01*
X116117714Y-110497905D01*
X116070095Y-110593143D01*
X116022476Y-110640762D01*
X115927238Y-110688381D01*
X115736761Y-110688381D01*
X115641523Y-110640762D01*
X115593904Y-110593143D01*
X115546285Y-110497905D01*
X115546285Y-110307429D01*
X115593904Y-110212190D01*
X115641523Y-110164571D01*
X115736761Y-110116952D01*
X118022666Y-84526381D02*
X118356000Y-84050190D01*
X118594095Y-84526381D02*
X118594095Y-83526381D01*
X118213142Y-83526381D01*
X118117904Y-83574000D01*
X118070285Y-83621619D01*
X118022666Y-83716857D01*
X118022666Y-83859714D01*
X118070285Y-83954952D01*
X118117904Y-84002571D01*
X118213142Y-84050190D01*
X118594095Y-84050190D01*
X117546476Y-84526381D02*
X117356000Y-84526381D01*
X117260761Y-84478762D01*
X117213142Y-84431143D01*
X117117904Y-84288286D01*
X117070285Y-84097810D01*
X117070285Y-83716857D01*
X117117904Y-83621619D01*
X117165523Y-83574000D01*
X117260761Y-83526381D01*
X117451238Y-83526381D01*
X117546476Y-83574000D01*
X117594095Y-83621619D01*
X117641714Y-83716857D01*
X117641714Y-83954952D01*
X117594095Y-84050190D01*
X117546476Y-84097810D01*
X117451238Y-84145429D01*
X117260761Y-84145429D01*
X117165523Y-84097810D01*
X117117904Y-84050190D01*
X117070285Y-83954952D01*
X117990857Y-86304381D02*
X118324191Y-85828190D01*
X118562286Y-86304381D02*
X118562286Y-85304381D01*
X118181333Y-85304381D01*
X118086095Y-85352000D01*
X118038476Y-85399619D01*
X117990857Y-85494857D01*
X117990857Y-85637714D01*
X118038476Y-85732952D01*
X118086095Y-85780571D01*
X118181333Y-85828190D01*
X118562286Y-85828190D01*
X117038476Y-86304381D02*
X117609905Y-86304381D01*
X117324191Y-86304381D02*
X117324191Y-85304381D01*
X117419429Y-85447238D01*
X117514667Y-85542476D01*
X117609905Y-85590095D01*
X116419429Y-85304381D02*
X116324190Y-85304381D01*
X116228952Y-85352000D01*
X116181333Y-85399619D01*
X116133714Y-85494857D01*
X116086095Y-85685333D01*
X116086095Y-85923429D01*
X116133714Y-86113905D01*
X116181333Y-86209143D01*
X116228952Y-86256762D01*
X116324190Y-86304381D01*
X116419429Y-86304381D01*
X116514667Y-86256762D01*
X116562286Y-86209143D01*
X116609905Y-86113905D01*
X116657524Y-85923429D01*
X116657524Y-85685333D01*
X116609905Y-85494857D01*
X116562286Y-85399619D01*
X116514667Y-85352000D01*
X116419429Y-85304381D01*
X152534857Y-100528381D02*
X152868191Y-100052190D01*
X153106286Y-100528381D02*
X153106286Y-99528381D01*
X152725333Y-99528381D01*
X152630095Y-99576000D01*
X152582476Y-99623619D01*
X152534857Y-99718857D01*
X152534857Y-99861714D01*
X152582476Y-99956952D01*
X152630095Y-100004571D01*
X152725333Y-100052190D01*
X153106286Y-100052190D01*
X151582476Y-100528381D02*
X152153905Y-100528381D01*
X151868191Y-100528381D02*
X151868191Y-99528381D01*
X151963429Y-99671238D01*
X152058667Y-99766476D01*
X152153905Y-99814095D01*
X151249143Y-99528381D02*
X150630095Y-99528381D01*
X150963429Y-99909333D01*
X150820571Y-99909333D01*
X150725333Y-99956952D01*
X150677714Y-100004571D01*
X150630095Y-100099810D01*
X150630095Y-100337905D01*
X150677714Y-100433143D01*
X150725333Y-100480762D01*
X150820571Y-100528381D01*
X151106286Y-100528381D01*
X151201524Y-100480762D01*
X151249143Y-100433143D01*
X146438857Y-102814381D02*
X146772191Y-102338190D01*
X147010286Y-102814381D02*
X147010286Y-101814381D01*
X146629333Y-101814381D01*
X146534095Y-101862000D01*
X146486476Y-101909619D01*
X146438857Y-102004857D01*
X146438857Y-102147714D01*
X146486476Y-102242952D01*
X146534095Y-102290571D01*
X146629333Y-102338190D01*
X147010286Y-102338190D01*
X145486476Y-102814381D02*
X146057905Y-102814381D01*
X145772191Y-102814381D02*
X145772191Y-101814381D01*
X145867429Y-101957238D01*
X145962667Y-102052476D01*
X146057905Y-102100095D01*
X144629333Y-102147714D02*
X144629333Y-102814381D01*
X144867429Y-101766762D02*
X145105524Y-102481048D01*
X144486476Y-102481048D01*
X103123905Y-102830381D02*
X103123905Y-103639905D01*
X103076286Y-103735143D01*
X103028667Y-103782762D01*
X102933429Y-103830381D01*
X102742952Y-103830381D01*
X102647714Y-103782762D01*
X102600095Y-103735143D01*
X102552476Y-103639905D01*
X102552476Y-102830381D01*
X102123905Y-102925619D02*
X102076286Y-102878000D01*
X101981048Y-102830381D01*
X101742952Y-102830381D01*
X101647714Y-102878000D01*
X101600095Y-102925619D01*
X101552476Y-103020857D01*
X101552476Y-103116095D01*
X101600095Y-103258952D01*
X102171524Y-103830381D01*
X101552476Y-103830381D01*
X112355381Y-88646095D02*
X113164905Y-88646095D01*
X113260143Y-88693714D01*
X113307762Y-88741333D01*
X113355381Y-88836571D01*
X113355381Y-89027048D01*
X113307762Y-89122286D01*
X113260143Y-89169905D01*
X113164905Y-89217524D01*
X112355381Y-89217524D01*
X112355381Y-89598476D02*
X112355381Y-90217524D01*
X112736333Y-89884190D01*
X112736333Y-90027048D01*
X112783952Y-90122286D01*
X112831571Y-90169905D01*
X112926810Y-90217524D01*
X113164905Y-90217524D01*
X113260143Y-90169905D01*
X113307762Y-90122286D01*
X113355381Y-90027048D01*
X113355381Y-89741333D01*
X113307762Y-89646095D01*
X113260143Y-89598476D01*
X115569905Y-85304381D02*
X115569905Y-86113905D01*
X115522286Y-86209143D01*
X115474667Y-86256762D01*
X115379429Y-86304381D01*
X115188952Y-86304381D01*
X115093714Y-86256762D01*
X115046095Y-86209143D01*
X114998476Y-86113905D01*
X114998476Y-85304381D01*
X114093714Y-85637714D02*
X114093714Y-86304381D01*
X114331810Y-85256762D02*
X114569905Y-85971048D01*
X113950857Y-85971048D01*
X130405143Y-102989143D02*
X130452762Y-102941524D01*
X130500381Y-102798667D01*
X130500381Y-102703429D01*
X130452762Y-102560571D01*
X130357524Y-102465333D01*
X130262286Y-102417714D01*
X130071810Y-102370095D01*
X129928952Y-102370095D01*
X129738476Y-102417714D01*
X129643238Y-102465333D01*
X129548000Y-102560571D01*
X129500381Y-102703429D01*
X129500381Y-102798667D01*
X129548000Y-102941524D01*
X129595619Y-102989143D01*
X129500381Y-103322476D02*
X129500381Y-103941524D01*
X129881333Y-103608190D01*
X129881333Y-103751048D01*
X129928952Y-103846286D01*
X129976571Y-103893905D01*
X130071810Y-103941524D01*
X130309905Y-103941524D01*
X130405143Y-103893905D01*
X130452762Y-103846286D01*
X130500381Y-103751048D01*
X130500381Y-103465333D01*
X130452762Y-103370095D01*
X130405143Y-103322476D01*
X129595619Y-104322476D02*
X129548000Y-104370095D01*
X129500381Y-104465333D01*
X129500381Y-104703429D01*
X129548000Y-104798667D01*
X129595619Y-104846286D01*
X129690857Y-104893905D01*
X129786095Y-104893905D01*
X129928952Y-104846286D01*
X130500381Y-104274857D01*
X130500381Y-104893905D01*
X137517095Y-109037381D02*
X137517095Y-108037381D01*
X137136142Y-108037381D01*
X137040904Y-108085000D01*
X136993285Y-108132619D01*
X136945666Y-108227857D01*
X136945666Y-108370714D01*
X136993285Y-108465952D01*
X137040904Y-108513571D01*
X137136142Y-108561190D01*
X137517095Y-108561190D01*
X136040904Y-108037381D02*
X136517095Y-108037381D01*
X136564714Y-108513571D01*
X136517095Y-108465952D01*
X136421857Y-108418333D01*
X136183761Y-108418333D01*
X136088523Y-108465952D01*
X136040904Y-108513571D01*
X135993285Y-108608810D01*
X135993285Y-108846905D01*
X136040904Y-108942143D01*
X136088523Y-108989762D01*
X136183761Y-109037381D01*
X136421857Y-109037381D01*
X136517095Y-108989762D01*
X136564714Y-108942143D01*
X105028905Y-94321381D02*
X105028905Y-95130905D01*
X104981286Y-95226143D01*
X104933667Y-95273762D01*
X104838429Y-95321381D01*
X104647952Y-95321381D01*
X104552714Y-95273762D01*
X104505095Y-95226143D01*
X104457476Y-95130905D01*
X104457476Y-94321381D01*
X103457476Y-95321381D02*
X104028905Y-95321381D01*
X103743191Y-95321381D02*
X103743191Y-94321381D01*
X103838429Y-94464238D01*
X103933667Y-94559476D01*
X104028905Y-94607095D01*
X110235905Y-108164381D02*
X110235905Y-108973905D01*
X110188286Y-109069143D01*
X110140667Y-109116762D01*
X110045429Y-109164381D01*
X109854952Y-109164381D01*
X109759714Y-109116762D01*
X109712095Y-109069143D01*
X109664476Y-108973905D01*
X109664476Y-108164381D01*
X108712095Y-108164381D02*
X109188286Y-108164381D01*
X109235905Y-108640571D01*
X109188286Y-108592952D01*
X109093048Y-108545333D01*
X108854952Y-108545333D01*
X108759714Y-108592952D01*
X108712095Y-108640571D01*
X108664476Y-108735810D01*
X108664476Y-108973905D01*
X108712095Y-109069143D01*
X108759714Y-109116762D01*
X108854952Y-109164381D01*
X109093048Y-109164381D01*
X109188286Y-109116762D01*
X109235905Y-109069143D01*
X113522671Y-106607353D02*
X113522671Y-107416877D01*
X113475052Y-107512115D01*
X113427433Y-107559734D01*
X113332195Y-107607353D01*
X113141718Y-107607353D01*
X113046480Y-107559734D01*
X112998861Y-107512115D01*
X112951242Y-107416877D01*
X112951242Y-106607353D01*
X112046480Y-106607353D02*
X112236957Y-106607353D01*
X112332195Y-106654972D01*
X112379814Y-106702591D01*
X112475052Y-106845448D01*
X112522671Y-107035924D01*
X112522671Y-107416877D01*
X112475052Y-107512115D01*
X112427433Y-107559734D01*
X112332195Y-107607353D01*
X112141718Y-107607353D01*
X112046480Y-107559734D01*
X111998861Y-107512115D01*
X111951242Y-107416877D01*
X111951242Y-107178782D01*
X111998861Y-107083543D01*
X112046480Y-107035924D01*
X112141718Y-106988305D01*
X112332195Y-106988305D01*
X112427433Y-107035924D01*
X112475052Y-107083543D01*
X112522671Y-107178782D01*
X106481571Y-96186667D02*
X106481571Y-95853333D01*
X107005381Y-95853333D02*
X106005381Y-95853333D01*
X106005381Y-96329524D01*
X107005381Y-97234286D02*
X107005381Y-96662857D01*
X107005381Y-96948571D02*
X106005381Y-96948571D01*
X106148238Y-96853333D01*
X106243476Y-96758095D01*
X106291095Y-96662857D01*
X108116666Y-114244381D02*
X108592857Y-114244381D01*
X108592857Y-113244381D01*
X107259523Y-114244381D02*
X107830952Y-114244381D01*
X107545238Y-114244381D02*
X107545238Y-113244381D01*
X107640476Y-113387238D01*
X107735714Y-113482476D01*
X107830952Y-113530095D01*
X115133381Y-108545334D02*
X115133381Y-108069143D01*
X114133381Y-108069143D01*
X114228619Y-108831048D02*
X114181000Y-108878667D01*
X114133381Y-108973905D01*
X114133381Y-109212001D01*
X114181000Y-109307239D01*
X114228619Y-109354858D01*
X114323857Y-109402477D01*
X114419095Y-109402477D01*
X114561952Y-109354858D01*
X115133381Y-108783429D01*
X115133381Y-109402477D01*
X91312905Y-125418381D02*
X91312905Y-126227905D01*
X91265286Y-126323143D01*
X91217667Y-126370762D01*
X91122429Y-126418381D01*
X90931952Y-126418381D01*
X90836714Y-126370762D01*
X90789095Y-126323143D01*
X90741476Y-126227905D01*
X90741476Y-125418381D01*
X90122429Y-125846952D02*
X90217667Y-125799333D01*
X90265286Y-125751714D01*
X90312905Y-125656476D01*
X90312905Y-125608857D01*
X90265286Y-125513619D01*
X90217667Y-125466000D01*
X90122429Y-125418381D01*
X89931952Y-125418381D01*
X89836714Y-125466000D01*
X89789095Y-125513619D01*
X89741476Y-125608857D01*
X89741476Y-125656476D01*
X89789095Y-125751714D01*
X89836714Y-125799333D01*
X89931952Y-125846952D01*
X90122429Y-125846952D01*
X90217667Y-125894571D01*
X90265286Y-125942190D01*
X90312905Y-126037429D01*
X90312905Y-126227905D01*
X90265286Y-126323143D01*
X90217667Y-126370762D01*
X90122429Y-126418381D01*
X89931952Y-126418381D01*
X89836714Y-126370762D01*
X89789095Y-126323143D01*
X89741476Y-126227905D01*
X89741476Y-126037429D01*
X89789095Y-125942190D01*
X89836714Y-125894571D01*
X89931952Y-125846952D01*
X153384191Y-90146190D02*
X153384191Y-90622381D01*
X153717524Y-89622381D02*
X153384191Y-90146190D01*
X153050857Y-89622381D01*
X152193714Y-90622381D02*
X152765143Y-90622381D01*
X152479429Y-90622381D02*
X152479429Y-89622381D01*
X152574667Y-89765238D01*
X152669905Y-89860476D01*
X152765143Y-89908095D01*
X114911143Y-101846143D02*
X114958762Y-101798524D01*
X115006381Y-101655667D01*
X115006381Y-101560429D01*
X114958762Y-101417571D01*
X114863524Y-101322333D01*
X114768286Y-101274714D01*
X114577810Y-101227095D01*
X114434952Y-101227095D01*
X114244476Y-101274714D01*
X114149238Y-101322333D01*
X114054000Y-101417571D01*
X114006381Y-101560429D01*
X114006381Y-101655667D01*
X114054000Y-101798524D01*
X114101619Y-101846143D01*
X114006381Y-102179476D02*
X114006381Y-102798524D01*
X114387333Y-102465190D01*
X114387333Y-102608048D01*
X114434952Y-102703286D01*
X114482571Y-102750905D01*
X114577810Y-102798524D01*
X114815905Y-102798524D01*
X114911143Y-102750905D01*
X114958762Y-102703286D01*
X115006381Y-102608048D01*
X115006381Y-102322333D01*
X114958762Y-102227095D01*
X114911143Y-102179476D01*
X114006381Y-103131857D02*
X114006381Y-103750905D01*
X114387333Y-103417571D01*
X114387333Y-103560429D01*
X114434952Y-103655667D01*
X114482571Y-103703286D01*
X114577810Y-103750905D01*
X114815905Y-103750905D01*
X114911143Y-103703286D01*
X114958762Y-103655667D01*
X115006381Y-103560429D01*
X115006381Y-103274714D01*
X114958762Y-103179476D01*
X114911143Y-103131857D01*
X116689143Y-101846143D02*
X116736762Y-101798524D01*
X116784381Y-101655667D01*
X116784381Y-101560429D01*
X116736762Y-101417571D01*
X116641524Y-101322333D01*
X116546286Y-101274714D01*
X116355810Y-101227095D01*
X116212952Y-101227095D01*
X116022476Y-101274714D01*
X115927238Y-101322333D01*
X115832000Y-101417571D01*
X115784381Y-101560429D01*
X115784381Y-101655667D01*
X115832000Y-101798524D01*
X115879619Y-101846143D01*
X115784381Y-102179476D02*
X115784381Y-102798524D01*
X116165333Y-102465190D01*
X116165333Y-102608048D01*
X116212952Y-102703286D01*
X116260571Y-102750905D01*
X116355810Y-102798524D01*
X116593905Y-102798524D01*
X116689143Y-102750905D01*
X116736762Y-102703286D01*
X116784381Y-102608048D01*
X116784381Y-102322333D01*
X116736762Y-102227095D01*
X116689143Y-102179476D01*
X116117714Y-103655667D02*
X116784381Y-103655667D01*
X115736762Y-103417571D02*
X116451048Y-103179476D01*
X116451048Y-103798524D01*
X124690143Y-99560143D02*
X124737762Y-99512524D01*
X124785381Y-99369667D01*
X124785381Y-99274429D01*
X124737762Y-99131571D01*
X124642524Y-99036333D01*
X124547286Y-98988714D01*
X124356810Y-98941095D01*
X124213952Y-98941095D01*
X124023476Y-98988714D01*
X123928238Y-99036333D01*
X123833000Y-99131571D01*
X123785381Y-99274429D01*
X123785381Y-99369667D01*
X123833000Y-99512524D01*
X123880619Y-99560143D01*
X123785381Y-99893476D02*
X123785381Y-100512524D01*
X124166333Y-100179190D01*
X124166333Y-100322048D01*
X124213952Y-100417286D01*
X124261571Y-100464905D01*
X124356810Y-100512524D01*
X124594905Y-100512524D01*
X124690143Y-100464905D01*
X124737762Y-100417286D01*
X124785381Y-100322048D01*
X124785381Y-100036333D01*
X124737762Y-99941095D01*
X124690143Y-99893476D01*
X123785381Y-101417286D02*
X123785381Y-100941095D01*
X124261571Y-100893476D01*
X124213952Y-100941095D01*
X124166333Y-101036333D01*
X124166333Y-101274429D01*
X124213952Y-101369667D01*
X124261571Y-101417286D01*
X124356810Y-101464905D01*
X124594905Y-101464905D01*
X124690143Y-101417286D01*
X124737762Y-101369667D01*
X124785381Y-101274429D01*
X124785381Y-101036333D01*
X124737762Y-100941095D01*
X124690143Y-100893476D01*
X152899633Y-103987414D02*
X152947252Y-104035033D01*
X153090109Y-104082652D01*
X153185347Y-104082652D01*
X153328205Y-104035033D01*
X153423443Y-103939795D01*
X153471062Y-103844557D01*
X153518681Y-103654081D01*
X153518681Y-103511223D01*
X153471062Y-103320747D01*
X153423443Y-103225509D01*
X153328205Y-103130271D01*
X153185347Y-103082652D01*
X153090109Y-103082652D01*
X152947252Y-103130271D01*
X152899633Y-103177890D01*
X152566300Y-103082652D02*
X151947252Y-103082652D01*
X152280586Y-103463604D01*
X152137728Y-103463604D01*
X152042490Y-103511223D01*
X151994871Y-103558842D01*
X151947252Y-103654081D01*
X151947252Y-103892176D01*
X151994871Y-103987414D01*
X152042490Y-104035033D01*
X152137728Y-104082652D01*
X152423443Y-104082652D01*
X152518681Y-104035033D01*
X152566300Y-103987414D01*
X151090109Y-103082652D02*
X151280586Y-103082652D01*
X151375824Y-103130271D01*
X151423443Y-103177890D01*
X151518681Y-103320747D01*
X151566300Y-103511223D01*
X151566300Y-103892176D01*
X151518681Y-103987414D01*
X151471062Y-104035033D01*
X151375824Y-104082652D01*
X151185347Y-104082652D01*
X151090109Y-104035033D01*
X151042490Y-103987414D01*
X150994871Y-103892176D01*
X150994871Y-103654081D01*
X151042490Y-103558842D01*
X151090109Y-103511223D01*
X151185347Y-103463604D01*
X151375824Y-103463604D01*
X151471062Y-103511223D01*
X151518681Y-103558842D01*
X151566300Y-103654081D01*
X152899624Y-102463425D02*
X152947243Y-102511044D01*
X153090100Y-102558663D01*
X153185338Y-102558663D01*
X153328196Y-102511044D01*
X153423434Y-102415806D01*
X153471053Y-102320568D01*
X153518672Y-102130092D01*
X153518672Y-101987234D01*
X153471053Y-101796758D01*
X153423434Y-101701520D01*
X153328196Y-101606282D01*
X153185338Y-101558663D01*
X153090100Y-101558663D01*
X152947243Y-101606282D01*
X152899624Y-101653901D01*
X152566291Y-101558663D02*
X151947243Y-101558663D01*
X152280577Y-101939615D01*
X152137719Y-101939615D01*
X152042481Y-101987234D01*
X151994862Y-102034853D01*
X151947243Y-102130092D01*
X151947243Y-102368187D01*
X151994862Y-102463425D01*
X152042481Y-102511044D01*
X152137719Y-102558663D01*
X152423434Y-102558663D01*
X152518672Y-102511044D01*
X152566291Y-102463425D01*
X151613910Y-101558663D02*
X150947243Y-101558663D01*
X151375815Y-102558663D01*
X165313911Y-105781420D02*
X165361530Y-105733801D01*
X165409149Y-105590944D01*
X165409149Y-105495706D01*
X165361530Y-105352848D01*
X165266292Y-105257610D01*
X165171054Y-105209991D01*
X164980578Y-105162372D01*
X164837720Y-105162372D01*
X164647244Y-105209991D01*
X164552006Y-105257610D01*
X164456768Y-105352848D01*
X164409149Y-105495706D01*
X164409149Y-105590944D01*
X164456768Y-105733801D01*
X164504387Y-105781420D01*
X164409149Y-106114753D02*
X164409149Y-106733801D01*
X164790101Y-106400467D01*
X164790101Y-106543325D01*
X164837720Y-106638563D01*
X164885339Y-106686182D01*
X164980578Y-106733801D01*
X165218673Y-106733801D01*
X165313911Y-106686182D01*
X165361530Y-106638563D01*
X165409149Y-106543325D01*
X165409149Y-106257610D01*
X165361530Y-106162372D01*
X165313911Y-106114753D01*
X164837720Y-107305229D02*
X164790101Y-107209991D01*
X164742482Y-107162372D01*
X164647244Y-107114753D01*
X164599625Y-107114753D01*
X164504387Y-107162372D01*
X164456768Y-107209991D01*
X164409149Y-107305229D01*
X164409149Y-107495706D01*
X164456768Y-107590944D01*
X164504387Y-107638563D01*
X164599625Y-107686182D01*
X164647244Y-107686182D01*
X164742482Y-107638563D01*
X164790101Y-107590944D01*
X164837720Y-107495706D01*
X164837720Y-107305229D01*
X164885339Y-107209991D01*
X164932958Y-107162372D01*
X165028197Y-107114753D01*
X165218673Y-107114753D01*
X165313911Y-107162372D01*
X165361530Y-107209991D01*
X165409149Y-107305229D01*
X165409149Y-107495706D01*
X165361530Y-107590944D01*
X165313911Y-107638563D01*
X165218673Y-107686182D01*
X165028197Y-107686182D01*
X164932958Y-107638563D01*
X164885339Y-107590944D01*
X164837720Y-107495706D01*
X152899624Y-105511412D02*
X152947243Y-105559031D01*
X153090100Y-105606650D01*
X153185338Y-105606650D01*
X153328196Y-105559031D01*
X153423434Y-105463793D01*
X153471053Y-105368555D01*
X153518672Y-105178079D01*
X153518672Y-105035221D01*
X153471053Y-104844745D01*
X153423434Y-104749507D01*
X153328196Y-104654269D01*
X153185338Y-104606650D01*
X153090100Y-104606650D01*
X152947243Y-104654269D01*
X152899624Y-104701888D01*
X152566291Y-104606650D02*
X151947243Y-104606650D01*
X152280577Y-104987602D01*
X152137719Y-104987602D01*
X152042481Y-105035221D01*
X151994862Y-105082840D01*
X151947243Y-105178079D01*
X151947243Y-105416174D01*
X151994862Y-105511412D01*
X152042481Y-105559031D01*
X152137719Y-105606650D01*
X152423434Y-105606650D01*
X152518672Y-105559031D01*
X152566291Y-105511412D01*
X151471053Y-105606650D02*
X151280577Y-105606650D01*
X151185338Y-105559031D01*
X151137719Y-105511412D01*
X151042481Y-105368555D01*
X150994862Y-105178079D01*
X150994862Y-104797126D01*
X151042481Y-104701888D01*
X151090100Y-104654269D01*
X151185338Y-104606650D01*
X151375815Y-104606650D01*
X151471053Y-104654269D01*
X151518672Y-104701888D01*
X151566291Y-104797126D01*
X151566291Y-105035221D01*
X151518672Y-105130459D01*
X151471053Y-105178079D01*
X151375815Y-105225698D01*
X151185338Y-105225698D01*
X151090100Y-105178079D01*
X151042481Y-105130459D01*
X150994862Y-105035221D01*
X163535913Y-105019425D02*
X163583532Y-104971806D01*
X163631151Y-104828949D01*
X163631151Y-104733711D01*
X163583532Y-104590853D01*
X163488294Y-104495615D01*
X163393056Y-104447996D01*
X163202580Y-104400377D01*
X163059722Y-104400377D01*
X162869246Y-104447996D01*
X162774008Y-104495615D01*
X162678770Y-104590853D01*
X162631151Y-104733711D01*
X162631151Y-104828949D01*
X162678770Y-104971806D01*
X162726389Y-105019425D01*
X162964484Y-105876568D02*
X163631151Y-105876568D01*
X162583532Y-105638472D02*
X163297818Y-105400377D01*
X163297818Y-106019425D01*
X162631151Y-106590853D02*
X162631151Y-106686092D01*
X162678770Y-106781330D01*
X162726389Y-106828949D01*
X162821627Y-106876568D01*
X163012103Y-106924187D01*
X163250199Y-106924187D01*
X163440675Y-106876568D01*
X163535913Y-106828949D01*
X163583532Y-106781330D01*
X163631151Y-106686092D01*
X163631151Y-106590853D01*
X163583532Y-106495615D01*
X163535913Y-106447996D01*
X163440675Y-106400377D01*
X163250199Y-106352758D01*
X163012103Y-106352758D01*
X162821627Y-106400377D01*
X162726389Y-106447996D01*
X162678770Y-106495615D01*
X162631151Y-106590853D01*
X166250857Y-97891424D02*
X166298476Y-97939043D01*
X166441333Y-97986662D01*
X166536571Y-97986662D01*
X166679429Y-97939043D01*
X166774667Y-97843805D01*
X166822286Y-97748567D01*
X166869905Y-97558091D01*
X166869905Y-97415233D01*
X166822286Y-97224757D01*
X166774667Y-97129519D01*
X166679429Y-97034281D01*
X166536571Y-96986662D01*
X166441333Y-96986662D01*
X166298476Y-97034281D01*
X166250857Y-97081900D01*
X165393714Y-97319995D02*
X165393714Y-97986662D01*
X165631810Y-96939043D02*
X165869905Y-97653329D01*
X165250857Y-97653329D01*
X164346095Y-97986662D02*
X164917524Y-97986662D01*
X164631810Y-97986662D02*
X164631810Y-96986662D01*
X164727048Y-97129519D01*
X164822286Y-97224757D01*
X164917524Y-97272376D01*
X154169626Y-97891426D02*
X154217245Y-97939045D01*
X154360102Y-97986664D01*
X154455340Y-97986664D01*
X154598198Y-97939045D01*
X154693436Y-97843807D01*
X154741055Y-97748569D01*
X154788674Y-97558093D01*
X154788674Y-97415235D01*
X154741055Y-97224759D01*
X154693436Y-97129521D01*
X154598198Y-97034283D01*
X154455340Y-96986664D01*
X154360102Y-96986664D01*
X154217245Y-97034283D01*
X154169626Y-97081902D01*
X153312483Y-97319997D02*
X153312483Y-97986664D01*
X153550579Y-96939045D02*
X153788674Y-97653331D01*
X153169626Y-97653331D01*
X152836293Y-97081902D02*
X152788674Y-97034283D01*
X152693436Y-96986664D01*
X152455340Y-96986664D01*
X152360102Y-97034283D01*
X152312483Y-97081902D01*
X152264864Y-97177140D01*
X152264864Y-97272378D01*
X152312483Y-97415235D01*
X152883912Y-97986664D01*
X152264864Y-97986664D01*
X153900143Y-75557143D02*
X153947762Y-75509524D01*
X153995381Y-75366667D01*
X153995381Y-75271429D01*
X153947762Y-75128571D01*
X153852524Y-75033333D01*
X153757286Y-74985714D01*
X153566810Y-74938095D01*
X153423952Y-74938095D01*
X153233476Y-74985714D01*
X153138238Y-75033333D01*
X153043000Y-75128571D01*
X152995381Y-75271429D01*
X152995381Y-75366667D01*
X153043000Y-75509524D01*
X153090619Y-75557143D01*
X153328714Y-76414286D02*
X153995381Y-76414286D01*
X152947762Y-76176190D02*
X153662048Y-75938095D01*
X153662048Y-76557143D01*
X152995381Y-76842857D02*
X152995381Y-77461905D01*
X153376333Y-77128571D01*
X153376333Y-77271429D01*
X153423952Y-77366667D01*
X153471571Y-77414286D01*
X153566810Y-77461905D01*
X153804905Y-77461905D01*
X153900143Y-77414286D01*
X153947762Y-77366667D01*
X153995381Y-77271429D01*
X153995381Y-76985714D01*
X153947762Y-76890476D01*
X153900143Y-76842857D01*
X109831143Y-76204143D02*
X109878762Y-76156524D01*
X109926381Y-76013667D01*
X109926381Y-75918429D01*
X109878762Y-75775571D01*
X109783524Y-75680333D01*
X109688286Y-75632714D01*
X109497810Y-75585095D01*
X109354952Y-75585095D01*
X109164476Y-75632714D01*
X109069238Y-75680333D01*
X108974000Y-75775571D01*
X108926381Y-75918429D01*
X108926381Y-76013667D01*
X108974000Y-76156524D01*
X109021619Y-76204143D01*
X109259714Y-77061286D02*
X109926381Y-77061286D01*
X108878762Y-76823190D02*
X109593048Y-76585095D01*
X109593048Y-77204143D01*
X109259714Y-78013667D02*
X109926381Y-78013667D01*
X108878762Y-77775571D02*
X109593048Y-77537476D01*
X109593048Y-78156524D01*
X97901238Y-109894619D02*
X97996476Y-109847000D01*
X98091714Y-109751762D01*
X98234571Y-109608905D01*
X98329810Y-109561286D01*
X98425048Y-109561286D01*
X98377429Y-109799381D02*
X98472667Y-109751762D01*
X98567905Y-109656524D01*
X98615524Y-109466048D01*
X98615524Y-109132714D01*
X98567905Y-108942238D01*
X98472667Y-108847000D01*
X98377429Y-108799381D01*
X98186952Y-108799381D01*
X98091714Y-108847000D01*
X97996476Y-108942238D01*
X97948857Y-109132714D01*
X97948857Y-109466048D01*
X97996476Y-109656524D01*
X98091714Y-109751762D01*
X98186952Y-109799381D01*
X98377429Y-109799381D01*
X97615524Y-108799381D02*
X96996476Y-108799381D01*
X97329810Y-109180333D01*
X97186952Y-109180333D01*
X97091714Y-109227952D01*
X97044095Y-109275571D01*
X96996476Y-109370810D01*
X96996476Y-109608905D01*
X97044095Y-109704143D01*
X97091714Y-109751762D01*
X97186952Y-109799381D01*
X97472667Y-109799381D01*
X97567905Y-109751762D01*
X97615524Y-109704143D01*
X100695238Y-99099619D02*
X100790476Y-99052000D01*
X100885714Y-98956762D01*
X101028571Y-98813905D01*
X101123810Y-98766286D01*
X101219048Y-98766286D01*
X101171429Y-99004381D02*
X101266667Y-98956762D01*
X101361905Y-98861524D01*
X101409524Y-98671048D01*
X101409524Y-98337714D01*
X101361905Y-98147238D01*
X101266667Y-98052000D01*
X101171429Y-98004381D01*
X100980952Y-98004381D01*
X100885714Y-98052000D01*
X100790476Y-98147238D01*
X100742857Y-98337714D01*
X100742857Y-98671048D01*
X100790476Y-98861524D01*
X100885714Y-98956762D01*
X100980952Y-99004381D01*
X101171429Y-99004381D01*
X99885714Y-98337714D02*
X99885714Y-99004381D01*
X100123810Y-97956762D02*
X100361905Y-98671048D01*
X99742857Y-98671048D01*
X95448381Y-107561143D02*
X94972190Y-107227809D01*
X95448381Y-106989714D02*
X94448381Y-106989714D01*
X94448381Y-107370667D01*
X94496000Y-107465905D01*
X94543619Y-107513524D01*
X94638857Y-107561143D01*
X94781714Y-107561143D01*
X94876952Y-107513524D01*
X94924571Y-107465905D01*
X94972190Y-107370667D01*
X94972190Y-106989714D01*
X94543619Y-107942095D02*
X94496000Y-107989714D01*
X94448381Y-108084952D01*
X94448381Y-108323048D01*
X94496000Y-108418286D01*
X94543619Y-108465905D01*
X94638857Y-108513524D01*
X94734095Y-108513524D01*
X94876952Y-108465905D01*
X95448381Y-107894476D01*
X95448381Y-108513524D01*
X94448381Y-109132571D02*
X94448381Y-109227810D01*
X94496000Y-109323048D01*
X94543619Y-109370667D01*
X94638857Y-109418286D01*
X94829333Y-109465905D01*
X95067429Y-109465905D01*
X95257905Y-109418286D01*
X95353143Y-109370667D01*
X95400762Y-109323048D01*
X95448381Y-109227810D01*
X95448381Y-109132571D01*
X95400762Y-109037333D01*
X95353143Y-108989714D01*
X95257905Y-108942095D01*
X95067429Y-108894476D01*
X94829333Y-108894476D01*
X94638857Y-108942095D01*
X94543619Y-108989714D01*
X94496000Y-109037333D01*
X94448381Y-109132571D01*
X98432857Y-108402381D02*
X98766191Y-107926190D01*
X99004286Y-108402381D02*
X99004286Y-107402381D01*
X98623333Y-107402381D01*
X98528095Y-107450000D01*
X98480476Y-107497619D01*
X98432857Y-107592857D01*
X98432857Y-107735714D01*
X98480476Y-107830952D01*
X98528095Y-107878571D01*
X98623333Y-107926190D01*
X99004286Y-107926190D01*
X98051905Y-107497619D02*
X98004286Y-107450000D01*
X97909048Y-107402381D01*
X97670952Y-107402381D01*
X97575714Y-107450000D01*
X97528095Y-107497619D01*
X97480476Y-107592857D01*
X97480476Y-107688095D01*
X97528095Y-107830952D01*
X98099524Y-108402381D01*
X97480476Y-108402381D01*
X96528095Y-108402381D02*
X97099524Y-108402381D01*
X96813810Y-108402381D02*
X96813810Y-107402381D01*
X96909048Y-107545238D01*
X97004286Y-107640476D01*
X97099524Y-107688095D01*
X93924381Y-99179143D02*
X93448190Y-98845809D01*
X93924381Y-98607714D02*
X92924381Y-98607714D01*
X92924381Y-98988667D01*
X92972000Y-99083905D01*
X93019619Y-99131524D01*
X93114857Y-99179143D01*
X93257714Y-99179143D01*
X93352952Y-99131524D01*
X93400571Y-99083905D01*
X93448190Y-98988667D01*
X93448190Y-98607714D01*
X93019619Y-99560095D02*
X92972000Y-99607714D01*
X92924381Y-99702952D01*
X92924381Y-99941048D01*
X92972000Y-100036286D01*
X93019619Y-100083905D01*
X93114857Y-100131524D01*
X93210095Y-100131524D01*
X93352952Y-100083905D01*
X93924381Y-99512476D01*
X93924381Y-100131524D01*
X93019619Y-100512476D02*
X92972000Y-100560095D01*
X92924381Y-100655333D01*
X92924381Y-100893429D01*
X92972000Y-100988667D01*
X93019619Y-101036286D01*
X93114857Y-101083905D01*
X93210095Y-101083905D01*
X93352952Y-101036286D01*
X93924381Y-100464857D01*
X93924381Y-101083905D01*
X100464857Y-96083381D02*
X100798191Y-95607190D01*
X101036286Y-96083381D02*
X101036286Y-95083381D01*
X100655333Y-95083381D01*
X100560095Y-95131000D01*
X100512476Y-95178619D01*
X100464857Y-95273857D01*
X100464857Y-95416714D01*
X100512476Y-95511952D01*
X100560095Y-95559571D01*
X100655333Y-95607190D01*
X101036286Y-95607190D01*
X100083905Y-95178619D02*
X100036286Y-95131000D01*
X99941048Y-95083381D01*
X99702952Y-95083381D01*
X99607714Y-95131000D01*
X99560095Y-95178619D01*
X99512476Y-95273857D01*
X99512476Y-95369095D01*
X99560095Y-95511952D01*
X100131524Y-96083381D01*
X99512476Y-96083381D01*
X99179143Y-95083381D02*
X98560095Y-95083381D01*
X98893429Y-95464333D01*
X98750571Y-95464333D01*
X98655333Y-95511952D01*
X98607714Y-95559571D01*
X98560095Y-95654810D01*
X98560095Y-95892905D01*
X98607714Y-95988143D01*
X98655333Y-96035762D01*
X98750571Y-96083381D01*
X99036286Y-96083381D01*
X99131524Y-96035762D01*
X99179143Y-95988143D01*
X163456857Y-94686381D02*
X163790191Y-94210190D01*
X164028286Y-94686381D02*
X164028286Y-93686381D01*
X163647333Y-93686381D01*
X163552095Y-93734000D01*
X163504476Y-93781619D01*
X163456857Y-93876857D01*
X163456857Y-94019714D01*
X163504476Y-94114952D01*
X163552095Y-94162571D01*
X163647333Y-94210190D01*
X164028286Y-94210190D01*
X163075905Y-93781619D02*
X163028286Y-93734000D01*
X162933048Y-93686381D01*
X162694952Y-93686381D01*
X162599714Y-93734000D01*
X162552095Y-93781619D01*
X162504476Y-93876857D01*
X162504476Y-93972095D01*
X162552095Y-94114952D01*
X163123524Y-94686381D01*
X162504476Y-94686381D01*
X162171143Y-93686381D02*
X161504476Y-93686381D01*
X161933048Y-94686381D01*
X154169624Y-96208664D02*
X154502958Y-95732473D01*
X154741053Y-96208664D02*
X154741053Y-95208664D01*
X154360100Y-95208664D01*
X154264862Y-95256283D01*
X154217243Y-95303902D01*
X154169624Y-95399140D01*
X154169624Y-95541997D01*
X154217243Y-95637235D01*
X154264862Y-95684854D01*
X154360100Y-95732473D01*
X154741053Y-95732473D01*
X153788672Y-95303902D02*
X153741053Y-95256283D01*
X153645815Y-95208664D01*
X153407719Y-95208664D01*
X153312481Y-95256283D01*
X153264862Y-95303902D01*
X153217243Y-95399140D01*
X153217243Y-95494378D01*
X153264862Y-95637235D01*
X153836291Y-96208664D01*
X153217243Y-96208664D01*
X152645815Y-95637235D02*
X152741053Y-95589616D01*
X152788672Y-95541997D01*
X152836291Y-95446759D01*
X152836291Y-95399140D01*
X152788672Y-95303902D01*
X152741053Y-95256283D01*
X152645815Y-95208664D01*
X152455338Y-95208664D01*
X152360100Y-95256283D01*
X152312481Y-95303902D01*
X152264862Y-95399140D01*
X152264862Y-95446759D01*
X152312481Y-95541997D01*
X152360100Y-95589616D01*
X152455338Y-95637235D01*
X152645815Y-95637235D01*
X152741053Y-95684854D01*
X152788672Y-95732473D01*
X152836291Y-95827712D01*
X152836291Y-96018188D01*
X152788672Y-96113426D01*
X152741053Y-96161045D01*
X152645815Y-96208664D01*
X152455338Y-96208664D01*
X152360100Y-96161045D01*
X152312481Y-96113426D01*
X152264862Y-96018188D01*
X152264862Y-95827712D01*
X152312481Y-95732473D01*
X152360100Y-95684854D01*
X152455338Y-95637235D01*
X155947631Y-99764659D02*
X156280965Y-99288468D01*
X156519060Y-99764659D02*
X156519060Y-98764659D01*
X156138107Y-98764659D01*
X156042869Y-98812278D01*
X155995250Y-98859897D01*
X155947631Y-98955135D01*
X155947631Y-99097992D01*
X155995250Y-99193230D01*
X156042869Y-99240849D01*
X156138107Y-99288468D01*
X156519060Y-99288468D01*
X155566679Y-98859897D02*
X155519060Y-98812278D01*
X155423822Y-98764659D01*
X155185726Y-98764659D01*
X155090488Y-98812278D01*
X155042869Y-98859897D01*
X154995250Y-98955135D01*
X154995250Y-99050373D01*
X155042869Y-99193230D01*
X155614298Y-99764659D01*
X154995250Y-99764659D01*
X154519060Y-99764659D02*
X154328584Y-99764659D01*
X154233345Y-99717040D01*
X154185726Y-99669421D01*
X154090488Y-99526564D01*
X154042869Y-99336088D01*
X154042869Y-98955135D01*
X154090488Y-98859897D01*
X154138107Y-98812278D01*
X154233345Y-98764659D01*
X154423822Y-98764659D01*
X154519060Y-98812278D01*
X154566679Y-98859897D01*
X154614298Y-98955135D01*
X154614298Y-99193230D01*
X154566679Y-99288468D01*
X154519060Y-99336088D01*
X154423822Y-99383707D01*
X154233345Y-99383707D01*
X154138107Y-99336088D01*
X154090488Y-99288468D01*
X154042869Y-99193230D01*
X160750095Y-106640381D02*
X160750095Y-107449905D01*
X160702476Y-107545143D01*
X160654857Y-107592762D01*
X160559619Y-107640381D01*
X160369142Y-107640381D01*
X160273904Y-107592762D01*
X160226285Y-107545143D01*
X160178666Y-107449905D01*
X160178666Y-106640381D01*
X159178666Y-107640381D02*
X159750095Y-107640381D01*
X159464381Y-107640381D02*
X159464381Y-106640381D01*
X159559619Y-106783238D01*
X159654857Y-106878476D01*
X159750095Y-106926095D01*
X158559619Y-106640381D02*
X158464380Y-106640381D01*
X158369142Y-106688000D01*
X158321523Y-106735619D01*
X158273904Y-106830857D01*
X158226285Y-107021333D01*
X158226285Y-107259429D01*
X158273904Y-107449905D01*
X158321523Y-107545143D01*
X158369142Y-107592762D01*
X158464380Y-107640381D01*
X158559619Y-107640381D01*
X158654857Y-107592762D01*
X158702476Y-107545143D01*
X158750095Y-107449905D01*
X158797714Y-107259429D01*
X158797714Y-107021333D01*
X158750095Y-106830857D01*
X158702476Y-106735619D01*
X158654857Y-106688000D01*
X158559619Y-106640381D01*
X167997143Y-97805353D02*
X168044762Y-97757734D01*
X168092381Y-97614877D01*
X168092381Y-97519639D01*
X168044762Y-97376781D01*
X167949524Y-97281543D01*
X167854286Y-97233924D01*
X167663810Y-97186305D01*
X167520952Y-97186305D01*
X167330476Y-97233924D01*
X167235238Y-97281543D01*
X167140000Y-97376781D01*
X167092381Y-97519639D01*
X167092381Y-97614877D01*
X167140000Y-97757734D01*
X167187619Y-97805353D01*
X167425714Y-98662496D02*
X168092381Y-98662496D01*
X167044762Y-98424400D02*
X167759048Y-98186305D01*
X167759048Y-98805353D01*
X167092381Y-99662496D02*
X167092381Y-99186305D01*
X167568571Y-99138686D01*
X167520952Y-99186305D01*
X167473333Y-99281543D01*
X167473333Y-99519639D01*
X167520952Y-99614877D01*
X167568571Y-99662496D01*
X167663810Y-99710115D01*
X167901905Y-99710115D01*
X167997143Y-99662496D01*
X168044762Y-99614877D01*
X168092381Y-99519639D01*
X168092381Y-99281543D01*
X168044762Y-99186305D01*
X167997143Y-99138686D01*
X172092857Y-106783143D02*
X172140476Y-106830762D01*
X172283333Y-106878381D01*
X172378571Y-106878381D01*
X172521429Y-106830762D01*
X172616667Y-106735524D01*
X172664286Y-106640286D01*
X172711905Y-106449810D01*
X172711905Y-106306952D01*
X172664286Y-106116476D01*
X172616667Y-106021238D01*
X172521429Y-105926000D01*
X172378571Y-105878381D01*
X172283333Y-105878381D01*
X172140476Y-105926000D01*
X172092857Y-105973619D01*
X171235714Y-106211714D02*
X171235714Y-106878381D01*
X171473810Y-105830762D02*
X171711905Y-106545048D01*
X171092857Y-106545048D01*
X170283333Y-105878381D02*
X170473810Y-105878381D01*
X170569048Y-105926000D01*
X170616667Y-105973619D01*
X170711905Y-106116476D01*
X170759524Y-106306952D01*
X170759524Y-106687905D01*
X170711905Y-106783143D01*
X170664286Y-106830762D01*
X170569048Y-106878381D01*
X170378571Y-106878381D01*
X170283333Y-106830762D01*
X170235714Y-106783143D01*
X170188095Y-106687905D01*
X170188095Y-106449810D01*
X170235714Y-106354571D01*
X170283333Y-106306952D01*
X170378571Y-106259333D01*
X170569048Y-106259333D01*
X170664286Y-106306952D01*
X170711905Y-106354571D01*
X170759524Y-106449810D01*
X175363143Y-105529143D02*
X175410762Y-105481524D01*
X175458381Y-105338667D01*
X175458381Y-105243429D01*
X175410762Y-105100571D01*
X175315524Y-105005333D01*
X175220286Y-104957714D01*
X175029810Y-104910095D01*
X174886952Y-104910095D01*
X174696476Y-104957714D01*
X174601238Y-105005333D01*
X174506000Y-105100571D01*
X174458381Y-105243429D01*
X174458381Y-105338667D01*
X174506000Y-105481524D01*
X174553619Y-105529143D01*
X174791714Y-106386286D02*
X175458381Y-106386286D01*
X174410762Y-106148190D02*
X175125048Y-105910095D01*
X175125048Y-106529143D01*
X174458381Y-106814857D02*
X174458381Y-107481524D01*
X175458381Y-107052952D01*
X164695143Y-99179143D02*
X164742762Y-99131524D01*
X164790381Y-98988667D01*
X164790381Y-98893429D01*
X164742762Y-98750571D01*
X164647524Y-98655333D01*
X164552286Y-98607714D01*
X164361810Y-98560095D01*
X164218952Y-98560095D01*
X164028476Y-98607714D01*
X163933238Y-98655333D01*
X163838000Y-98750571D01*
X163790381Y-98893429D01*
X163790381Y-98988667D01*
X163838000Y-99131524D01*
X163885619Y-99179143D01*
X164123714Y-100036286D02*
X164790381Y-100036286D01*
X163742762Y-99798190D02*
X164457048Y-99560095D01*
X164457048Y-100179143D01*
X164218952Y-100702952D02*
X164171333Y-100607714D01*
X164123714Y-100560095D01*
X164028476Y-100512476D01*
X163980857Y-100512476D01*
X163885619Y-100560095D01*
X163838000Y-100607714D01*
X163790381Y-100702952D01*
X163790381Y-100893429D01*
X163838000Y-100988667D01*
X163885619Y-101036286D01*
X163980857Y-101083905D01*
X164028476Y-101083905D01*
X164123714Y-101036286D01*
X164171333Y-100988667D01*
X164218952Y-100893429D01*
X164218952Y-100702952D01*
X164266571Y-100607714D01*
X164314190Y-100560095D01*
X164409429Y-100512476D01*
X164599905Y-100512476D01*
X164695143Y-100560095D01*
X164742762Y-100607714D01*
X164790381Y-100702952D01*
X164790381Y-100893429D01*
X164742762Y-100988667D01*
X164695143Y-101036286D01*
X164599905Y-101083905D01*
X164409429Y-101083905D01*
X164314190Y-101036286D01*
X164266571Y-100988667D01*
X164218952Y-100893429D01*
X174696381Y-102735143D02*
X174220190Y-102401809D01*
X174696381Y-102163714D02*
X173696381Y-102163714D01*
X173696381Y-102544667D01*
X173744000Y-102639905D01*
X173791619Y-102687524D01*
X173886857Y-102735143D01*
X174029714Y-102735143D01*
X174124952Y-102687524D01*
X174172571Y-102639905D01*
X174220190Y-102544667D01*
X174220190Y-102163714D01*
X173696381Y-103068476D02*
X173696381Y-103687524D01*
X174077333Y-103354190D01*
X174077333Y-103497048D01*
X174124952Y-103592286D01*
X174172571Y-103639905D01*
X174267810Y-103687524D01*
X174505905Y-103687524D01*
X174601143Y-103639905D01*
X174648762Y-103592286D01*
X174696381Y-103497048D01*
X174696381Y-103211333D01*
X174648762Y-103116095D01*
X174601143Y-103068476D01*
X174696381Y-104639905D02*
X174696381Y-104068476D01*
X174696381Y-104354190D02*
X173696381Y-104354190D01*
X173839238Y-104258952D01*
X173934476Y-104163714D01*
X173982095Y-104068476D01*
X173172381Y-103751143D02*
X172696190Y-103417809D01*
X173172381Y-103179714D02*
X172172381Y-103179714D01*
X172172381Y-103560667D01*
X172220000Y-103655905D01*
X172267619Y-103703524D01*
X172362857Y-103751143D01*
X172505714Y-103751143D01*
X172600952Y-103703524D01*
X172648571Y-103655905D01*
X172696190Y-103560667D01*
X172696190Y-103179714D01*
X172172381Y-104084476D02*
X172172381Y-104703524D01*
X172553333Y-104370190D01*
X172553333Y-104513048D01*
X172600952Y-104608286D01*
X172648571Y-104655905D01*
X172743810Y-104703524D01*
X172981905Y-104703524D01*
X173077143Y-104655905D01*
X173124762Y-104608286D01*
X173172381Y-104513048D01*
X173172381Y-104227333D01*
X173124762Y-104132095D01*
X173077143Y-104084476D01*
X172267619Y-105084476D02*
X172220000Y-105132095D01*
X172172381Y-105227333D01*
X172172381Y-105465429D01*
X172220000Y-105560667D01*
X172267619Y-105608286D01*
X172362857Y-105655905D01*
X172458095Y-105655905D01*
X172600952Y-105608286D01*
X173172381Y-105036857D01*
X173172381Y-105655905D01*
X166314381Y-99687143D02*
X165838190Y-99353809D01*
X166314381Y-99115714D02*
X165314381Y-99115714D01*
X165314381Y-99496667D01*
X165362000Y-99591905D01*
X165409619Y-99639524D01*
X165504857Y-99687143D01*
X165647714Y-99687143D01*
X165742952Y-99639524D01*
X165790571Y-99591905D01*
X165838190Y-99496667D01*
X165838190Y-99115714D01*
X165314381Y-100020476D02*
X165314381Y-100639524D01*
X165695333Y-100306190D01*
X165695333Y-100449048D01*
X165742952Y-100544286D01*
X165790571Y-100591905D01*
X165885810Y-100639524D01*
X166123905Y-100639524D01*
X166219143Y-100591905D01*
X166266762Y-100544286D01*
X166314381Y-100449048D01*
X166314381Y-100163333D01*
X166266762Y-100068095D01*
X166219143Y-100020476D01*
X165314381Y-100972857D02*
X165314381Y-101591905D01*
X165695333Y-101258571D01*
X165695333Y-101401429D01*
X165742952Y-101496667D01*
X165790571Y-101544286D01*
X165885810Y-101591905D01*
X166123905Y-101591905D01*
X166219143Y-101544286D01*
X166266762Y-101496667D01*
X166314381Y-101401429D01*
X166314381Y-101115714D01*
X166266762Y-101020476D01*
X166219143Y-100972857D01*
X166822381Y-103751143D02*
X166346190Y-103417809D01*
X166822381Y-103179714D02*
X165822381Y-103179714D01*
X165822381Y-103560667D01*
X165870000Y-103655905D01*
X165917619Y-103703524D01*
X166012857Y-103751143D01*
X166155714Y-103751143D01*
X166250952Y-103703524D01*
X166298571Y-103655905D01*
X166346190Y-103560667D01*
X166346190Y-103179714D01*
X165822381Y-104084476D02*
X165822381Y-104703524D01*
X166203333Y-104370190D01*
X166203333Y-104513048D01*
X166250952Y-104608286D01*
X166298571Y-104655905D01*
X166393810Y-104703524D01*
X166631905Y-104703524D01*
X166727143Y-104655905D01*
X166774762Y-104608286D01*
X166822381Y-104513048D01*
X166822381Y-104227333D01*
X166774762Y-104132095D01*
X166727143Y-104084476D01*
X166155714Y-105560667D02*
X166822381Y-105560667D01*
X165774762Y-105322571D02*
X166489048Y-105084476D01*
X166489048Y-105703524D01*
X173185117Y-97793352D02*
X172708926Y-97460018D01*
X173185117Y-97221923D02*
X172185117Y-97221923D01*
X172185117Y-97602876D01*
X172232736Y-97698114D01*
X172280355Y-97745733D01*
X172375593Y-97793352D01*
X172518450Y-97793352D01*
X172613688Y-97745733D01*
X172661307Y-97698114D01*
X172708926Y-97602876D01*
X172708926Y-97221923D01*
X172185117Y-98126685D02*
X172185117Y-98745733D01*
X172566069Y-98412399D01*
X172566069Y-98555257D01*
X172613688Y-98650495D01*
X172661307Y-98698114D01*
X172756546Y-98745733D01*
X172994641Y-98745733D01*
X173089879Y-98698114D01*
X173137498Y-98650495D01*
X173185117Y-98555257D01*
X173185117Y-98269542D01*
X173137498Y-98174304D01*
X173089879Y-98126685D01*
X172185117Y-99650495D02*
X172185117Y-99174304D01*
X172661307Y-99126685D01*
X172613688Y-99174304D01*
X172566069Y-99269542D01*
X172566069Y-99507638D01*
X172613688Y-99602876D01*
X172661307Y-99650495D01*
X172756546Y-99698114D01*
X172994641Y-99698114D01*
X173089879Y-99650495D01*
X173137498Y-99602876D01*
X173185117Y-99507638D01*
X173185117Y-99269542D01*
X173137498Y-99174304D01*
X173089879Y-99126685D01*
X167076381Y-111371143D02*
X166600190Y-111037809D01*
X167076381Y-110799714D02*
X166076381Y-110799714D01*
X166076381Y-111180667D01*
X166124000Y-111275905D01*
X166171619Y-111323524D01*
X166266857Y-111371143D01*
X166409714Y-111371143D01*
X166504952Y-111323524D01*
X166552571Y-111275905D01*
X166600190Y-111180667D01*
X166600190Y-110799714D01*
X166076381Y-111704476D02*
X166076381Y-112323524D01*
X166457333Y-111990190D01*
X166457333Y-112133048D01*
X166504952Y-112228286D01*
X166552571Y-112275905D01*
X166647810Y-112323524D01*
X166885905Y-112323524D01*
X166981143Y-112275905D01*
X167028762Y-112228286D01*
X167076381Y-112133048D01*
X167076381Y-111847333D01*
X167028762Y-111752095D01*
X166981143Y-111704476D01*
X166076381Y-113180667D02*
X166076381Y-112990190D01*
X166124000Y-112894952D01*
X166171619Y-112847333D01*
X166314476Y-112752095D01*
X166504952Y-112704476D01*
X166885905Y-112704476D01*
X166981143Y-112752095D01*
X167028762Y-112799714D01*
X167076381Y-112894952D01*
X167076381Y-113085429D01*
X167028762Y-113180667D01*
X166981143Y-113228286D01*
X166885905Y-113275905D01*
X166647810Y-113275905D01*
X166552571Y-113228286D01*
X166504952Y-113180667D01*
X166457333Y-113085429D01*
X166457333Y-112894952D01*
X166504952Y-112799714D01*
X166552571Y-112752095D01*
X166647810Y-112704476D01*
X171423113Y-107612118D02*
X172232637Y-107612118D01*
X172327875Y-107659737D01*
X172375494Y-107707356D01*
X172423113Y-107802594D01*
X172423113Y-107993071D01*
X172375494Y-108088309D01*
X172327875Y-108135928D01*
X172232637Y-108183547D01*
X171423113Y-108183547D01*
X172423113Y-109183547D02*
X172423113Y-108612118D01*
X172423113Y-108897832D02*
X171423113Y-108897832D01*
X171565970Y-108802594D01*
X171661208Y-108707356D01*
X171708827Y-108612118D01*
X172423113Y-110135928D02*
X172423113Y-109564499D01*
X172423113Y-109850213D02*
X171423113Y-109850213D01*
X171565970Y-109754975D01*
X171661208Y-109659737D01*
X171708827Y-109564499D01*
X165608285Y-93143143D02*
X165655904Y-93190762D01*
X165798761Y-93238381D01*
X165893999Y-93238381D01*
X166036857Y-93190762D01*
X166132095Y-93095524D01*
X166179714Y-93000286D01*
X166227333Y-92809810D01*
X166227333Y-92666952D01*
X166179714Y-92476476D01*
X166132095Y-92381238D01*
X166036857Y-92286000D01*
X165893999Y-92238381D01*
X165798761Y-92238381D01*
X165655904Y-92286000D01*
X165608285Y-92333619D01*
X164989238Y-92238381D02*
X164798761Y-92238381D01*
X164703523Y-92286000D01*
X164608285Y-92381238D01*
X164560666Y-92571714D01*
X164560666Y-92905048D01*
X164608285Y-93095524D01*
X164703523Y-93190762D01*
X164798761Y-93238381D01*
X164989238Y-93238381D01*
X165084476Y-93190762D01*
X165179714Y-93095524D01*
X165227333Y-92905048D01*
X165227333Y-92571714D01*
X165179714Y-92381238D01*
X165084476Y-92286000D01*
X164989238Y-92238381D01*
X164132095Y-93238381D02*
X164132095Y-92238381D01*
X163560666Y-93238381D01*
X163560666Y-92238381D01*
X163132095Y-92333619D02*
X163084476Y-92286000D01*
X162989238Y-92238381D01*
X162751142Y-92238381D01*
X162655904Y-92286000D01*
X162608285Y-92333619D01*
X162560666Y-92428857D01*
X162560666Y-92524095D01*
X162608285Y-92666952D01*
X163179714Y-93238381D01*
X162560666Y-93238381D01*
X152121619Y-116022381D02*
X152597810Y-116022381D01*
X152597810Y-115022381D01*
X151216857Y-115927143D02*
X151264476Y-115974762D01*
X151407333Y-116022381D01*
X151502571Y-116022381D01*
X151645429Y-115974762D01*
X151740667Y-115879524D01*
X151788286Y-115784286D01*
X151835905Y-115593810D01*
X151835905Y-115450952D01*
X151788286Y-115260476D01*
X151740667Y-115165238D01*
X151645429Y-115070000D01*
X151502571Y-115022381D01*
X151407333Y-115022381D01*
X151264476Y-115070000D01*
X151216857Y-115117619D01*
X150788286Y-116022381D02*
X150788286Y-115022381D01*
X150550191Y-115022381D01*
X150407333Y-115070000D01*
X150312095Y-115165238D01*
X150264476Y-115260476D01*
X150216857Y-115450952D01*
X150216857Y-115593810D01*
X150264476Y-115784286D01*
X150312095Y-115879524D01*
X150407333Y-115974762D01*
X150550191Y-116022381D01*
X150788286Y-116022381D01*
X148693047Y-115498571D02*
X148550190Y-115546190D01*
X148502571Y-115593810D01*
X148454952Y-115689048D01*
X148454952Y-115831905D01*
X148502571Y-115927143D01*
X148550190Y-115974762D01*
X148645428Y-116022381D01*
X149026381Y-116022381D01*
X149026381Y-115022381D01*
X148693047Y-115022381D01*
X148597809Y-115070000D01*
X148550190Y-115117619D01*
X148502571Y-115212857D01*
X148502571Y-115308095D01*
X148550190Y-115403333D01*
X148597809Y-115450952D01*
X148693047Y-115498571D01*
X149026381Y-115498571D01*
X147597809Y-116022381D02*
X147597809Y-115498571D01*
X147645428Y-115403333D01*
X147740666Y-115355714D01*
X147931143Y-115355714D01*
X148026381Y-115403333D01*
X147597809Y-115974762D02*
X147693047Y-116022381D01*
X147931143Y-116022381D01*
X148026381Y-115974762D01*
X148074000Y-115879524D01*
X148074000Y-115784286D01*
X148026381Y-115689048D01*
X147931143Y-115641429D01*
X147693047Y-115641429D01*
X147597809Y-115593810D01*
X146693047Y-115974762D02*
X146788285Y-116022381D01*
X146978762Y-116022381D01*
X147074000Y-115974762D01*
X147121619Y-115927143D01*
X147169238Y-115831905D01*
X147169238Y-115546190D01*
X147121619Y-115450952D01*
X147074000Y-115403333D01*
X146978762Y-115355714D01*
X146788285Y-115355714D01*
X146693047Y-115403333D01*
X146264476Y-116022381D02*
X146264476Y-115022381D01*
X146169238Y-115641429D02*
X145883523Y-116022381D01*
X145883523Y-115355714D02*
X146264476Y-115736667D01*
X145312095Y-116022381D02*
X145407333Y-115974762D01*
X145454952Y-115879524D01*
X145454952Y-115022381D01*
X144931142Y-116022381D02*
X144931142Y-115355714D01*
X144931142Y-115022381D02*
X144978761Y-115070000D01*
X144931142Y-115117619D01*
X144883523Y-115070000D01*
X144931142Y-115022381D01*
X144931142Y-115117619D01*
X144026380Y-115355714D02*
X144026380Y-116165238D01*
X144073999Y-116260476D01*
X144121618Y-116308095D01*
X144216857Y-116355714D01*
X144359714Y-116355714D01*
X144454952Y-116308095D01*
X144026380Y-115974762D02*
X144121618Y-116022381D01*
X144312095Y-116022381D01*
X144407333Y-115974762D01*
X144454952Y-115927143D01*
X144502571Y-115831905D01*
X144502571Y-115546190D01*
X144454952Y-115450952D01*
X144407333Y-115403333D01*
X144312095Y-115355714D01*
X144121618Y-115355714D01*
X144026380Y-115403333D01*
X143550190Y-116022381D02*
X143550190Y-115022381D01*
X143121618Y-116022381D02*
X143121618Y-115498571D01*
X143169237Y-115403333D01*
X143264475Y-115355714D01*
X143407333Y-115355714D01*
X143502571Y-115403333D01*
X143550190Y-115450952D01*
X142788285Y-115355714D02*
X142407333Y-115355714D01*
X142645428Y-115022381D02*
X142645428Y-115879524D01*
X142597809Y-115974762D01*
X142502571Y-116022381D01*
X142407333Y-116022381D01*
X100464857Y-87320381D02*
X100798191Y-86844190D01*
X101036286Y-87320381D02*
X101036286Y-86320381D01*
X100655333Y-86320381D01*
X100560095Y-86368000D01*
X100512476Y-86415619D01*
X100464857Y-86510857D01*
X100464857Y-86653714D01*
X100512476Y-86748952D01*
X100560095Y-86796571D01*
X100655333Y-86844190D01*
X101036286Y-86844190D01*
X100131524Y-86320381D02*
X99512476Y-86320381D01*
X99845810Y-86701333D01*
X99702952Y-86701333D01*
X99607714Y-86748952D01*
X99560095Y-86796571D01*
X99512476Y-86891810D01*
X99512476Y-87129905D01*
X99560095Y-87225143D01*
X99607714Y-87272762D01*
X99702952Y-87320381D01*
X99988667Y-87320381D01*
X100083905Y-87272762D01*
X100131524Y-87225143D01*
X99179143Y-86320381D02*
X98512476Y-86320381D01*
X98941048Y-87320381D01*
X103270857Y-87320381D02*
X103604191Y-86844190D01*
X103842286Y-87320381D02*
X103842286Y-86320381D01*
X103461333Y-86320381D01*
X103366095Y-86368000D01*
X103318476Y-86415619D01*
X103270857Y-86510857D01*
X103270857Y-86653714D01*
X103318476Y-86748952D01*
X103366095Y-86796571D01*
X103461333Y-86844190D01*
X103842286Y-86844190D01*
X102937524Y-86320381D02*
X102318476Y-86320381D01*
X102651810Y-86701333D01*
X102508952Y-86701333D01*
X102413714Y-86748952D01*
X102366095Y-86796571D01*
X102318476Y-86891810D01*
X102318476Y-87129905D01*
X102366095Y-87225143D01*
X102413714Y-87272762D01*
X102508952Y-87320381D01*
X102794667Y-87320381D01*
X102889905Y-87272762D01*
X102937524Y-87225143D01*
X101747048Y-86748952D02*
X101842286Y-86701333D01*
X101889905Y-86653714D01*
X101937524Y-86558476D01*
X101937524Y-86510857D01*
X101889905Y-86415619D01*
X101842286Y-86368000D01*
X101747048Y-86320381D01*
X101556571Y-86320381D01*
X101461333Y-86368000D01*
X101413714Y-86415619D01*
X101366095Y-86510857D01*
X101366095Y-86558476D01*
X101413714Y-86653714D01*
X101461333Y-86701333D01*
X101556571Y-86748952D01*
X101747048Y-86748952D01*
X101842286Y-86796571D01*
X101889905Y-86844190D01*
X101937524Y-86939429D01*
X101937524Y-87129905D01*
X101889905Y-87225143D01*
X101842286Y-87272762D01*
X101747048Y-87320381D01*
X101556571Y-87320381D01*
X101461333Y-87272762D01*
X101413714Y-87225143D01*
X101366095Y-87129905D01*
X101366095Y-86939429D01*
X101413714Y-86844190D01*
X101461333Y-86796571D01*
X101556571Y-86748952D01*
X100464857Y-86050381D02*
X100798191Y-85574190D01*
X101036286Y-86050381D02*
X101036286Y-85050381D01*
X100655333Y-85050381D01*
X100560095Y-85098000D01*
X100512476Y-85145619D01*
X100464857Y-85240857D01*
X100464857Y-85383714D01*
X100512476Y-85478952D01*
X100560095Y-85526571D01*
X100655333Y-85574190D01*
X101036286Y-85574190D01*
X100131524Y-85050381D02*
X99512476Y-85050381D01*
X99845810Y-85431333D01*
X99702952Y-85431333D01*
X99607714Y-85478952D01*
X99560095Y-85526571D01*
X99512476Y-85621810D01*
X99512476Y-85859905D01*
X99560095Y-85955143D01*
X99607714Y-86002762D01*
X99702952Y-86050381D01*
X99988667Y-86050381D01*
X100083905Y-86002762D01*
X100131524Y-85955143D01*
X99036286Y-86050381D02*
X98845810Y-86050381D01*
X98750571Y-86002762D01*
X98702952Y-85955143D01*
X98607714Y-85812286D01*
X98560095Y-85621810D01*
X98560095Y-85240857D01*
X98607714Y-85145619D01*
X98655333Y-85098000D01*
X98750571Y-85050381D01*
X98941048Y-85050381D01*
X99036286Y-85098000D01*
X99083905Y-85145619D01*
X99131524Y-85240857D01*
X99131524Y-85478952D01*
X99083905Y-85574190D01*
X99036286Y-85621810D01*
X98941048Y-85669429D01*
X98750571Y-85669429D01*
X98655333Y-85621810D01*
X98607714Y-85574190D01*
X98560095Y-85478952D01*
X103258857Y-86050381D02*
X103592191Y-85574190D01*
X103830286Y-86050381D02*
X103830286Y-85050381D01*
X103449333Y-85050381D01*
X103354095Y-85098000D01*
X103306476Y-85145619D01*
X103258857Y-85240857D01*
X103258857Y-85383714D01*
X103306476Y-85478952D01*
X103354095Y-85526571D01*
X103449333Y-85574190D01*
X103830286Y-85574190D01*
X102401714Y-85383714D02*
X102401714Y-86050381D01*
X102639810Y-85002762D02*
X102877905Y-85717048D01*
X102258857Y-85717048D01*
X101687429Y-85050381D02*
X101592190Y-85050381D01*
X101496952Y-85098000D01*
X101449333Y-85145619D01*
X101401714Y-85240857D01*
X101354095Y-85431333D01*
X101354095Y-85669429D01*
X101401714Y-85859905D01*
X101449333Y-85955143D01*
X101496952Y-86002762D01*
X101592190Y-86050381D01*
X101687429Y-86050381D01*
X101782667Y-86002762D01*
X101830286Y-85955143D01*
X101877905Y-85859905D01*
X101925524Y-85669429D01*
X101925524Y-85431333D01*
X101877905Y-85240857D01*
X101830286Y-85145619D01*
X101782667Y-85098000D01*
X101687429Y-85050381D01*
X113934762Y-96988381D02*
X113696667Y-97988381D01*
X113506190Y-97274095D01*
X113315714Y-97988381D01*
X113077619Y-96988381D01*
X112268095Y-97321714D02*
X112268095Y-97988381D01*
X112506191Y-96940762D02*
X112744286Y-97655048D01*
X112125238Y-97655048D01*
X110763857Y-82240381D02*
X111097191Y-81764190D01*
X111335286Y-82240381D02*
X111335286Y-81240381D01*
X110954333Y-81240381D01*
X110859095Y-81288000D01*
X110811476Y-81335619D01*
X110763857Y-81430857D01*
X110763857Y-81573714D01*
X110811476Y-81668952D01*
X110859095Y-81716571D01*
X110954333Y-81764190D01*
X111335286Y-81764190D01*
X109906714Y-81573714D02*
X109906714Y-82240381D01*
X110144810Y-81192762D02*
X110382905Y-81907048D01*
X109763857Y-81907048D01*
X108859095Y-82240381D02*
X109430524Y-82240381D01*
X109144810Y-82240381D02*
X109144810Y-81240381D01*
X109240048Y-81383238D01*
X109335286Y-81478476D01*
X109430524Y-81526095D01*
X173491969Y-62034635D02*
X173158503Y-61558537D01*
X173687409Y-61497668D02*
X172747717Y-61155648D01*
X172617423Y-61513626D01*
X172629597Y-61619408D01*
X172658058Y-61680441D01*
X172731265Y-61757762D01*
X172865507Y-61806622D01*
X172971288Y-61794448D01*
X173032322Y-61765987D01*
X173109643Y-61692780D01*
X173239936Y-61334801D01*
X172572347Y-62612073D02*
X173198809Y-62840086D01*
X172295803Y-62258043D02*
X173048445Y-62278607D01*
X172836718Y-62860321D01*
X172185744Y-62978112D02*
X172124710Y-63006572D01*
X172047390Y-63079780D01*
X171965956Y-63303517D01*
X171978130Y-63409298D01*
X172006591Y-63470332D01*
X172079798Y-63547653D01*
X172169293Y-63580226D01*
X172319821Y-63584339D01*
X173052229Y-63242811D01*
X172840502Y-63824526D01*
X172221969Y-61526635D02*
X171888503Y-61050537D01*
X172417409Y-60989668D02*
X171477717Y-60647648D01*
X171347423Y-61005626D01*
X171359597Y-61111408D01*
X171388058Y-61172441D01*
X171461265Y-61249762D01*
X171595507Y-61298622D01*
X171701288Y-61286448D01*
X171762322Y-61257987D01*
X171839643Y-61184780D01*
X171969936Y-60826801D01*
X171302347Y-62104073D02*
X171928809Y-62332086D01*
X171025803Y-61750043D02*
X171778445Y-61770607D01*
X171566718Y-62352321D01*
X170842536Y-62392791D02*
X170630810Y-62974506D01*
X171102794Y-62791568D01*
X171053934Y-62925810D01*
X171066108Y-63031592D01*
X171094568Y-63092625D01*
X171167777Y-63169946D01*
X171391513Y-63251380D01*
X171497294Y-63239206D01*
X171558328Y-63210745D01*
X171635649Y-63137537D01*
X171733369Y-62869053D01*
X171721195Y-62763272D01*
X171692735Y-62702238D01*
X170697969Y-61018635D02*
X170364503Y-60542537D01*
X170893409Y-60481668D02*
X169953717Y-60139648D01*
X169823423Y-60497626D01*
X169835597Y-60603408D01*
X169864058Y-60664441D01*
X169937265Y-60741762D01*
X170071507Y-60790622D01*
X170177288Y-60778448D01*
X170238322Y-60749987D01*
X170315643Y-60676780D01*
X170445936Y-60318801D01*
X169778347Y-61596073D02*
X170404809Y-61824086D01*
X169501803Y-61242043D02*
X170254445Y-61262607D01*
X170042718Y-61844321D01*
X169452613Y-62491018D02*
X170079075Y-62719032D01*
X169176069Y-62136988D02*
X169928712Y-62157552D01*
X169716985Y-62739267D01*
X168028452Y-60072402D02*
X167694986Y-59596304D01*
X168223892Y-59535435D02*
X167284200Y-59193415D01*
X167153906Y-59551393D01*
X167166080Y-59657175D01*
X167194541Y-59718208D01*
X167267748Y-59795529D01*
X167401990Y-59844389D01*
X167507771Y-59832215D01*
X167568805Y-59803754D01*
X167646126Y-59730547D01*
X167776419Y-59372568D01*
X167108830Y-60649840D02*
X167735292Y-60877853D01*
X166832286Y-60295810D02*
X167584928Y-60316374D01*
X167373201Y-60898088D01*
X166453579Y-61475526D02*
X166616446Y-61028053D01*
X167080205Y-61146172D01*
X167019171Y-61174633D01*
X166941851Y-61247840D01*
X166860417Y-61471577D01*
X166872591Y-61577359D01*
X166901051Y-61638392D01*
X166974260Y-61715713D01*
X167197996Y-61797147D01*
X167303777Y-61784973D01*
X167364811Y-61756512D01*
X167442132Y-61683304D01*
X167523565Y-61459567D01*
X167511392Y-61353786D01*
X167482931Y-61292752D01*
X166506969Y-59494635D02*
X166173503Y-59018537D01*
X166702409Y-58957668D02*
X165762717Y-58615648D01*
X165632423Y-58973626D01*
X165644597Y-59079408D01*
X165673058Y-59140441D01*
X165746265Y-59217762D01*
X165880507Y-59266622D01*
X165986288Y-59254448D01*
X166047322Y-59225987D01*
X166124643Y-59152780D01*
X166254936Y-58794801D01*
X165587347Y-60072073D02*
X166213809Y-60300086D01*
X165310803Y-59718043D02*
X166063445Y-59738607D01*
X165851718Y-60320321D01*
X164948383Y-60853012D02*
X165013530Y-60674022D01*
X165090850Y-60600814D01*
X165151884Y-60572353D01*
X165318699Y-60531719D01*
X165513975Y-60552118D01*
X165871953Y-60682412D01*
X165945161Y-60759733D01*
X165973622Y-60820766D01*
X165985796Y-60926548D01*
X165920649Y-61105537D01*
X165843328Y-61178745D01*
X165782294Y-61207206D01*
X165676513Y-61219380D01*
X165452777Y-61137946D01*
X165379568Y-61060625D01*
X165351108Y-60999592D01*
X165338934Y-60893810D01*
X165404081Y-60714821D01*
X165481401Y-60641613D01*
X165542435Y-60613152D01*
X165648217Y-60600979D01*
X165234452Y-59056402D02*
X164900986Y-58580304D01*
X165429892Y-58519435D02*
X164490200Y-58177415D01*
X164359906Y-58535393D01*
X164372080Y-58641175D01*
X164400541Y-58702208D01*
X164473748Y-58779529D01*
X164607990Y-58828389D01*
X164713771Y-58816215D01*
X164774805Y-58787754D01*
X164852126Y-58714547D01*
X164982419Y-58356568D01*
X164314830Y-59633840D02*
X164941292Y-59861853D01*
X164038286Y-59279810D02*
X164790928Y-59300374D01*
X164579201Y-59882088D01*
X163855019Y-59922558D02*
X163627006Y-60549020D01*
X164713279Y-60488315D01*
X106314762Y-77938381D02*
X106076667Y-78938381D01*
X105886190Y-78224095D01*
X105695714Y-78938381D01*
X105457619Y-77938381D01*
X104648095Y-77938381D02*
X104838572Y-77938381D01*
X104933810Y-77986000D01*
X104981429Y-78033619D01*
X105076667Y-78176476D01*
X105124286Y-78366952D01*
X105124286Y-78747905D01*
X105076667Y-78843143D01*
X105029048Y-78890762D01*
X104933810Y-78938381D01*
X104743333Y-78938381D01*
X104648095Y-78890762D01*
X104600476Y-78843143D01*
X104552857Y-78747905D01*
X104552857Y-78509810D01*
X104600476Y-78414571D01*
X104648095Y-78366952D01*
X104743333Y-78319333D01*
X104933810Y-78319333D01*
X105029048Y-78366952D01*
X105076667Y-78414571D01*
X105124286Y-78509810D01*
X106314762Y-75525381D02*
X106076667Y-76525381D01*
X105886190Y-75811095D01*
X105695714Y-76525381D01*
X105457619Y-75525381D01*
X105171905Y-75525381D02*
X104505238Y-75525381D01*
X104933810Y-76525381D01*
X93797381Y-107561143D02*
X93321190Y-107227809D01*
X93797381Y-106989714D02*
X92797381Y-106989714D01*
X92797381Y-107370667D01*
X92845000Y-107465905D01*
X92892619Y-107513524D01*
X92987857Y-107561143D01*
X93130714Y-107561143D01*
X93225952Y-107513524D01*
X93273571Y-107465905D01*
X93321190Y-107370667D01*
X93321190Y-106989714D01*
X93130714Y-108418286D02*
X93797381Y-108418286D01*
X92749762Y-108180190D02*
X93464048Y-107942095D01*
X93464048Y-108561143D01*
X93225952Y-109084952D02*
X93178333Y-108989714D01*
X93130714Y-108942095D01*
X93035476Y-108894476D01*
X92987857Y-108894476D01*
X92892619Y-108942095D01*
X92845000Y-108989714D01*
X92797381Y-109084952D01*
X92797381Y-109275429D01*
X92845000Y-109370667D01*
X92892619Y-109418286D01*
X92987857Y-109465905D01*
X93035476Y-109465905D01*
X93130714Y-109418286D01*
X93178333Y-109370667D01*
X93225952Y-109275429D01*
X93225952Y-109084952D01*
X93273571Y-108989714D01*
X93321190Y-108942095D01*
X93416429Y-108894476D01*
X93606905Y-108894476D01*
X93702143Y-108942095D01*
X93749762Y-108989714D01*
X93797381Y-109084952D01*
X93797381Y-109275429D01*
X93749762Y-109370667D01*
X93702143Y-109418286D01*
X93606905Y-109465905D01*
X93416429Y-109465905D01*
X93321190Y-109418286D01*
X93273571Y-109370667D01*
X93225952Y-109275429D01*
X93924381Y-101973143D02*
X93448190Y-101639809D01*
X93924381Y-101401714D02*
X92924381Y-101401714D01*
X92924381Y-101782667D01*
X92972000Y-101877905D01*
X93019619Y-101925524D01*
X93114857Y-101973143D01*
X93257714Y-101973143D01*
X93352952Y-101925524D01*
X93400571Y-101877905D01*
X93448190Y-101782667D01*
X93448190Y-101401714D01*
X93257714Y-102830286D02*
X93924381Y-102830286D01*
X92876762Y-102592190D02*
X93591048Y-102354095D01*
X93591048Y-102973143D01*
X93924381Y-103401714D02*
X93924381Y-103592190D01*
X93876762Y-103687429D01*
X93829143Y-103735048D01*
X93686286Y-103830286D01*
X93495810Y-103877905D01*
X93114857Y-103877905D01*
X93019619Y-103830286D01*
X92972000Y-103782667D01*
X92924381Y-103687429D01*
X92924381Y-103496952D01*
X92972000Y-103401714D01*
X93019619Y-103354095D01*
X93114857Y-103306476D01*
X93352952Y-103306476D01*
X93448190Y-103354095D01*
X93495810Y-103401714D01*
X93543429Y-103496952D01*
X93543429Y-103687429D01*
X93495810Y-103782667D01*
X93448190Y-103830286D01*
X93352952Y-103877905D01*
X146946857Y-99078381D02*
X147280191Y-98602190D01*
X147518286Y-99078381D02*
X147518286Y-98078381D01*
X147137333Y-98078381D01*
X147042095Y-98126000D01*
X146994476Y-98173619D01*
X146946857Y-98268857D01*
X146946857Y-98411714D01*
X146994476Y-98506952D01*
X147042095Y-98554571D01*
X147137333Y-98602190D01*
X147518286Y-98602190D01*
X146042095Y-98078381D02*
X146518286Y-98078381D01*
X146565905Y-98554571D01*
X146518286Y-98506952D01*
X146423048Y-98459333D01*
X146184952Y-98459333D01*
X146089714Y-98506952D01*
X146042095Y-98554571D01*
X145994476Y-98649810D01*
X145994476Y-98887905D01*
X146042095Y-98983143D01*
X146089714Y-99030762D01*
X146184952Y-99078381D01*
X146423048Y-99078381D01*
X146518286Y-99030762D01*
X146565905Y-98983143D01*
X145375429Y-98078381D02*
X145280190Y-98078381D01*
X145184952Y-98126000D01*
X145137333Y-98173619D01*
X145089714Y-98268857D01*
X145042095Y-98459333D01*
X145042095Y-98697429D01*
X145089714Y-98887905D01*
X145137333Y-98983143D01*
X145184952Y-99030762D01*
X145280190Y-99078381D01*
X145375429Y-99078381D01*
X145470667Y-99030762D01*
X145518286Y-98983143D01*
X145565905Y-98887905D01*
X145613524Y-98697429D01*
X145613524Y-98459333D01*
X145565905Y-98268857D01*
X145518286Y-98173619D01*
X145470667Y-98126000D01*
X145375429Y-98078381D01*
M02*
