G04 #@! TF.FileFunction,Soldermask,Top*
%FSLAX46Y46*%
G04 Gerber Fmt 4.6, Leading zero omitted, Abs format (unit mm)*
G04 Created by KiCad (PCBNEW 4.0.6) date 04/26/17 00:01:20*
%MOMM*%
%LPD*%
G01*
G04 APERTURE LIST*
%ADD10C,0.100000*%
%ADD11C,0.010000*%
%ADD12C,2.900000*%
%ADD13C,1.924000*%
%ADD14C,4.400000*%
%ADD15C,2.100000*%
%ADD16C,1.900000*%
%ADD17C,1.400000*%
%ADD18R,0.900000X1.400000*%
%ADD19R,0.900000X1.880000*%
%ADD20R,1.200000X0.900000*%
%ADD21R,1.200000X0.700000*%
G04 APERTURE END LIST*
D10*
D11*
G36*
X127926637Y-25812012D02*
X128246623Y-25978101D01*
X128426590Y-26301097D01*
X128497503Y-26818785D01*
X128502302Y-27066550D01*
X128491797Y-27488976D01*
X128438456Y-27736032D01*
X128309536Y-27887424D01*
X128119387Y-27998714D01*
X127736472Y-28196727D01*
X127736472Y-27359795D01*
X127721449Y-26876763D01*
X127668493Y-26594692D01*
X127565780Y-26460604D01*
X127532133Y-26444451D01*
X127300728Y-26464680D01*
X127214992Y-26544185D01*
X127174744Y-26733855D01*
X127143590Y-27126848D01*
X127121530Y-27671373D01*
X127108563Y-28315638D01*
X127104691Y-29007853D01*
X127109913Y-29696226D01*
X127124228Y-30328966D01*
X127147637Y-30854282D01*
X127180141Y-31220382D01*
X127214992Y-31367815D01*
X127412687Y-31482529D01*
X127532133Y-31467550D01*
X127665980Y-31331343D01*
X127727901Y-31023353D01*
X127736472Y-30750219D01*
X127752049Y-30357405D01*
X127825943Y-30130204D01*
X127998899Y-29979561D01*
X128119387Y-29913287D01*
X128502302Y-29715274D01*
X128502302Y-30647438D01*
X128476493Y-31294714D01*
X128380566Y-31729271D01*
X128186767Y-31990125D01*
X127867342Y-32116293D01*
X127435667Y-32146955D01*
X127025550Y-32119294D01*
X126712611Y-32048598D01*
X126613256Y-31993789D01*
X126560656Y-31816071D01*
X126518274Y-31428446D01*
X126486111Y-30876079D01*
X126464166Y-30204134D01*
X126452440Y-29457775D01*
X126450932Y-28682168D01*
X126459642Y-27922477D01*
X126478570Y-27223867D01*
X126507717Y-26631502D01*
X126547082Y-26190547D01*
X126596666Y-25946167D01*
X126613256Y-25918211D01*
X126821650Y-25830681D01*
X127185991Y-25775241D01*
X127435667Y-25765046D01*
X127926637Y-25812012D01*
X127926637Y-25812012D01*
G37*
X127926637Y-25812012D02*
X128246623Y-25978101D01*
X128426590Y-26301097D01*
X128497503Y-26818785D01*
X128502302Y-27066550D01*
X128491797Y-27488976D01*
X128438456Y-27736032D01*
X128309536Y-27887424D01*
X128119387Y-27998714D01*
X127736472Y-28196727D01*
X127736472Y-27359795D01*
X127721449Y-26876763D01*
X127668493Y-26594692D01*
X127565780Y-26460604D01*
X127532133Y-26444451D01*
X127300728Y-26464680D01*
X127214992Y-26544185D01*
X127174744Y-26733855D01*
X127143590Y-27126848D01*
X127121530Y-27671373D01*
X127108563Y-28315638D01*
X127104691Y-29007853D01*
X127109913Y-29696226D01*
X127124228Y-30328966D01*
X127147637Y-30854282D01*
X127180141Y-31220382D01*
X127214992Y-31367815D01*
X127412687Y-31482529D01*
X127532133Y-31467550D01*
X127665980Y-31331343D01*
X127727901Y-31023353D01*
X127736472Y-30750219D01*
X127752049Y-30357405D01*
X127825943Y-30130204D01*
X127998899Y-29979561D01*
X128119387Y-29913287D01*
X128502302Y-29715274D01*
X128502302Y-30647438D01*
X128476493Y-31294714D01*
X128380566Y-31729271D01*
X128186767Y-31990125D01*
X127867342Y-32116293D01*
X127435667Y-32146955D01*
X127025550Y-32119294D01*
X126712611Y-32048598D01*
X126613256Y-31993789D01*
X126560656Y-31816071D01*
X126518274Y-31428446D01*
X126486111Y-30876079D01*
X126464166Y-30204134D01*
X126452440Y-29457775D01*
X126450932Y-28682168D01*
X126459642Y-27922477D01*
X126478570Y-27223867D01*
X126507717Y-26631502D01*
X126547082Y-26190547D01*
X126596666Y-25946167D01*
X126613256Y-25918211D01*
X126821650Y-25830681D01*
X127185991Y-25775241D01*
X127435667Y-25765046D01*
X127926637Y-25812012D01*
G36*
X133082494Y-25783287D02*
X133444348Y-25864285D01*
X133673604Y-26047451D01*
X133799981Y-26372196D01*
X133853195Y-26877931D01*
X133863106Y-27495399D01*
X133842425Y-28233007D01*
X133769389Y-28751892D01*
X133627511Y-29086079D01*
X133400299Y-29269587D01*
X133071266Y-29336441D01*
X132969638Y-29338915D01*
X132586724Y-29338915D01*
X132586724Y-32146955D01*
X131820895Y-32146955D01*
X131820895Y-27551980D01*
X132586724Y-27551980D01*
X132592053Y-28060739D01*
X132616600Y-28365650D01*
X132673201Y-28518064D01*
X132774694Y-28569328D01*
X132842000Y-28573086D01*
X132969190Y-28551768D01*
X133045418Y-28453581D01*
X133083521Y-28227175D01*
X133096337Y-27821202D01*
X133097276Y-27551980D01*
X133091947Y-27043221D01*
X133067400Y-26738310D01*
X133010799Y-26585897D01*
X132909306Y-26534632D01*
X132842000Y-26530875D01*
X132714810Y-26552193D01*
X132638583Y-26650380D01*
X132600479Y-26876785D01*
X132587663Y-27282758D01*
X132586724Y-27551980D01*
X131820895Y-27551980D01*
X131820895Y-25765046D01*
X132558323Y-25765046D01*
X133082494Y-25783287D01*
X133082494Y-25783287D01*
G37*
X133082494Y-25783287D02*
X133444348Y-25864285D01*
X133673604Y-26047451D01*
X133799981Y-26372196D01*
X133853195Y-26877931D01*
X133863106Y-27495399D01*
X133842425Y-28233007D01*
X133769389Y-28751892D01*
X133627511Y-29086079D01*
X133400299Y-29269587D01*
X133071266Y-29336441D01*
X132969638Y-29338915D01*
X132586724Y-29338915D01*
X132586724Y-32146955D01*
X131820895Y-32146955D01*
X131820895Y-27551980D01*
X132586724Y-27551980D01*
X132592053Y-28060739D01*
X132616600Y-28365650D01*
X132673201Y-28518064D01*
X132774694Y-28569328D01*
X132842000Y-28573086D01*
X132969190Y-28551768D01*
X133045418Y-28453581D01*
X133083521Y-28227175D01*
X133096337Y-27821202D01*
X133097276Y-27551980D01*
X133091947Y-27043221D01*
X133067400Y-26738310D01*
X133010799Y-26585897D01*
X132909306Y-26534632D01*
X132842000Y-26530875D01*
X132714810Y-26552193D01*
X132638583Y-26650380D01*
X132600479Y-26876785D01*
X132587663Y-27282758D01*
X132586724Y-27551980D01*
X131820895Y-27551980D01*
X131820895Y-25765046D01*
X132558323Y-25765046D01*
X133082494Y-25783287D01*
G36*
X139001702Y-25766377D02*
X139102919Y-25789939D01*
X139168978Y-25865083D01*
X139199613Y-26021162D01*
X139194558Y-26287527D01*
X139153545Y-26693531D01*
X139076309Y-27268525D01*
X138962582Y-28041861D01*
X138837361Y-28874836D01*
X138688207Y-29867848D01*
X138571148Y-30637093D01*
X138478975Y-31211039D01*
X138404481Y-31618150D01*
X138340456Y-31886892D01*
X138279692Y-32045733D01*
X138214980Y-32123138D01*
X138139112Y-32147573D01*
X138044878Y-32147503D01*
X138008738Y-32146955D01*
X137740887Y-32096072D01*
X137624865Y-32013546D01*
X137585298Y-31858470D01*
X137515742Y-31494442D01*
X137423077Y-30965109D01*
X137314185Y-30314120D01*
X137195945Y-29585123D01*
X137075237Y-28821764D01*
X136958942Y-28067692D01*
X136853939Y-27366556D01*
X136767108Y-26762002D01*
X136705330Y-26297678D01*
X136675484Y-26017233D01*
X136673805Y-25979934D01*
X136733123Y-25813896D01*
X136957280Y-25782226D01*
X137022151Y-25788477D01*
X137170753Y-25814281D01*
X137278095Y-25880151D01*
X137360210Y-26029040D01*
X137433128Y-26303899D01*
X137512882Y-26747678D01*
X137608914Y-27360523D01*
X137706312Y-27971780D01*
X137796757Y-28500822D01*
X137870101Y-28890686D01*
X137915905Y-29083638D01*
X137958543Y-29035793D01*
X138027272Y-28774063D01*
X138113814Y-28337516D01*
X138209891Y-27765221D01*
X138247209Y-27520071D01*
X138507279Y-25765046D01*
X138865594Y-25765046D01*
X139001702Y-25766377D01*
X139001702Y-25766377D01*
G37*
X139001702Y-25766377D02*
X139102919Y-25789939D01*
X139168978Y-25865083D01*
X139199613Y-26021162D01*
X139194558Y-26287527D01*
X139153545Y-26693531D01*
X139076309Y-27268525D01*
X138962582Y-28041861D01*
X138837361Y-28874836D01*
X138688207Y-29867848D01*
X138571148Y-30637093D01*
X138478975Y-31211039D01*
X138404481Y-31618150D01*
X138340456Y-31886892D01*
X138279692Y-32045733D01*
X138214980Y-32123138D01*
X138139112Y-32147573D01*
X138044878Y-32147503D01*
X138008738Y-32146955D01*
X137740887Y-32096072D01*
X137624865Y-32013546D01*
X137585298Y-31858470D01*
X137515742Y-31494442D01*
X137423077Y-30965109D01*
X137314185Y-30314120D01*
X137195945Y-29585123D01*
X137075237Y-28821764D01*
X136958942Y-28067692D01*
X136853939Y-27366556D01*
X136767108Y-26762002D01*
X136705330Y-26297678D01*
X136675484Y-26017233D01*
X136673805Y-25979934D01*
X136733123Y-25813896D01*
X136957280Y-25782226D01*
X137022151Y-25788477D01*
X137170753Y-25814281D01*
X137278095Y-25880151D01*
X137360210Y-26029040D01*
X137433128Y-26303899D01*
X137512882Y-26747678D01*
X137608914Y-27360523D01*
X137706312Y-27971780D01*
X137796757Y-28500822D01*
X137870101Y-28890686D01*
X137915905Y-29083638D01*
X137958543Y-29035793D01*
X138027272Y-28774063D01*
X138113814Y-28337516D01*
X138209891Y-27765221D01*
X138247209Y-27520071D01*
X138507279Y-25765046D01*
X138865594Y-25765046D01*
X139001702Y-25766377D01*
G36*
X97888677Y-134959800D02*
X98317634Y-135040915D01*
X98434676Y-135065511D01*
X98990211Y-135174535D01*
X99673105Y-135296329D01*
X100357838Y-135408750D01*
X100527731Y-135434771D01*
X101062387Y-135525887D01*
X101503805Y-135621175D01*
X101788936Y-135706038D01*
X101855510Y-135742173D01*
X101848600Y-135913281D01*
X101638766Y-136234899D01*
X101389841Y-136528399D01*
X101026647Y-136959049D01*
X100843968Y-137256791D01*
X100829956Y-137456535D01*
X100972766Y-137593193D01*
X101020522Y-137616669D01*
X101184785Y-137635936D01*
X101581808Y-137656844D01*
X102189084Y-137678869D01*
X102984108Y-137701483D01*
X103944371Y-137724161D01*
X105047368Y-137746377D01*
X106270591Y-137767605D01*
X107591534Y-137787320D01*
X108987690Y-137804996D01*
X109169485Y-137807070D01*
X110589007Y-137824395D01*
X111948180Y-137843532D01*
X113222855Y-137863976D01*
X114388880Y-137885220D01*
X115422105Y-137906759D01*
X116298381Y-137928086D01*
X116993557Y-137948695D01*
X117483482Y-137968081D01*
X117744007Y-137985738D01*
X117753153Y-137986913D01*
X118166572Y-138067248D01*
X118369756Y-138175255D01*
X118411226Y-138289080D01*
X118374393Y-138549986D01*
X118276514Y-138964489D01*
X118136516Y-139471547D01*
X117973327Y-140010118D01*
X117805874Y-140519162D01*
X117653085Y-140937636D01*
X117533888Y-141204498D01*
X117488371Y-141265285D01*
X117341226Y-141279280D01*
X116960707Y-141291858D01*
X116368714Y-141303008D01*
X115587145Y-141312719D01*
X114637898Y-141320980D01*
X113542874Y-141327779D01*
X112323970Y-141333105D01*
X111003086Y-141336947D01*
X109602120Y-141339292D01*
X108142971Y-141340131D01*
X106647539Y-141339450D01*
X105137721Y-141337240D01*
X103635418Y-141333488D01*
X102162527Y-141328184D01*
X100740948Y-141321315D01*
X99392579Y-141312871D01*
X98139319Y-141302841D01*
X97003068Y-141291212D01*
X96005724Y-141277973D01*
X95909901Y-141276488D01*
X95022752Y-141258349D01*
X94363140Y-141234169D01*
X93903350Y-141201622D01*
X93615669Y-141158381D01*
X93472385Y-141102118D01*
X93446712Y-141069678D01*
X93500155Y-140931333D01*
X93675417Y-140615653D01*
X93950622Y-140156296D01*
X94303893Y-139586918D01*
X94713354Y-138941179D01*
X95157128Y-138252734D01*
X95613338Y-137555242D01*
X96060110Y-136882360D01*
X96475565Y-136267746D01*
X96837828Y-135745056D01*
X97125023Y-135347949D01*
X97315272Y-135110081D01*
X97331420Y-135092941D01*
X97463073Y-134984134D01*
X97626324Y-134940314D01*
X97888677Y-134959800D01*
X97888677Y-134959800D01*
G37*
X97888677Y-134959800D02*
X98317634Y-135040915D01*
X98434676Y-135065511D01*
X98990211Y-135174535D01*
X99673105Y-135296329D01*
X100357838Y-135408750D01*
X100527731Y-135434771D01*
X101062387Y-135525887D01*
X101503805Y-135621175D01*
X101788936Y-135706038D01*
X101855510Y-135742173D01*
X101848600Y-135913281D01*
X101638766Y-136234899D01*
X101389841Y-136528399D01*
X101026647Y-136959049D01*
X100843968Y-137256791D01*
X100829956Y-137456535D01*
X100972766Y-137593193D01*
X101020522Y-137616669D01*
X101184785Y-137635936D01*
X101581808Y-137656844D01*
X102189084Y-137678869D01*
X102984108Y-137701483D01*
X103944371Y-137724161D01*
X105047368Y-137746377D01*
X106270591Y-137767605D01*
X107591534Y-137787320D01*
X108987690Y-137804996D01*
X109169485Y-137807070D01*
X110589007Y-137824395D01*
X111948180Y-137843532D01*
X113222855Y-137863976D01*
X114388880Y-137885220D01*
X115422105Y-137906759D01*
X116298381Y-137928086D01*
X116993557Y-137948695D01*
X117483482Y-137968081D01*
X117744007Y-137985738D01*
X117753153Y-137986913D01*
X118166572Y-138067248D01*
X118369756Y-138175255D01*
X118411226Y-138289080D01*
X118374393Y-138549986D01*
X118276514Y-138964489D01*
X118136516Y-139471547D01*
X117973327Y-140010118D01*
X117805874Y-140519162D01*
X117653085Y-140937636D01*
X117533888Y-141204498D01*
X117488371Y-141265285D01*
X117341226Y-141279280D01*
X116960707Y-141291858D01*
X116368714Y-141303008D01*
X115587145Y-141312719D01*
X114637898Y-141320980D01*
X113542874Y-141327779D01*
X112323970Y-141333105D01*
X111003086Y-141336947D01*
X109602120Y-141339292D01*
X108142971Y-141340131D01*
X106647539Y-141339450D01*
X105137721Y-141337240D01*
X103635418Y-141333488D01*
X102162527Y-141328184D01*
X100740948Y-141321315D01*
X99392579Y-141312871D01*
X98139319Y-141302841D01*
X97003068Y-141291212D01*
X96005724Y-141277973D01*
X95909901Y-141276488D01*
X95022752Y-141258349D01*
X94363140Y-141234169D01*
X93903350Y-141201622D01*
X93615669Y-141158381D01*
X93472385Y-141102118D01*
X93446712Y-141069678D01*
X93500155Y-140931333D01*
X93675417Y-140615653D01*
X93950622Y-140156296D01*
X94303893Y-139586918D01*
X94713354Y-138941179D01*
X95157128Y-138252734D01*
X95613338Y-137555242D01*
X96060110Y-136882360D01*
X96475565Y-136267746D01*
X96837828Y-135745056D01*
X97125023Y-135347949D01*
X97315272Y-135110081D01*
X97331420Y-135092941D01*
X97463073Y-134984134D01*
X97626324Y-134940314D01*
X97888677Y-134959800D01*
G36*
X171471696Y-135216576D02*
X171654105Y-135454860D01*
X171939154Y-135847852D01*
X172303655Y-136361756D01*
X172724421Y-136962781D01*
X173178262Y-137617133D01*
X173641991Y-138291018D01*
X174092421Y-138950643D01*
X174506364Y-139562215D01*
X174860630Y-140091940D01*
X175132034Y-140506025D01*
X175297386Y-140770676D01*
X175337859Y-140851012D01*
X175235928Y-140986313D01*
X175135963Y-141039309D01*
X174954687Y-141059288D01*
X174545371Y-141074653D01*
X173935204Y-141085530D01*
X173151378Y-141092049D01*
X172221083Y-141094336D01*
X171171511Y-141092521D01*
X170029853Y-141086732D01*
X168823300Y-141077096D01*
X167579042Y-141063742D01*
X166324271Y-141046798D01*
X165086177Y-141026392D01*
X163891952Y-141002652D01*
X163020774Y-140982216D01*
X162168584Y-140963867D01*
X161105541Y-140946094D01*
X159876070Y-140929364D01*
X158524594Y-140914140D01*
X157095538Y-140900889D01*
X155633325Y-140890076D01*
X154182379Y-140882166D01*
X153102688Y-140878351D01*
X146630833Y-140861507D01*
X146556180Y-140382864D01*
X146485095Y-139998781D01*
X146376934Y-139491199D01*
X146280093Y-139074572D01*
X146130501Y-138446232D01*
X146041350Y-138021230D01*
X146009681Y-137755630D01*
X146032533Y-137605493D01*
X146106949Y-137526880D01*
X146173786Y-137496276D01*
X146337190Y-137479438D01*
X146733082Y-137459688D01*
X147338697Y-137437620D01*
X148131270Y-137413826D01*
X149088037Y-137388898D01*
X150186233Y-137363428D01*
X151403094Y-137338009D01*
X152715855Y-137313233D01*
X154101750Y-137289692D01*
X154131080Y-137289221D01*
X155545171Y-137265576D01*
X156907690Y-137240901D01*
X158192931Y-137215785D01*
X159375190Y-137190817D01*
X160428762Y-137166588D01*
X161327941Y-137143684D01*
X162047024Y-137122697D01*
X162560304Y-137104214D01*
X162829316Y-137089877D01*
X164099504Y-137107577D01*
X164762992Y-137206322D01*
X165397993Y-137313901D01*
X165840540Y-137332799D01*
X166142512Y-137248266D01*
X166355791Y-137045550D01*
X166532258Y-136709902D01*
X166535491Y-136702379D01*
X166711799Y-136353027D01*
X166905274Y-136173369D01*
X167203535Y-136087739D01*
X167257115Y-136079179D01*
X167556759Y-136011987D01*
X168037386Y-135879786D01*
X168638446Y-135700200D01*
X169299387Y-135490851D01*
X169464147Y-135436832D01*
X171184907Y-134868630D01*
X171471696Y-135216576D01*
X171471696Y-135216576D01*
G37*
X171471696Y-135216576D02*
X171654105Y-135454860D01*
X171939154Y-135847852D01*
X172303655Y-136361756D01*
X172724421Y-136962781D01*
X173178262Y-137617133D01*
X173641991Y-138291018D01*
X174092421Y-138950643D01*
X174506364Y-139562215D01*
X174860630Y-140091940D01*
X175132034Y-140506025D01*
X175297386Y-140770676D01*
X175337859Y-140851012D01*
X175235928Y-140986313D01*
X175135963Y-141039309D01*
X174954687Y-141059288D01*
X174545371Y-141074653D01*
X173935204Y-141085530D01*
X173151378Y-141092049D01*
X172221083Y-141094336D01*
X171171511Y-141092521D01*
X170029853Y-141086732D01*
X168823300Y-141077096D01*
X167579042Y-141063742D01*
X166324271Y-141046798D01*
X165086177Y-141026392D01*
X163891952Y-141002652D01*
X163020774Y-140982216D01*
X162168584Y-140963867D01*
X161105541Y-140946094D01*
X159876070Y-140929364D01*
X158524594Y-140914140D01*
X157095538Y-140900889D01*
X155633325Y-140890076D01*
X154182379Y-140882166D01*
X153102688Y-140878351D01*
X146630833Y-140861507D01*
X146556180Y-140382864D01*
X146485095Y-139998781D01*
X146376934Y-139491199D01*
X146280093Y-139074572D01*
X146130501Y-138446232D01*
X146041350Y-138021230D01*
X146009681Y-137755630D01*
X146032533Y-137605493D01*
X146106949Y-137526880D01*
X146173786Y-137496276D01*
X146337190Y-137479438D01*
X146733082Y-137459688D01*
X147338697Y-137437620D01*
X148131270Y-137413826D01*
X149088037Y-137388898D01*
X150186233Y-137363428D01*
X151403094Y-137338009D01*
X152715855Y-137313233D01*
X154101750Y-137289692D01*
X154131080Y-137289221D01*
X155545171Y-137265576D01*
X156907690Y-137240901D01*
X158192931Y-137215785D01*
X159375190Y-137190817D01*
X160428762Y-137166588D01*
X161327941Y-137143684D01*
X162047024Y-137122697D01*
X162560304Y-137104214D01*
X162829316Y-137089877D01*
X164099504Y-137107577D01*
X164762992Y-137206322D01*
X165397993Y-137313901D01*
X165840540Y-137332799D01*
X166142512Y-137248266D01*
X166355791Y-137045550D01*
X166532258Y-136709902D01*
X166535491Y-136702379D01*
X166711799Y-136353027D01*
X166905274Y-136173369D01*
X167203535Y-136087739D01*
X167257115Y-136079179D01*
X167556759Y-136011987D01*
X168037386Y-135879786D01*
X168638446Y-135700200D01*
X169299387Y-135490851D01*
X169464147Y-135436832D01*
X171184907Y-134868630D01*
X171471696Y-135216576D01*
G36*
X102172346Y-128673483D02*
X102506801Y-128852212D01*
X102965449Y-129118935D01*
X103503323Y-129448154D01*
X103639180Y-129533618D01*
X104199278Y-129887145D01*
X104698208Y-130200789D01*
X105087733Y-130444317D01*
X105319620Y-130587497D01*
X105343000Y-130601528D01*
X105480242Y-130699949D01*
X105512018Y-130821656D01*
X105434749Y-131041843D01*
X105309602Y-131303538D01*
X105055514Y-131740866D01*
X104724445Y-132210295D01*
X104565737Y-132405477D01*
X104118435Y-132803869D01*
X103666187Y-132954313D01*
X103180643Y-132863064D01*
X102967005Y-132758174D01*
X102706745Y-132633832D01*
X102280209Y-132453945D01*
X101761394Y-132249195D01*
X101515645Y-132156416D01*
X101018517Y-131959344D01*
X100619747Y-131778283D01*
X100375518Y-131639912D01*
X100327641Y-131592258D01*
X100344621Y-131411948D01*
X100440140Y-131064543D01*
X100594728Y-130618663D01*
X100630257Y-130525676D01*
X100883897Y-129965667D01*
X101184289Y-129444238D01*
X101495757Y-129011071D01*
X101782627Y-128715850D01*
X102007050Y-128608241D01*
X102172346Y-128673483D01*
X102172346Y-128673483D01*
G37*
X102172346Y-128673483D02*
X102506801Y-128852212D01*
X102965449Y-129118935D01*
X103503323Y-129448154D01*
X103639180Y-129533618D01*
X104199278Y-129887145D01*
X104698208Y-130200789D01*
X105087733Y-130444317D01*
X105319620Y-130587497D01*
X105343000Y-130601528D01*
X105480242Y-130699949D01*
X105512018Y-130821656D01*
X105434749Y-131041843D01*
X105309602Y-131303538D01*
X105055514Y-131740866D01*
X104724445Y-132210295D01*
X104565737Y-132405477D01*
X104118435Y-132803869D01*
X103666187Y-132954313D01*
X103180643Y-132863064D01*
X102967005Y-132758174D01*
X102706745Y-132633832D01*
X102280209Y-132453945D01*
X101761394Y-132249195D01*
X101515645Y-132156416D01*
X101018517Y-131959344D01*
X100619747Y-131778283D01*
X100375518Y-131639912D01*
X100327641Y-131592258D01*
X100344621Y-131411948D01*
X100440140Y-131064543D01*
X100594728Y-130618663D01*
X100630257Y-130525676D01*
X100883897Y-129965667D01*
X101184289Y-129444238D01*
X101495757Y-129011071D01*
X101782627Y-128715850D01*
X102007050Y-128608241D01*
X102172346Y-128673483D01*
G36*
X165970427Y-127145614D02*
X166180536Y-127365489D01*
X166469040Y-127755377D01*
X166850253Y-128334447D01*
X167279624Y-129025313D01*
X167619692Y-129645763D01*
X167781301Y-130121439D01*
X167767348Y-130487224D01*
X167580728Y-130778002D01*
X167435087Y-130898041D01*
X167168422Y-131061939D01*
X166744797Y-131293009D01*
X166212734Y-131567759D01*
X165620758Y-131862700D01*
X165017390Y-132154341D01*
X164451153Y-132419191D01*
X163970571Y-132633760D01*
X163624166Y-132774558D01*
X163467507Y-132818789D01*
X163251318Y-132743241D01*
X162949275Y-132556792D01*
X162860585Y-132490038D01*
X162648056Y-132253923D01*
X162382677Y-131864998D01*
X162102646Y-131392482D01*
X161846158Y-130905590D01*
X161651408Y-130473540D01*
X161556592Y-130165551D01*
X161552934Y-130120338D01*
X161652654Y-130000373D01*
X161913963Y-129793224D01*
X162276711Y-129546096D01*
X162668911Y-129282311D01*
X163192559Y-128912279D01*
X163777492Y-128486334D01*
X164320639Y-128079842D01*
X164829927Y-127703074D01*
X165277696Y-127390857D01*
X165619660Y-127172739D01*
X165811534Y-127078264D01*
X165824398Y-127076583D01*
X165970427Y-127145614D01*
X165970427Y-127145614D01*
G37*
X165970427Y-127145614D02*
X166180536Y-127365489D01*
X166469040Y-127755377D01*
X166850253Y-128334447D01*
X167279624Y-129025313D01*
X167619692Y-129645763D01*
X167781301Y-130121439D01*
X167767348Y-130487224D01*
X167580728Y-130778002D01*
X167435087Y-130898041D01*
X167168422Y-131061939D01*
X166744797Y-131293009D01*
X166212734Y-131567759D01*
X165620758Y-131862700D01*
X165017390Y-132154341D01*
X164451153Y-132419191D01*
X163970571Y-132633760D01*
X163624166Y-132774558D01*
X163467507Y-132818789D01*
X163251318Y-132743241D01*
X162949275Y-132556792D01*
X162860585Y-132490038D01*
X162648056Y-132253923D01*
X162382677Y-131864998D01*
X162102646Y-131392482D01*
X161846158Y-130905590D01*
X161651408Y-130473540D01*
X161556592Y-130165551D01*
X161552934Y-130120338D01*
X161652654Y-130000373D01*
X161913963Y-129793224D01*
X162276711Y-129546096D01*
X162668911Y-129282311D01*
X163192559Y-128912279D01*
X163777492Y-128486334D01*
X164320639Y-128079842D01*
X164829927Y-127703074D01*
X165277696Y-127390857D01*
X165619660Y-127172739D01*
X165811534Y-127078264D01*
X165824398Y-127076583D01*
X165970427Y-127145614D01*
G36*
X106524006Y-122065647D02*
X106782945Y-122325590D01*
X107135719Y-122715133D01*
X107550628Y-123198525D01*
X107995968Y-123740014D01*
X108307613Y-124132912D01*
X108625564Y-124528197D01*
X108917076Y-124870110D01*
X109110772Y-125076303D01*
X109252266Y-125255339D01*
X109289060Y-125464835D01*
X109208535Y-125746654D01*
X108998071Y-126142657D01*
X108645048Y-126694706D01*
X108604607Y-126755337D01*
X108081455Y-127504986D01*
X107659519Y-128035094D01*
X107329347Y-128356163D01*
X107081492Y-128478693D01*
X107052246Y-128480603D01*
X106842167Y-128407398D01*
X106503519Y-128214736D01*
X106106735Y-127943048D01*
X106076272Y-127920370D01*
X105582564Y-127536240D01*
X105063164Y-127110003D01*
X104709139Y-126803536D01*
X104089966Y-126246934D01*
X105008620Y-124541890D01*
X105346740Y-123907961D01*
X105654571Y-123319106D01*
X105905066Y-122827915D01*
X106071176Y-122486983D01*
X106108149Y-122403950D01*
X106251130Y-122121166D01*
X106373004Y-121976113D01*
X106390605Y-121971055D01*
X106524006Y-122065647D01*
X106524006Y-122065647D01*
G37*
X106524006Y-122065647D02*
X106782945Y-122325590D01*
X107135719Y-122715133D01*
X107550628Y-123198525D01*
X107995968Y-123740014D01*
X108307613Y-124132912D01*
X108625564Y-124528197D01*
X108917076Y-124870110D01*
X109110772Y-125076303D01*
X109252266Y-125255339D01*
X109289060Y-125464835D01*
X109208535Y-125746654D01*
X108998071Y-126142657D01*
X108645048Y-126694706D01*
X108604607Y-126755337D01*
X108081455Y-127504986D01*
X107659519Y-128035094D01*
X107329347Y-128356163D01*
X107081492Y-128478693D01*
X107052246Y-128480603D01*
X106842167Y-128407398D01*
X106503519Y-128214736D01*
X106106735Y-127943048D01*
X106076272Y-127920370D01*
X105582564Y-127536240D01*
X105063164Y-127110003D01*
X104709139Y-126803536D01*
X104089966Y-126246934D01*
X105008620Y-124541890D01*
X105346740Y-123907961D01*
X105654571Y-123319106D01*
X105905066Y-122827915D01*
X106071176Y-122486983D01*
X106108149Y-122403950D01*
X106251130Y-122121166D01*
X106373004Y-121976113D01*
X106390605Y-121971055D01*
X106524006Y-122065647D01*
G36*
X161072204Y-120840701D02*
X161283573Y-121110828D01*
X161595592Y-121536729D01*
X161967494Y-122061652D01*
X162358509Y-122628848D01*
X162388524Y-122673065D01*
X162761154Y-123221347D01*
X163097705Y-123714110D01*
X163364143Y-124101692D01*
X163526438Y-124334429D01*
X163538961Y-124351898D01*
X163620813Y-124487430D01*
X163624679Y-124613499D01*
X163521939Y-124771532D01*
X163283974Y-125002958D01*
X162882163Y-125349204D01*
X162804760Y-125414644D01*
X162139484Y-125953996D01*
X161480690Y-126447328D01*
X160866560Y-126869509D01*
X160335272Y-127195409D01*
X159925007Y-127399900D01*
X159697983Y-127459497D01*
X159378033Y-127339855D01*
X159086805Y-127044673D01*
X158905015Y-126776820D01*
X158653913Y-126375586D01*
X158362964Y-125891925D01*
X158061631Y-125376793D01*
X157779379Y-124881144D01*
X157545670Y-124455932D01*
X157389969Y-124152111D01*
X157340874Y-124025267D01*
X157425138Y-123907485D01*
X157659722Y-123636447D01*
X158017314Y-123242234D01*
X158470602Y-122754928D01*
X158992274Y-122204610D01*
X159024334Y-122171100D01*
X160707794Y-120412357D01*
X161072204Y-120840701D01*
X161072204Y-120840701D01*
G37*
X161072204Y-120840701D02*
X161283573Y-121110828D01*
X161595592Y-121536729D01*
X161967494Y-122061652D01*
X162358509Y-122628848D01*
X162388524Y-122673065D01*
X162761154Y-123221347D01*
X163097705Y-123714110D01*
X163364143Y-124101692D01*
X163526438Y-124334429D01*
X163538961Y-124351898D01*
X163620813Y-124487430D01*
X163624679Y-124613499D01*
X163521939Y-124771532D01*
X163283974Y-125002958D01*
X162882163Y-125349204D01*
X162804760Y-125414644D01*
X162139484Y-125953996D01*
X161480690Y-126447328D01*
X160866560Y-126869509D01*
X160335272Y-127195409D01*
X159925007Y-127399900D01*
X159697983Y-127459497D01*
X159378033Y-127339855D01*
X159086805Y-127044673D01*
X158905015Y-126776820D01*
X158653913Y-126375586D01*
X158362964Y-125891925D01*
X158061631Y-125376793D01*
X157779379Y-124881144D01*
X157545670Y-124455932D01*
X157389969Y-124152111D01*
X157340874Y-124025267D01*
X157425138Y-123907485D01*
X157659722Y-123636447D01*
X158017314Y-123242234D01*
X158470602Y-122754928D01*
X158992274Y-122204610D01*
X159024334Y-122171100D01*
X160707794Y-120412357D01*
X161072204Y-120840701D01*
G36*
X152426804Y-108451205D02*
X153639367Y-110195245D01*
X154137713Y-110901520D01*
X154676258Y-111647273D01*
X155200194Y-112357667D01*
X155654711Y-112957863D01*
X155787116Y-113127879D01*
X156222532Y-113700226D01*
X156667076Y-114317465D01*
X157094403Y-114939202D01*
X157478169Y-115525045D01*
X157792026Y-116034601D01*
X158009631Y-116427477D01*
X158104638Y-116663280D01*
X158106703Y-116684283D01*
X158198972Y-116871027D01*
X158421344Y-117094480D01*
X158425799Y-117098000D01*
X158647525Y-117296794D01*
X158744709Y-117432212D01*
X158744894Y-117435306D01*
X158668221Y-117626916D01*
X158458722Y-117967096D01*
X158147177Y-118416634D01*
X157764367Y-118936319D01*
X157341073Y-119486942D01*
X156908074Y-120029291D01*
X156496151Y-120524156D01*
X156136084Y-120932326D01*
X155858654Y-121214590D01*
X155694641Y-121331738D01*
X155685312Y-121332864D01*
X155546032Y-121248994D01*
X155329269Y-121046306D01*
X155320912Y-121037452D01*
X155091618Y-120709764D01*
X155091151Y-120426919D01*
X155327889Y-120150574D01*
X155548452Y-119996127D01*
X156035434Y-119634590D01*
X156274050Y-119305973D01*
X156264835Y-118986501D01*
X156008324Y-118652398D01*
X155585849Y-118332270D01*
X155066903Y-117976015D01*
X154467564Y-117541700D01*
X153819477Y-117054755D01*
X153154288Y-116540609D01*
X152503641Y-116024693D01*
X151899183Y-115532437D01*
X151372560Y-115089270D01*
X150955415Y-114720622D01*
X150679396Y-114451923D01*
X150576147Y-114308604D01*
X150576050Y-114306453D01*
X150511497Y-113914577D01*
X150299079Y-113716000D01*
X150023135Y-113674572D01*
X149789025Y-113637862D01*
X149534195Y-113505846D01*
X149210203Y-113245693D01*
X148768610Y-112824576D01*
X148767899Y-112823871D01*
X147910628Y-111973169D01*
X148796606Y-111272166D01*
X149193646Y-110938832D01*
X149498680Y-110646219D01*
X149665168Y-110440594D01*
X149682583Y-110391361D01*
X149597752Y-110058033D01*
X149332443Y-109639074D01*
X148870426Y-109109467D01*
X148811069Y-109047688D01*
X148224340Y-108441407D01*
X152426804Y-108451205D01*
X152426804Y-108451205D01*
G37*
X152426804Y-108451205D02*
X153639367Y-110195245D01*
X154137713Y-110901520D01*
X154676258Y-111647273D01*
X155200194Y-112357667D01*
X155654711Y-112957863D01*
X155787116Y-113127879D01*
X156222532Y-113700226D01*
X156667076Y-114317465D01*
X157094403Y-114939202D01*
X157478169Y-115525045D01*
X157792026Y-116034601D01*
X158009631Y-116427477D01*
X158104638Y-116663280D01*
X158106703Y-116684283D01*
X158198972Y-116871027D01*
X158421344Y-117094480D01*
X158425799Y-117098000D01*
X158647525Y-117296794D01*
X158744709Y-117432212D01*
X158744894Y-117435306D01*
X158668221Y-117626916D01*
X158458722Y-117967096D01*
X158147177Y-118416634D01*
X157764367Y-118936319D01*
X157341073Y-119486942D01*
X156908074Y-120029291D01*
X156496151Y-120524156D01*
X156136084Y-120932326D01*
X155858654Y-121214590D01*
X155694641Y-121331738D01*
X155685312Y-121332864D01*
X155546032Y-121248994D01*
X155329269Y-121046306D01*
X155320912Y-121037452D01*
X155091618Y-120709764D01*
X155091151Y-120426919D01*
X155327889Y-120150574D01*
X155548452Y-119996127D01*
X156035434Y-119634590D01*
X156274050Y-119305973D01*
X156264835Y-118986501D01*
X156008324Y-118652398D01*
X155585849Y-118332270D01*
X155066903Y-117976015D01*
X154467564Y-117541700D01*
X153819477Y-117054755D01*
X153154288Y-116540609D01*
X152503641Y-116024693D01*
X151899183Y-115532437D01*
X151372560Y-115089270D01*
X150955415Y-114720622D01*
X150679396Y-114451923D01*
X150576147Y-114308604D01*
X150576050Y-114306453D01*
X150511497Y-113914577D01*
X150299079Y-113716000D01*
X150023135Y-113674572D01*
X149789025Y-113637862D01*
X149534195Y-113505846D01*
X149210203Y-113245693D01*
X148768610Y-112824576D01*
X148767899Y-112823871D01*
X147910628Y-111973169D01*
X148796606Y-111272166D01*
X149193646Y-110938832D01*
X149498680Y-110646219D01*
X149665168Y-110440594D01*
X149682583Y-110391361D01*
X149597752Y-110058033D01*
X149332443Y-109639074D01*
X148870426Y-109109467D01*
X148811069Y-109047688D01*
X148224340Y-108441407D01*
X152426804Y-108451205D01*
G36*
X117743741Y-108792412D02*
X117366925Y-109078125D01*
X116917207Y-109405694D01*
X116705085Y-109555610D01*
X116348827Y-109831349D01*
X116169034Y-110061235D01*
X116114339Y-110314560D01*
X116113738Y-110353349D01*
X116147664Y-110623382D01*
X116229477Y-110738834D01*
X116231558Y-110738894D01*
X116439966Y-110838933D01*
X116699134Y-111085488D01*
X116942774Y-111398218D01*
X117104593Y-111696781D01*
X117134844Y-111833637D01*
X117089892Y-112068770D01*
X117007206Y-112142914D01*
X116902818Y-112249594D01*
X116879568Y-112393158D01*
X116804085Y-112666644D01*
X116720020Y-112772445D01*
X116516429Y-112942694D01*
X116239309Y-113180377D01*
X116220797Y-113196438D01*
X115874642Y-113485726D01*
X115502646Y-113781416D01*
X115486878Y-113793528D01*
X115232319Y-114029625D01*
X115098571Y-114233683D01*
X115092633Y-114268035D01*
X115008826Y-114425132D01*
X114950508Y-114440402D01*
X114861028Y-114549950D01*
X114861363Y-114801378D01*
X114866857Y-114951718D01*
X114816257Y-115098521D01*
X114680284Y-115271576D01*
X114429662Y-115500669D01*
X114035111Y-115815587D01*
X113467354Y-116246119D01*
X113368483Y-116320234D01*
X112712758Y-116803220D01*
X112018640Y-117300797D01*
X111362032Y-117759358D01*
X110818835Y-118125297D01*
X110741938Y-118175272D01*
X110093427Y-118630272D01*
X109661205Y-119026764D01*
X109421107Y-119391952D01*
X109348914Y-119743392D01*
X109298441Y-119916478D01*
X109157443Y-119868091D01*
X108941556Y-119608914D01*
X108782324Y-119356236D01*
X108446754Y-118783628D01*
X109440296Y-117240146D01*
X109760369Y-116746379D01*
X110195400Y-116080385D01*
X110718900Y-115282444D01*
X111304381Y-114392836D01*
X111925354Y-113451840D01*
X112555330Y-112499735D01*
X112840911Y-112069035D01*
X115247983Y-108441407D01*
X118191051Y-108441407D01*
X117743741Y-108792412D01*
X117743741Y-108792412D01*
G37*
X117743741Y-108792412D02*
X117366925Y-109078125D01*
X116917207Y-109405694D01*
X116705085Y-109555610D01*
X116348827Y-109831349D01*
X116169034Y-110061235D01*
X116114339Y-110314560D01*
X116113738Y-110353349D01*
X116147664Y-110623382D01*
X116229477Y-110738834D01*
X116231558Y-110738894D01*
X116439966Y-110838933D01*
X116699134Y-111085488D01*
X116942774Y-111398218D01*
X117104593Y-111696781D01*
X117134844Y-111833637D01*
X117089892Y-112068770D01*
X117007206Y-112142914D01*
X116902818Y-112249594D01*
X116879568Y-112393158D01*
X116804085Y-112666644D01*
X116720020Y-112772445D01*
X116516429Y-112942694D01*
X116239309Y-113180377D01*
X116220797Y-113196438D01*
X115874642Y-113485726D01*
X115502646Y-113781416D01*
X115486878Y-113793528D01*
X115232319Y-114029625D01*
X115098571Y-114233683D01*
X115092633Y-114268035D01*
X115008826Y-114425132D01*
X114950508Y-114440402D01*
X114861028Y-114549950D01*
X114861363Y-114801378D01*
X114866857Y-114951718D01*
X114816257Y-115098521D01*
X114680284Y-115271576D01*
X114429662Y-115500669D01*
X114035111Y-115815587D01*
X113467354Y-116246119D01*
X113368483Y-116320234D01*
X112712758Y-116803220D01*
X112018640Y-117300797D01*
X111362032Y-117759358D01*
X110818835Y-118125297D01*
X110741938Y-118175272D01*
X110093427Y-118630272D01*
X109661205Y-119026764D01*
X109421107Y-119391952D01*
X109348914Y-119743392D01*
X109298441Y-119916478D01*
X109157443Y-119868091D01*
X108941556Y-119608914D01*
X108782324Y-119356236D01*
X108446754Y-118783628D01*
X109440296Y-117240146D01*
X109760369Y-116746379D01*
X110195400Y-116080385D01*
X110718900Y-115282444D01*
X111304381Y-114392836D01*
X111925354Y-113451840D01*
X112555330Y-112499735D01*
X112840911Y-112069035D01*
X115247983Y-108441407D01*
X118191051Y-108441407D01*
X117743741Y-108792412D01*
G36*
X120003044Y-108449211D02*
X120371897Y-108470009D01*
X120565609Y-108499876D01*
X120581075Y-108511848D01*
X120523138Y-108655614D01*
X120376805Y-108937015D01*
X120293889Y-109085237D01*
X120043047Y-109431218D01*
X119786216Y-109559260D01*
X119488787Y-109467279D01*
X119116152Y-109153192D01*
X118975798Y-109005897D01*
X118455445Y-108441407D01*
X119518260Y-108441407D01*
X120003044Y-108449211D01*
X120003044Y-108449211D01*
G37*
X120003044Y-108449211D02*
X120371897Y-108470009D01*
X120565609Y-108499876D01*
X120581075Y-108511848D01*
X120523138Y-108655614D01*
X120376805Y-108937015D01*
X120293889Y-109085237D01*
X120043047Y-109431218D01*
X119786216Y-109559260D01*
X119488787Y-109467279D01*
X119116152Y-109153192D01*
X118975798Y-109005897D01*
X118455445Y-108441407D01*
X119518260Y-108441407D01*
X120003044Y-108449211D01*
G36*
X145007012Y-136629389D02*
X145088362Y-136771135D01*
X145199751Y-137129902D01*
X145334508Y-137670085D01*
X145485963Y-138356084D01*
X145647443Y-139152293D01*
X145812279Y-140023112D01*
X145973798Y-140932936D01*
X146125330Y-141846164D01*
X146260203Y-142727192D01*
X146371746Y-143540417D01*
X146453288Y-144250237D01*
X146471595Y-144445588D01*
X146544337Y-145148086D01*
X146638629Y-145878049D01*
X146739451Y-146524967D01*
X146792566Y-146806894D01*
X146904832Y-147437528D01*
X147020297Y-148238570D01*
X147131726Y-149141551D01*
X147231888Y-150078001D01*
X147313550Y-150979450D01*
X147369479Y-151777429D01*
X147392442Y-152403467D01*
X147392554Y-152486794D01*
X147366645Y-153160141D01*
X147301941Y-153977052D01*
X147207919Y-154858048D01*
X147094055Y-155723649D01*
X146969823Y-156494375D01*
X146844702Y-157090746D01*
X146842712Y-157098564D01*
X146706024Y-157659186D01*
X146570758Y-158253917D01*
X146511476Y-158533048D01*
X146454487Y-158803426D01*
X146395533Y-159040289D01*
X146318636Y-159283994D01*
X146207816Y-159574895D01*
X146047094Y-159953346D01*
X145820490Y-160459702D01*
X145512024Y-161134317D01*
X145291917Y-161612924D01*
X144341010Y-163555891D01*
X143384823Y-165260960D01*
X142413602Y-166745474D01*
X142373936Y-166801024D01*
X142024716Y-167295293D01*
X141719100Y-167740469D01*
X141496127Y-168078978D01*
X141407850Y-168225882D01*
X141177564Y-168594493D01*
X140822607Y-169087741D01*
X140392421Y-169643577D01*
X139936448Y-170199956D01*
X139504131Y-170694830D01*
X139144911Y-171066151D01*
X139143646Y-171067343D01*
X138475398Y-171661516D01*
X137690305Y-172302143D01*
X136839863Y-172952061D01*
X135975567Y-173574106D01*
X135148914Y-174131116D01*
X134411399Y-174585928D01*
X133860801Y-174879822D01*
X133362671Y-175107863D01*
X133036625Y-175227528D01*
X132827732Y-175247190D01*
X132681060Y-175175218D01*
X132585478Y-175074177D01*
X132526884Y-174868433D01*
X132494956Y-174459523D01*
X132488088Y-173897986D01*
X132504670Y-173234362D01*
X132543096Y-172519190D01*
X132601757Y-171803010D01*
X132679044Y-171136360D01*
X132719357Y-170866693D01*
X132739830Y-170621649D01*
X132761597Y-170144528D01*
X132784360Y-169458525D01*
X132807824Y-168586832D01*
X132831693Y-167552646D01*
X132855669Y-166379160D01*
X132879457Y-165089569D01*
X132902760Y-163707067D01*
X132925282Y-162254849D01*
X132946727Y-160756108D01*
X132966798Y-159234039D01*
X132985198Y-157711837D01*
X133001632Y-156212695D01*
X133015803Y-154759809D01*
X133027415Y-153376372D01*
X133036171Y-152085580D01*
X133041774Y-150910625D01*
X133043929Y-149874703D01*
X133042340Y-149001008D01*
X133036709Y-148312734D01*
X133026741Y-147833077D01*
X133016330Y-147625269D01*
X132940721Y-146720527D01*
X133617185Y-146157429D01*
X134086109Y-145749021D01*
X134599159Y-145275209D01*
X134941212Y-144942106D01*
X135320674Y-144580029D01*
X135829466Y-144129841D01*
X136484257Y-143577627D01*
X137301717Y-142909472D01*
X138298513Y-142111461D01*
X138944504Y-141600111D01*
X139432190Y-141195916D01*
X140001954Y-140694517D01*
X140557589Y-140181414D01*
X140758121Y-139988348D01*
X141609359Y-139171399D01*
X142322180Y-138522868D01*
X142925085Y-138018030D01*
X143446576Y-137632160D01*
X143566161Y-137552301D01*
X143979164Y-137271605D01*
X144367700Y-136989893D01*
X144507606Y-136881310D01*
X144781220Y-136697918D01*
X144984124Y-136626120D01*
X145007012Y-136629389D01*
X145007012Y-136629389D01*
G37*
X145007012Y-136629389D02*
X145088362Y-136771135D01*
X145199751Y-137129902D01*
X145334508Y-137670085D01*
X145485963Y-138356084D01*
X145647443Y-139152293D01*
X145812279Y-140023112D01*
X145973798Y-140932936D01*
X146125330Y-141846164D01*
X146260203Y-142727192D01*
X146371746Y-143540417D01*
X146453288Y-144250237D01*
X146471595Y-144445588D01*
X146544337Y-145148086D01*
X146638629Y-145878049D01*
X146739451Y-146524967D01*
X146792566Y-146806894D01*
X146904832Y-147437528D01*
X147020297Y-148238570D01*
X147131726Y-149141551D01*
X147231888Y-150078001D01*
X147313550Y-150979450D01*
X147369479Y-151777429D01*
X147392442Y-152403467D01*
X147392554Y-152486794D01*
X147366645Y-153160141D01*
X147301941Y-153977052D01*
X147207919Y-154858048D01*
X147094055Y-155723649D01*
X146969823Y-156494375D01*
X146844702Y-157090746D01*
X146842712Y-157098564D01*
X146706024Y-157659186D01*
X146570758Y-158253917D01*
X146511476Y-158533048D01*
X146454487Y-158803426D01*
X146395533Y-159040289D01*
X146318636Y-159283994D01*
X146207816Y-159574895D01*
X146047094Y-159953346D01*
X145820490Y-160459702D01*
X145512024Y-161134317D01*
X145291917Y-161612924D01*
X144341010Y-163555891D01*
X143384823Y-165260960D01*
X142413602Y-166745474D01*
X142373936Y-166801024D01*
X142024716Y-167295293D01*
X141719100Y-167740469D01*
X141496127Y-168078978D01*
X141407850Y-168225882D01*
X141177564Y-168594493D01*
X140822607Y-169087741D01*
X140392421Y-169643577D01*
X139936448Y-170199956D01*
X139504131Y-170694830D01*
X139144911Y-171066151D01*
X139143646Y-171067343D01*
X138475398Y-171661516D01*
X137690305Y-172302143D01*
X136839863Y-172952061D01*
X135975567Y-173574106D01*
X135148914Y-174131116D01*
X134411399Y-174585928D01*
X133860801Y-174879822D01*
X133362671Y-175107863D01*
X133036625Y-175227528D01*
X132827732Y-175247190D01*
X132681060Y-175175218D01*
X132585478Y-175074177D01*
X132526884Y-174868433D01*
X132494956Y-174459523D01*
X132488088Y-173897986D01*
X132504670Y-173234362D01*
X132543096Y-172519190D01*
X132601757Y-171803010D01*
X132679044Y-171136360D01*
X132719357Y-170866693D01*
X132739830Y-170621649D01*
X132761597Y-170144528D01*
X132784360Y-169458525D01*
X132807824Y-168586832D01*
X132831693Y-167552646D01*
X132855669Y-166379160D01*
X132879457Y-165089569D01*
X132902760Y-163707067D01*
X132925282Y-162254849D01*
X132946727Y-160756108D01*
X132966798Y-159234039D01*
X132985198Y-157711837D01*
X133001632Y-156212695D01*
X133015803Y-154759809D01*
X133027415Y-153376372D01*
X133036171Y-152085580D01*
X133041774Y-150910625D01*
X133043929Y-149874703D01*
X133042340Y-149001008D01*
X133036709Y-148312734D01*
X133026741Y-147833077D01*
X133016330Y-147625269D01*
X132940721Y-146720527D01*
X133617185Y-146157429D01*
X134086109Y-145749021D01*
X134599159Y-145275209D01*
X134941212Y-144942106D01*
X135320674Y-144580029D01*
X135829466Y-144129841D01*
X136484257Y-143577627D01*
X137301717Y-142909472D01*
X138298513Y-142111461D01*
X138944504Y-141600111D01*
X139432190Y-141195916D01*
X140001954Y-140694517D01*
X140557589Y-140181414D01*
X140758121Y-139988348D01*
X141609359Y-139171399D01*
X142322180Y-138522868D01*
X142925085Y-138018030D01*
X143446576Y-137632160D01*
X143566161Y-137552301D01*
X143979164Y-137271605D01*
X144367700Y-136989893D01*
X144507606Y-136881310D01*
X144781220Y-136697918D01*
X144984124Y-136626120D01*
X145007012Y-136629389D01*
G36*
X120354188Y-137817406D02*
X120730622Y-138020483D01*
X121240217Y-138330725D01*
X121847508Y-138725045D01*
X122517031Y-139180353D01*
X123213324Y-139673562D01*
X123900921Y-140181583D01*
X123969437Y-140233527D01*
X124999995Y-141012499D01*
X125973565Y-141740013D01*
X126858596Y-142392893D01*
X127623536Y-142947958D01*
X128236832Y-143382031D01*
X128504855Y-143565350D01*
X129356753Y-144146164D01*
X130084026Y-144665983D01*
X130781508Y-145194207D01*
X131398575Y-145682981D01*
X132302628Y-146409821D01*
X132389711Y-147469915D01*
X132399736Y-147734769D01*
X132406086Y-148223451D01*
X132409009Y-148913333D01*
X132408755Y-149781785D01*
X132405570Y-150806180D01*
X132399704Y-151963888D01*
X132391403Y-153232281D01*
X132380916Y-154588730D01*
X132368491Y-156010605D01*
X132354375Y-157475278D01*
X132338818Y-158960121D01*
X132322066Y-160442504D01*
X132304369Y-161899798D01*
X132285973Y-163309375D01*
X132267126Y-164648607D01*
X132248078Y-165894863D01*
X132229076Y-167025515D01*
X132210367Y-168017936D01*
X132192200Y-168849494D01*
X132174823Y-169497563D01*
X132158484Y-169939512D01*
X132143431Y-170152714D01*
X132140988Y-170164683D01*
X132111786Y-170350108D01*
X132066167Y-170744243D01*
X132008875Y-171301402D01*
X131944649Y-171975896D01*
X131891592Y-172567790D01*
X131824577Y-173296512D01*
X131759077Y-173937921D01*
X131700089Y-174448215D01*
X131652611Y-174783594D01*
X131625878Y-174897187D01*
X131477380Y-175002956D01*
X131227670Y-174958443D01*
X130841092Y-174753791D01*
X130639485Y-174624441D01*
X130094379Y-174222695D01*
X129418269Y-173660202D01*
X128645437Y-172970759D01*
X127810164Y-172188161D01*
X126946733Y-171346204D01*
X126089426Y-170478684D01*
X125272523Y-169619398D01*
X124530306Y-168802141D01*
X123897058Y-168060709D01*
X123590908Y-167675739D01*
X122790515Y-166596375D01*
X122063546Y-165531737D01*
X121386440Y-164439460D01*
X120735639Y-163277182D01*
X120087581Y-162002540D01*
X119418706Y-160573172D01*
X118705455Y-158946714D01*
X118604505Y-158709788D01*
X118423264Y-158267341D01*
X118273328Y-157852576D01*
X118149705Y-157432117D01*
X118047402Y-156972592D01*
X117961428Y-156440626D01*
X117886790Y-155802845D01*
X117818496Y-155025877D01*
X117751555Y-154076346D01*
X117680973Y-152920879D01*
X117645018Y-152295337D01*
X117560753Y-150769860D01*
X117496001Y-149467349D01*
X117452232Y-148356132D01*
X117430915Y-147404534D01*
X117433519Y-146580886D01*
X117461513Y-145853513D01*
X117516367Y-145190743D01*
X117599549Y-144560904D01*
X117712529Y-143932324D01*
X117856776Y-143273331D01*
X118033759Y-142552251D01*
X118110925Y-142251416D01*
X118429492Y-141045613D01*
X118705636Y-140067651D01*
X118949297Y-139295522D01*
X119170416Y-138707218D01*
X119378931Y-138280732D01*
X119584781Y-137994055D01*
X119797908Y-137825180D01*
X120028249Y-137752099D01*
X120146379Y-137744583D01*
X120354188Y-137817406D01*
X120354188Y-137817406D01*
G37*
X120354188Y-137817406D02*
X120730622Y-138020483D01*
X121240217Y-138330725D01*
X121847508Y-138725045D01*
X122517031Y-139180353D01*
X123213324Y-139673562D01*
X123900921Y-140181583D01*
X123969437Y-140233527D01*
X124999995Y-141012499D01*
X125973565Y-141740013D01*
X126858596Y-142392893D01*
X127623536Y-142947958D01*
X128236832Y-143382031D01*
X128504855Y-143565350D01*
X129356753Y-144146164D01*
X130084026Y-144665983D01*
X130781508Y-145194207D01*
X131398575Y-145682981D01*
X132302628Y-146409821D01*
X132389711Y-147469915D01*
X132399736Y-147734769D01*
X132406086Y-148223451D01*
X132409009Y-148913333D01*
X132408755Y-149781785D01*
X132405570Y-150806180D01*
X132399704Y-151963888D01*
X132391403Y-153232281D01*
X132380916Y-154588730D01*
X132368491Y-156010605D01*
X132354375Y-157475278D01*
X132338818Y-158960121D01*
X132322066Y-160442504D01*
X132304369Y-161899798D01*
X132285973Y-163309375D01*
X132267126Y-164648607D01*
X132248078Y-165894863D01*
X132229076Y-167025515D01*
X132210367Y-168017936D01*
X132192200Y-168849494D01*
X132174823Y-169497563D01*
X132158484Y-169939512D01*
X132143431Y-170152714D01*
X132140988Y-170164683D01*
X132111786Y-170350108D01*
X132066167Y-170744243D01*
X132008875Y-171301402D01*
X131944649Y-171975896D01*
X131891592Y-172567790D01*
X131824577Y-173296512D01*
X131759077Y-173937921D01*
X131700089Y-174448215D01*
X131652611Y-174783594D01*
X131625878Y-174897187D01*
X131477380Y-175002956D01*
X131227670Y-174958443D01*
X130841092Y-174753791D01*
X130639485Y-174624441D01*
X130094379Y-174222695D01*
X129418269Y-173660202D01*
X128645437Y-172970759D01*
X127810164Y-172188161D01*
X126946733Y-171346204D01*
X126089426Y-170478684D01*
X125272523Y-169619398D01*
X124530306Y-168802141D01*
X123897058Y-168060709D01*
X123590908Y-167675739D01*
X122790515Y-166596375D01*
X122063546Y-165531737D01*
X121386440Y-164439460D01*
X120735639Y-163277182D01*
X120087581Y-162002540D01*
X119418706Y-160573172D01*
X118705455Y-158946714D01*
X118604505Y-158709788D01*
X118423264Y-158267341D01*
X118273328Y-157852576D01*
X118149705Y-157432117D01*
X118047402Y-156972592D01*
X117961428Y-156440626D01*
X117886790Y-155802845D01*
X117818496Y-155025877D01*
X117751555Y-154076346D01*
X117680973Y-152920879D01*
X117645018Y-152295337D01*
X117560753Y-150769860D01*
X117496001Y-149467349D01*
X117452232Y-148356132D01*
X117430915Y-147404534D01*
X117433519Y-146580886D01*
X117461513Y-145853513D01*
X117516367Y-145190743D01*
X117599549Y-144560904D01*
X117712529Y-143932324D01*
X117856776Y-143273331D01*
X118033759Y-142552251D01*
X118110925Y-142251416D01*
X118429492Y-141045613D01*
X118705636Y-140067651D01*
X118949297Y-139295522D01*
X119170416Y-138707218D01*
X119378931Y-138280732D01*
X119584781Y-137994055D01*
X119797908Y-137825180D01*
X120028249Y-137752099D01*
X120146379Y-137744583D01*
X120354188Y-137817406D01*
G36*
X140130381Y-129907154D02*
X140644427Y-130235931D01*
X141150521Y-130553478D01*
X141558212Y-130803197D01*
X141640485Y-130852120D01*
X142046514Y-131104757D01*
X142419681Y-131358833D01*
X142523502Y-131436256D01*
X142807886Y-131638943D01*
X143220530Y-131911400D01*
X143653118Y-132182903D01*
X144054517Y-132449130D01*
X144365111Y-132694480D01*
X144521029Y-132868185D01*
X144524044Y-132875150D01*
X144580869Y-133139584D01*
X144631683Y-133579942D01*
X144672113Y-134116876D01*
X144697786Y-134671039D01*
X144704329Y-135163083D01*
X144687369Y-135513662D01*
X144673842Y-135593326D01*
X144541479Y-135804314D01*
X144237894Y-136132526D01*
X143797243Y-136543576D01*
X143358440Y-136917629D01*
X142757650Y-137419232D01*
X142111710Y-137970931D01*
X141510139Y-138495702D01*
X141151781Y-138816308D01*
X139753869Y-140050425D01*
X138157628Y-141391797D01*
X136683014Y-142585109D01*
X136053353Y-143094769D01*
X135374715Y-143657133D01*
X134734508Y-144199115D01*
X134278809Y-144595410D01*
X133780926Y-145024754D01*
X133418190Y-145302328D01*
X133145148Y-145456777D01*
X132916348Y-145516746D01*
X132810970Y-145520436D01*
X132459623Y-145491406D01*
X132206362Y-145437321D01*
X132046621Y-145340614D01*
X131713675Y-145113423D01*
X131238633Y-144778309D01*
X130652602Y-144357830D01*
X129986692Y-143874547D01*
X129272012Y-143351018D01*
X128539668Y-142809804D01*
X127820771Y-142273463D01*
X127245611Y-141839843D01*
X126687276Y-141421740D01*
X126038449Y-140943708D01*
X125417407Y-140492721D01*
X125267219Y-140385007D01*
X124784824Y-140038392D01*
X124347529Y-139720862D01*
X124019447Y-139479122D01*
X123909880Y-139396239D01*
X123695314Y-139239411D01*
X123315072Y-138970454D01*
X122814407Y-138621036D01*
X122238568Y-138222819D01*
X121928232Y-138009569D01*
X121173249Y-137489942D01*
X120601929Y-137085390D01*
X120187139Y-136767008D01*
X119901746Y-136505891D01*
X119718615Y-136273134D01*
X119610612Y-136039833D01*
X119550604Y-135777081D01*
X119511457Y-135455974D01*
X119508989Y-135432405D01*
X119468087Y-134836253D01*
X119455871Y-134194501D01*
X119465076Y-133851618D01*
X119496458Y-133422356D01*
X119561175Y-133166968D01*
X119702953Y-133004262D01*
X119965515Y-132853049D01*
X120016915Y-132826899D01*
X120650974Y-132495911D01*
X121392955Y-132093601D01*
X122184688Y-131652986D01*
X122968004Y-131207085D01*
X123684734Y-130788913D01*
X124276707Y-130431488D01*
X124601640Y-130224594D01*
X125052014Y-129929623D01*
X125452558Y-129673195D01*
X125730547Y-129501727D01*
X125769639Y-129479110D01*
X125898791Y-129440840D01*
X126151075Y-129408170D01*
X126543208Y-129380664D01*
X127091902Y-129357882D01*
X127813872Y-129339388D01*
X128725833Y-129324744D01*
X129844498Y-129313511D01*
X131186581Y-129305252D01*
X132608532Y-129299973D01*
X139162644Y-129281283D01*
X140130381Y-129907154D01*
X140130381Y-129907154D01*
G37*
X140130381Y-129907154D02*
X140644427Y-130235931D01*
X141150521Y-130553478D01*
X141558212Y-130803197D01*
X141640485Y-130852120D01*
X142046514Y-131104757D01*
X142419681Y-131358833D01*
X142523502Y-131436256D01*
X142807886Y-131638943D01*
X143220530Y-131911400D01*
X143653118Y-132182903D01*
X144054517Y-132449130D01*
X144365111Y-132694480D01*
X144521029Y-132868185D01*
X144524044Y-132875150D01*
X144580869Y-133139584D01*
X144631683Y-133579942D01*
X144672113Y-134116876D01*
X144697786Y-134671039D01*
X144704329Y-135163083D01*
X144687369Y-135513662D01*
X144673842Y-135593326D01*
X144541479Y-135804314D01*
X144237894Y-136132526D01*
X143797243Y-136543576D01*
X143358440Y-136917629D01*
X142757650Y-137419232D01*
X142111710Y-137970931D01*
X141510139Y-138495702D01*
X141151781Y-138816308D01*
X139753869Y-140050425D01*
X138157628Y-141391797D01*
X136683014Y-142585109D01*
X136053353Y-143094769D01*
X135374715Y-143657133D01*
X134734508Y-144199115D01*
X134278809Y-144595410D01*
X133780926Y-145024754D01*
X133418190Y-145302328D01*
X133145148Y-145456777D01*
X132916348Y-145516746D01*
X132810970Y-145520436D01*
X132459623Y-145491406D01*
X132206362Y-145437321D01*
X132046621Y-145340614D01*
X131713675Y-145113423D01*
X131238633Y-144778309D01*
X130652602Y-144357830D01*
X129986692Y-143874547D01*
X129272012Y-143351018D01*
X128539668Y-142809804D01*
X127820771Y-142273463D01*
X127245611Y-141839843D01*
X126687276Y-141421740D01*
X126038449Y-140943708D01*
X125417407Y-140492721D01*
X125267219Y-140385007D01*
X124784824Y-140038392D01*
X124347529Y-139720862D01*
X124019447Y-139479122D01*
X123909880Y-139396239D01*
X123695314Y-139239411D01*
X123315072Y-138970454D01*
X122814407Y-138621036D01*
X122238568Y-138222819D01*
X121928232Y-138009569D01*
X121173249Y-137489942D01*
X120601929Y-137085390D01*
X120187139Y-136767008D01*
X119901746Y-136505891D01*
X119718615Y-136273134D01*
X119610612Y-136039833D01*
X119550604Y-135777081D01*
X119511457Y-135455974D01*
X119508989Y-135432405D01*
X119468087Y-134836253D01*
X119455871Y-134194501D01*
X119465076Y-133851618D01*
X119496458Y-133422356D01*
X119561175Y-133166968D01*
X119702953Y-133004262D01*
X119965515Y-132853049D01*
X120016915Y-132826899D01*
X120650974Y-132495911D01*
X121392955Y-132093601D01*
X122184688Y-131652986D01*
X122968004Y-131207085D01*
X123684734Y-130788913D01*
X124276707Y-130431488D01*
X124601640Y-130224594D01*
X125052014Y-129929623D01*
X125452558Y-129673195D01*
X125730547Y-129501727D01*
X125769639Y-129479110D01*
X125898791Y-129440840D01*
X126151075Y-129408170D01*
X126543208Y-129380664D01*
X127091902Y-129357882D01*
X127813872Y-129339388D01*
X128725833Y-129324744D01*
X129844498Y-129313511D01*
X131186581Y-129305252D01*
X132608532Y-129299973D01*
X139162644Y-129281283D01*
X140130381Y-129907154D01*
G36*
X135091918Y-122100456D02*
X135247884Y-122262409D01*
X135273203Y-122306946D01*
X135384708Y-122693186D01*
X135266001Y-123034692D01*
X134906194Y-123355586D01*
X134759126Y-123445970D01*
X134215125Y-123897732D01*
X133850051Y-124497108D01*
X133672459Y-125201615D01*
X133690901Y-125968768D01*
X133913931Y-126756079D01*
X134039010Y-127022975D01*
X134276374Y-127447201D01*
X134509771Y-127812272D01*
X134645292Y-127988488D01*
X134855547Y-128293996D01*
X134832319Y-128500454D01*
X134599578Y-128608197D01*
X134338483Y-128638383D01*
X133892285Y-128667511D01*
X133322310Y-128693833D01*
X132689885Y-128715598D01*
X132056337Y-128731058D01*
X131482991Y-128738462D01*
X131031176Y-128736062D01*
X130762217Y-128722107D01*
X130738523Y-128718347D01*
X130380309Y-128633520D01*
X130241206Y-128538131D01*
X130287883Y-128383674D01*
X130402032Y-128228662D01*
X130594749Y-127911809D01*
X130791888Y-127478854D01*
X130872647Y-127258723D01*
X131013435Y-126455115D01*
X130899504Y-125660413D01*
X130531286Y-124875550D01*
X129909214Y-124101457D01*
X129063239Y-123361432D01*
X128696312Y-123082301D01*
X129034188Y-122739270D01*
X129239942Y-122545925D01*
X129418417Y-122463051D01*
X129661470Y-122474920D01*
X130055294Y-122564406D01*
X130492993Y-122639936D01*
X131085611Y-122699657D01*
X131732881Y-122734593D01*
X132014905Y-122739834D01*
X132632018Y-122735884D01*
X133073651Y-122706560D01*
X133419337Y-122638131D01*
X133748607Y-122516866D01*
X134006019Y-122396090D01*
X134518854Y-122163929D01*
X134864864Y-122066507D01*
X135091918Y-122100456D01*
X135091918Y-122100456D01*
G37*
X135091918Y-122100456D02*
X135247884Y-122262409D01*
X135273203Y-122306946D01*
X135384708Y-122693186D01*
X135266001Y-123034692D01*
X134906194Y-123355586D01*
X134759126Y-123445970D01*
X134215125Y-123897732D01*
X133850051Y-124497108D01*
X133672459Y-125201615D01*
X133690901Y-125968768D01*
X133913931Y-126756079D01*
X134039010Y-127022975D01*
X134276374Y-127447201D01*
X134509771Y-127812272D01*
X134645292Y-127988488D01*
X134855547Y-128293996D01*
X134832319Y-128500454D01*
X134599578Y-128608197D01*
X134338483Y-128638383D01*
X133892285Y-128667511D01*
X133322310Y-128693833D01*
X132689885Y-128715598D01*
X132056337Y-128731058D01*
X131482991Y-128738462D01*
X131031176Y-128736062D01*
X130762217Y-128722107D01*
X130738523Y-128718347D01*
X130380309Y-128633520D01*
X130241206Y-128538131D01*
X130287883Y-128383674D01*
X130402032Y-128228662D01*
X130594749Y-127911809D01*
X130791888Y-127478854D01*
X130872647Y-127258723D01*
X131013435Y-126455115D01*
X130899504Y-125660413D01*
X130531286Y-124875550D01*
X129909214Y-124101457D01*
X129063239Y-123361432D01*
X128696312Y-123082301D01*
X129034188Y-122739270D01*
X129239942Y-122545925D01*
X129418417Y-122463051D01*
X129661470Y-122474920D01*
X130055294Y-122564406D01*
X130492993Y-122639936D01*
X131085611Y-122699657D01*
X131732881Y-122734593D01*
X132014905Y-122739834D01*
X132632018Y-122735884D01*
X133073651Y-122706560D01*
X133419337Y-122638131D01*
X133748607Y-122516866D01*
X134006019Y-122396090D01*
X134518854Y-122163929D01*
X134864864Y-122066507D01*
X135091918Y-122100456D01*
D12*
X137961000Y-138963400D03*
D13*
X129961000Y-131963400D03*
X134961000Y-131963400D03*
X129961000Y-146463400D03*
X132461000Y-146463400D03*
X134961000Y-146463400D03*
D12*
X126961000Y-138963400D03*
D14*
X118080000Y-29490000D03*
X148082000Y-29464000D03*
D15*
X167894000Y-91186000D03*
X160894000Y-91186000D03*
D16*
X120142000Y-138938000D03*
X120650000Y-133604000D03*
X144272000Y-138176000D03*
D17*
X101124924Y-69149164D03*
X98764924Y-69629164D03*
X100264924Y-66899164D03*
X105014924Y-69559164D03*
X101904924Y-72709164D03*
D18*
X110870996Y-75885002D03*
D19*
X110870996Y-77535002D03*
D20*
X109970996Y-75935002D03*
D21*
X109970996Y-76835002D03*
D20*
X109970996Y-77735002D03*
X111770996Y-75935002D03*
X111770996Y-77735002D03*
D21*
X111770996Y-76835002D03*
D18*
X154940000Y-75250000D03*
D19*
X154940000Y-76900000D03*
D20*
X154040000Y-75300000D03*
D21*
X154040000Y-76200000D03*
D20*
X154040000Y-77100000D03*
X155840000Y-75300000D03*
X155840000Y-77100000D03*
D21*
X155840000Y-76200000D03*
D18*
X172974000Y-113096000D03*
D19*
X172974000Y-114746000D03*
D20*
X172074000Y-113146000D03*
D21*
X172074000Y-114046000D03*
D20*
X172074000Y-114946000D03*
X173874000Y-113146000D03*
X173874000Y-114946000D03*
D21*
X173874000Y-114046000D03*
D18*
X172466000Y-131760000D03*
D19*
X172466000Y-130110000D03*
D20*
X173366000Y-131710000D03*
D21*
X173366000Y-130810000D03*
D20*
X173366000Y-129910000D03*
X171566000Y-131710000D03*
X171566000Y-129910000D03*
D21*
X171566000Y-130810000D03*
D18*
X136398000Y-126807000D03*
D19*
X136398000Y-125157000D03*
D20*
X137298000Y-126757000D03*
D21*
X137298000Y-125857000D03*
D20*
X137298000Y-124957000D03*
X135498000Y-126757000D03*
X135498000Y-124957000D03*
D21*
X135498000Y-125857000D03*
D18*
X127762000Y-127061000D03*
D19*
X127762000Y-125411000D03*
D20*
X128662000Y-127011000D03*
D21*
X128662000Y-126111000D03*
D20*
X128662000Y-125211000D03*
X126862000Y-127011000D03*
X126862000Y-125211000D03*
D21*
X126862000Y-126111000D03*
D18*
X93345000Y-130998000D03*
D19*
X93345000Y-129348000D03*
D20*
X94245000Y-130948000D03*
D21*
X94245000Y-130048000D03*
D20*
X94245000Y-129148000D03*
X92445000Y-130948000D03*
X92445000Y-129148000D03*
D21*
X92445000Y-130048000D03*
D18*
X93345000Y-113731000D03*
D19*
X93345000Y-115381000D03*
D20*
X92445000Y-113781000D03*
D21*
X92445000Y-114681000D03*
D20*
X92445000Y-115581000D03*
X94245000Y-113781000D03*
X94245000Y-115581000D03*
D21*
X94245000Y-114681000D03*
M02*
