M48
;DRILL file {KiCad 4.0.6} date 04/26/17 00:01:55
;FORMAT={-:-/ absolute / metric / decimal}
FMAT,2
METRIC,TZ
T1C0.330
T2C0.500
T3C1.000
T4C2.000
T5C3.000
%
G90
G05
M71
T1
X92.71Y-123.952
X93.345Y-112.776
X93.345Y-116.586
X93.345Y-128.143
X93.345Y-131.953
X94.021Y-123.485
X96.139Y-102.616
X97.282Y-85.852
X97.282Y-131.826
X98.044Y-98.806
X98.044Y-101.092
X98.044Y-123.444
X98.171Y-84.963
X98.552Y-89.916
X98.552Y-130.556
X98.933Y-84.201
X98.984Y-121.336
X99.128Y-122.683
X99.314Y-87.249
X99.695Y-129.159
X99.822Y-95.758
X100.584Y-102.87
X100.585Y-98.299
X101.092Y-91.186
X102.108Y-120.142
X102.362Y-104.877
X102.616Y-88.392
X102.616Y-89.916
X103.387Y-93.848
X103.632Y-97.028
X103.861Y-90.932
X103.886Y-87.376
X104.902Y-100.838
X104.902Y-102.87
X104.902Y-103.632
X104.991Y-95.18
X105.156Y-104.394
X105.283Y-93.472
X105.41Y-85.979
X105.918Y-117.094
X106.769Y-90.17
X106.896Y-95.155
X107.071Y-93.613
X107.569Y-110.998
X107.696Y-96.012
X107.696Y-107.442
X108.204Y-83.312
X108.204Y-120.65
X108.687Y-114.046
X108.839Y-76.835
X108.839Y-77.851
X108.966Y-98.806
X109.347Y-84.709
X109.728Y-104.902
X110.744Y-96.774
X110.744Y-102.87
X110.871Y-74.93
X110.871Y-78.74
X111.506Y-96.799
X111.506Y-119.634
X112.001Y-112.714
X112.166Y-96.766
X112.268Y-120.396
X112.522Y-81.534
X112.522Y-95.758
X112.776Y-75.946
X112.903Y-98.806
X113.005Y-82.125
X113.284Y-96.774
X113.538Y-81.026
X113.538Y-93.545
X114.046Y-94.079
X114.562Y-95.479
X114.808Y-86.36
X115.57Y-102.108
X115.595Y-103.378
X116.307Y-94.476
X116.332Y-89.662
X116.332Y-101.473
X116.84Y-91.948
X117.065Y-94.834
X117.221Y-100.584
X117.5Y-91.948
X117.538Y-125.222
X117.538Y-126.06
X118.364Y-88.9
X119.101Y-100.457
X119.126Y-91.44
X119.126Y-112.014
X119.634Y-104.14
X119.634Y-106.934
X119.888Y-95.25
X119.888Y-96.266
X119.888Y-97.104
X120.472Y-125.222
X120.523Y-128.016
X120.65Y-105.918
X120.65Y-106.934
X121.412Y-96.012
X121.412Y-125.984
X121.666Y-100.076
X122.047Y-94.615
X122.169Y-97.282
X124.46Y-128.016
X125.476Y-102.87
X125.476Y-104.394
X125.603Y-126.746
X125.73Y-112.776
X125.984Y-87.63
X125.984Y-88.646
X127.Y-104.394
X127.254Y-87.63
X127.254Y-88.646
X127.508Y-92.71
X127.762Y-82.296
X127.762Y-124.206
X127.762Y-128.016
X128.27Y-112.776
X129.794Y-125.4
X129.794Y-126.238
X130.056Y-96.544
X130.175Y-92.71
X130.81Y-96.52
X132.461Y-111.252
X133.096Y-112.014
X133.35Y-108.712
X133.604Y-94.742
X133.985Y-100.711
X134.042Y-109.186
X134.366Y-124.968
X134.366Y-125.984
X134.493Y-93.853
X134.874Y-81.534
X135.382Y-92.964
X135.509Y-128.778
X135.522Y-106.426
X136.144Y-81.534
X136.144Y-92.202
X136.398Y-123.952
X136.398Y-127.762
X137.374Y-90.511
X137.414Y-81.534
X137.414Y-84.836
X137.414Y-105.156
X138.176Y-83.312
X138.176Y-90.551
X138.43Y-86.106
X138.557Y-127.102
X138.684Y-81.534
X139.192Y-84.074
X139.382Y-87.058
X139.446Y-82.296
X139.7Y-95.25
X143.764Y-93.472
X143.891Y-89.027
X143.98Y-95.431
X144.526Y-130.81
X145.034Y-81.153
X145.034Y-105.156
X145.288Y-130.048
X145.796Y-93.726
X146.812Y-96.52
X148.336Y-90.17
X153.162Y-105.156
X153.416Y-83.312
X153.924Y-81.026
X154.432Y-95.758
X154.432Y-97.536
X154.686Y-84.074
X154.94Y-74.295
X154.94Y-78.105
X155.194Y-100.838
X155.956Y-84.836
X155.956Y-100.33
X156.972Y-75.438
X157.226Y-85.344
X157.48Y-104.902
X158.051Y-105.735
X159.004Y-86.36
X159.314Y-106.116
X160.274Y-107.188
X160.528Y-106.172
X161.544Y-82.296
X161.544Y-85.598
X161.798Y-119.38
X162.814Y-85.852
X163.195Y-105.029
X163.83Y-122.682
X164.084Y-86.106
X164.084Y-91.186
X164.084Y-101.854
X164.084Y-109.728
X164.338Y-89.662
X164.719Y-67.818
X167.005Y-107.315
X167.132Y-126.238
X167.386Y-111.252
X168.402Y-61.722
X168.402Y-104.013
X170.434Y-111.125
X170.434Y-129.794
X170.434Y-130.81
X172.466Y-128.905
X172.466Y-132.715
X172.974Y-112.141
X172.974Y-115.951
X175.133Y-114.046
X175.514Y-120.904
T2
X98.765Y-69.629
X100.265Y-66.899
X101.125Y-69.149
X101.905Y-72.709
X105.015Y-69.559
T3
X129.961Y-131.963
X129.961Y-146.463
X132.461Y-146.463
X134.961Y-131.963
X134.961Y-146.463
T4
X126.961Y-138.963
X137.961Y-138.963
T5
X118.08Y-29.49
X148.082Y-29.464
T0
M30
